<svg xmlns="http://www.w3.org/2000/svg" xmlns:xlink="http://www.w3.org/1999/xlink" width="400" height="220" viewBox="0 0 400 220">
  <defs>
    <clipPath id="clip-path">
      <rect id="Rectangle_138" data-name="Rectangle 138" width="400" height="220" transform="translate(462)" fill="none"/>
    </clipPath>
    <linearGradient id="linear-gradient" x1="0.072" y1="0.626" x2="2.26" y2="-0.347" gradientUnits="objectBoundingBox">
      <stop offset="0.081" stop-color="#fff" stop-opacity="0"/>
      <stop offset="0.161" stop-color="#fff" stop-opacity="0.027"/>
      <stop offset="0.28" stop-color="#fff" stop-opacity="0.106"/>
      <stop offset="0.422" stop-color="#fff" stop-opacity="0.235"/>
      <stop offset="0.583" stop-color="#fff" stop-opacity="0.412"/>
      <stop offset="0.759" stop-color="#fff" stop-opacity="0.639"/>
      <stop offset="0.946" stop-color="#fff" stop-opacity="0.914"/>
      <stop offset="1" stop-color="#fff"/>
    </linearGradient>
    <linearGradient id="linear-gradient-2" x1="-1.253" y1="-7.199" x2="0.935" y2="-8.173" xlink:href="#linear-gradient"/>
    <linearGradient id="linear-gradient-3" x1="0.467" y1="0.586" x2="0.848" y2="-0.946" gradientUnits="objectBoundingBox">
      <stop offset="0" stop-color="#4b6cb7" stop-opacity="0"/>
      <stop offset="0.191" stop-color="#3c5897" stop-opacity="0.282"/>
      <stop offset="0.512" stop-color="#283e6c" stop-opacity="0.675"/>
      <stop offset="0.793" stop-color="#1c2d51" stop-opacity="0.914"/>
      <stop offset="1" stop-color="#182848"/>
    </linearGradient>
    <linearGradient id="linear-gradient-4" x1="-0.299" y1="-159.352" x2="0.69" y2="-159.352" gradientUnits="objectBoundingBox">
      <stop offset="0" stop-color="#123597"/>
      <stop offset="1" stop-color="#97abff"/>
    </linearGradient>
    <linearGradient id="linear-gradient-5" x1="0.351" y1="0.685" x2="1.034" y2="-0.36" gradientUnits="objectBoundingBox">
      <stop offset="0" stop-color="#4b6cb7" stop-opacity="0"/>
      <stop offset="1" stop-color="#182848"/>
    </linearGradient>
    <linearGradient id="linear-gradient-6" y1="0.5" x2="1" y2="0.5" gradientUnits="objectBoundingBox">
      <stop offset="0" stop-color="#dfe9f3"/>
      <stop offset="1" stop-color="#fff"/>
    </linearGradient>
    <linearGradient id="linear-gradient-7" x1="0" y1="0.5" x2="1" y2="0.5" xlink:href="#linear-gradient-6"/>
    <linearGradient id="linear-gradient-8" x1="-1.237" y1="-35.536" x2="0.369" y2="-35.536" gradientUnits="objectBoundingBox">
      <stop offset="0" stop-color="#97abff"/>
      <stop offset="1" stop-color="#1b1464"/>
    </linearGradient>
  </defs>
  <g id="add-client" transform="translate(-462)">
    <g id="Group_20" data-name="Group 20" clip-path="url(#clip-path)">
      <rect id="Rectangle_132" data-name="Rectangle 132" width="400" height="220" transform="translate(462)" fill="#374fc1"/>
      <path id="Path_36" data-name="Path 36" d="M419,56.11H643.77L747.748-47.867H427.831S421.51,53.6,419,56.11Z" fill="url(#linear-gradient)"/>
      <path id="Path_37" data-name="Path 37" d="M948.5,189.411H793.124l-71.876,71.876H942.4S946.765,191.146,948.5,189.411Z" fill="url(#linear-gradient-2)"/>
      <g id="Group_15" data-name="Group 15">
        <g id="Group_13" data-name="Group 13">
          <path id="Path_38" data-name="Path 38" d="M647.159,111.953V220h-144.4V71.5h101.9Z" fill="#e6e6e6"/>
          <path id="Path_39" data-name="Path 39" d="M647.159,111.953h-42.5V71.5Z" fill="#fff"/>
        </g>
        <g id="Group_14" data-name="Group 14">
          <rect id="Rectangle_133" data-name="Rectangle 133" width="67.593" height="13.38" rx="6.69" transform="translate(512.741 99.928)" fill="#ccc"/>
          <rect id="Rectangle_134" data-name="Rectangle 134" width="97.293" height="8.193" rx="4.097" transform="translate(512.741 135.509)" fill="#ccc"/>
          <rect id="Rectangle_135" data-name="Rectangle 135" width="117.776" height="8.193" rx="4.097" transform="translate(512.741 152.919)" fill="#ccc"/>
          <rect id="Rectangle_136" data-name="Rectangle 136" width="117.776" height="8.193" rx="4.097" transform="translate(512.741 170.329)" fill="#ccc"/>
          <rect id="Rectangle_137" data-name="Rectangle 137" width="117.776" height="8.193" rx="4.097" transform="translate(512.741 187.74)" fill="#ccc"/>
        </g>
      </g>
      <g id="Group_19" data-name="Group 19" transform="translate(-10 -2)">
        <g id="Group_17" data-name="Group 17" transform="translate(0 -15.029)">
          <g id="Group_16" data-name="Group 16" transform="translate(752.069 36.144)">
            <g id="Layer_1-2" data-name="Layer 1-2">
              <g id="pricing">
                <path id="Path_40" data-name="Path 40" d="M789.022,58.1c-.756-3.188-4.343-2.629-6.324-1.315-5.687,3.763-9.6,27.3-9.6,27.3l-8.739,7.467c-.748.562-2.083,1.235-2.167,2.166-.1.939.432,1.376,1.049,2.091l3.219,3.645a2.788,2.788,0,0,0,3.929.327l.066-.058,7.758-6.811a10.75,10.75,0,0,0,3.063-4.647C783.723,81.031,789.945,62.026,789.022,58.1Z" transform="translate(-751.096 -34.258)" fill="#2e3192"/>
                <path id="Path_41" data-name="Path 41" d="M784.792,55.987c.373,5.439.6,13.109-.865,15.008-2.325,3.031-4.877,17.3-4.877,17.3l-11.918,11.918h1.638a1.489,1.489,0,0,0,.94-.334l8.4-6.842a10.751,10.751,0,0,0,3.063-4.647c2.448-7.241,8.671-26.246,7.748-30.167C788.4,56.025,786.551,55.632,784.792,55.987Z" transform="translate(-750.619 -34.246)" fill="#171949"/>
                <path id="Path_42" data-name="Path 42" d="M822.135,174.019c2.765,8.988-22.834,21.47-22.834,21.47L755.51,177.042l32.731-17.505S819.371,165.031,822.135,174.019Z" transform="translate(-751.738 -24.271)" fill="url(#linear-gradient-3)"/>
                <path id="Path_43" data-name="Path 43" d="M816.027,140.729s-.96-10.366-1.223-13.328c-.133-1.473-.2-4.236-.235-6.913.01-.5-1-15.281-1-15.281l-31.937-.58s-.2,4.176-.323,9.363c-.129.082-.045,4.76-.052,5.13-.09,6.405-.014,11.532.707,13.767.336,1.064,1.16,4.9,1.422,6.21,1.086,5.406.824,20.706.824,20.706l-1.292,1.563-.991,4.743s5.206-1.492,14.966,2.642c0,0,1.028-8.567.933-11.43-.083-2.425-1.456-9.549-1.456-9.549l-1.31-17.593.105-5.764a.719.719,0,0,1,1.345-.4c1.46,2.64,3.727,6.834,4.475,8.773,1.222,3.2,1.521,7.72,1.956,11.172.651,5.224,10.4,16.981,10.4,16.981l2.234,4.833s5.468-4.238,11-2.873c2.26-1.229-.052-6.434-.052-6.434Z" transform="translate(-749.263 -29.554)" fill="#111337"/>
                <path id="Path_44" data-name="Path 44" d="M785.6,111.441l1.723,24.833.579,29.841a37.725,37.725,0,0,1,8.587,2.585s1.028-8.567.933-11.431c-.083-2.424-1.456-9.549-1.456-9.549l-1.31-17.592.105-5.765a.719.719,0,0,1,1.345-.4c.369.662.789,1.421,1.219,2.222l-1.539-17.173-3.734-4.183-2.168-.039Z" transform="translate(-748.843 -29.539)" fill="#0c0d25"/>
                <path id="Path_45" data-name="Path 45" d="M824.805,156.074l-10.5-15.68s-.96-10.366-1.223-13.328c-.133-1.473-.2-4.236-.235-6.913.005-.286-.28-7.861-.558-12.041l-13.146,3.718-.07,3.887.034.181,5.516,27.969,10.652,18.207.182.447s5.192-4.444,6.888-4l.385.927,2.024,2.185.105.875C827.117,161.279,824.805,156.074,824.805,156.074Z" transform="translate(-747.545 -29.219)" fill="#0c0d25"/>
                <path id="Path_46" data-name="Path 46" d="M788.8,61.022l10.343.865-1.726,7.952-4.115,7.5L791.03,84.89l-4.563-6.246Z" transform="translate(-748.759 -33.75)" fill="#fff"/>
                <path id="Path_47" data-name="Path 47" d="M790.81,81.717s-1.33,32.385.96,34.5,23.791-3.017,23.791-3.017-4.555-20.349-4.114-23.621c.367-2.766,1.944-19.618,2.423-24.7a3.6,3.6,0,0,0-.815-2.661c-1.762-2.063-8.751-6.365-9.418-5.737-.264.254-.738.1-1.112.319C796.933,60.033,790.81,81.717,790.81,81.717Z" transform="translate(-748.378 -34.193)" fill="#171949"/>
                <path id="Path_48" data-name="Path 48" d="M810.764,89.575c.368-2.765,1.945-19.618,2.423-24.7a3.6,3.6,0,0,0-.813-2.661,22.317,22.317,0,0,0-9.053-5.766c-1.958,7.857-5.778,23.637-5.694,26.537.119,3.891,6.318,17.108,6.318,17.108s2.69,14.676,1.314,15.016a.09.09,0,0,0-.084.1.094.094,0,0,0,.013.042c5.143-.965,9.708-2.057,9.708-2.057S810.325,92.847,810.764,89.575Z" transform="translate(-747.685 -34.191)" fill="#0c0d25"/>
                <path id="Path_49" data-name="Path 49" d="M799.992,94.276l6.935-1.424s.788,3.818-.162,4-6.852,1.823-6.852,1.823l-.136-2.971" transform="translate(-747.478 -30.687)" fill="#23256e"/>
                <path id="Path_50" data-name="Path 50" d="M794.847,57.383l-10.952-1.632s-5.09,9.323-2.81,19.189-4.8,40.235-4.8,40.235,11.033,2.46,13.538.247,2.254-14.534,2.254-14.534l.059-19-2.617-12.331.514-7.561Z" transform="translate(-749.739 -34.257)" fill="#171949"/>
                <path id="Path_51" data-name="Path 51" d="M763.033,100.649l2.753-2.716s-4.3-5.9-4.41-5.9l-.065.042a7.033,7.033,0,0,1-.919.512A25.38,25.38,0,0,0,763.033,100.649Z" transform="translate(-751.268 -30.766)" fill="#fff"/>
                <path id="Path_52" data-name="Path 52" d="M817.9,155.566a19.008,19.008,0,0,0-3.136,2,13.2,13.2,0,0,0-2.161,2.468,26.232,26.232,0,0,1,.025,7.9,5.659,5.659,0,0,0,.063,2.974,7.2,7.2,0,0,0,1.852,2.625c1.318.278,6.06-1.847,8.108-4.788,1.043-1.494.565-7.8.389-8.637-.092-.472-1.053-3.457-1.875-6A17.717,17.717,0,0,0,817.9,155.566Z" transform="translate(-746.258 -24.793)" fill="#090a1c"/>
                <path id="Path_53" data-name="Path 53" d="M783.769,160.552l-4.912,3.667c-1.207.914-2.688,2.337-2.958,3.485a19,19,0,0,0-.105,2.924s6.471,1.362,8.591.6,10.739-8.729,10.739-8.729S790.937,158.3,783.769,160.552Z" transform="translate(-749.787 -24.237)" fill="#090a1c"/>
                <path id="Path_54" data-name="Path 54" d="M795.494,161.87l-1.808.5s-7.977,6.405-9.958,6.845-7.878-.54-7.878-.54h0a.72.72,0,0,0-.611.725l-.033,1.772s6.044,1.39,8.893.612a61.509,61.509,0,0,0,5.708-3.171l.891-1.571.857-.624a.269.269,0,0,1,.419.255h0a.276.276,0,0,0,.413.262l2.779-1.822a2.026,2.026,0,0,0,.873-1.762h0Z" transform="translate(-749.842 -24.046)" fill="#0c0d25"/>
                <path id="Path_55" data-name="Path 55" d="M813.891,172.908a15.456,15.456,0,0,0,6.765-3.686c2.3-2.259,2.075-7.983,1.916-9.123s-1.178-4.978-1.178-4.978l1.89,1.949.807,4.183-.289.238.445.812s.656,5.012-1.613,8.081c-2.554,3.45-7.485,4.329-8.039,4.271l-.971-1.292Z" transform="translate(-746.146 -24.695)" fill="#0c0d25"/>
                <path id="Path_56" data-name="Path 56" d="M798.107,55.034h0l.1-5.579,3.342.06-.036,1.968C801.453,54.889,802.781,55.119,798.107,55.034Z" transform="translate(-747.639 -34.863)" fill="#2d2e30"/>
                <path id="Path_57" data-name="Path 57" d="M792.537,63.256a2.55,2.55,0,0,1-2.5-2.6v-.005l2.853-11.444a1.311,1.311,0,0,1,1.273-1.342l6.262.114a1.333,1.333,0,0,1,1.229,1.429,1.236,1.236,0,0,1-.026.18c-.67,4.251-.3,5.983-.05,6.606a10.148,10.148,0,0,1,.032,2.572C801.063,60.692,795.72,63.314,792.537,63.256Z" transform="translate(-748.416 -35.016)" fill="#e6e6e6"/>
                <path id="Path_58" data-name="Path 58" d="M798.312,38.8c-4.156-.425-10.049,2.753-10.049,2.753-1.5,1.528-2.631,4.222-1.615,7.933,1.181,4.311,1.5,7.031,2.9,9.691a3.7,3.7,0,0,0,3,1.886c2.015.036,4.519-1.8,5.618-4.045.956-1.961,2.14-1.295,3.214-2.2,1.515-1.306,2.559-3.128,2.889-6.423C804.355,47.423,804.067,39.386,798.312,38.8Z" transform="translate(-748.779 -35.893)" fill="#fff"/>
                <path id="Path_59" data-name="Path 59" d="M801.075,36.979c5.876,2.139,4.7,8.423,4.076,11.491-1.081,5.334-2.93,5.237-2.93,5.237s-.58-3.613-1.584-3.4c-.472.1-.775,1.012-.971,1.956l-1.09-.02a27.362,27.362,0,0,0-.059-4.344,2.287,2.287,0,0,0-2.347-2.1c-.631.089-2.791-2.21-3.8-2.223-5.961-.066-6.787,1.126-6.787,1.126C786.433,34.576,797.438,35.659,801.075,36.979Z" transform="translate(-748.843 -36.144)"/>
                <path id="Path_60" data-name="Path 60" d="M802.249,50.5c-.212,2.34-2.092,4.194-3,4s-1.367-1.9-1.03-3.828,1.335-3.007,2.247-3.159C801.923,47.268,802.422,48.542,802.249,50.5Z" transform="translate(-747.638 -35.053)" fill="#fff"/>
                <path id="Path_61" data-name="Path 61" d="M791.424,60l2.243,1.474-2.291,1.186-.041,2.253-1.658-2.22.982-2.5Z" transform="translate(-748.45 -33.848)" fill="#fff"/>
                <path id="Path_62" data-name="Path 62" d="M793.146,61.577l.343,2.054-.014.819,3.972.072,4.02-7.735S796.356,62.249,793.146,61.577Z" transform="translate(-748.116 -34.158)" fill="#fff"/>
                <path id="Path_63" data-name="Path 63" d="M793.346,61.534l.329,2.868-1.365,2.023-1.322-.024.067-3.681Z" transform="translate(-748.324 -33.701)" fill="#1b1464"/>
                <path id="Path_64" data-name="Path 64" d="M792.42,66s.266,7.453.152,7.938-1.746,6.988-1.746,6.988-2.39-4.138.272-14.939Z" transform="translate(-748.434 -33.273)" fill="url(#linear-gradient-4)"/>
                <path id="Path_65" data-name="Path 65" d="M787.138,97.918l-.065.041a6.261,6.261,0,0,1-3.966,1.06c-1.241-.107-2.545.07-2.511,1.1.025.926,2.27.533,2.885,1.354-1.535,1.512-4.941,4.047-4.941,4.047-1.431.994-.426,3.7.476,5.256s6.851-1.786,8.282-2.776l4.213-4.186S787.243,97.919,787.138,97.918Z" transform="translate(-749.591 -30.2)" fill="#fff"/>
                <path id="Path_66" data-name="Path 66" d="M788.124,106.446l2.645-2.629s-4.268-5.9-4.374-5.9l-.064.042a8.046,8.046,0,0,1-.909.513A25.35,25.35,0,0,0,788.124,106.446Z" transform="translate(-748.859 -30.2)" fill="#fff"/>
                <path id="Path_67" data-name="Path 67" d="M814.023,64.124c-.65-3.234-4.675-4.736-6.684-3.417-5.686,3.758-9.248,29.4-9.248,29.4L788.752,96.9a3.311,3.311,0,0,0-1.307,2.347,3.411,3.411,0,0,0,.81,2.59l3.224,3.646a2.783,2.783,0,0,0,3.921.328l.068-.06,8.15-7.168a10.633,10.633,0,0,0,2.713-3.733C808.949,88.859,815.692,72.386,814.023,64.124Z" transform="translate(-748.667 -33.826)" fill="#23256e"/>
                <path id="Path_68" data-name="Path 68" d="M795,105.7l8.15-7.168a10.633,10.633,0,0,0,2.713-3.733c2.638-5.994,9.369-22.462,7.7-30.724a4.853,4.853,0,0,0-2.648-3.323L804.253,90.88l-11.964,12.066.12,3.368A2.771,2.771,0,0,0,795,105.7Z" transform="translate(-748.199 -33.776)" fill="#171949"/>
                <path id="Path_69" data-name="Path 69" d="M792.821,102.65l-2.922,2.708-4.432-7.027,3.25-2.147Z" transform="translate(-748.855 -30.367)" fill="#d5d6e9"/>
                <path id="Path_70" data-name="Path 70" d="M761.384,92.378l-.065.042a6.269,6.269,0,0,1-3.966,1.06c-1.241-.107-2.545.069-2.511,1.1.025.926,2.27.534,2.885,1.354-1.536,1.512-4.941,4.047-4.941,4.047-1.431,1-.427,3.7.476,5.256s6.851-1.785,8.282-2.775l3.788-3.6S761.489,92.38,761.384,92.378Z" transform="translate(-752.069 -30.733)" fill="#fff"/>
                <path id="Path_71" data-name="Path 71" d="M768.055,96.122l-2.922,2.708L760.7,91.8l3.25-2.147Z" transform="translate(-751.238 -30.995)" fill="#d5d6e9"/>
              </g>
            </g>
          </g>
        </g>
        <g id="Group_18" data-name="Group 18">
          <path id="Path_72" data-name="Path 72" d="M725.165,193.02l-38.5,29.327L648.22,205.284l49.063-25.648Z" fill="url(#linear-gradient-5)"/>
          <g id="_Group_" data-name=" Group ">
            <path id="Path_73" data-name="Path 73" d="M698.833,70.262l-.327-11.684,1.634-2.271h10.38l6.488,1.634,5.649,3.235,2.782,2.6s6.488-1.295,9.086,7.137,7.133,11.68,7.133,11.68l3.57-1.634,4.865-6.814,3.894-2.272,4.865,4.22-6.487,9.4-9.743,6.177-10.381-7.46-2.921,4.539,2.921,10.38,1.753,8.35-.388,10.213-1.042-.094v2.272l-6.16,67.466,8.7,3.3L729.32,192.2l-13.889.719L715,189.4v-8.819l-.274-8.171.327-5.511.645-4.22,1.635-5.511-1.635-5.841-1.295-5.838h-1.948l-6.81,30.814,4.31,1.377-1.389,2.517-12.975,1.634-.327-3.567.65-7.463,1.3-4.539.972-5.515,1.945-5.838.972-4.215,1.3-3.894.323-4.216.976-5.515L705,131.237l.327-5.515.323-6.487.323-3.244V103.025l-.646-7.137V81.614l-2.6-.322-1.021-2.162-1.573-8.868Z" fill="#1b1464"/>
            <path id="Path_74" data-name="Path 74" d="M766.324,62.185v.376c-.617.572-1.226,1.144-1.834,1.683a2.274,2.274,0,0,1,.163-.437C765.2,63.284,765.768,62.728,766.324,62.185Z" fill="#e6e6e6"/>
            <path id="Path_75" data-name="Path 75" d="M759.906,68.317c1.226-1.144,2.933-2.766,4.735-4.494a2.379,2.379,0,0,0-.164.437C762.071,66.483,760.012,68.346,759.906,68.317Z" fill="url(#linear-gradient-6)"/>
            <path id="Path_76" data-name="Path 76" d="M764.31,65.057a41.307,41.307,0,0,0-4.147,3.334,1.527,1.527,0,0,1-.269-.029v-.045c.106.029,2.165-1.834,4.571-4.085C764.4,64.53,764.359,64.8,764.31,65.057Z" fill="#e6e6e6"/>
            <path id="Path_77" data-name="Path 77" d="M766.312,62.561c-.033,1.009-.123,1.985-.107,2.945a3.473,3.473,0,0,1-.588.781,7.161,7.161,0,0,1-.976,2.675h0c-.539,1.925-3.473,4.449-5.229,5.262l-.033.029a10.989,10.989,0,0,0-3.979-3.268,8.687,8.687,0,0,0-.408-1.414l-.041-.2a1.4,1.4,0,0,1,0-.523,1.653,1.653,0,0,1,.314-.694c.409-.495,1.144-.572,1.561-1.308a4.359,4.359,0,0,0,.151-2.283c1.43.212,1.985.87,1.957,1.7a2.816,2.816,0,0,1-.511,1.459h0a1.227,1.227,0,0,1-.151.257,2.31,2.31,0,0,1,.662.074c.343.089.662.224.992.285a1.448,1.448,0,0,0,.27.029,41.077,41.077,0,0,1,4.147-3.333c.044-.258.093-.527.167-.817C765.078,63.705,765.7,63.133,766.312,62.561Z" fill="#fff"/>
            <path id="Path_78" data-name="Path 78" d="M754.992,69.579a8.687,8.687,0,0,1,.408,1.414,7.708,7.708,0,0,0-1.4-.527A9.178,9.178,0,0,1,754.992,69.579Z" fill="#e6e6e6"/>
            <path id="Path_79" data-name="Path 79" d="M759.379,74.269A7.7,7.7,0,0,1,760.36,76a4.823,4.823,0,0,0-.948,1.189l-.119.057a11.829,11.829,0,0,0-5.907-5.155c-.241-.09-.466-.164-.678-.241h-.09a11.077,11.077,0,0,0,1.144-1.128l.237-.241a7.708,7.708,0,0,1,1.4.527A10.986,10.986,0,0,1,759.379,74.269Z" fill="#cce6f3"/>
            <path id="Path_80" data-name="Path 80" d="M706.427,56s-5.56-2.292-7.525,0-1.8,10.3,0,14.229S706.427,56,706.427,56Z" fill="#1b1464"/>
            <path id="Path_81" data-name="Path 81" d="M724.622,76.749c-5.952-4.085-.527-15.479,5.438-12.084a6.3,6.3,0,0,1,.874.6l.029-.028a9.653,9.653,0,0,1,1.225,1.2l-.723.2c-1.225-.376-1.969,2.075-2.087,3.186-.241,2.451,1.094,5.021,2.328,7.092,2.451,4.044,6.855,7.472,8.685,11.77.617-.858,1.115-1.969,1.728-2.827.123.616.364,1.352.482,2.087,1.226-.253,1.953-1.352,2.946-1.969,1.474-.976,2.81-1.336,4.044-2.451a39.016,39.016,0,0,0,4.763-5.38,15.035,15.035,0,0,0-5.531-3.125,1.185,1.185,0,0,0,.123-.123c.314-.3.645-.6.976-.886s.584-.511.886-.752a19.594,19.594,0,0,1,1.892-1.414c.212.078.437.152.678.242a11.829,11.829,0,0,1,5.907,5.155c.086.212.18.408.253.617-5.56,6.177-10.053,12.023-17.157,17.088a5.523,5.523,0,0,1-3.677-.662h0a62.257,62.257,0,0,0-4.146-5.678C731.31,84.592,727.972,81.271,724.622,76.749Z" fill="#140f4b"/>
            <path id="Path_82" data-name="Path 82" d="M734.027,106.521c-.225,6.128-.434,10.806-.434,11.782a7.221,7.221,0,0,1-.817.584,19.044,19.044,0,0,1-9.542,3.5c.674-3.591.857-7.467,1.6-11.058.094-.454.184-.9.274-1.352,2.328-.184,5.212-.527,7.108-1.5a6.753,6.753,0,0,0,.3-2Z" fill="#1b1464"/>
            <path id="Path_83" data-name="Path 83" d="M725.55,107.481c2.042-1.066,4.567-1.593,6.446-2.659l.409-.09a9.159,9.159,0,0,1,.163,1.74,6.753,6.753,0,0,1-.3,2c-1.9.977-4.78,1.32-7.108,1.5C725.284,109.148,725.419,108.323,725.55,107.481Z" fill="#2e3192"/>
            <path id="Path_84" data-name="Path 84" d="M742.609,87.942c-.118-.735-.359-1.471-.482-2.087-.612.858-1.111,1.969-1.728,2.827-1.83-4.3-6.234-7.725-8.685-11.77-1.225-2.071-2.569-4.641-2.328-7.092.118-1.111.858-3.562,2.087-3.186l.723-.2a6.528,6.528,0,0,1,1.291,2.271h0c.817.887,1.577,1.79,2.317,2.721.253.315.494.617.735.931a100.91,100.91,0,0,1,6.128,8.837c2.1-1.92,4.056-4.163,6.176-6.189a15.017,15.017,0,0,1,5.532,3.125,39.087,39.087,0,0,1-4.764,5.38c-1.225,1.111-2.569,1.471-4.044,2.451C744.562,86.59,743.843,87.689,742.609,87.942Z" fill="#1b1464"/>
            <path id="Path_85" data-name="Path 85" d="M718.8,191.55a14.088,14.088,0,0,0,8.085-4.342c1.609.494,4,2.132,5.874,2.312v.032a1.051,1.051,0,0,1,.817.478c.482.981-.572.981-1.225,1.144a29.627,29.627,0,0,1-5.38.9A16.763,16.763,0,0,1,718.8,191.55Z" fill="#020500"/>
            <path id="Path_86" data-name="Path 86" d="M725.55,107.481c-.119.842-.253,1.667-.409,2.5-.331.028-.633.044-.931.057.057-.617.147-1.226.237-1.879A8.748,8.748,0,0,1,725.55,107.481Z" fill="#1b1464"/>
            <path id="Path_87" data-name="Path 87" d="M721.3,47.654a12.487,12.487,0,0,1-.122-3.676,3.97,3.97,0,0,1,.588-1.022c.282.9,1.066,1.818,1.225,2.75a17.212,17.212,0,0,1-.347,4.857,7.816,7.816,0,0,0-.061,1.185C721.661,50.751,721.538,49.08,721.3,47.654Z" fill="#fff"/>
            <path id="Path_88" data-name="Path 88" d="M718.474,51.862c1.226.511,3.113,1.381,3.759,2.312a1.838,1.838,0,0,1-.678.572,25.729,25.729,0,0,1-3.064.409C718.474,54.011,718.458,52.81,718.474,51.862Z" fill="#fff"/>
            <path id="Path_89" data-name="Path 89" d="M719.242,47.773a6.655,6.655,0,0,1,.237,1.43,4.587,4.587,0,0,1,1.295-.679,30.016,30.016,0,0,1-.408-5.245c.032-1.2,1.086-1.908.408-4.163a1.046,1.046,0,0,1,.164-.106c.3.891.706,1.732.9,2.57a1.567,1.567,0,0,0-.089,1.368,4,4,0,0,0-.589,1.021,12.443,12.443,0,0,0,.123,3.677c.237,1.426.359,3.1,1.274,4.085a3.755,3.755,0,0,1-.343,2.451c-.645-.931-2.541-1.8-3.758-2.312v-.841c-.274.073-.527-.258-.768-.74a10.617,10.617,0,0,1-.78-2.553,4.536,4.536,0,0,1-.062-.78c.164-2.75,2-.707,2.345.817Z" fill="url(#linear-gradient-7)"/>
            <path id="Path_90" data-name="Path 90" d="M726.89,187.208a14.088,14.088,0,0,1-8.085,4.342,6.4,6.4,0,0,1-2.962-.122c-2.042-9.016.817-19.536,1.116-28.478.494-13.706-1.128-27.232-1.128-41.085a24.723,24.723,0,0,0,7.423.523,19.051,19.051,0,0,0,9.543-3.5C730.137,141.8,729.145,165.912,726.89,187.208Z" fill="#140f4b"/>
            <path id="Path_91" data-name="Path 91" d="M720.938,81.075c-1.112-3.428-1.835-7.333-3.546-10.621-1.847-3.444-5.891-4.78-9.437-5.891-.09-.033-.18-.062-.286-.09.494-3.338,1.532-6.193,3.591-7.08a45.857,45.857,0,0,1,5.368,1.324,51.671,51.671,0,0,1,6.851,2.859c.494.237.992.45,1.487.662a27.243,27.243,0,0,1,5.094,2.451c-5.964-3.394-11.39,7.995-5.438,12.084,3.35,4.523,6.688,7.844,9.948,11.847-.106,6.042-.331,12.546-.543,17.93l-1.487-.049a9.142,9.142,0,0,0-.164-1.74l-.408.09c-1.88,1.066-4.416,1.593-6.447,2.659a62.105,62.105,0,0,0,.662-10.474c-.858,1.225-2.57,1.593-3.677,2.688a21.427,21.427,0,0,0,1.1-6.851A48.531,48.531,0,0,0,720.938,81.075Z" fill="#140f4b"/>
            <path id="Path_92" data-name="Path 92" d="M727.49,193.94c-1.066.106-9.857-.2-12.664-1.173H714.8c.118-.645.253-1.29.343-1.8a1.63,1.63,0,0,0,.69.462,6.4,6.4,0,0,0,2.962.122,16.759,16.759,0,0,0,8.17.527,29.6,29.6,0,0,0,5.38-.9c.662-.163,1.716-.163,1.226-1.144a1.051,1.051,0,0,0-.817-.478v-.032h.274c.69,0,2.1-.106,2.1-.106A7.788,7.788,0,0,1,737.1,191.4v.106C735.485,193.486,729.067,193.756,727.49,193.94Z" fill="#14160e"/>
            <path id="Path_93" data-name="Path 93" d="M714.839,192.767c2.794.977,11.585,1.279,12.664,1.173,1.576-.184,7.994-.454,9.62-2.418,0,.567-.09,1.111-.167,2.161a18.127,18.127,0,0,1-5.381,1.744c-1.246.225-2.659.347-3.905.482-.527,0-1.226.061-1.671.045a8.012,8.012,0,0,1-1.291-.347c-.768-.27-1.8-.781-2.7-.409-.364.147-.3.719-.768.96,0,0-1.487,0-1.924-.045a10.772,10.772,0,0,1-4.7-1.25,13.054,13.054,0,0,1,.212-2.116Z" fill="#010300"/>
            <path id="Path_94" data-name="Path 94" d="M720.1,38.969c-1.6,1.4-4.4,1.671-6.385,1.34h.976c-.241-.241-.359-.5-.6-.617,1.834-.449,5.213-4.085,3.844-6.238,1.867.151,3.983-1,5.233,1.054.87,1.487-.543,3.4-2.21,4.494Z"/>
            <path id="Path_95" data-name="Path 95" d="M718.491,55.167c0,1.021.028,2.042,0,2.766a14.132,14.132,0,0,0-3.894-1.459c-.645-.151-1.323-.314-2-.449a6.506,6.506,0,0,0,1.184-1.683,5.459,5.459,0,0,0,1.684-.3,36.069,36.069,0,0,1,2.255-3.758c.241.482.494.817.768.739v.842C718.458,52.81,718.474,54.011,718.491,55.167Z" fill="#fff"/>
            <path id="Path_96" data-name="Path 96" d="M713.874,145.531c-.286-8.518-.931-20.165-.931-24.45.915.3,1.879.556,2.888.784,0,13.853,1.634,27.371,1.128,41.085-.319,8.942-3.142,19.462-1.116,28.478a1.636,1.636,0,0,1-.69-.462,1.009,1.009,0,0,1-.151-.891c-.135-.69-.568-4.64-.854-10.294-.122-2.149-.2-4.567-.257-7.137-.074-4.146,1.295-13.767,1.295-13.767-.094-4.281-.981-8.17-1.25-12.141C713.907,146.344,713.891,145.939,713.874,145.531Z" fill="#2e3192"/>
            <path id="Path_97" data-name="Path 97" d="M712.208,120.587l-.074.224c-.739-.257-1.446-.527-2.108-.817.213-3.635.5-7.353.572-11.1v-1.7C711.472,111.465,711.109,116.677,712.208,120.587Z" fill="#030203"/>
            <path id="Path_98" data-name="Path 98" d="M713.7,40.289a12.286,12.286,0,0,1-2.451-.225,3.327,3.327,0,0,1-2.088,2.929,7.039,7.039,0,0,0-.6-1.712c-2.406.719-4.572,1.2-7.064.3a17.854,17.854,0,0,1-.061-2.043h-.028a11.176,11.176,0,0,1,1.139-2.21A9.458,9.458,0,0,1,705,34.876a12.548,12.548,0,0,1,7.423-2.749,13.833,13.833,0,0,1,2.5.224,9.446,9.446,0,0,1,2.917,1.095h.1c1.369,2.149-2.01,5.789-3.844,6.238.241.119.359.376.6.617C714.373,40.305,714.042,40.305,713.7,40.289Z"/>
            <path id="Path_99" data-name="Path 99" d="M713.785,54.342a6.533,6.533,0,0,1-1.185,1.683,13.958,13.958,0,0,0-3.832-.364,6.7,6.7,0,0,0,.237-1.683,7.959,7.959,0,0,0,2.525.331c.588,0,1.172.045,1.777.045C713.454,54.354,713.637,54.354,713.785,54.342Z" fill="#fff"/>
            <path id="Path_100" data-name="Path 100" d="M719.479,49.2a6.655,6.655,0,0,0-.237-1.43h0c-.347-1.532-2.181-3.575-2.345-.817a4.542,4.542,0,0,0,.062.78,4.791,4.791,0,0,1-2.737,2.5c0-.241-.254-.735-.119-1.1a9.065,9.065,0,0,1-7.762,1.789,52.2,52.2,0,0,1-3.819-4.371h0a14.822,14.822,0,0,1-.666-2.451,19.313,19.313,0,0,1-.327-2.512c2.492.9,4.657.408,7.063-.3a7.058,7.058,0,0,1,.6,1.711,3.342,3.342,0,0,0,2.087-2.929,12.226,12.226,0,0,0,2.451.225h0c1.986.331,4.78.061,6.386-1.34l.857.045a1.012,1.012,0,0,0-.163.106c.662,2.255-.409,2.962-.409,4.163a30.118,30.118,0,0,0,.409,5.245A4.52,4.52,0,0,0,719.479,49.2Z"/>
            <path id="Path_101" data-name="Path 101" d="M706.35,50.914a9.077,9.077,0,0,0,7.761-1.789c-.134.363.119.858.119,1.1a4.791,4.791,0,0,0,2.737-2.5,10.663,10.663,0,0,0,.78,2.553,36.423,36.423,0,0,0-2.255,3.758,5.458,5.458,0,0,1-1.683.3h-.478c-.6,0-1.189-.029-1.777-.045a7.963,7.963,0,0,1-2.525-.331c-.224-.057-.494-.135-.817-.225a6.646,6.646,0,0,0-1.6-2.537A3.83,3.83,0,0,1,706.35,50.914Z"/>
            <path id="Path_102" data-name="Path 102" d="M712.6,56.025c.674.135,1.352.3,2,.449a14.132,14.132,0,0,1,3.894,1.459,28.9,28.9,0,0,1,4.988,3.623,52.767,52.767,0,0,0-6.851-2.86,45.966,45.966,0,0,0-5.376-1.319,47.926,47.926,0,0,0-4.9-.69l.044-.409a.612.612,0,0,0,.18-.135,7.413,7.413,0,0,1,2.2-.5A13.933,13.933,0,0,1,712.6,56.025Z" fill="#0e0a32"/>
            <path id="Path_103" data-name="Path 103" d="M725.55,107.481a62.207,62.207,0,0,0,.662-10.474c-.858,1.226-2.57,1.593-3.677,2.688a21.449,21.449,0,0,0,1.1-6.851,49.872,49.872,0,0,0-2.692-11.769c-1.111-3.428-1.835-7.333-3.546-10.622-1.847-3.443-5.891-4.779-9.437-5.89-.09-.033-.18-.062-.286-.09-3.052-1.054-5.56-1.761-8.117-3.518a32.58,32.58,0,0,0,.527,7.762c.482,4.449,1.368,8.338,2.21,12.832-.029.045-.045.09-.078.135.062.212.107.408.168.633.408,1.711.858,3.529,1.246,5.5h-.074c.646,3.269,1.066,17.387-.135,28.388a13.206,13.206,0,0,0,2.1,1.5c.646.408,1.414.817,2.268,1.262.69.331,1.429.69,2.238,1.021.213-3.636.5-7.353.572-11.1V107.1a.172.172,0,0,1,0,.09c.842,4.269.478,9.482,1.577,13.391l-.074.225c.254.09.54.18.818.27.915.3,1.879.555,2.888.784a24.717,24.717,0,0,0,7.422.523c.675-3.591.858-7.468,1.606-11.058.094-.454.184-.9.274-1.353-.331.029-.634.045-.932.058.057-.617.147-1.226.237-1.88A8.79,8.79,0,0,1,725.55,107.481Z" fill="url(#linear-gradient-8)"/>
            <path id="Path_104" data-name="Path 104" d="M703.9,180.316a28.4,28.4,0,0,1-4.616.3c2.676-.437,5.789-1.879,7.353-4.191l.119-.5c1.172.409,1.43,1.226,2.659,1.308C710.267,178.972,705.251,180.1,703.9,180.316Z" fill="#020500"/>
            <path id="Path_105" data-name="Path 105" d="M698.849,60.412a24.484,24.484,0,0,1,1.226-2.479,14.051,14.051,0,0,0-.515,3.006A8.331,8.331,0,0,1,698.849,60.412Z" fill="#140f4b"/>
            <path id="Path_106" data-name="Path 106" d="M699.523,70.225a26.511,26.511,0,0,1-.768-9.6,1.831,1.831,0,0,1,.094-.213c.237.2.478.36.7.527a32.533,32.533,0,0,0,.527,7.762c.482,4.449,1.368,8.338,2.21,12.831-.029.045-.045.09-.078.135C701.223,77.709,700.222,74.224,699.523,70.225Z" fill="#140f4b"/>
            <path id="Path_107" data-name="Path 107" d="M699.225,180.61a25.349,25.349,0,0,1-3.174-.241c-.135-8.146,2.091-16.426,4.751-23.955a49.583,49.583,0,0,0,2.929-9.964c.5-3.1.167-6.357.662-9.47.494-3.423,1.474-6.687,1.789-10.114.315-2.329.331-5.993,1.6-7.889.691.331,1.43.69,2.239,1.021.662.286,1.369.556,2.108.817.253.09.539.18.817.27,0,4.285.646,15.932.932,24.45,0,.408.032.817.061,1.225l-7.215,29.185-.118.5c-1.548,2.312-4.661,3.754-7.353,4.191Z" fill="#140f4b"/>
            <path id="Path_108" data-name="Path 108" d="M700.067,57.933a24.484,24.484,0,0,0-1.226,2.479.051.051,0,0,1-.045-.028,3.529,3.529,0,0,1,.074-.409h0c.482-2.042,1.576-3.534,3.676-3.5,1.291.029,2.553.1,3.771.225a48.166,48.166,0,0,1,4.9.69c-2.043.887-3.1,3.742-3.591,7.08-3.051-1.054-5.56-1.761-8.117-3.518A14.079,14.079,0,0,1,700.067,57.933Z" fill="#140f4b"/>
            <path id="Path_109" data-name="Path 109" d="M698.8,60.384s.029.028.045.028a1.831,1.831,0,0,0-.094.213A1.043,1.043,0,0,1,698.8,60.384Z" fill="#191718"/>
            <path id="Path_110" data-name="Path 110" d="M699.225,180.61a7.145,7.145,0,0,1-3.174-.061v-.18A25.349,25.349,0,0,0,699.225,180.61Z" fill="#030203"/>
            <path id="Path_111" data-name="Path 111" d="M700.8,156.414c-2.66,7.529-4.9,15.809-4.751,23.955l-.662-.09a1.609,1.609,0,0,1-.719-.817,1.424,1.424,0,0,1-.074-.453c.3-1.634.462-3.469.613-5.336.948-10.474,6.222-26.9,6.222-26.9a231.169,231.169,0,0,1,4.085-29.079c.646.409,1.414.817,2.267,1.263-1.274,1.895-1.291,5.56-1.605,7.888-.315,3.428-1.295,6.692-1.789,10.115-.495,3.113-.164,6.373-.662,9.469A49.368,49.368,0,0,1,700.8,156.414Z" fill="#2e3192"/>
            <path id="Path_112" data-name="Path 112" d="M696.051,180.369v.18a2.434,2.434,0,0,1-.662-.27Z" fill="#0d0a0c"/>
            <path id="Path_113" data-name="Path 113" d="M694.127,181.419c1.25,2.091,10.008.964,10.928.817,1.335-.27,6.536-1.156,8.055-3.2a5.932,5.932,0,0,1,.119.817,2.324,2.324,0,0,1-.241,1.446,17.429,17.429,0,0,1-4.747,1.937c-1.066.286-2.284.482-3.354.69-.433,0-1.05.123-1.426.123a4.81,4.81,0,0,1-1.082-.286c-.646-.213-1.487-.674-2.268-.241-.318.163-.3.735-.706.992,0,0-1.279.074-1.634.058a7.392,7.392,0,0,1-2.737-.45c-.45-.286-.817-.437-.944-.947a4.035,4.035,0,0,1,0-1.549h0a.34.34,0,0,1,.029-.167Z" fill="#010300"/>
            <path id="Path_114" data-name="Path 114" d="M696.051,180.549a7.145,7.145,0,0,0,3.174.061h.041a28.485,28.485,0,0,0,4.632-.294c1.369-.208,6.386-1.336,5.5-3.08a2.945,2.945,0,0,0,.376,0,14.659,14.659,0,0,0,1.789-.213c.213.106,1.789,1.7,1.593,1.969a.028.028,0,0,1-.028.029c-1.5,2.042-6.72,2.933-8.056,3.2-.919.151-9.678,1.278-10.928-.817h0a.34.34,0,0,1-.029.167,4.245,4.245,0,0,1,.585-2.1,1.6,1.6,0,0,0,.719.817A2.417,2.417,0,0,0,696.051,180.549Z" fill="#14160e"/>
          </g>
        </g>
      </g>
    </g>
  </g>
</svg>
