<svg id="Layer_1" data-name="Layer 1" xmlns="http://www.w3.org/2000/svg" width="60" height="60" viewBox="0 0 60 60"><defs><style>.cls-1{fill:#675df5;}</style></defs><title>api-libraries</title><path id="api_libraries" data-name="api libraries" class="cls-1" d="M58,23.8a21,21,0,0,0-.7-5.4l2.69-2-5.22-9L51.72,8.72a21,21,0,0,0-9.36-5.4L42,0H31.56l-.37,3.32a21,21,0,0,0-9.36,5.41L18.77,7.39l-5.22,9,2.69,2a21.29,21.29,0,0,0,0,10.81l-2.69,2,5.22,9,3.06-1.34a21.06,21.06,0,0,0,9.36,5.41l.37,3.32H42l.37-3.32a21,21,0,0,0,9.36-5.41l3.06,1.34,5.22-9-2.69-2A21.53,21.53,0,0,0,58,23.8Zm-15.7-3.19,2-1.95,5.1,5.21L44.2,29l-2-2,3.21-3.16Zm-6.15,12.9-2.73-.57,4-18.84,2.73.57ZM31.31,27l-2,2-5.21-5.1,5.1-5.21,2,1.95-3.15,3.22Z"/></svg>