<svg xmlns="http://www.w3.org/2000/svg" width="74" height="74" viewBox="0 0 74 74">
  <g id="axis" transform="translate(-501.375 -402.698)">
    <g id="Group_395" data-name="Group 395" transform="translate(-13.266 -11.393)">
      <path id="path5" d="M551.664,419.314c3.774,6.485,7.583,12.952,11.316,19.462-6.035,10.646-11.984,21.345-18.224,31.876-2.395,4.042-4.724,8.122-7.09,12.177-7.675.047-15.351.044-23.026.033.234-.525.465-1.054.748-1.554Q533.517,450.3,551.664,419.314Z" transform="translate(0 0)" fill="#bc0d4d"/>
      <path id="path23" d="M538.392,444.681c7.7,0,15.405-.058,23.108.07,4.586,8,9.319,15.907,13.865,23.927-7.7.037-15.4.008-23.105,0C547.677,460.656,542.888,452.755,538.392,444.681Z" transform="translate(13.276 14.171)" fill="#bc0d4d"/>
    </g>
    <rect id="Rectangle_281" data-name="Rectangle 281" width="74" height="74" transform="translate(501.375 402.698)" fill="none"/>
  </g>
</svg>
