<svg xmlns="http://www.w3.org/2000/svg" xmlns:xlink="http://www.w3.org/1999/xlink" width="50" height="50" viewBox="0 0 50 50">
  <defs>
    <linearGradient id="linear-gradient" x1="0.5" x2="0.5" y2="1" gradientUnits="objectBoundingBox">
      <stop offset="0" stop-color="#ffe259"/>
      <stop offset="1" stop-color="#ffa751"/>
    </linearGradient>
  </defs>
  <g id="button" transform="translate(-7709 -506)">
    <circle id="Ellipse_22" data-name="Ellipse 22" cx="25" cy="25" r="25" transform="translate(7709 506)" fill="url(#linear-gradient)"/>
    <g id="Group_138" data-name="Group 138" transform="translate(6483 -57)">
      <path id="Path_40" data-name="Path 40" d="M1261.081,577h-20.432a6.649,6.649,0,0,0-6.649,6.649v9.639a6.649,6.649,0,0,0,6.649,6.649h20.432a6.649,6.649,0,0,0,6.649-6.649v-9.639A6.649,6.649,0,0,0,1261.081,577Zm3.16,16.288a3.163,3.163,0,0,1-3.16,3.16h-20.432a3.163,3.163,0,0,1-3.16-3.16v-9.639a3.163,3.163,0,0,1,3.16-3.16h20.432a3.163,3.163,0,0,1,3.16,3.16Z" fill="#fff"/>
      <path id="Path_41" data-name="Path 41" d="M1256.8,605.667a1.8,1.8,0,1,0,1.8,1.8A1.8,1.8,0,0,0,1256.8,605.667Z" transform="translate(-13.917 -18.997)" fill="#fff"/>
      <circle id="Ellipse_12" data-name="Ellipse 12" cx="1.799" cy="1.799" r="1.799" transform="translate(1249.066 586.669)" fill="#fff"/>
      <path id="Path_42" data-name="Path 42" d="M1304.132,605.667a1.8,1.8,0,1,0,1.8,1.8A1.8,1.8,0,0,0,1304.132,605.667Z" transform="translate(-45.284 -18.997)" fill="#fff"/>
    </g>
  </g>
</svg>
