<svg xmlns="http://www.w3.org/2000/svg" xmlns:xlink="http://www.w3.org/1999/xlink" width="141.721" height="160.383" viewBox="0 0 141.721 160.383">
  <defs>
    <linearGradient id="linear-gradient" x1="0.5" y1="1" x2="0.5" y2="0.019" gradientUnits="objectBoundingBox">
      <stop offset="0" stop-color="#00c6ff"/>
      <stop offset="1" stop-color="#25f499"/>
    </linearGradient>
  </defs>
  <g id="buyer" transform="translate(-18.5 -1.19)">
    <path id="Path_1586" data-name="Path 1586" d="M155.587,161.018H23.14a4.645,4.645,0,0,1-4.64-4.645V62.607a4.65,4.65,0,0,1,1.616-3.524L86.346,2.306a4.64,4.64,0,0,1,6.035,0L158.6,59.066a4.65,4.65,0,0,1,1.617,3.524v93.766a4.645,4.645,0,0,1-4.634,4.661Z" transform="translate(0)" fill="url(#linear-gradient)"/>
    <path id="Path_1587" data-name="Path 1587" d="M150.8,251.581H69.712S47.44,223.909,88.606,197.59l21.6,1.347,21.652-1.347C173.13,223.909,150.8,251.581,150.8,251.581Z" transform="translate(-20.841 -90.563)" fill="#0094ff"/>
    <path id="Path_1588" data-name="Path 1588" d="M109.574,258.857a13.24,13.24,0,0,0-12.691-8.46H72.2A15.8,15.8,0,0,0,62.33,265.2c0,11.284,11.99,11.279,11.99,11.279h35.254Z" transform="translate(-20.211 -114.911)" fill="#fff1ff"/>
    <path id="Path_1589" data-name="Path 1589" d="M150,258.857a13.24,13.24,0,0,1,12.691-8.461h24.681a15.8,15.8,0,0,1,9.872,14.809c0,11.284-11.99,11.279-11.99,11.279H150Z" transform="translate(-60.637 -114.911)" fill="#fff1ff"/>
    <path id="Path_1590" data-name="Path 1590" d="M152.371,132.725c-20.849,8.288-41.3,8.7-61.314.048A3.772,3.772,0,0,1,88.8,129a33.071,33.071,0,0,1,65.916-.092A3.772,3.772,0,0,1,152.371,132.725Z" transform="translate(-32.41 -44.925)" fill="#2b3656"/>
    <circle id="Ellipse_39" data-name="Ellipse 39" cx="30.372" cy="30.372" r="30.372" transform="translate(58.997 57.083)" fill="#fff1ff"/>
    <path id="Path_1591" data-name="Path 1591" d="M122.859,103.766s-1.342,30.77-30.366,30.91l-1.353-6.612,5.389-11.473,8.083-8.773,12.825-5.389Z" transform="translate(-33.495 -46.683)" fill="#2b3656"/>
    <path id="Path_1592" data-name="Path 1592" d="M150,103.753s1.336,30.77,30.361,30.91l1.363-6.612-5.389-11.473-8.083-8.773L155.389,102.4Z" transform="translate(-60.637 -46.669)" fill="#2b3656"/>
    <path id="Path_1593" data-name="Path 1593" d="M146.919,109.06h0a3.012,3.012,0,0,1,2.694,0h0v-3.379l-.674-2.021h-1.353l-1.347,4.047Z" transform="translate(-58.903 -47.25)" fill="#2b3656"/>
    <rect id="Rectangle_447" data-name="Rectangle 447" width="4.726" height="8.099" rx="2.363" transform="translate(74.851 86.102)" fill="#2b3656"/>
    <rect id="Rectangle_448" data-name="Rectangle 448" width="4.726" height="8.099" rx="2.363" transform="translate(99.15 86.102)" fill="#2b3656"/>
    <path id="Path_1594" data-name="Path 1594" d="M143.02,194.841a11.236,11.236,0,0,1-7.049-2.36,1.013,1.013,0,0,1,1.331-1.525c.216.183,5.006,4.155,12.324-.113a1.013,1.013,0,1,1,1.019,1.751,15.046,15.046,0,0,1-7.625,2.247Z" transform="translate(-54.023 -87.388)" fill="#2b3656"/>
  </g>
</svg>
