<svg xmlns="http://www.w3.org/2000/svg" width="66.75" height="63.526" viewBox="0 0 66.75 63.526"><g transform="translate(0 0)"><path d="M541.918,1652.6a29.965,29.965,0,0,1-25.449-14.84l-1.095-1.857-6.448,2.737a.14.14,0,0,1-.048.011.152.152,0,0,1-.1-.053.1.1,0,0,1-.024-.093l2.547-20.56a.13.13,0,0,1,.136-.114.1.1,0,0,1,.068.029l16.529,12.484a.108.108,0,0,1,.048.118.111.111,0,0,1-.08.1l-6.56,2.773,1.725,2.487a23.539,23.539,0,0,0,18.69,10.082c.171.008.385.009.609.009a23.61,23.61,0,0,0,20.217-11.526,3.323,3.323,0,0,1,2.878-1.629,3.336,3.336,0,0,1,2.866,5.045,30.333,30.333,0,0,1-25.961,14.792Z" transform="translate(-508.752 -1589.071)" fill="#4766fa"/><path d="M577.534,1602.512a.1.1,0,0,1-.065-.027L560.942,1590a.1.1,0,0,1-.048-.115.114.114,0,0,1,.08-.107l6.571-2.771-1.728-2.49a23.5,23.5,0,0,0-19.165-10.089h-.141a23.575,23.575,0,0,0-20.433,11.883,3.338,3.338,0,0,1-5.8-3.306,30.262,30.262,0,0,1,26.233-15.26h.127a30.3,30.3,0,0,1,25.869,14.839l1.093,1.855,6.447-2.726a.169.169,0,0,1,.055-.016.147.147,0,0,1,.1.053.09.09,0,0,1,.024.087l-2.555,20.561A.13.13,0,0,1,577.534,1602.512Z" transform="translate(-513.473 -1567.746)" fill="#4766fa"/></g></svg>