<svg xmlns="http://www.w3.org/2000/svg" xmlns:xlink="http://www.w3.org/1999/xlink" width="520.559" height="536.176" viewBox="0 0 520.559 536.176">
  <defs>
    <linearGradient id="linear-gradient" x1="0.696" y1="-1.485" x2="-0.494" y2="8.071" gradientUnits="objectBoundingBox">
      <stop offset="0.111" stop-color="#f2f5fa"/>
      <stop offset="1" stop-color="#123597"/>
    </linearGradient>
    <linearGradient id="linear-gradient-2" x1="-0.296" y1="-1.012" x2="1.258" y2="1.663" gradientUnits="objectBoundingBox">
      <stop offset="0" stop-color="#6d7fab"/>
      <stop offset="0.896" stop-color="#f2f5fa"/>
    </linearGradient>
    <linearGradient id="linear-gradient-3" x1="-0.372" y1="-0.468" x2="1.33" y2="1.532" gradientUnits="objectBoundingBox">
      <stop offset="0.104" stop-color="#f2f5fa"/>
      <stop offset="0.548" stop-color="#123597"/>
    </linearGradient>
    <linearGradient id="linear-gradient-4" x1="383.95" y1="9.539" x2="272.754" y2="23.334" xlink:href="#linear-gradient"/>
    <linearGradient id="linear-gradient-5" x1="189.005" y1="7.972" x2="77.812" y2="21.767" xlink:href="#linear-gradient"/>
    <linearGradient id="linear-gradient-6" x1="1.089" y1="-2.019" x2="-0.033" y2="2.807" xlink:href="#linear-gradient"/>
    <linearGradient id="linear-gradient-7" x1="0.842" y1="-0.207" x2="-0.069" y2="1.431" gradientUnits="objectBoundingBox">
      <stop offset="0" stop-color="#dee7f7"/>
      <stop offset="0.16" stop-color="#dae4f7"/>
      <stop offset="0.304" stop-color="#cfdef7"/>
      <stop offset="0.442" stop-color="#bcd3f7"/>
      <stop offset="0.577" stop-color="#a3c4f7"/>
      <stop offset="0.71" stop-color="#81b0f8"/>
      <stop offset="0.84" stop-color="#5898f9"/>
      <stop offset="0.967" stop-color="#287cf9"/>
      <stop offset="1" stop-color="#1b74fa"/>
    </linearGradient>
    <linearGradient id="linear-gradient-8" x1="0.696" y1="-1.485" x2="-0.494" y2="8.071" xlink:href="#linear-gradient"/>
    <linearGradient id="linear-gradient-9" x1="493.855" y1="21.021" x2="382.626" y2="34.815" xlink:href="#linear-gradient"/>
    <linearGradient id="linear-gradient-10" x1="1.089" y1="-2.019" x2="-0.033" y2="2.807" xlink:href="#linear-gradient"/>
    <linearGradient id="linear-gradient-11" x1="1.15" y1="-0.771" x2="-1.241" y2="3.584" xlink:href="#linear-gradient-7"/>
    <linearGradient id="linear-gradient-12" y1="0.5" x2="1" y2="0.5" gradientUnits="objectBoundingBox">
      <stop offset="0.285" stop-color="#2095b0"/>
      <stop offset="0.933" stop-color="#3f57a6"/>
    </linearGradient>
    <linearGradient id="linear-gradient-13" x1="0.899" y1="-0.023" x2="0.412" y2="0.717" xlink:href="#linear-gradient-12"/>
    <linearGradient id="linear-gradient-14" x1="0.614" y1="1.008" x2="0.322" y2="0.171" xlink:href="#linear-gradient-12"/>
    <linearGradient id="linear-gradient-15" x1="0.877" y1="0.745" x2="-0.086" y2="0.052" xlink:href="#linear-gradient-12"/>
    <linearGradient id="linear-gradient-17" x1="0.216" y1="-0.884" x2="1.606" y2="0.325" gradientUnits="objectBoundingBox">
      <stop offset="0.285" stop-color="#2afadf"/>
      <stop offset="0.933" stop-color="#4c83ff"/>
    </linearGradient>
    <linearGradient id="linear-gradient-18" x1="0.839" y1="-0.412" x2="0.744" y2="0.555" gradientUnits="objectBoundingBox">
      <stop offset="0" stop-color="#2afadf"/>
      <stop offset="1" stop-color="#4c83ff"/>
    </linearGradient>
    <linearGradient id="linear-gradient-19" x1="1.128" y1="0.376" x2="0.586" y2="-0.483" xlink:href="#linear-gradient-18"/>
    <linearGradient id="linear-gradient-20" x1="1.31" y1="0.138" x2="-0.116" y2="0.215" xlink:href="#linear-gradient-18"/>
    <linearGradient id="linear-gradient-21" x1="-0.344" y1="-0.47" x2="1.468" y2="-0.447" gradientUnits="objectBoundingBox">
      <stop offset="0.186" stop-color="#2afadf"/>
      <stop offset="1" stop-color="#4c83ff"/>
    </linearGradient>
    <linearGradient id="linear-gradient-22" y1="0.5" x2="1" y2="0.5" gradientUnits="objectBoundingBox">
      <stop offset="0" stop-color="#76b9f0"/>
      <stop offset="0.876" stop-color="#4b82ce"/>
      <stop offset="1" stop-color="#457ac9"/>
    </linearGradient>
    <linearGradient id="linear-gradient-23" x1="-0.367" y1="-0.478" x2="1.324" y2="1.444" xlink:href="#linear-gradient-2"/>
  </defs>
  <g id="Group_685" data-name="Group 685" transform="translate(-113.993 -225)">
    <path id="Path_1472" data-name="Path 1472" d="M660.584,1071.226c-43.048-17.026-112.842-17.026-155.889,0-24.838,9.824-35.313,23.169-31.489,35.972,2.8,9.387,13.279,18.484,31.489,25.686,43.048,17.026,112.842,17.027,155.89,0,18.21-7.2,28.685-16.3,31.488-25.686C695.9,1094.4,685.422,1081.05,660.584,1071.226Z" transform="translate(-185.265 -430.777)" fill="#4766fa"/>
    <path id="Path_1473" data-name="Path 1473" d="M415.874,1216.145c-30.448-12.043-79.813-12.043-110.26,0-17.568,6.948-24.977,16.387-22.272,25.443,1.983,6.639,9.392,13.073,22.272,18.168,30.447,12.042,79.813,12.043,110.26,0,12.88-5.094,20.289-11.528,22.272-18.167C440.851,1232.532,433.441,1223.093,415.874,1216.145Z" transform="translate(-87.248 -507.611)" fill="#4766fa"/>
    <g id="Group_675" data-name="Group 675" transform="translate(287.174 459.076)">
      <path id="Path_1474" data-name="Path 1474" d="M505.515,828.583c43.048,17.026,112.842,17.026,155.889,0,18.209-7.2,28.685-16.3,31.488-25.685V795.91H474.026V802.9C476.83,812.283,487.305,821.38,505.515,828.583Z" transform="translate(-473.259 -754.154)" fill="url(#linear-gradient)"/>
      <path id="Path_1475" data-name="Path 1475" d="M660.584,722.255c-43.048-17.026-112.842-17.026-155.889,0-24.838,9.824-35.313,23.169-31.489,35.972,2.8,9.387,13.279,18.484,31.489,25.686,43.048,17.026,112.842,17.026,155.89,0,18.21-7.2,28.685-16.3,31.488-25.685C695.9,745.424,685.422,732.079,660.584,722.255Z" transform="translate(-472.438 -709.485)" fill="#d9e8ff"/>
      <path id="Path_1476" data-name="Path 1476" d="M748.833,840.862l-72.2-32,97.458,22.907Z" transform="translate(-577.979 -760.847)" fill="url(#linear-gradient-2)"/>
      <path id="Path_1477" data-name="Path 1477" d="M609.36,771.394l-82.175-35.1,11.126-4.451Z" transform="translate(-500.735 -721.039)" fill="url(#linear-gradient-3)"/>
      <path id="Path_1478" data-name="Path 1478" d="M473.207,1139.483V1129.2A17.658,17.658,0,0,0,473.207,1139.483Z" transform="translate(-472.44 -926.415)" fill="url(#linear-gradient-4)"/>
      <path id="Path_1479" data-name="Path 1479" d="M927.032,1129.2v10.287A17.658,17.658,0,0,0,927.032,1129.2Z" transform="translate(-707.398 -926.416)" fill="url(#linear-gradient-5)"/>
      <path id="Path_1480" data-name="Path 1480" d="M661.4,1062.372c-43.048-17.026-112.842-17.026-155.889,0-18.21,7.2-28.685,16.3-31.489,25.685v10.287c2.8,9.387,13.279,18.484,31.489,25.686,12.118,4.793,26.355,8.236,41.518,10.331h72.854c15.163-2.095,29.4-5.538,41.518-10.331,18.209-7.2,28.685-16.3,31.488-25.686v-10.287C690.089,1078.671,679.614,1069.574,661.4,1062.372Z" transform="translate(-473.259 -885.277)" fill="url(#linear-gradient-6)"/>
      <path id="Path_1481" data-name="Path 1481" d="M661.4,836.056c-43.048,17.026-112.842,17.026-155.89,0-18.21-7.2-28.685-16.3-31.489-25.686V974.7c2.8,9.387,13.279,18.484,31.489,25.686,12.118,4.793,26.355,8.236,41.518,10.331a273.28,273.28,0,0,0,72.854,0c15.163-2.095,29.4-5.538,41.518-10.331,18.21-7.2,28.685-16.3,31.488-25.686V810.371C690.089,819.757,679.614,828.854,661.4,836.056Z" transform="translate(-473.259 -761.628)" fill="url(#linear-gradient-7)"/>
    </g>
    <g id="Group_676" data-name="Group 676" transform="translate(195.551 578.05)">
      <path id="Path_1482" data-name="Path 1482" d="M306.194,1039.972c30.447,12.043,79.812,12.043,110.26,0,12.88-5.094,20.289-11.528,22.272-18.168v-4.942h-154.8v4.942C285.905,1028.443,293.314,1034.877,306.194,1039.972Z" transform="translate(-283.379 -987.329)" fill="url(#linear-gradient-8)"/>
      <path id="Path_1483" data-name="Path 1483" d="M415.874,964.767c-30.448-12.042-79.813-12.043-110.26,0-17.568,6.948-24.977,16.387-22.272,25.443,1.983,6.639,9.392,13.073,22.272,18.168,30.447,12.043,79.813,12.043,110.26,0,12.88-5.094,20.289-11.528,22.272-18.168C440.851,981.155,433.441,971.715,415.874,964.767Z" transform="translate(-282.799 -955.735)" fill="#d9e8ff"/>
      <path id="Path_1484" data-name="Path 1484" d="M442.33,1320.38H390.8A193.259,193.259,0,0,0,442.33,1320.38Z" transform="translate(-338.621 -1144.204)" fill="#c4d7f7"/>
      <path id="Path_1485" data-name="Path 1485" d="M604.332,1252.6v7.276A12.493,12.493,0,0,0,604.332,1252.6Z" transform="translate(-448.985 -1109.169)" fill="url(#linear-gradient-9)"/>
      <path id="Path_1486" data-name="Path 1486" d="M416.454,1205.331c-30.448-12.043-79.813-12.043-110.26,0-12.88,5.094-20.289,11.528-22.272,18.168v7.276c1.983,6.639,9.392,13.073,22.272,18.168a128.906,128.906,0,0,0,29.365,7.307h51.529a128.9,128.9,0,0,0,29.365-7.307c12.88-5.094,20.289-11.528,22.272-18.167V1223.5C436.743,1216.859,429.334,1210.425,416.454,1205.331Z" transform="translate(-283.379 -1080.072)" fill="url(#linear-gradient-10)"/>
      <path id="Path_1487" data-name="Path 1487" d="M416.454,1045.259c-30.447,12.042-79.812,12.042-110.26,0-12.88-5.094-20.289-11.528-22.272-18.167v116.227c1.983,6.639,9.392,13.073,22.272,18.168a128.912,128.912,0,0,0,29.365,7.307h51.529a128.908,128.908,0,0,0,29.365-7.307c12.88-5.094,20.289-11.528,22.272-18.167V1027.091C436.743,1033.73,429.334,1040.164,416.454,1045.259Z" transform="translate(-283.379 -992.616)" fill="url(#linear-gradient-11)"/>
    </g>
    <g id="Group_678" data-name="Group 678" transform="translate(122.702 225)">
      <g id="Group_677" data-name="Group 677" transform="translate(208.937 61.152)">
        <path id="Path_1488" data-name="Path 1488" d="M664.146,416.942l-8.709,4.516-24.92-23.932a66.739,66.739,0,0,1,6.623,12.868,60.379,60.379,0,0,1,3.539,14.23l11.734,6.774,11.734,6.775v12.851l-8.709,4.516L640.92,437.614c-1.331,10.267-6.23,16.308-13.972,18.124s-18.326-.594-31.027-7.229c8.1,13.06,16.572,27.587,25.191,42.829s17.389,31.2,26.1,47.124l-8.709,4.516-15-18.2c-7.742-13.688-15.484-27.726-23.709-42.288s-16.935-29.647-26.613-45.431l-8.709-12.8,8.709-4.516,6.048,3.492,6.048,3.492c10.645,6.146,18.81,8.765,24.556,8.381s9.073-3.771,10.04-9.638l-23.346-13.479L573.18,398.5l-8.709-8.334,8.709-4.516,22.984,13.27,22.984,13.27a45.788,45.788,0,0,0-10.313-18.071,82.938,82.938,0,0,0-20.655-16.29l-7.5-4.33-7.5-4.33-8.709-13.083,8.709-4.516,45.483,26.26,45.483,26.259v12.851Z" transform="translate(-564.471 -351.572)" fill="url(#linear-gradient-12)"/>
      </g>
      <path id="Path_1489" data-name="Path 1489" d="M535.821,465.8l-13.981,1.473-46.508-36.4a266.806,266.806,0,0,1-32.092-62.514c-7.678-21.775-12.008-43.919-12.008-64.732,0-34.445,11.858-58.843,31.116-70.623s45.918-10.943,75.52,5.083V263.2l1.75,1.011,1.75,1.011c-24.391-14.082-46.472-15.415-62.455-6.187s-25.869,29.02-25.869,57.187c0,27.087,9.144,56.985,24.063,83.859S512.721,450.8,535.821,465.8Z" transform="translate(-286.669 -225)" fill="url(#linear-gradient-13)"/>
      <path id="Path_1490" data-name="Path 1490" d="M769.327,473.828c0,33.482-11.2,57.472-29.52,69.608s-43.742,12.416-72.187-1.523V516.892l-1.441-.832-1.441-.832c23.1,11.68,43.794,11.726,58.713,2.079s24.064-28.985,24.064-56.072c0-28.167-9.886-59.374-25.87-87.059s-38.064-51.849-62.455-65.93l32.9,19,32.9,19A266.772,266.772,0,0,1,757.25,408.9C764.97,430.734,769.327,452.951,769.327,473.828Z" transform="translate(-404.49 -268.026)" fill="url(#linear-gradient-14)"/>
      <path id="Path_1491" data-name="Path 1491" d="M395.147,576.294v25.021q-.552-.274-1.1-.552t-1.1-.562l-118.523-68.43L155.9,463.342v14.979l-8.709,4.516-15.17-45.876,11.939-6.893,11.939-6.894v14.987l112.637,65.031,112.637,65.031q1.373.889,2.761,1.744t2.786,1.662q1.4.807,2.786,1.555t2.762,1.445l1.441.832Z" transform="translate(-132.019 -327.428)" fill="url(#linear-gradient-15)"/>
      <path id="Path_1492" data-name="Path 1492" d="M888.717,428.917V413.9l-118.386-68.35L651.944,277.2V252.088l118.386,68.35L884.747,386.5l-4.118-7.132,8.087-5.593,11.939,20.68L912.6,415.13l-11.939,6.893Z" transform="translate(-400.746 -239.001)" fill="url(#linear-gradient-12)"/>
    </g>
    <g id="Group_680" data-name="Group 680" transform="translate(113.993 229.516)">
      <g id="Group_679" data-name="Group 679" transform="translate(217.646 61.153)">
        <path id="Path_1493" data-name="Path 1493" d="M655.437,426.29l-33.628-19.416a63.036,63.036,0,0,1,10.161,27.1l23.467,13.549v12.851l-23.225-13.41c-2.662,20.533-19.6,24.164-45,10.895,16.209,26.12,33.87,58.106,51.289,89.953l-23.709-13.688c-15.484-27.377-30.968-56.151-50.322-87.718v-17.32l12.1,6.984c21.29,12.292,32.66,10.476,34.6-1.257l-46.692-26.958V395l45.967,26.539c-3.387-12.292-13.79-24.444-30.967-34.361l-15-8.66v-17.6l90.966,52.519Z" transform="translate(-564.471 -360.92)" fill="url(#linear-gradient-17)"/>
      </g>
      <path id="Path_1494" data-name="Path 1494" d="M517.8,475.144l-60.489-34.923c-26.78-38.668-44.1-85.619-44.1-127.246,0-68.89,47.432-97.592,106.636-65.54v25.111l3.5,2.021c-48.781-28.163-88.324-5.333-88.324,51C435.018,379.743,471.6,445.159,517.8,475.144Z" transform="translate(-268.643 -234.348)" fill="url(#linear-gradient-18)"/>
      <path id="Path_1495" data-name="Path 1495" d="M751.3,483.176c0,66.963-44.817,95.962-101.708,68.085V526.239l-2.881-1.663c46.2,23.361,82.777.181,82.777-53.993,0-56.335-39.543-124.826-88.324-152.989l65.8,37.991C733.876,394.3,751.3,441.422,751.3,483.176Z" transform="translate(-386.465 -277.374)" fill="url(#linear-gradient-19)"/>
      <path id="Path_1496" data-name="Path 1496" d="M377.121,585.642v25.021c-.736-.365-1.466-.734-2.2-1.114L137.872,472.69V487.67L113.993,446.31l23.879-13.786v14.987L363.145,577.573c1.832,1.186,3.684,2.33,5.548,3.406s3.715,2.07,5.547,3Z" transform="translate(-113.993 -336.776)" fill="url(#linear-gradient-20)"/>
      <path id="Path_1497" data-name="Path 1497" d="M870.692,438.265V423.248l-236.773-136.7V261.436l236.773,136.7.533-15.01,23.346,41.352Z" transform="translate(-382.72 -248.348)" fill="url(#linear-gradient-21)"/>
    </g>
    <g id="Group_684" data-name="Group 684" transform="translate(214.219 478.16)">
      <g id="Group_683" data-name="Group 683">
        <path id="Path_1498" data-name="Path 1498" d="M538.453,866.679a7.806,7.806,0,0,0-2.7-2.851L436.74,806.663,337.727,749.5a3.5,3.5,0,0,0-1.605-.506l0-.008-.045.011a2,2,0,0,0-1.047.236c-.011.006-.018.016-.028.023l-10.723,2.581-.827,12.033h10.459V824.7a8.445,8.445,0,0,0,3.819,6.615l5.572,3.217,5.572,3.217,11.1,17.732,3.15,26.064,11.544-2.59-1.753-14.169-1.753-14.169,82.3,47.514,72.7,41.974.307,8.92,11.113-2.884a1.946,1.946,0,0,0,.876-.228l.349-.09-.015-.184a2.929,2.929,0,0,0,.785-2.2V870.443A7.8,7.8,0,0,0,538.453,866.679Z" transform="translate(-322.477 -748.984)" fill="#365f9c"/>
        <path id="Path_1499" data-name="Path 1499" d="M523.283,869.735,325.257,755.405c-2.109-1.218-3.819-.23-3.819,2.205V830.6a8.44,8.44,0,0,0,3.819,6.615l11.144,6.434L362.2,884.859l-3.506-28.338,164.594,95.029c2.109,1.218,3.819.23,3.819-2.2V876.35A8.441,8.441,0,0,0,523.283,869.735Z" transform="translate(-321.438 -752.033)" fill="url(#linear-gradient-22)"/>
        <g id="Group_682" data-name="Group 682" transform="translate(20.236 46.48)">
          <path id="Path_1503" data-name="Path 1503" d="M377.165,851.624a17.911,17.911,0,0,1,2.792,7.02l-4.414-2.549a9.677,9.677,0,0,0-1.5-3.035,7.848,7.848,0,0,0-2.4-2.175q-1.829-1.057-2.953-.155t-1.12,3.493a10.285,10.285,0,0,0,1.12,4.773,7.657,7.657,0,0,0,2.953,3.239,3.531,3.531,0,0,0,2.4.6,2.062,2.062,0,0,0,1.5-1.275l4.414,2.549q-.634,3.012-2.792,3.78t-5.452-1.133a15.621,15.621,0,0,1-4.414-3.83,18.174,18.174,0,0,1-2.94-5.287,17.358,17.358,0,0,1-1.037-5.864,8.984,8.984,0,0,1,1.037-4.668,3.707,3.707,0,0,1,2.94-1.895,7.6,7.6,0,0,1,4.414,1.267A16.231,16.231,0,0,1,377.165,851.624Z" transform="translate(-363.323 -845.188)" fill="#fff"/>
          <path id="Path_1504" data-name="Path 1504" d="M414.954,872.881a12.086,12.086,0,0,1,1.377,5.751v9.124l-4.169-2.407v-8.562a5.861,5.861,0,0,0-.721-2.88,5.063,5.063,0,0,0-1.913-1.991q-1.27-.733-2.012-.233t-.745,2.217v8.336l-4.169-2.407V858.99l4.169,2.407v8a2.226,2.226,0,0,1,1.744-1.218,4.467,4.467,0,0,1,2.72.753A9.667,9.667,0,0,1,414.954,872.881Z" transform="translate(-383.624 -852.322)" fill="#fff"/>
          <path id="Path_1505" data-name="Path 1505" d="M443.819,896.575a10.192,10.192,0,0,1,1.658,3.181v-2.843l4.149,2.394v15.714l-4.149-2.395v-2.844a2.127,2.127,0,0,1-1.658,1.267,4.258,4.258,0,0,1-2.682-.733,10.229,10.229,0,0,1-3.012-2.711,13.827,13.827,0,0,1-2.1-4.013,14.666,14.666,0,0,1-.767-4.723,7.977,7.977,0,0,1,.767-3.853,2.865,2.865,0,0,1,2.1-1.577,4.678,4.678,0,0,1,3.012.768A9.067,9.067,0,0,1,443.819,896.575Zm-3.5,2.4q-.816.544-.818,2.344a6.716,6.716,0,0,0,.818,3.289,5.721,5.721,0,0,0,2.159,2.261,1.986,1.986,0,0,0,2.159.2,2.6,2.6,0,0,0,.84-2.3,6.666,6.666,0,0,0-.84-3.287,5.8,5.8,0,0,0-2.159-2.275A2,2,0,0,0,440.32,898.975Z" transform="translate(-400.504 -870.109)" fill="#fff"/>
          <path id="Path_1506" data-name="Path 1506" d="M477.133,913.3a4.413,4.413,0,0,1,2.67.7v5.153l-1.2-.689a3.475,3.475,0,0,0-2.571-.67q-.917.289-.916,2.233v7.153l-4.17-2.407V909.06l4.17,2.407v2.958A2.875,2.875,0,0,1,477.133,913.3Z" transform="translate(-418.951 -878.201)" fill="#fff"/>
          <path id="Path_1507" data-name="Path 1507" d="M500.007,929.013a10.21,10.21,0,0,1,1.658,3.182v-2.844l4.147,2.395v15.631a7.348,7.348,0,0,1-.732,3.533,2.778,2.778,0,0,1-2.244,1.507,6.481,6.481,0,0,1-3.756-1.126,14.617,14.617,0,0,1-4.915-4.514,13.093,13.093,0,0,1-2.208-5.823l4.122,2.38a4.805,4.805,0,0,0,.89,2.006,5.913,5.913,0,0,0,1.818,1.584,2.2,2.2,0,0,0,2.085.344q.791-.4.793-2.287v-2.76a2.129,2.129,0,0,1-1.658,1.267,4.263,4.263,0,0,1-2.683-.732,10.256,10.256,0,0,1-3.012-2.711,13.817,13.817,0,0,1-2.1-4.013,14.609,14.609,0,0,1-.768-4.723,7.957,7.957,0,0,1,.768-3.853,2.863,2.863,0,0,1,2.1-1.576,4.677,4.677,0,0,1,3.012.767A9.073,9.073,0,0,1,500.007,929.013Zm-3.5,2.4q-.818.544-.819,2.344a6.7,6.7,0,0,0,.819,3.289,5.721,5.721,0,0,0,2.157,2.261,1.985,1.985,0,0,0,2.159.2,2.591,2.591,0,0,0,.842-2.3,6.653,6.653,0,0,0-.842-3.287,5.8,5.8,0,0,0-2.159-2.275A2,2,0,0,0,496.507,931.414Z" transform="translate(-429.544 -886.876)" fill="#fff"/>
          <path id="Path_1508" data-name="Path 1508" d="M539.184,960.042l-9.438-5.45a6.277,6.277,0,0,0,.78,3,5.02,5.02,0,0,0,1.806,1.817,2.012,2.012,0,0,0,1.536.352,1.187,1.187,0,0,0,.805-.915l4.414,2.548a3.837,3.837,0,0,1-1.169,2.3,3.159,3.159,0,0,1-2.294.731,6.888,6.888,0,0,1-3.1-1.042,13.109,13.109,0,0,1-3.55-3.021,14.506,14.506,0,0,1-2.427-4.2,13.518,13.518,0,0,1-.877-4.786,6.911,6.911,0,0,1,.865-3.8,2.915,2.915,0,0,1,2.427-1.389,6.721,6.721,0,0,1,3.562,1.084,13.245,13.245,0,0,1,3.561,3.014,14.2,14.2,0,0,1,2.378,4.063,12.512,12.512,0,0,1,.841,4.471A6.549,6.549,0,0,1,539.184,960.042Zm-4.817-7.133a5.27,5.27,0,0,0-1.84-1.838,2.067,2.067,0,0,0-1.9-.31q-.756.354-.854,1.817l5.318,3.07A4.954,4.954,0,0,0,534.367,952.909Z" transform="translate(-447.235 -897.387)" fill="#fff"/>
          <path id="Path_1509" data-name="Path 1509" d="M569.882,961.469a13.884,13.884,0,0,1,2.1,4,14.628,14.628,0,0,1,.769,4.739,7.976,7.976,0,0,1-.769,3.837,2.855,2.855,0,0,1-2.1,1.591,4.675,4.675,0,0,1-3.011-.766,9.068,9.068,0,0,1-2.683-2.366,9.839,9.839,0,0,1-1.634-3.169v2.845l-4.171-2.407V948.93l4.171,2.409v7.969a2.069,2.069,0,0,1,1.634-1.281,4.266,4.266,0,0,1,2.683.732A10.263,10.263,0,0,1,569.882,961.469Zm-6.512.522a2.592,2.592,0,0,0-.84,2.316,6.7,6.7,0,0,0,.84,3.274,5.773,5.773,0,0,0,2.16,2.288,2,2,0,0,0,2.159.233q.814-.544.816-2.346a6.736,6.736,0,0,0-.816-3.288,5.733,5.733,0,0,0-2.159-2.26A2.014,2.014,0,0,0,563.37,961.99Z" transform="translate(-464.141 -898.808)" fill="#fff"/>
          <path id="Path_1510" data-name="Path 1510" d="M599.706,986.576a10.216,10.216,0,0,1,1.659,3.182v-2.844l4.147,2.394v15.715l-4.147-2.394v-2.845a2.127,2.127,0,0,1-1.659,1.268,4.257,4.257,0,0,1-2.682-.732,10.26,10.26,0,0,1-3.013-2.71,13.868,13.868,0,0,1-2.1-4.014,14.655,14.655,0,0,1-.768-4.723,7.962,7.962,0,0,1,.768-3.851,2.868,2.868,0,0,1,2.1-1.578,4.683,4.683,0,0,1,3.013.769A9.064,9.064,0,0,1,599.706,986.576Zm-3.5,2.4q-.816.54-.818,2.344a6.716,6.716,0,0,0,.818,3.287,5.715,5.715,0,0,0,2.159,2.261,1.985,1.985,0,0,0,2.159.2,2.593,2.593,0,0,0,.841-2.3,6.652,6.652,0,0,0-.841-3.287,5.8,5.8,0,0,0-2.159-2.275A2,2,0,0,0,596.206,988.978Z" transform="translate(-481.074 -916.628)" fill="#fff"/>
          <path id="Path_1511" data-name="Path 1511" d="M636.639,1009.054a14.355,14.355,0,0,1,2.244,5.9l-4.413-2.549a5.281,5.281,0,0,0-.805-2.042,4.58,4.58,0,0,0-1.537-1.449,1.476,1.476,0,0,0-1.8-.042,3.254,3.254,0,0,0-.708,2.506,7.312,7.312,0,0,0,.708,3.322,4.69,4.69,0,0,0,1.8,2.042,1.9,1.9,0,0,0,1.537.325,1.356,1.356,0,0,0,.805-1.112l4.413,2.548q-.462,2.663-2.244,3.31t-4.415-.874a13.127,13.127,0,0,1-3.548-3.021,14.512,14.512,0,0,1-2.427-4.2,13.53,13.53,0,0,1-.877-4.787,6.913,6.913,0,0,1,.865-3.8,2.914,2.914,0,0,1,2.427-1.387,6.7,6.7,0,0,1,3.561,1.084A13.1,13.1,0,0,1,636.639,1009.054Z" transform="translate(-498.765 -927.138)" fill="#fff"/>
          <path id="Path_1512" data-name="Path 1512" d="M666.076,1031.945,662,1022.919v6.676l-4.17-2.408v-20.841l4.17,2.408v11.434l4.074-3.955,4.9,2.83-5.488,4.689,5.609,11.1Z" transform="translate(-515.541 -928.483)" fill="#fff"/>
        </g>
      </g>
      <path id="Path_1513" data-name="Path 1513" d="M452.526,1047.485s-36.535-21.715-46.964-26.906l11.544-2.59,47.717,27.085Z" transform="translate(-364.918 -888.021)" fill="url(#linear-gradient-23)"/>
    </g>
  </g>
</svg>
