<svg xmlns="http://www.w3.org/2000/svg" width="26.272" height="34.541" viewBox="0 0 26.272 34.541">
  <g id="client" transform="translate(-41.895)">
    <path id="Path_182" data-name="Path 182" d="M111.489,16.893c3.84,0,6.954-3.782,6.954-8.446S117.421,0,111.489,0s-6.954,3.782-6.954,8.446S107.649,16.893,111.489,16.893Z" transform="translate(-56.458)" fill="#2a4b75"/>
    <path id="Path_183" data-name="Path 183" d="M41.9,300.518c0-.284,0-.08,0,0Z" transform="translate(0 -270.729)" fill="#2a4b75"/>
    <path id="Path_184" data-name="Path 184" d="M308.085,301.745c0-.078,0-.54,0,0Z" transform="translate(-239.92 -271.733)" fill="#2a4b75"/>
    <path id="Path_185" data-name="Path 185" d="M68.162,189.647c-.129-8.126-1.19-10.442-9.311-11.907a4.868,4.868,0,0,1-3.808,1.457,4.869,4.869,0,0,1-3.808-1.457c-8.033,1.45-9.159,3.731-9.307,11.643-.012.646-.018.68-.02.605,0,.141,0,.4,0,.854,0,0,1.934,3.9,13.133,3.9s13.133-3.9,13.133-3.9c0-.291,0-.494,0-.632A5.223,5.223,0,0,1,68.162,189.647Z" transform="translate(-0.012 -160.199)" fill="#2a4b75"/>
  </g>
</svg>
