<svg id="Layer_1" data-name="Layer 1" xmlns="http://www.w3.org/2000/svg" width="80" height="80" viewBox="0 0 80 80"><defs><style>.cls-1{fill:#1976d2;}</style></defs><title>company</title><g id="company"><path id="Path_156" data-name="Path 156" class="cls-1" d="M18,20.64h3V3H77v55.9H71.39v3H80V0H18Z"/><path id="Path_157" data-name="Path 157" class="cls-1" d="M27.09,61.94h3V19L46.25,28.9v33h3V27.2L27.09,13.54Z"/><path id="Path_158" data-name="Path 158" class="cls-1" d="M51.13,36.64l8.71,6.42V61.94h3V41.52l-10-7.33Z"/><rect id="Rectangle_155" data-name="Rectangle 155" class="cls-1" x="34.02" y="51.62" width="8.35" height="10.31"/><rect id="Rectangle_156" data-name="Rectangle 156" class="cls-1" x="32.54" y="39.22" width="3.64" height="2.73"/><rect id="Rectangle_157" data-name="Rectangle 157" class="cls-1" x="32.54" y="44.67" width="3.64" height="2.73"/><rect id="Rectangle_158" data-name="Rectangle 158" class="cls-1" x="40.2" y="39.22" width="3.64" height="2.73"/><rect id="Rectangle_159" data-name="Rectangle 159" class="cls-1" x="40.2" y="44.67" width="3.64" height="2.73"/><rect id="Rectangle_160" data-name="Rectangle 160" class="cls-1" x="32.54" y="27.85" width="3.64" height="2.73"/><rect id="Rectangle_161" data-name="Rectangle 161" class="cls-1" x="32.54" y="33.3" width="3.64" height="2.73"/><rect id="Rectangle_162" data-name="Rectangle 162" class="cls-1" x="40.2" y="33.3" width="3.64" height="2.73"/><rect id="Rectangle_163" data-name="Rectangle 163" class="cls-1" x="53.43" y="51.21" width="3.64" height="2.73"/><rect id="Rectangle_164" data-name="Rectangle 164" class="cls-1" x="53.43" y="56.67" width="3.64" height="2.73"/><rect id="Rectangle_165" data-name="Rectangle 165" class="cls-1" x="53.43" y="45.3" width="3.64" height="2.73"/></g></svg>