<svg xmlns="http://www.w3.org/2000/svg" width="334.29" height="564.73" viewBox="0 0 334.29 564.73"><defs><style>.cls-1,.cls-11{isolation:isolate;}.cls-2{fill:#374fc1;}.cls-3{fill:#4b67eb;}.cls-11,.cls-4,.cls-5,.cls-8{fill:#fff;}.cls-5{stroke:#0767f6;}.cls-10,.cls-11,.cls-5,.cls-8{stroke-miterlimit:10;}.cls-6{fill:#183963;}.cls-7{fill:#152e4d;}.cls-10,.cls-11,.cls-8{stroke:#9dafc6;}.cls-9{fill:#63bc62;}.cls-10{fill:none;}.cls-11{stroke-width:0.25px;}</style></defs><g id="Layer_2" data-name="Layer 2"><g id="Layer_1-2" data-name="Layer 1"><rect class="cls-2" width="334.29" height="564.73" rx="26.82"/><circle class="cls-3" cx="167.15" cy="525.59" r="21.78"/><path class="cls-3" d="M127.15,21.73h80a6.51,6.51,0,0,1,6.5,6.5h0a6.51,6.51,0,0,1-6.5,6.5h-80a6.5,6.5,0,0,1-6.5-6.5h0A6.5,6.5,0,0,1,127.15,21.73Z"/><circle class="cls-3" cx="102.01" cy="28.23" r="6.14"/><rect class="cls-4" x="22.15" y="45.86" width="290" height="448" rx="8.32"/><rect class="cls-5" x="46.65" y="107.86" width="242" height="44" rx="8.92"/><g class="cls-1"><path class="cls-6" d="M57.22,94.62H50.53l-1.38,3.21h-2.5l6.19-13.69h2l6.21,13.69H58.59Zm-.83-1.92-2.51-5.87L51.36,92.7Z"/><path class="cls-6" d="M75.89,84.14V97.83h-2.2v-8.5l-3.63,8.5H68.43l-3.66-8.4v8.4H62.58V84.14h2l4.71,10.71,4.67-10.71Z"/><path class="cls-6" d="M81.51,97.15a5.76,5.76,0,0,1-2.27-2.44,9.15,9.15,0,0,1,0-7.46,5.55,5.55,0,0,1,2.26-2.43,7.51,7.51,0,0,1,6.94,0,5.52,5.52,0,0,1,2.25,2.43,9.36,9.36,0,0,1,0,7.46,5.78,5.78,0,0,1-2.25,2.44,7.45,7.45,0,0,1-6.91,0Zm6.41-2.43A5.89,5.89,0,0,0,89,91a5.76,5.76,0,0,0-1-3.72,4,4,0,0,0-5.92,0A5.72,5.72,0,0,0,80.94,91,5.83,5.83,0,0,0,82,94.72a4,4,0,0,0,5.92,0Z"/><path class="cls-6" d="M95.37,96.55a5.77,5.77,0,0,1-1.46-4.26V84.14h2.45v8.29a3.87,3.87,0,0,0,.82,2.68,3.14,3.14,0,0,0,2.46.91,3.07,3.07,0,0,0,2.43-.92,3.85,3.85,0,0,0,.84-2.67V84.14h2.44v8.15a6,6,0,0,1-10,4.26Z"/><path class="cls-6" d="M119.75,84.14V97.83H117.9l-7.38-9.59v9.59h-2.31V84.14h1.85l7.36,9.58V84.14Z"/><path class="cls-6" d="M125.94,86.18h-4.46v-2h11.43v2h-4.47V97.83h-2.5Z"/></g><g class="cls-1"><path class="cls-7" d="M78,125.28H74.82a2.9,2.9,0,0,1,1.1,1.79h2v1.15H76a3.58,3.58,0,0,1-1,2.46,4.35,4.35,0,0,1-2.55,1.19,2.32,2.32,0,0,1,.94.5,4.68,4.68,0,0,1,.83,1l3,4.48H75.3l-2.88-4.38a3.14,3.14,0,0,0-1-1.11A2.91,2.91,0,0,0,69.9,132H67.12V130.7h4.19c2,0,3-.83,3.11-2.48h-7.3v-1.15H74.3c-.3-1.2-1.3-1.79-3-1.79H67.12v-1.14H78Z"/><path class="cls-7" d="M91.92,129.79a3.7,3.7,0,0,1,1.49,1.52,4.75,4.75,0,0,1,.52,2.27,4.55,4.55,0,0,1-.57,2.29,3.88,3.88,0,0,1-1.61,1.55,5.3,5.3,0,0,1-2.45.54,7,7,0,0,1-2.46-.45,5.79,5.79,0,0,1-2-1.24l.6-1.21a6.05,6.05,0,0,0,3.9,1.58,3,3,0,0,0,2.26-.82,3,3,0,0,0,.81-2.22,3.07,3.07,0,0,0-.8-2.2,2.86,2.86,0,0,0-2.16-.84,3.71,3.71,0,0,0-3.13,1.6h-1.1v-8h8.21v1.31H86.76v4.88a4,4,0,0,1,2.9-1.09A4.48,4.48,0,0,1,91.92,129.79Z"/><path class="cls-7" d="M97.05,136.21a11.78,11.78,0,0,1,0-10.44,4.46,4.46,0,0,1,7.13,0,9.12,9.12,0,0,1,1.22,5.2,9.25,9.25,0,0,1-1.22,5.23,4.47,4.47,0,0,1-7.13,0Zm6-.94a12.23,12.23,0,0,0,0-8.57,2.82,2.82,0,0,0-4.83,0,8.93,8.93,0,0,0-.78,4.27,9.1,9.1,0,0,0,.78,4.29,2.78,2.78,0,0,0,4.82,0Z"/><path class="cls-7" d="M108.58,136.21a11.78,11.78,0,0,1,0-10.44,4.47,4.47,0,0,1,7.14,0,9.2,9.2,0,0,1,1.22,5.2,9.34,9.34,0,0,1-1.22,5.23,4.48,4.48,0,0,1-7.14,0Zm6-.94a12.23,12.23,0,0,0,0-8.57,2.82,2.82,0,0,0-4.83,0A8.93,8.93,0,0,0,109,131a9.1,9.1,0,0,0,.78,4.29,2.78,2.78,0,0,0,4.82,0Z"/><path class="cls-7" d="M120.12,136.21a11.78,11.78,0,0,1,0-10.44,4.46,4.46,0,0,1,7.13,0,9.2,9.2,0,0,1,1.22,5.2,9.34,9.34,0,0,1-1.22,5.23,4.47,4.47,0,0,1-7.13,0Zm6-.94a9.21,9.21,0,0,0,.77-4.3,9.09,9.09,0,0,0-.76-4.27,2.83,2.83,0,0,0-4.84,0,8.93,8.93,0,0,0-.78,4.27,9.1,9.1,0,0,0,.78,4.29,2.79,2.79,0,0,0,4.83,0Z"/></g><rect class="cls-8" x="46.65" y="213.86" width="242" height="44" rx="8.92"/><g class="cls-1"><path class="cls-6" d="M48.13,190.14h5.94a5.1,5.1,0,0,1,3.44,1.07,4.06,4.06,0,0,1,0,5.83,5.06,5.06,0,0,1-3.43,1.08H50.61v5.71H48.13Zm5.65,6.06a3.08,3.08,0,0,0,1.95-.53,1.84,1.84,0,0,0,.66-1.53,1.87,1.87,0,0,0-.65-1.55,3.08,3.08,0,0,0-2-.52H50.61v4.13Z"/><path class="cls-6" d="M68.56,200.62H61.87l-1.38,3.21H58l6.19-13.69h2l6.21,13.69H69.93Zm-.83-1.92-2.51-5.87L62.7,198.7Z"/><path class="cls-6" d="M78.1,198.41v5.42H75.62v-5.42l-5.56-8.27h2.83l4,6.19,4-6.19h2.83Z"/><path class="cls-6" d="M97.72,190.14v13.69H95.53v-8.5l-3.63,8.5H90.26l-3.65-8.4v8.4H84.42V190.14h2l4.71,10.71,4.67-10.71Z"/><path class="cls-6" d="M100.72,190.14h9.15v2h-6.73v3.79h6.32v2h-6.32v4h6.73v2h-9.15Z"/><path class="cls-6" d="M123.69,190.14v13.69h-1.85l-7.38-9.59v9.59h-2.3V190.14H114l7.36,9.58v-9.58Z"/><path class="cls-6" d="M129.88,192.18h-4.46v-2h11.43v2h-4.47v11.65h-2.5Z"/><path class="cls-6" d="M143.83,190.14h8.94v2h-6.48v3.75h6.09v2h-6.09v6h-2.46Z"/><path class="cls-6" d="M157.26,203.15a5.76,5.76,0,0,1-2.27-2.44,9.15,9.15,0,0,1,0-7.46,5.55,5.55,0,0,1,2.26-2.43,7.51,7.51,0,0,1,6.94,0,5.52,5.52,0,0,1,2.25,2.43,9.36,9.36,0,0,1,0,7.46,5.78,5.78,0,0,1-2.25,2.44,7.45,7.45,0,0,1-6.91,0Zm6.41-2.43a5.89,5.89,0,0,0,1.06-3.75,5.76,5.76,0,0,0-1.06-3.72,4,4,0,0,0-5.92,0,5.72,5.72,0,0,0-1.06,3.73,5.83,5.83,0,0,0,1.06,3.75,4,4,0,0,0,5.92,0Z"/><path class="cls-6" d="M181,203.83h-2.62l-1.75-4.56a1.52,1.52,0,0,0-.71-.88,2.67,2.67,0,0,0-1.25-.25H172.2v5.69h-2.46V190.14h5.86a5.38,5.38,0,0,1,3.54,1,3.61,3.61,0,0,1,1.21,2.92,3.73,3.73,0,0,1-.72,2.32,3.92,3.92,0,0,1-2,1.36,2.38,2.38,0,0,1,1.75,1.69Zm-5.75-7.61a3.4,3.4,0,0,0,2.07-.52,1.87,1.87,0,0,0,.68-1.58,1.79,1.79,0,0,0-.67-1.54,3.4,3.4,0,0,0-2.08-.51h-3.1v4.15Z"/></g><g class="cls-1"><path class="cls-7" d="M79.15,241.83H77.28L73,236l-4.23,5.81H66.92l5.21-7-5-6.67h1.89l4,5.5,4-5.5h1.87l-5,6.69Z"/><path class="cls-7" d="M85.84,236.29v5.54H84.26v-5.56l-5.38-8.13h1.84l4.35,6.73,4.34-6.73h1.81Z"/><path class="cls-7" d="M101.62,240.5v1.33H91.76v-1.17l7.84-11.19H91.76v-1.33h9.67v1.16l-7.85,11.2Z"/></g><g class="cls-1"><path class="cls-6" d="M110.59,293.38v11h-1.76v-6.85l-2.93,6.85h-1.32l-2.94-6.77v6.77H99.87v-11h1.58l3.8,8.63,3.76-8.63Z"/><path class="cls-6" d="M114.12,303.38A4.64,4.64,0,0,1,113,300v-6.57h2v6.68a3.14,3.14,0,0,0,.67,2.16,2.54,2.54,0,0,0,2,.74,2.5,2.5,0,0,0,2-.75,3.08,3.08,0,0,0,.68-2.15v-6.68h2V300a4.88,4.88,0,0,1-8,3.43Z"/><path class="cls-6" d="M124.47,293.38h2v9.39h5.16v1.64h-7.16Z"/><path class="cls-6" d="M133.79,295h-3.6v-1.64h9.22V295H135.8v9.39h-2Z"/><path class="cls-6" d="M140.79,293.38h2v11h-2Z"/><path class="cls-6" d="M145.17,293.38H150a4.1,4.1,0,0,1,2.77.86,2.93,2.93,0,0,1,1,2.35,3,3,0,0,1-1,2.35,4.09,4.09,0,0,1-2.77.87h-2.79v4.6h-2Zm4.56,4.88a2.51,2.51,0,0,0,1.57-.42,1.7,1.7,0,0,0,0-2.48,2.44,2.44,0,0,0-1.58-.43h-2.56v3.33Z"/><path class="cls-6" d="M155.49,293.38h2v9.39h5.16v1.64h-7.16Z"/><path class="cls-6" d="M164.17,293.38h7.37V295h-5.42V298h5.1v1.58h-5.1v3.24h5.42v1.58h-7.37Z"/><path class="cls-6" d="M179.79,303.86a4.68,4.68,0,0,1-1.86-2,7.2,7.2,0,0,1,0-6,4.6,4.6,0,0,1,1.86-2,5.67,5.67,0,0,1,2.85-.69,6.34,6.34,0,0,1,2.1.35,4.53,4.53,0,0,1,1.63,1l-.65,1.46a5.15,5.15,0,0,0-1.48-.88,4.5,4.5,0,0,0-1.57-.27,3,3,0,0,0-2.47,1,4.44,4.44,0,0,0-.88,3,4.59,4.59,0,0,0,.87,3,3,3,0,0,0,2.48,1.05,4.51,4.51,0,0,0,1.57-.28,5.34,5.34,0,0,0,1.48-.87l.65,1.46a4.52,4.52,0,0,1-1.63,1,6.09,6.09,0,0,1-2.1.35A5.67,5.67,0,0,1,179.79,303.86Z"/><path class="cls-6" d="M189.35,303.38a4.64,4.64,0,0,1-1.17-3.43v-6.57h2v6.68a3.09,3.09,0,0,0,.67,2.16,2.53,2.53,0,0,0,2,.74,2.5,2.5,0,0,0,2-.75,3.08,3.08,0,0,0,.67-2.15v-6.68h2V300a4.13,4.13,0,0,1-4.6,4.6A4.68,4.68,0,0,1,189.35,303.38Z"/><path class="cls-6" d="M201.07,304.21a5.62,5.62,0,0,1-1.89-1l.68-1.46a5.85,5.85,0,0,0,1.69.89,6.12,6.12,0,0,0,1.91.29,3.26,3.26,0,0,0,1.77-.41,1.27,1.27,0,0,0,.63-1.13,1,1,0,0,0-.58-.95,7.48,7.48,0,0,0-1.91-.63,7.83,7.83,0,0,1-3-1.16,2.46,2.46,0,0,1-.95-2.08,3,3,0,0,1,.53-1.73,3.42,3.42,0,0,1,1.49-1.19,5.43,5.43,0,0,1,2.24-.44,7,7,0,0,1,2.21.35,4.56,4.56,0,0,1,1.71,1l-.67,1.46a5,5,0,0,0-3.25-1.18,2.92,2.92,0,0,0-1.69.44,1.39,1.39,0,0,0-.62,1.2,1.12,1.12,0,0,0,.55,1,6.64,6.64,0,0,0,1.88.64,13.19,13.19,0,0,1,2.25.7,3.37,3.37,0,0,1,1.33,1,2.35,2.35,0,0,1,.47,1.49,2.91,2.91,0,0,1-.53,1.73,3.39,3.39,0,0,1-1.52,1.14,6.16,6.16,0,0,1-2.34.4A7.9,7.9,0,0,1,201.07,304.21Z"/><path class="cls-6" d="M212,295h-3.59v-1.64h9.22V295h-3.61v9.39h-2Z"/><path class="cls-6" d="M220.51,303.86a4.63,4.63,0,0,1-1.83-2,6.65,6.65,0,0,1-.64-3,6.76,6.76,0,0,1,.63-3,4.6,4.6,0,0,1,1.82-2,6.1,6.1,0,0,1,5.6,0,4.52,4.52,0,0,1,1.81,2,6.76,6.76,0,0,1,.63,3,6.65,6.65,0,0,1-.64,3,4.52,4.52,0,0,1-1.81,2,6,6,0,0,1-5.57,0Zm5.17-2a5.75,5.75,0,0,0,0-6,2.94,2.94,0,0,0-2.39-1,2.87,2.87,0,0,0-2.38,1,4.6,4.6,0,0,0-.86,3,4.68,4.68,0,0,0,.86,3,2.86,2.86,0,0,0,2.38,1.06A2.89,2.89,0,0,0,225.68,301.9Z"/><path class="cls-6" d="M241.33,293.38v11h-1.77v-6.85l-2.93,6.85h-1.31l-2.95-6.77v6.77H230.6v-11h1.59L236,302l3.77-8.63Z"/><path class="cls-6" d="M243.74,293.38h7.38V295H245.7V298h5.09v1.58H245.7v3.24h5.42v1.58h-7.38Z"/><path class="cls-6" d="M262,304.41h-2.11l-1.41-3.67A1.19,1.19,0,0,0,258,300a2.11,2.11,0,0,0-1-.2h-2v4.58h-2v-11h4.73a4.36,4.36,0,0,1,2.85.82,2.91,2.91,0,0,1,1,2.36,3,3,0,0,1-.59,1.86,3.07,3.07,0,0,1-1.65,1.1,1.93,1.93,0,0,1,1.41,1.36Zm-4.63-6.13a2.72,2.72,0,0,0,1.67-.42,1.5,1.5,0,0,0,.54-1.27,1.46,1.46,0,0,0-.53-1.25,2.81,2.81,0,0,0-1.68-.41h-2.5v3.35Z"/></g><path class="cls-9" d="M56,288.86h23.2c5.15,0,9.32,4.6,9.32,10.28h0c0,5.68-4.17,10.29-9.32,10.29H56c-5.15,0-9.32-4.61-9.32-10.29h0C46.65,293.46,50.82,288.86,56,288.86Z"/><circle class="cls-4" cx="77.76" cy="298.89" r="9.24"/><g class="cls-1"><path class="cls-6" d="M101.19,342.21a5.67,5.67,0,0,1-1.88-1l.68-1.46a5.93,5.93,0,0,0,1.68.89,6.23,6.23,0,0,0,1.92.29,3.26,3.26,0,0,0,1.77-.41,1.27,1.27,0,0,0,.63-1.13,1,1,0,0,0-.58-.95,7.62,7.62,0,0,0-1.91-.63,7.89,7.89,0,0,1-3-1.16,2.45,2.45,0,0,1-.94-2.08,2.88,2.88,0,0,1,.53-1.73,3.37,3.37,0,0,1,1.49-1.19,5.43,5.43,0,0,1,2.24-.44,7.05,7.05,0,0,1,2.21.35,4.64,4.64,0,0,1,1.71,1L107,334a5,5,0,0,0-3.25-1.18,2.9,2.9,0,0,0-1.69.44,1.39,1.39,0,0,0-.62,1.2,1.1,1.1,0,0,0,.55,1,6.52,6.52,0,0,0,1.88.64,13.19,13.19,0,0,1,2.25.7,3.37,3.37,0,0,1,1.33,1,2.35,2.35,0,0,1,.47,1.49,2.91,2.91,0,0,1-.53,1.73,3.39,3.39,0,0,1-1.52,1.14,6.16,6.16,0,0,1-2.34.4A8,8,0,0,1,101.19,342.21Z"/><path class="cls-6" d="M109.82,331.38h7.37V333h-5.42V336h5.1v1.58h-5.1v3.24h5.42v1.58h-7.37Z"/><path class="cls-6" d="M121.64,333H118v-1.64h9.22V333h-3.61v9.39h-2Z"/><path class="cls-6" d="M132.89,331.38h7.37V333h-5.42V336h5.1v1.58h-5.1v3.24h5.42v1.58h-7.37Z"/><path class="cls-6" d="M151.32,342.41H149l-3-4.12-3,4.12h-2.34l4.2-5.62-4.06-5.41h2.34l2.85,3.95,2.89-3.95h2.32l-4.08,5.42Z"/><path class="cls-6" d="M152.39,331.38h4.79a4.1,4.1,0,0,1,2.77.86,3.26,3.26,0,0,1,0,4.7,4.09,4.09,0,0,1-2.77.87h-2.79v4.6h-2Zm4.56,4.88a2.51,2.51,0,0,0,1.57-.42,1.7,1.7,0,0,0,0-2.48,2.44,2.44,0,0,0-1.58-.43h-2.56v3.33Z"/><path class="cls-6" d="M162.71,331.38h2v11h-2Z"/><path class="cls-6" d="M176.18,342.41h-2.11l-1.41-3.67a1.24,1.24,0,0,0-.58-.71,2.07,2.07,0,0,0-1-.2h-2v4.58h-2v-11h4.72a4.36,4.36,0,0,1,2.85.82,2.91,2.91,0,0,1,1,2.36,3,3,0,0,1-.58,1.86,3.14,3.14,0,0,1-1.65,1.1,1.93,1.93,0,0,1,1.41,1.36Zm-4.64-6.13a2.75,2.75,0,0,0,1.68-.42,1.5,1.5,0,0,0,.54-1.27,1.47,1.47,0,0,0-.54-1.25,2.76,2.76,0,0,0-1.68-.41h-2.49v3.35Z"/><path class="cls-6" d="M182.51,338v4.37h-2V338L176,331.38h2.27l3.2,5,3.2-5H187Z"/><path class="cls-6" d="M191.82,331.38h4.06a5.83,5.83,0,0,1,4.21,1.44,6.27,6.27,0,0,1,0,8.14,5.79,5.79,0,0,1-4.21,1.45h-4.06Zm3.94,9.41c2.54,0,3.81-1.31,3.81-3.91S198.3,333,195.76,333h-1.94v7.78Z"/><path class="cls-6" d="M210.66,339.82h-5.39l-1.11,2.59h-2l5-11h1.63l5,11h-2Zm-.66-1.54-2-4.73-2,4.73Z"/><path class="cls-6" d="M216.18,333h-3.59v-1.64h9.21V333h-3.61v9.39h-2Z"/><path class="cls-6" d="M223.18,331.38h7.38V333h-5.42V336h5.09v1.58h-5.09v3.24h5.42v1.58h-7.38Z"/></g><path class="cls-10" d="M56,326.86h23.2c5.15,0,9.32,4.6,9.32,10.28h0c0,5.68-4.17,10.29-9.32,10.29H56c-5.15,0-9.32-4.61-9.32-10.29h0C46.65,331.46,50.82,326.86,56,326.86Z"/><circle class="cls-11" cx="57.76" cy="336.89" r="8.53"/></g></g></svg>