<svg id="Layer_1" data-name="Layer 1" xmlns="http://www.w3.org/2000/svg" width="60" height="60" viewBox="0 0 60 60"><defs><style>.cls-1{fill:#36ceb6;}</style></defs><title>documentation</title><path id="Path_191" data-name="Path 191" class="cls-1" d="M17.68,15A10.6,10.6,0,0,1,28.26,4.45H48.6A6.11,6.11,0,0,0,42.74,0H17.13A6.12,6.12,0,0,0,11,6.13V40.65a6.12,6.12,0,0,0,6.13,6.12h.55Z"/><path id="Path_192" data-name="Path 192" class="cls-1" d="M53.87,8.91H28.26A6.12,6.12,0,0,0,22.14,15v32.3a6.12,6.12,0,0,0,6.12,6.12H53.87A6.12,6.12,0,0,0,60,47.33V15A6.12,6.12,0,0,0,53.87,8.91ZM49.42,46.77H32.72a1.67,1.67,0,1,1,0-3.34h16.7a1.67,1.67,0,0,1,0,3.34Zm0-8.91H32.72a1.67,1.67,0,1,1,0-3.34h16.7a1.67,1.67,0,1,1,0,3.34Zm0-7.79H32.72a1.67,1.67,0,1,1,0-3.34h16.7a1.67,1.67,0,1,1,0,3.34Zm0-8.91H32.72a1.67,1.67,0,1,1,0-3.34h16.7a1.67,1.67,0,1,1,0,3.34Z"/></svg>