<svg xmlns="http://www.w3.org/2000/svg" xmlns:xlink="http://www.w3.org/1999/xlink" width="200" height="120" viewBox="0 0 200 120">
  <defs>
    <linearGradient id="linear-gradient" x1="-70.904" y1="23.095" x2="-70.904" y2="23.077" gradientUnits="objectBoundingBox">
      <stop offset="0" stop-color="#0994dc"/>
      <stop offset="0.35" stop-color="#66cef5"/>
      <stop offset="0.846" stop-color="#127bca"/>
      <stop offset="1" stop-color="#127bca"/>
    </linearGradient>
    <linearGradient id="linear-gradient-2" x1="-67.698" y1="22.555" x2="-67.698" y2="22.537" gradientUnits="objectBoundingBox">
      <stop offset="0" stop-color="#0e76bc"/>
      <stop offset="0.36" stop-color="#36aee8"/>
      <stop offset="0.846" stop-color="#00adef"/>
      <stop offset="1" stop-color="#00adef"/>
    </linearGradient>
    <linearGradient id="linear-gradient-3" x1="-71.814" y1="22.395" x2="-71.814" y2="22.409" gradientUnits="objectBoundingBox">
      <stop offset="0" stop-color="#1c63b7"/>
      <stop offset="0.5" stop-color="#33bdf2"/>
      <stop offset="1" stop-color="#33bdf2" stop-opacity="0.42"/>
    </linearGradient>
    <linearGradient id="linear-gradient-4" x1="-72.36" y1="21.864" x2="-72.36" y2="21.846" gradientUnits="objectBoundingBox">
      <stop offset="0" stop-color="#166ab8"/>
      <stop offset="0.4" stop-color="#36aee8"/>
      <stop offset="0.846" stop-color="#0798dd"/>
      <stop offset="1" stop-color="#0798dd"/>
    </linearGradient>
    <linearGradient id="linear-gradient-5" x1="-55.79" y1="20.547" x2="-55.79" y2="20.531" gradientUnits="objectBoundingBox">
      <stop offset="0" stop-color="#124379"/>
      <stop offset="0.39" stop-color="#1487cb"/>
      <stop offset="0.78" stop-color="#165197"/>
      <stop offset="1" stop-color="#165197"/>
    </linearGradient>
    <linearGradient id="linear-gradient-6" x1="-160.793" y1="60.462" x2="-160.741" y2="60.462" gradientUnits="objectBoundingBox">
      <stop offset="0" stop-color="#33bdf2" stop-opacity="0.698"/>
      <stop offset="1" stop-color="#1dacd8"/>
    </linearGradient>
    <linearGradient id="linear-gradient-7" x1="-42.339" y1="19.212" x2="-42.339" y2="19.222" gradientUnits="objectBoundingBox">
      <stop offset="0" stop-color="#136ab4"/>
      <stop offset="0.6" stop-color="#59caf5" stop-opacity="0.549"/>
      <stop offset="1" stop-color="#59caf5" stop-opacity="0.235"/>
    </linearGradient>
    <linearGradient id="linear-gradient-8" x1="-44.003" y1="19.102" x2="-43.989" y2="19.102" gradientUnits="objectBoundingBox">
      <stop offset="0" stop-color="#05a1e6" stop-opacity="0.247"/>
      <stop offset="1" stop-color="#05a1e6"/>
    </linearGradient>
    <linearGradient id="linear-gradient-9" x1="-64.494" y1="25.593" x2="-64.494" y2="25.611" gradientUnits="objectBoundingBox">
      <stop offset="0" stop-color="#318ed5"/>
      <stop offset="1" stop-color="#38a7e4"/>
    </linearGradient>
    <linearGradient id="linear-gradient-10" x1="-69.443" y1="32.35" x2="-69.443" y2="32.379" gradientUnits="objectBoundingBox">
      <stop offset="0" stop-color="#05a1e6"/>
      <stop offset="1" stop-color="#05a1e6" stop-opacity="0.549"/>
    </linearGradient>
    <linearGradient id="linear-gradient-11" x1="-60.505" y1="23.117" x2="-60.505" y2="23.129" gradientUnits="objectBoundingBox">
      <stop offset="0" stop-color="#1959a6"/>
      <stop offset="0.5" stop-color="#05a1e6"/>
      <stop offset="0.918" stop-color="#7ec5ea"/>
      <stop offset="1" stop-color="#7ec5ea"/>
    </linearGradient>
    <linearGradient id="linear-gradient-12" x1="-43.756" y1="19.126" x2="-43.759" y2="19.135" gradientUnits="objectBoundingBox">
      <stop offset="0" stop-color="#165096"/>
      <stop offset="1" stop-color="#0d82ca"/>
    </linearGradient>
    <linearGradient id="linear-gradient-13" x1="-100.851" y1="33.013" x2="-100.851" y2="33.027" gradientUnits="objectBoundingBox">
      <stop offset="0" stop-color="#05a1e6"/>
      <stop offset="0.874" stop-color="#0495d6"/>
      <stop offset="1" stop-color="#0495d6"/>
    </linearGradient>
    <linearGradient id="linear-gradient-14" x1="-55.49" y1="19.69" x2="-55.496" y2="19.679" gradientUnits="objectBoundingBox">
      <stop offset="0" stop-color="#38a7e4" stop-opacity="0.329"/>
      <stop offset="0.962" stop-color="#0e88d3"/>
      <stop offset="1" stop-color="#0e88d3"/>
    </linearGradient>
    <linearGradient id="linear-gradient-15" x1="-47.506" y1="19.332" x2="-47.506" y2="19.322" gradientUnits="objectBoundingBox">
      <stop offset="0" stop-color="#168cd4"/>
      <stop offset="0.5" stop-color="#1c87cc"/>
      <stop offset="1" stop-color="#154b8d"/>
    </linearGradient>
    <linearGradient id="linear-gradient-16" x1="-98.195" y1="481.423" x2="-98.173" y2="481.954" gradientUnits="objectBoundingBox">
      <stop offset="0" stop-color="#97d6ee"/>
      <stop offset="0.703" stop-color="#55c1ea"/>
      <stop offset="1" stop-color="#55c1ea"/>
    </linearGradient>
    <linearGradient id="linear-gradient-17" x1="-120.258" y1="265.034" x2="-120.232" y2="264.886" gradientUnits="objectBoundingBox">
      <stop offset="0" stop-color="#7accec"/>
      <stop offset="1" stop-color="#3fb7ed"/>
    </linearGradient>
    <linearGradient id="linear-gradient-18" x1="-63.777" y1="23.502" x2="-63.777" y2="23.487" gradientUnits="objectBoundingBox">
      <stop offset="0" stop-color="#1da7e7"/>
      <stop offset="1" stop-color="#37abe7" stop-opacity="0"/>
    </linearGradient>
  </defs>
  <g id="dot-net" transform="translate(-843 -1546)">
    <rect id="Rectangle_283" data-name="Rectangle 283" width="200" height="120" transform="translate(843 1546)" fill="none"/>
    <g id="Group_91" data-name="Group 91" transform="translate(-479.88 1283.281)">
      <g id="Group_88" data-name="Group 88">
        <path id="Path_848" data-name="Path 848" d="M1459.576,325.48a.486.486,0,0,0-.153-.4.961.961,0,0,0-.586-.14h-.4v1.086h.477c.441,0,.658-.183.658-.547Zm.616,2.265h-.543l-.346-.764c-.176-.383-.364-.575-.569-.575h-.293v1.339h-.447v-3.186h.9a1.332,1.332,0,0,1,.9.267.764.764,0,0,1,.261.6.783.783,0,0,1-.214.557,1.074,1.074,0,0,1-.6.314v.013c.178.042.356.237.528.589l.419.847Zm.992-1.562a2.128,2.128,0,0,0-.64-1.575,2.226,2.226,0,1,0-1.567,3.8,2.191,2.191,0,0,0,2.207-2.221Zm.3-.013a2.373,2.373,0,0,1-.728,1.768,2.62,2.62,0,0,1-3.579.021,2.546,2.546,0,0,1,.013-3.537,2.605,2.605,0,0,1,3.561-.033,2.363,2.363,0,0,1,.733,1.781Z"/>
        <path id="Path_849" data-name="Path 849" d="M1393.407,335.052h-1.544v-8.836c0-.7.046-1.547.128-2.549h-.035a8.276,8.276,0,0,1-.393,1.274l-4.487,10.111h-.752l-4.5-10.038a7.3,7.3,0,0,1-.393-1.347h-.034c.047.527.074,1.382.074,2.567v8.818h-1.488V321.895h2.036l4.037,9.174a11.964,11.964,0,0,1,.6,1.576h.064c.262-.719.471-1.259.63-1.614l4.123-9.136h1.932v13.157Z"/>
        <path id="Path_850" data-name="Path 850" d="M1398.156,335.051h-1.5v-9.395h1.5v9.395Zm.259-12.763a.941.941,0,0,1-.29.7.958.958,0,0,1-.7.285.972.972,0,0,1-.693-.275,1,1,0,0,1,0-1.4,1.009,1.009,0,0,1,1.393,0,.929.929,0,0,1,.29.691Z"/>
        <path id="Path_851" data-name="Path 851" d="M1407.532,334.617a4.828,4.828,0,0,1-2.574.661,4.235,4.235,0,0,1-3.26-1.34,4.745,4.745,0,0,1-1.21-3.358,5.24,5.24,0,0,1,1.328-3.732,4.633,4.633,0,0,1,3.563-1.422,4.789,4.789,0,0,1,2.174.477v1.544a3.816,3.816,0,0,0-2.238-.736,3.011,3.011,0,0,0-2.34,1,3.879,3.879,0,0,0-.946,2.732,3.722,3.722,0,0,0,.868,2.6,2.987,2.987,0,0,0,2.324.954,3.8,3.8,0,0,0,2.311-.807v1.429Z"/>
        <path id="Path_852" data-name="Path 852" d="M1414.709,327.18a2.01,2.01,0,0,0-2.689.522,4.118,4.118,0,0,0-.707,2.559v4.79h-1.5v-9.4h1.5v1.938h.036a3.3,3.3,0,0,1,1.018-1.588,2.254,2.254,0,0,1,1.44-.513,2.434,2.434,0,0,1,.9.128v1.559Z"/>
        <path id="Path_853" data-name="Path 853" d="M1423.09,330.37a4.105,4.105,0,0,0-.814-2.751,2.775,2.775,0,0,0-2.212-.909,2.9,2.9,0,0,0-2.246.919,3.991,3.991,0,0,0-.889,2.778,3.8,3.8,0,0,0,.851,2.637,2.909,2.909,0,0,0,2.284.95,2.749,2.749,0,0,0,2.264-.962,4.125,4.125,0,0,0,.762-2.662m1.543-.052a5.067,5.067,0,0,1-1.266,3.6,4.45,4.45,0,0,1-3.415,1.358,4.319,4.319,0,0,1-3.356-1.358,4.892,4.892,0,0,1-1.211-3.457,5.039,5.039,0,0,1,1.377-3.789,4.67,4.67,0,0,1,3.41-1.248,4.222,4.222,0,0,1,3.284,1.3,5.181,5.181,0,0,1,1.177,3.591"/>
        <path id="Path_854" data-name="Path 854" d="M1432.091,332.538a2.44,2.44,0,0,1-.864,1.914,3.784,3.784,0,0,1-2.577.825,4.613,4.613,0,0,1-2.331-.565V333.1a3.784,3.784,0,0,0,2.442.9q1.787,0,1.788-1.313a1.162,1.162,0,0,0-.395-.907,6.28,6.28,0,0,0-1.543-.863,4.954,4.954,0,0,1-1.677-1.065,2.591,2.591,0,0,1,.33-3.643,3.581,3.581,0,0,1,2.386-.778,4.46,4.46,0,0,1,2.009.44v1.514a3.547,3.547,0,0,0-2.132-.67,1.844,1.844,0,0,0-1.2.366,1.171,1.171,0,0,0-.452.947,1.256,1.256,0,0,0,.377.971,5.259,5.259,0,0,0,1.41.78,5.449,5.449,0,0,1,1.736,1.04,2.322,2.322,0,0,1,.689,1.724"/>
        <path id="Path_855" data-name="Path 855" d="M1441.282,330.37a4.094,4.094,0,0,0-.817-2.751,2.769,2.769,0,0,0-2.21-.909,2.909,2.909,0,0,0-2.249.919,4,4,0,0,0-.886,2.778,3.821,3.821,0,0,0,.846,2.637,2.933,2.933,0,0,0,2.289.95,2.745,2.745,0,0,0,2.264-.962,4.126,4.126,0,0,0,.763-2.662m1.545-.052a5.064,5.064,0,0,1-1.27,3.6,4.439,4.439,0,0,1-3.412,1.358,4.318,4.318,0,0,1-3.357-1.358,4.893,4.893,0,0,1-1.212-3.457,5.057,5.057,0,0,1,1.375-3.789,4.677,4.677,0,0,1,3.413-1.248,4.21,4.21,0,0,1,3.281,1.3,5.173,5.173,0,0,1,1.182,3.591"/>
        <path id="Path_856" data-name="Path 856" d="M1449.454,322.463a2.016,2.016,0,0,0-1-.247c-1.053,0-1.575.663-1.575,1.991v1.448h2.2v1.274h-2.2v8.122h-1.506v-8.122h-1.6v-1.274h1.6v-1.523a3.115,3.115,0,0,1,.961-2.43,2.883,2.883,0,0,1,2.03-.76,2.96,2.96,0,0,1,1.089.163v1.358Z"/>
        <path id="Path_857" data-name="Path 857" d="M1455.39,334.957a2.847,2.847,0,0,1-1.414.3q-2.458,0-2.459-2.773v-5.557h-1.612v-1.276h1.612v-2.292c.48-.152.98-.317,1.507-.488v2.78h2.366v1.276h-2.366v5.3a2.146,2.146,0,0,0,.319,1.342,1.3,1.3,0,0,0,1.074.4,1.6,1.6,0,0,0,.973-.3v1.283Z"/>
      </g>
      <g id="Group_89" data-name="Group 89">
        <path id="Path_858" data-name="Path 858" d="M1374.091,371.721a2.731,2.731,0,0,1-2.719,2.717,2.5,2.5,0,0,1-1.876-.806,2.774,2.774,0,0,1,0-3.836,2.51,2.51,0,0,1,1.876-.794,2.6,2.6,0,0,1,1.925.8,2.63,2.63,0,0,1,.794,1.914"/>
        <path id="Path_859" data-name="Path 859" d="M1407.764,373.885h-4.905l-17.805-27.5a12.639,12.639,0,0,1-1.079-2.165h-.146a35.987,35.987,0,0,1,.191,4.738v24.923h-4.043v-34.5h5.248l17.272,27.062c.687,1.074,1.157,1.843,1.4,2.306h.1a36.176,36.176,0,0,1-.244-5.072v-24.3h4.019v34.5Z"/>
        <path id="Path_860" data-name="Path 860" d="M1433.685,373.885H1415.4v-34.5h17.489v3.655h-13.449v11.475h12.463v3.657h-12.463v12.052h14.243v3.657Z"/>
        <path id="Path_861" data-name="Path 861" d="M1461.417,343.044h-9.937v30.842h-4.041V343.044h-9.956v-3.657h23.934v3.657Z"/>
      </g>
      <g id="Group_90" data-name="Group 90">
        <path id="Path_862" data-name="Path 862" d="M1406.392,279.8c3.9,11.928,5.379,33.207,16.785,33.207h0a14.082,14.082,0,0,0,2.626-.252h0c-10.368-2.418-11.6-23.465-17.924-34.365h0c-.5.451-.989.921-1.487,1.41" fill="url(#linear-gradient)"/>
        <path id="Path_863" data-name="Path 863" d="M1407.879,278.395c6.327,10.9,7.556,31.947,17.924,34.365h0a16.46,16.46,0,0,0,2.449-.662h0c-9.306-4.56-11.879-25-19.064-34.838h0q-.652.544-1.309,1.135" fill="url(#linear-gradient-2)"/>
        <path id="Path_864" data-name="Path 864" d="M1416.995,271.913a14.046,14.046,0,0,0-2.628.253,20.13,20.13,0,0,0-7.016,2.932,17.518,17.518,0,0,1,1.838,2.162,25.175,25.175,0,0,1,7.171-4.355,16.093,16.093,0,0,1,2.675-.743,8.232,8.232,0,0,0-2.04-.249" fill="#14559a"/>
        <path id="Path_865" data-name="Path 865" d="M1435.518,307.895q1.428-1.137,2.861-2.509c-3.963-11.872-5.382-33.455-16.868-33.455a13.613,13.613,0,0,0-2.477.229c10.463,2.6,11.8,25.366,16.484,35.735" fill="url(#linear-gradient-3)"/>
        <path id="Path_866" data-name="Path 866" d="M1419.035,272.161a8.278,8.278,0,0,0-2.04-.249l4.516.017a13.426,13.426,0,0,0-2.476.232" fill="#3092c4"/>
        <path id="Path_867" data-name="Path 867" d="M1435.317,310.417a16.964,16.964,0,0,1-1.3-1.4,23.751,23.751,0,0,1-5.77,3.081,8.869,8.869,0,0,0,2.151.733,9.1,9.1,0,0,0,1.833.181,12.018,12.018,0,0,0,5.288-.947,10.052,10.052,0,0,1-2.207-1.648" fill="#1969bc"/>
        <path id="Path_868" data-name="Path 868" d="M1416.359,272.907c9.371,4.9,10.186,27.1,17.663,36.11h0c.5-.353,1-.727,1.494-1.122h0c-4.681-10.369-6.019-33.134-16.48-35.735h0a16.324,16.324,0,0,0-2.677.747" fill="url(#linear-gradient-4)"/>
        <path id="Path_869" data-name="Path 869" d="M1409.188,277.26c7.185,9.84,9.758,30.278,19.064,34.838h0a23.751,23.751,0,0,0,5.77-3.081h0c-7.477-9.012-8.292-31.208-17.663-36.11h0a25.168,25.168,0,0,0-7.171,4.353" fill="url(#linear-gradient-5)"/>
        <path id="Path_870" data-name="Path 870" d="M1401.8,279.518a107.242,107.242,0,0,0-3.667,10.262,76.435,76.435,0,0,1,8.264-9.975,29.782,29.782,0,0,0-1.22-3.185,41.254,41.254,0,0,0-3.377,2.9" fill="url(#linear-gradient-6)"/>
        <path id="Path_871" data-name="Path 871" d="M1406.171,275.886c-.331.236-.663.478-1,.734a30,30,0,0,1,1.219,3.185c.5-.487.992-.959,1.486-1.41a19.8,19.8,0,0,0-1.707-2.509" fill="#2b74b1"/>
        <path id="Path_872" data-name="Path 872" d="M1407.351,275.1c-.394.249-.785.512-1.181.787a19.876,19.876,0,0,1,1.71,2.512c.437-.395.873-.776,1.309-1.137a17.518,17.518,0,0,0-1.838-2.162" fill="#125a9e"/>
        <path id="Path_873" data-name="Path 873" d="M1471.271,271.005c-5.3,20.439-16.37,36.857-25.651,41h-.018c-.168.076-.336.146-.5.214a.483.483,0,0,1-.061.023c-.049.02-.094.035-.143.055a.306.306,0,0,1-.064.026c-.078.028-.155.052-.231.082-.034.014-.065.023-.1.034s-.075.026-.115.038-.071.023-.112.039-.067.019-.1.033c-.068.02-.13.036-.2.06a.4.4,0,0,0-.084.022c-.041.014-.089.024-.134.036a.4.4,0,0,1-.09.026c-.047.013-.1.026-.146.037l-.178.039a3.775,3.775,0,0,0,1.328.233c8.8,0,17.674-15.771,32.356-42h-5.765Z" fill="url(#linear-gradient-7)"/>
        <path id="Path_874" data-name="Path 874" d="M1396.217,272.743c.005,0,.012-.014.016-.014a.018.018,0,0,0,.021-.014h.011c.048-.017.094-.036.142-.054a.026.026,0,0,0,.028-.014c.013,0,.025-.014.037-.016.052-.016.1-.036.153-.054h.008c.117-.035.225-.078.338-.118.016,0,.032-.014.051-.014.047-.015.095-.032.144-.043a.263.263,0,0,1,.066-.021c.051-.015.1-.032.146-.043.021,0,.04-.014.056-.016.162-.044.322-.086.484-.125.023,0,.042-.014.066-.015a.926.926,0,0,1,.141-.028.23.23,0,0,1,.07-.021c.047-.014.092-.015.142-.027h.034c.1-.019.2-.036.294-.054h.059a1.283,1.283,0,0,1,.136-.024c.026,0,.052-.013.076-.013a.989.989,0,0,0,.131-.02.136.136,0,0,0,.071-.014c.1-.014.209-.019.317-.028-.3-.029-.618-.049-.937-.049-9.91,0-23.565,18.39-29.716,42.2h1.185c1.968-3.51,3.737-6.831,5.354-9.949,4.308-16.868,13.082-28.371,20.876-31.419" fill="url(#linear-gradient-8)"/>
        <path id="Path_875" data-name="Path 875" d="M1401.8,279.518a41.254,41.254,0,0,1,3.377-2.9,15.855,15.855,0,0,0-.8-1.554,19.049,19.049,0,0,0-2.573,4.452" fill="#0d82ca"/>
        <path id="Path_876" data-name="Path 876" d="M1402.61,272.882a8.475,8.475,0,0,1,1.758,2.184c.167-.205.336-.4.511-.572a9.887,9.887,0,0,0-2.4-1.676c.035.019.07.034.106.05,0,0,.014.014.02.014" fill="#0d82ca"/>
        <path id="Path_877" data-name="Path 877" d="M1375.34,304.161c9.038-17.414,13.319-28.436,20.877-31.419h0c-7.793,3.049-16.569,14.553-20.877,31.419" fill="url(#linear-gradient-9)"/>
        <path id="Path_878" data-name="Path 878" d="M1404.879,274.493c-.176.18-.343.368-.512.573a16.15,16.15,0,0,1,.806,1.554c.334-.255.667-.5,1-.734a13.6,13.6,0,0,0-1.291-1.393" fill="#127bca"/>
        <path id="Path_879" data-name="Path 879" d="M1379.443,314.032h0a1.207,1.207,0,0,1-.164.02h-.031c-.047,0-.1.013-.139.013h-.023c-.113.014-.224.014-.332.023h-.035c9.147-.256,13.327-4.836,15.4-11.478,1.577-5.035,2.872-9.277,4.007-12.836a181.93,181.93,0,0,0-11.549,19.021,9.473,9.473,0,0,1-7.136,5.23" fill="url(#linear-gradient-10)"/>
        <path id="Path_880" data-name="Path 880" d="M1379.443,314.029h0a9.47,9.47,0,0,0,7.136-5.231h0a182.842,182.842,0,0,1,11.547-19.021h0a106.992,106.992,0,0,1,3.67-10.263h0c-7.629,7.262-15.288,19.337-22.353,34.511" fill="url(#linear-gradient-11)"/>
        <path id="Path_881" data-name="Path 881" d="M1375.34,304.162c-1.617,3.117-3.385,6.438-5.354,9.949h3.448a84.35,84.35,0,0,1,1.906-9.948" fill="#05a1e6"/>
        <path id="Path_882" data-name="Path 882" d="M1399.138,271.99c-.028,0-.049.014-.073.014h0a.564.564,0,0,1-.129.018h0a.151.151,0,0,0-.077.014h0a1.345,1.345,0,0,1-.136.024h0a.094.094,0,0,0-.059.013h0l-.294.052h-.033a1.13,1.13,0,0,1-.143.028h0a.215.215,0,0,1-.071.019h0a1.225,1.225,0,0,1-.139.028h0a.131.131,0,0,1-.067.015h0q-.242.059-.483.126h0c-.018,0-.035.013-.056.016h0l-.146.043h0a.214.214,0,0,1-.067.02h0c-.048.013-.1.028-.144.043h0c-.019,0-.035.014-.052.014h0c-.112.041-.221.083-.336.118h0c-.049.015-.1.035-.153.053h0a.27.27,0,0,1-.065.026h0c-.048.016-.1.035-.142.053h0a.32.32,0,0,1-.047.023h0c-7.558,2.983-11.84,14-20.877,31.419h0a84.149,84.149,0,0,0-1.906,9.947h.484c1.363,0,1.748-.013,3.316-.013h1.519c.108-.014.22-.014.333-.023h.021c.047,0,.094-.014.139-.014h.033c.05,0,.108-.013.164-.019h0c7.065-15.175,14.723-27.249,22.352-34.511h0a19.115,19.115,0,0,1,2.571-4.45h0a8.447,8.447,0,0,0-1.756-2.187h0s-.018,0-.019-.013h0c-.037-.016-.071-.034-.108-.052h0c-.037-.02-.068-.035-.106-.054h0c-.033-.014-.072-.032-.1-.05h0a1.015,1.015,0,0,1-.121-.052h0l-.1-.042h0c-.068-.026-.136-.054-.2-.083h0c-.03-.014-.058-.021-.086-.032h0c-.047-.017-.1-.039-.149-.06h0a.536.536,0,0,0-.08-.027h0l-.208-.071h-.017c-.08-.026-.158-.046-.24-.068h0a.1.1,0,0,0-.054-.017h0c-.071-.019-.134-.039-.2-.057h0c-.017,0-.033-.013-.047-.013h0c-.163-.044-.332-.078-.5-.11h0c-.017,0-.035-.014-.052-.014h0c-.073-.014-.145-.027-.218-.035h0a.056.056,0,0,0-.043-.014h0c-.087-.014-.172-.024-.258-.033h-.045c-.07-.014-.134-.016-.2-.023h0c-.11.014-.214.02-.317.03" fill="url(#linear-gradient-12)"/>
        <path id="Path_883" data-name="Path 883" d="M1450.568,282.32c-1.738,5.57-3.147,10.165-4.372,13.946h0a151.445,151.445,0,0,0,13.946-24.356h0c-5.22,1.639-8.005,5.392-9.574,10.41" fill="url(#linear-gradient-13)"/>
        <path id="Path_884" data-name="Path 884" d="M1446.347,311.653c-.243.123-.487.241-.727.348,9.281-4.139,20.351-20.557,25.651-41H1470.2c-12.177,21.752-16.093,36.314-23.85,40.648" fill="url(#linear-gradient-14)"/>
        <path id="Path_885" data-name="Path 885" d="M1440.287,309.825c2.019-2.465,3.664-6.654,5.91-13.559a67.927,67.927,0,0,1-7.807,9.11c0,.014,0,.014-.014.023a23.849,23.849,0,0,0,1.906,4.426" fill="#079ae1"/>
        <path id="Path_886" data-name="Path 886" d="M1440.287,309.825a8.261,8.261,0,0,1-2.224,1.951c-.178.1-.357.2-.54.289a7.821,7.821,0,0,0,2.832.893h0c.153.015.305.029.463.041h.028a1.319,1.319,0,0,1,.223.013h.755a.2.2,0,0,0,.085-.013.682.682,0,0,0,.167-.014h.082c.057,0,.12-.014.181-.02h.014c.018,0,.037-.014.056-.014.064-.014.13-.019.193-.029h.057c.071-.014.144-.022.217-.036h.035c.147-.028.289-.056.434-.092a6.309,6.309,0,0,1-3.064-2.945" fill="#1969bc"/>
        <path id="Path_887" data-name="Path 887" d="M1423.177,313.012a13.928,13.928,0,0,0,2.627-.254,16.241,16.241,0,0,0,2.449-.66,8.866,8.866,0,0,0,2.149.733,9.123,9.123,0,0,0,1.835.181Z" fill="#1e5cb3"/>
        <path id="Path_888" data-name="Path 888" d="M1432.237,313.012a12.008,12.008,0,0,0,5.286-.947,7.8,7.8,0,0,0,2.832.893h0c.153.016.305.03.463.041h.028a1.225,1.225,0,0,1,.223.014h-8.832Z" fill="#1e5cb3"/>
        <path id="Path_889" data-name="Path 889" d="M1441.334,313.012h.5a.186.186,0,0,0,.084-.013.7.7,0,0,0,.169-.014h.083c.057,0,.119-.014.179-.02h.015c.019,0,.036-.013.055-.013.064-.014.13-.02.193-.03a.1.1,0,0,0,.06-.013c.071-.014.144-.022.217-.035h.035c.146-.028.289-.056.433-.092h0a3.783,3.783,0,0,0,1.328.233l-3.345.014Z" fill="#1d60b5"/>
        <path id="Path_890" data-name="Path 890" d="M1438.382,305.4v-.014q-1.434,1.371-2.862,2.508c-.5.395-.994.77-1.495,1.123a17.094,17.094,0,0,0,1.295,1.4,10.055,10.055,0,0,0,2.207,1.649c.181-.09.362-.187.538-.289a8.254,8.254,0,0,0,2.226-1.951,23.822,23.822,0,0,1-1.906-4.427" fill="#175fab"/>
        <path id="Path_891" data-name="Path 891" d="M1466.8,271.005h-5.406c-.292.014-.576.024-.856.042h0c-.132.283-.268.567-.4.853h0a151.438,151.438,0,0,1-13.945,24.356h0c-2.244,6.9-3.89,11.094-5.909,13.559h0a6.314,6.314,0,0,0,3.061,2.946h0a.766.766,0,0,1,.094-.021h.02c.021,0,.043-.013.066-.013h0c.049-.014.1-.023.15-.038h0a.726.726,0,0,1,.088-.025h0c.046-.014.093-.024.134-.035h0a.329.329,0,0,1,.084-.024h0c.069-.022.132-.039.2-.06h0a.648.648,0,0,1,.1-.033h0c.038-.014.076-.024.111-.041h0c.04-.013.08-.021.115-.036h0c.031-.014.064-.022.094-.035h0c.078-.027.155-.051.233-.082h0c.021,0,.042-.019.065-.024h0c.046-.019.095-.034.142-.055h0a.2.2,0,0,1,.061-.023h0c.164-.068.333-.137.5-.214h.018c.24-.105.484-.224.726-.348h0c7.758-4.334,11.674-18.9,23.851-40.648h-3.4Z" fill="url(#linear-gradient-15)"/>
        <path id="Path_892" data-name="Path 892" d="M1399.455,271.961a.091.091,0,0,1,.056.013.428.428,0,0,1,.141.016h.047c.085.013.17.021.257.033a.053.053,0,0,1,.044.014c.071.014.144.025.217.036.016,0,.037.014.054.014.167.033.338.068.5.111.015,0,.031.014.045.014.069.017.132.038.2.057.021,0,.036.014.055.017.082.021.159.042.239.068,0,0,.008,0,.017.014.068.021.138.047.209.071a.4.4,0,0,0,.08.027c.049.021.1.041.15.061a.3.3,0,0,1,.085.029c.065.029.133.056.2.084.034.013.064.029.1.041a.805.805,0,0,0,.12.052l.106.05c.037.02.072.035.107.054a10.013,10.013,0,0,1,2.4,1.677,7.713,7.713,0,0,1,.849-.772,9.356,9.356,0,0,0-5.539-1.792c-.243,0-.487.013-.734.032" fill="#7dcbec"/>
        <path id="Path_893" data-name="Path 893" d="M1404.879,274.493a13.6,13.6,0,0,1,1.291,1.393c.395-.275.787-.54,1.18-.787a12.464,12.464,0,0,0-1.624-1.377,7.6,7.6,0,0,0-.847.771" fill="#5ec5ed"/>
        <path id="Path_894" data-name="Path 894" d="M1399.454,271.96c.248-.021.491-.029.735-.029a9.362,9.362,0,0,1,5.538,1.791c1.7-1.34,3.753-1.809,6.606-1.809h-13.815c.319,0,.63.019.936.047" fill="url(#linear-gradient-16)"/>
        <path id="Path_895" data-name="Path 895" d="M1412.333,271.913c-2.853,0-4.907.469-6.606,1.809a12.5,12.5,0,0,1,1.623,1.377,20.128,20.128,0,0,1,7.018-2.935,14.258,14.258,0,0,1,2.626-.251Z" fill="url(#linear-gradient-17)"/>
        <path id="Path_896" data-name="Path 896" d="M1446.2,296.269c1.227-3.784,2.632-8.377,4.374-13.949,1.57-5.02,4.35-8.772,9.57-10.41.138-.28.268-.569.4-.853-8.51.51-12.487,4.839-14.489,11.249-3.5,11.192-5.62,18.447-7.662,23.07a68.01,68.01,0,0,0,7.805-9.107" fill="url(#linear-gradient-18)"/>
        <path id="Path_897" data-name="Path 897" d="M1458.681,310.031h-.965v3h-.393v-3h-.968v-.357h2.326v.357Z"/>
        <path id="Path_898" data-name="Path 898" d="M1462.629,313.028h-.392v-2.253c0-.177.014-.395.033-.651h0a2.291,2.291,0,0,1-.1.328l-1.142,2.576h-.191l-1.145-2.557a1.867,1.867,0,0,1-.1-.347h-.013c.013.135.018.354.018.657v2.247h-.376v-3.354h.519l1.028,2.341a3.015,3.015,0,0,1,.152.4h.015c.068-.185.124-.322.162-.413l1.049-2.33h.495v3.354Z"/>
      </g>
    </g>
  </g>
</svg>
