<svg id="freecharge" xmlns="http://www.w3.org/2000/svg" width="29.31" height="29.31" viewBox="0 0 29.31 29.31">
  <g id="Layer_1" data-name="Layer 1">
    <circle id="Ellipse_321" data-name="Ellipse 321" cx="14.655" cy="14.655" r="14.655" fill="#e0714d"/>
    <path id="Path_184" data-name="Path 184" d="M89.11,59.616c-.477,1.627-.477,1.627-2.162,1.979-.081.644-.162,1.3-.254,2.041h2.027c-.91,1.834-1.768,3.563-2.671,5.38l1.905.1c-.626,1.243-1.188,2.361-1.759,3.488,1.926-1.825,3.831-3.634,5.735-5.438l-.087-.218h-2.11c1.237-1.2,2.233-2.246,3.312-3.2a2.893,2.893,0,0,0,.905-2.3H91.387c.345-.909.419-1.884.938-2.267a8.439,8.439,0,0,1,2.713-.8c.095-.454.234-1.145.383-1.827C92.442,55.623,89.913,56.88,89.11,59.616Z" transform="translate(-75.961 -49.658)" fill="#fff"/>
  </g>
</svg>
