<svg xmlns="http://www.w3.org/2000/svg" xmlns:xlink="http://www.w3.org/1999/xlink" width="91" height="90" viewBox="0 0 91 90">
  <defs>
    <linearGradient id="linear-gradient" x1="0.5" x2="0.5" y2="1" gradientUnits="objectBoundingBox">
      <stop offset="0" stop-color="#38beee"/>
      <stop offset="1" stop-color="#5867f2"/>
    </linearGradient>
  </defs>
  <g id="gateway" transform="translate(-0.276)">
    <ellipse id="Ellipse_4" data-name="Ellipse 4" cx="45.5" cy="45" rx="45.5" ry="45" transform="translate(0.276)" fill="url(#linear-gradient)"/>
    <g id="Group_123" data-name="Group 123" transform="translate(18.388 18.013)">
      <g id="Group_89" data-name="Group 89" transform="translate(35.986 0)">
        <g id="Group_87" data-name="Group 87" transform="translate(0 4.698)">
          <path id="Path_23" data-name="Path 23" d="M637.383,1230H624.651a2.123,2.123,0,1,1,0-4.244h12.733a2.123,2.123,0,1,1,0,4.244Z" transform="translate(-622.466 -1225.752)" fill="#fff"/>
        </g>
        <g id="Group_88" data-name="Group 88" transform="translate(8.551)">
          <path id="Path_24" data-name="Path 24" d="M638.621,1231.646a2.123,2.123,0,0,1-1.5-3.623l3.349-3.349-3.047-3.047a2.123,2.123,0,1,1,3-3l6.048,6.049-6.351,6.351a2.116,2.116,0,0,1-1.5.621Z" transform="translate(-636.5 -1218.004)" fill="#fff"/>
        </g>
      </g>
      <g id="Group_92" data-name="Group 92" transform="translate(0 41.535)">
        <g id="Group_90" data-name="Group 90" transform="translate(1.428 4.698)">
          <path id="Path_25" data-name="Path 25" d="M580.381,1298.5H567.649a2.123,2.123,0,1,1,0-4.245h12.733a2.123,2.123,0,0,1,0,4.244Z" transform="translate(-565.468 -1294.252)" fill="#fff"/>
        </g>
        <g id="Group_91" data-name="Group 91" transform="translate(0 0)">
          <path id="Path_26" data-name="Path 26" d="M570.6,1300.146a2.116,2.116,0,0,1-1.5-.621l-6.048-6.049,6.351-6.351a2.123,2.123,0,1,1,3,3l-3.349,3.349,3.047,3.047a2.123,2.123,0,0,1-1.5,3.623Z" transform="translate(-563.05 -1286.504)" fill="#fff"/>
        </g>
      </g>
      <g id="Group_93" data-name="Group 93" transform="translate(11.62 11.97)">
        <path id="Path_27" data-name="Path 27" d="M600.864,1236H581.416a2.229,2.229,0,0,0-2.229,2.229v.049a2.229,2.229,0,0,0,2.229,2.229h5.942a6.011,6.011,0,0,1,2.759.785,5.435,5.435,0,0,1,2.119,2.291,6.647,6.647,0,0,1,.418,1.089H581.42a2.229,2.229,0,0,0-2.229,2.229h0a2.229,2.229,0,0,0,2.229,2.229H592.7a6.541,6.541,0,0,1-.481,1.286,5.5,5.5,0,0,1-2.13,2.29,6.11,6.11,0,0,1-3.16.809h-5.512a2.229,2.229,0,0,0-2.229,2.229v.049a2.229,2.229,0,0,0,2.229,2.229h5.071c.27,0,.524-.026.787-.038l6.931,12.488a2.23,2.23,0,0,0,1.95,1.147h.76a2.229,2.229,0,0,0,1.932-3.342l-6.576-11.42c.088-.039.18-.068.268-.11a9.475,9.475,0,0,0,5.429-7.619h2.9a2.23,2.23,0,0,0,2.229-2.23h0a2.23,2.23,0,0,0-2.229-2.229h-3.137a11.137,11.137,0,0,0-.9-2.6,9.725,9.725,0,0,0-1-1.568h5.042a2.229,2.229,0,0,0,2.229-2.229v-.048a2.229,2.229,0,0,0-2.244-2.228Z" transform="translate(-579.187 -1236)" fill="#fff"/>
      </g>
    </g>
  </g>
</svg>
