<?xml version="1.0" encoding="utf-8"?>
<!-- Generator: Adobe Illustrator 25.0.0, SVG Export Plug-In . SVG Version: 6.00 Build 0)  -->
<svg version="1.1" id="Layer_1" xmlns="http://www.w3.org/2000/svg" xmlns:xlink="http://www.w3.org/1999/xlink" x="0px" y="0px"
	 viewBox="0 0 2065.9 2064.8" style="enable-background:new 0 0 2065.9 2064.8;" xml:space="preserve">
<style type="text/css">
	.st0{fill:#FFFFFF;}
	.st1{fill:#5690F3;}
	.st2{fill:#4285F4;}
	.st3{fill:#34A853;}
	.st4{fill:#FBBC05;}
	.st5{fill:#EB4335;}
</style>
<g>
	<circle class="st0" cx="1032.4" cy="1032.4" r="1017.8"/>
	<path class="st1" d="M1032.4,2050.2c-189.2,0.3-374.6-52.3-535.4-152L1178.8,25c120.7,17.4,237.3,56.4,344.1,115.2
		c492.7,270.3,673.1,888.8,402.8,1381.7C1746.9,1848.1,1404.4,2050.6,1032.4,2050.2z"/>
	<path class="st2" d="M687.2,1028c0.3-17.2-1.5-34.3-5.2-51H447.7v92.6h137.5c-5.2,32.8-23.7,62-51,80.9l-0.5,3.1l74,57.4l5.1,0.5
		C659.9,1168,687.2,1104,687.2,1028"/>
	<path class="st3" d="M447.7,1271.9c67.3,0,123.9-22.2,165.2-60.4l-78.7-61c-25.5,17.2-55.8,25.8-86.5,24.9
		c-64.7-0.4-121.9-42.2-142-103.7l-3,0.3l-77,59.5l-1,2.8C267.1,1218.7,353.3,1272,447.7,1271.9"/>
	<path class="st4" d="M305.7,1071.7c-5.4-15.9-8.3-32.5-8.3-49.4c0.1-16.8,2.9-33.4,8.1-49.4l-0.1-3.3l-78-60.5l-2.6,1.2
		c-35.5,70.5-35.5,153.5,0,224L305.7,1071.7"/>
	<path class="st5" d="M447.7,869.4c35.8-0.6,70.3,12.7,96.4,37.2l70.4-68.7c-45.2-42.4-105-65.6-166.9-64.9
		c-94.3,0-180.6,53.1-222.9,137.5l80.6,62.6C325.6,911.6,382.9,869.8,447.7,869.4"/>
	<path class="st0" d="M1079.8,1050.1v181.3h-58V783.6h153.7c37-0.8,72.9,13.1,99.6,38.7c52.3,48.2,55.7,129.8,7.4,182.2
		c-2.4,2.6-4.8,5-7.4,7.4c-26.8,25.4-62.6,39.1-99.6,38.2L1079.8,1050.1L1079.8,1050.1z M1079.8,838.7V995h97.1
		c21.5,0.7,42.3-7.7,57.3-23.2c30.3-29.1,31.2-77.1,2.1-107.4c-0.2-0.2-0.4-0.4-0.6-0.6c-0.5-0.5-1-1.1-1.5-1.5
		c-14.9-15.8-35.7-24.4-57.3-23.8H1079.8z M1450.1,915c42.9,0,76.7,11.3,101.4,34.1c24.7,22.7,37.2,53.8,37.2,93.5v188.9h-55.4
		v-42.6h-2.5c-24,35-55.9,52.5-95.8,52.5c-31.2,1-61.6-9.7-85.3-30.1c-22.2-18.5-34.8-46.1-34.3-75c-1-29.6,12.5-57.9,36.2-75.6
		c24.2-18.7,56.4-28.1,96.7-28.1c29.5-1.1,58.8,5.3,85,18.7v-13.2c0.1-19.7-8.7-38.4-24-50.9c-15.4-13.7-35.3-21.2-55.9-20.9
		c-31-0.7-60,14.7-76.8,40.6l-51-31.9C1353.5,935,1395,915,1450.1,915L1450.1,915z M1375.1,1137.6c-0.1,14.9,7.1,28.9,19.1,37.6
		c12.8,10.1,28.8,15.3,45.1,15c24.4,0,47.8-9.7,65.2-26.9c18.2-15.9,28.8-38.9,28.8-63.2c-18.1-14.3-43.3-21.5-75.6-21.5
		c-20.9-0.8-41.6,5.1-58.9,16.9C1384.3,1104.7,1375.4,1120.4,1375.1,1137.6L1375.1,1137.6z M1906.9,925l-193.4,441.5h-59.8
		l71.8-154.5l-127.3-287.1h63l92,220.1h1.3l89.4-220.1L1906.9,925z"/>
</g>
</svg>
