<svg id="Layer_1" data-name="Layer 1" xmlns="http://www.w3.org/2000/svg" xmlns:xlink="http://www.w3.org/1999/xlink" viewBox="0 0 934 668"><defs><style>.cls-1{fill:#75b9ff;opacity:0.25;}.cls-2{fill:#00c6ff;}.cls-3{fill:#0067ff;}.cls-4{fill:#0094ff;}.cls-5{fill:#a8eee4;}.cls-6{fill:#fff;}.cls-7{fill:#2b3656;}.cls-8{fill:#374472;}.cls-9{fill:#4684c8;}.cls-10{fill:#25f499;}.cls-11{fill:#dbddf2;}.cls-12{fill:url(#linear-gradient);}.cls-13{fill:url(#linear-gradient-2);}.cls-14{fill:url(#linear-gradient-3);}.cls-15{fill:url(#linear-gradient-4);}.cls-16{fill:url(#linear-gradient-5);}</style><linearGradient id="linear-gradient" x1="256.04" y1="545.58" x2="162.1" y2="545.58" gradientUnits="userSpaceOnUse"><stop offset="0" stop-color="#fdfefe"/><stop offset="0.48" stop-color="#f7f9fc"/><stop offset="1" stop-color="#7593d7"/></linearGradient><linearGradient id="linear-gradient-2" x1="201.76" y1="384.22" x2="274.55" y2="384.22" gradientUnits="userSpaceOnUse"><stop offset="0" stop-color="#00c6ff"/><stop offset="1" stop-color="#25f499"/></linearGradient><linearGradient id="linear-gradient-3" x1="229.47" y1="445.47" x2="309.97" y2="445.47" xlink:href="#linear-gradient-2"/><linearGradient id="linear-gradient-4" x1="140.93" y1="408.62" x2="198.1" y2="408.62" xlink:href="#linear-gradient-2"/><linearGradient id="linear-gradient-5" x1="130.69" y1="472.13" x2="188.91" y2="472.13" xlink:href="#linear-gradient-2"/></defs><ellipse class="cls-1" cx="467" cy="398.9" rx="466.63" ry="269.41"/><path class="cls-2" d="M353.61,464h0a10,10,0,0,1-10-10V437.49h20V454A10,10,0,0,1,353.61,464Z"/><path class="cls-2" d="M203.44,377.76h0a10,10,0,0,1-10-10V351.29h20v16.47A10,10,0,0,1,203.44,377.76Z"/><path class="cls-2" d="M540.8,354.9h0a10,10,0,0,1-10-10V328.42h20V344.9A10,10,0,0,1,540.8,354.9Z"/><polygon class="cls-2" points="525.04 220.21 364.82 127.7 390.59 112.83 550.81 205.33 525.04 220.21"/><polygon class="cls-3" points="524.92 351.15 364.7 258.65 364.7 127.64 524.92 220.15 524.92 351.15"/><polygon class="cls-4" points="550.57 205.53 550.57 336.66 524.81 351.54 524.81 220.41 550.57 205.53"/><polygon class="cls-2" points="448.89 49.34 251.58 163.25 219.85 144.93 417.16 31.02 448.89 49.34"/><polygon class="cls-3" points="219.98 372.45 219.98 144.62 251.71 162.94 251.71 390.77 219.98 372.45"/><polygon class="cls-4" points="449.03 277.09 251.72 391 251.72 163.33 449.03 49.41 449.03 277.09"/><polygon class="cls-2" points="523.36 315.94 379.44 399.03 305.73 356.48 446.44 275.24 446.44 271.53 523.36 315.94"/><polygon class="cls-5" points="344.88 333.35 384.56 356.26 384.63 356.22 499.79 289.73 448.72 260.25 448.72 273.39 344.95 333.31 344.88 333.35"/><polygon class="cls-3" points="344.88 333.35 317.52 349.14 384.69 387.92 384.69 387.92 384.7 387.92 384.7 356.26 384.69 356.26 384.63 356.22 344.95 333.31 344.88 333.35"/><polygon class="cls-4" points="499.92 321.4 384.69 387.92 384.69 356.26 499.92 289.73 499.92 321.4"/><polygon class="cls-4" points="550.94 336.51 353.63 450.42 353.63 413.79 550.94 299.87 550.94 336.51"/><polygon class="cls-6" points="407.95 500.92 405.49 519.39 426.12 540.02 444.9 527.09 444.81 510.95 442.43 500.92 407.95 500.92"/><path class="cls-6" d="M493.23,465.2l-1.54-8.31,38.49-4.62,6.1,19.11,1.9,12-33.86-2.77s-11.09-3.7-11.09-4.31Z"/><path class="cls-7" d="M427.3,118.18S432,152.06,432,176.64l22.58,36.53-18.6,12L418,204.53l-14.62-54.47Z"/><path class="cls-7" d="M408,500.8h34.55l2.65-16.61h-3.32s-3.32-73.07,3.32-101,1.33-42.51-14-55.8-73.73-37.86-73.73-37.86l-39.19,13.29,27.9,41.85,56.46,31.22s-11.29,52.47,3.32,109.6l-3.32,6.64Z"/><path class="cls-7" d="M491.73,457l38.53-4.65.66-9.3-4-8.64s2.66-100.3,4-116.91,2.66-23.25-11.29-39.86-97-26.57-97-26.57l14.61,65.1,47.83,16.61s-4,37.2,2,70.41,5.32,37.2,5.32,37.2h-3.32Z"/><path class="cls-8" d="M309.72,293.55s-6-1.33,0-42.52-14-118.9-14-118.9S313,104.89,337.62,92.94s63.77-8,63.77-8,23.25,6,25.91,33.87c0,0-13.29,95.66-6.64,107s10,14.62,10,14.62l23.25,42.51-85,39.19-50.48-19.26Z"/><path class="cls-7" d="M294.44,241.07s-5.31-72.41,0-103.63c0,0,0-17.27,25.91-7.3,0,0,12,7.3,10.63,35.87s-2,68.42-2,68.42l42.51,33.21-13.95,15.94L302.42,255S293.12,249,294.44,241.07Z"/><path class="cls-7" d="M344.93,85s-13.29,2-8,21.25l19.26,31.22,13.29-20.59,23.91,10-12-27.9Z"/><path class="cls-9" d="M401,337.47l-66.19-39.36a2.19,2.19,0,0,1,0-3.77l80.46-46L463.17,261l-4.65,12.62-50,62.49A5.79,5.79,0,0,1,401,337.47Z"/><path class="cls-7" d="M494.56,271.4l-88.47,51.07c-3.72,2.15-10.22,1.88-14.51-.6L366,307.09c-4.29-2.48-4.76-6.23-1-8.37l88.47-51.08c3.72-2.15,10.22-1.88,14.51.6L493.52,263C497.82,265.5,498.28,269.25,494.56,271.4Z"/><path class="cls-6" d="M354.89,282.25s13.95,12,22.59,11.3,8-3.32,13.28-.67,11.3,4,14.62,2.66,13.95-9.3,5.31-15.28a67.44,67.44,0,0,0-18.6-8.63s-11.95,1.32-13.95.66-6.64-4.65-6.64-4.65Z"/><path class="cls-6" d="M435.27,224.46s4.65,4.65,5.31,10,17.28,17.27,17.28,17.27l11.95-19.27-5.31-12.62s-9.3-7.3-11.29-7.3Z"/><path class="cls-10" d="M405,254.39l102.63-58.64a4.48,4.48,0,0,1,6.71,3.89V275a4.5,4.5,0,0,1-2.21,3.87L409.48,339.38a4.48,4.48,0,0,1-6.76-3.86V258.28A4.49,4.49,0,0,1,405,254.39Z"/><path class="cls-9" d="M407.64,255.72l102.63-58.65A4.49,4.49,0,0,1,517,201v75.4a4.47,4.47,0,0,1-2.21,3.86L412.14,340.71a4.48,4.48,0,0,1-6.76-3.86V259.61A4.47,4.47,0,0,1,407.64,255.72Z"/><path class="cls-7" d="M368.84,114.19l9.3-10.62h0a17.8,17.8,0,0,0,17.24-9.72c4.28-8.55,8.82-23.15,7.33-45.42L363.53,35.81,336.29,51.09,331.64,69S339,82.31,337,92.27C337,92.27,345.59,108.88,368.84,114.19Z"/><path class="cls-6" d="M368.84,114.19l9.3-10.62h0a17.8,17.8,0,0,0,17.24-9.72c4.28-8.55,8.82-23.15,7.33-45.42L363.53,35.81,336.29,51.09,331.64,69S339,82.31,337,92.27C337,92.27,345.59,108.88,368.84,114.19Z"/><path class="cls-7" d="M334.3,75S320.35,53.08,327,32.49c4.65-14.39,11.83-17.61,14.34-18.78a13.63,13.63,0,0,0,3.32-2.21c5.38-4.89,23.2-17.14,50.1,3.72,0,0,18.32,0,21.67,12.52A16.66,16.66,0,0,1,402.6,48.38a21.77,21.77,0,0,1-5.19,0c-12.62-1.33-36.54-5.31-42.52,11.29S334.3,75,334.3,75Z"/><ellipse class="cls-10" cx="333.74" cy="56.18" rx="11.48" ry="19.89" transform="translate(16.62 174.4) rotate(-30)"/><ellipse class="cls-11" cx="331.54" cy="57.29" rx="11.48" ry="19.89" transform="translate(15.78 173.45) rotate(-30)"/><path class="cls-11" d="M331.64,62.38s18.6-75.06,61.78-48.49c0,0-1.33-8-17.27-13.95,0,0-41.19-7.31-51.15,57.13Z"/><ellipse class="cls-4" cx="330.44" cy="57.29" rx="8.98" ry="15.56" transform="translate(15.63 172.9) rotate(-30)"/><ellipse class="cls-10" cx="329.89" cy="57.29" rx="7.41" ry="12.84" transform="translate(15.55 172.62) rotate(-30)"/><ellipse class="cls-4" cx="329.34" cy="57.29" rx="6.13" ry="10.62" transform="translate(15.48 172.34) rotate(-30)"/><path class="cls-2" d="M402.69,65.28a.27.27,0,0,1,.31.18,55.86,55.86,0,0,1,1.67,6.25c.22,1.11.4,2.23.53,3.37a19.18,19.18,0,0,1,.1,3.58,11.19,11.19,0,0,1-.32,2c-.06.19-.13.39-.2.59v0l-.14.32-.09.16-.07.14c-.17.29-.34.59-.52.86a9.62,9.62,0,0,1-2.52,2.6,15.5,15.5,0,0,1-3.07,1.68,11.67,11.67,0,0,1-3.36.84.28.28,0,0,1-.25-.12l-.08-.12a.26.26,0,0,1,0-.27,18.41,18.41,0,0,1,1.7-2.91c.65-.91,1.32-1.75,2-2.53a18.61,18.61,0,0,1,2.09-2.08c.18-.15.32-.3.49-.45l0,0h0l.06,0,.13-.15a3.73,3.73,0,0,0,.48-1.13,14.66,14.66,0,0,0,.29-1.44c.08-.5.14-1,.19-1.55.11-1,.18-2.12.23-3.2.11-2.1.11-4.22.11-6.35a.27.27,0,0,1,.22-.27Z"/><rect class="cls-10" x="380.74" y="85.88" width="22.08" height="12.23" rx="6.11" transform="translate(49.7 303.97) rotate(-45)"/><polygon class="cls-2" points="353.86 319.35 193.64 226.84 219.41 211.97 379.63 304.47 353.86 319.35"/><polygon class="cls-3" points="353.74 450.29 193.52 357.78 193.52 226.78 353.74 319.28 353.74 450.29"/><polygon class="cls-4" points="379.39 304.67 379.39 435.8 353.63 450.67 353.63 319.54 379.39 304.67"/><path class="cls-7" d="M405.92,511.78s-9.13,17.43,3.32,28.22c0,0,1.66,24.91,2.49,28.23s16.6,28.22,51.47,17.43c0,0,8.3-5,5.81-12.45s-22.42-34-24.08-63.09l-1.66,11.62s-17.43,14.11-34,0Z"/><path class="cls-7" d="M493.08,465.28s-10.79,11.62-7.47,21.58,14.11,12.45,14.11,12.45a121,121,0,0,1,26,7.82,63.35,63.35,0,0,0,18.19,5.18l31.43,3.93a8,8,0,0,0,8.62-5.1c1.25-3.53.42-8.51-7.88-14.32-16.61-11.62-24.91-3.32-39.85-25.73,0,0,.83,7.47-.83,7.47S512.18,480.22,493.08,465.28Z"/><path class="cls-12" d="M161.83,509.53V555H162c.17,6.79,4.72,13.56,13.66,18.75,18.23,10.57,47.79,10.57,66,0,8.95-5.19,13.5-12,13.67-18.75h0V509.53Z"/><ellipse class="cls-11" cx="207.58" cy="506.22" rx="46.89" ry="27.07"/><ellipse class="cls-7" cx="207.48" cy="506.51" rx="36.85" ry="21.28"/><path class="cls-13" d="M211.4,434.5s-20.12-17.66-2.24-38.09c10.46-12,1.73-28.42,8.22-37.33,11.94-16.43,21.65-34.35,44.05-24.65s9.84,33.68,7.47,37.34c-8.21,12.69-27.63,18.67-26.88,33.6s-15.68,32.11-23.15,31.37S211.4,434.5,211.4,434.5Z"/><path class="cls-14" d="M231,471a8.71,8.71,0,0,1-1.43-6.08c1-8.72,6.86-38.39,38.61-45.38,37.34-8.21,41.82,9.71,41.82,9.71s-.75,23.15-20.16,20.91c-18.61-2.15-40,5.3-48.28,19.73a7,7,0,0,1-4.47,3.45A5.51,5.51,0,0,1,231,471Z"/><path class="cls-15" d="M189.75,452.42s-16.43.74-22.41-17.18-3.73-20.16-15.68-29.87-14.93-31.36-3.73-38.08c5.6-3.36,12.88-3.17,20-.09a32,32,0,0,1,19,27.78c.28,5.58,1,11.9,2.89,14.87,3.73,6,14.93,32.86,3,41.07Z"/><path class="cls-16" d="M185.66,473.05c-6-.77-25.13-2.2-36.34,9a20.31,20.31,0,0,1-8.72,5.36c-2.56.73-5.26.92-6.86-.68-3.73-3.74-7.47-19.42,11.2-26.89,17.85-7.14,29.56-3.35,42.95,8.09a2.9,2.9,0,0,1,.61,3.7h0A2.9,2.9,0,0,1,185.66,473.05Z"/><path class="cls-7" d="M221.86,509.92a66.1,66.1,0,0,1-.57-18.48,70.18,70.18,0,0,1,4.17-18.17,57.31,57.31,0,0,1,4-8.51,48,48,0,0,1,5.39-7.71,42.47,42.47,0,0,1,14.64-11.35,65.38,65.38,0,0,0-12.33,13.13,64.17,64.17,0,0,0-4.59,7.62l-.51,1-.48,1c-.31.68-.66,1.33-.93,2l-.89,2.05-.8,2.08c-1,2.78-2,5.62-2.76,8.5s-1.43,5.82-2,8.77A153.39,153.39,0,0,0,221.86,509.92Z"/><path class="cls-7" d="M251.35,356.46a29.11,29.11,0,0,0-3.88,2.82c-.62.5-1.2,1.05-1.81,1.56s-1.16,1.09-1.72,1.66a65.39,65.39,0,0,0-6.23,7.19l-.73.94-.69,1-1.36,1.94c-.85,1.34-1.76,2.63-2.54,4l-1.2,2c-.4.69-.76,1.39-1.14,2.09s-.76,1.38-1.12,2.09l-1,2.14A132.16,132.16,0,0,0,221,403.6c-.45,1.52-1,3-1.39,4.54l-1.25,4.59c-.39,1.54-.72,3.09-1.09,4.64l-.53,2.32-.45,2.34a261.28,261.28,0,0,0-4.65,37.89c-.71,12.76-.73,25.57-.57,38.42a263.53,263.53,0,0,1-2.34-38.52c0-3.22.19-6.45.31-9.67s.46-6.45.72-9.67l.57-4.81.28-2.41.37-2.4.74-4.8c.29-1.59.61-3.18.91-4.77a133.84,133.84,0,0,1,12.72-36.69,84.71,84.71,0,0,1,11-16.06,60.31,60.31,0,0,1,6.95-6.8A37,37,0,0,1,251.35,356.46Z"/><path class="cls-7" d="M164,387.08a47.76,47.76,0,0,1,5.69,6c1.75,2.15,3.35,4.42,4.89,6.74a107.76,107.76,0,0,1,7.87,14.68,140.13,140.13,0,0,1,9.52,31.9,180.63,180.63,0,0,1,2.68,33.13,194.56,194.56,0,0,1-3,33c.4-11,.57-22,.11-32.92-.16-2.73-.25-5.46-.47-8.18l-.29-4.09-.42-4.07c-.23-2.71-.63-5.41-.95-8.12l-.62-4-.31-2-.38-2c-.89-5.37-2.11-10.68-3.53-15.93a159.33,159.33,0,0,0-5-15.52A132.32,132.32,0,0,0,173,400.78,81.17,81.17,0,0,0,164,387.08Z"/><path class="cls-7" d="M202.07,512.53a135,135,0,0,0-5.22-20.64c-2.36-6.59-5.38-13-9.85-18.08a26.63,26.63,0,0,0-7.77-6.23,25.38,25.38,0,0,0-9.6-2.71,32.67,32.67,0,0,0-5.14,0,39.82,39.82,0,0,0-5.18.72,76.58,76.58,0,0,0-10.26,2.88,47.79,47.79,0,0,1,9.79-4.65A33.82,33.82,0,0,1,169.75,462a25.43,25.43,0,0,1,11.05,2.45,28,28,0,0,1,9,6.93,41.23,41.23,0,0,1,6.08,9.37A58.84,58.84,0,0,1,199.62,491a75.39,75.39,0,0,1,2,10.69A67.26,67.26,0,0,1,202.07,512.53Z"/><polygon class="cls-10" points="651.94 241.73 463.06 132.68 463.06 74.69 651.94 183.74 651.94 241.73"/><path class="cls-7" d="M479.76,101s2.33,27.09,27.38,47.43l4.89-5.51-4.78-8.28L503,137.11s-13.48-14.28-14.65-25.38l4.57-2.63-6.37-11Z"/><path class="cls-7" d="M501.52,106.62l-.41-.27-.12,1.48.4.27c6.12,4.18,10.64,13,10.15,19.78l1.35.92C513.45,121.21,508.38,111.31,501.52,106.62Z"/><path class="cls-7" d="M500.14,110.22a3.28,3.28,0,0,0-.31-.2l-.09,1.13.31.2c4.68,3.2,8.13,10,7.76,15.13l1,.7C509.26,121.38,505.39,113.81,500.14,110.22Z"/><path class="cls-7" d="M498.31,114l-.23-.15-.07.84.23.16c3.5,2.39,6.08,7.44,5.8,11.31l.77.53C505.13,122.34,502.23,116.68,498.31,114Z"/><path class="cls-7" d="M544.55,138.92v7.87l-.89-.52V142.7l-3.48-2v3.57l-.89-.52v-7.86l.89.51v3.45l3.48,2V138.4Z"/><path class="cls-7" d="M550.92,147.76l-4.28-2.48a3.63,3.63,0,0,0,.54,1.75,3.44,3.44,0,0,0,1.2,1.2,1.38,1.38,0,0,0,1,.25.73.73,0,0,0,.54-.52l1,.55a1.25,1.25,0,0,1-.86,1,2.13,2.13,0,0,1-1.6-.37,4.92,4.92,0,0,1-1.37-1.18,6,6,0,0,1-.94-1.67,5.39,5.39,0,0,1-.34-1.89,2.84,2.84,0,0,1,.33-1.49,1.15,1.15,0,0,1,.93-.57,2.48,2.48,0,0,1,1.39.41,4.79,4.79,0,0,1,1.35,1.16,5.66,5.66,0,0,1,.9,1.58,4.91,4.91,0,0,1,.32,1.7C551,147.35,550.94,147.55,550.92,147.76Zm-1.11-2.49a3.56,3.56,0,0,0-.62-1,3.35,3.35,0,0,0-.85-.71,1.22,1.22,0,0,0-1.15-.17c-.32.15-.5.5-.54,1.06l3.38,2A3,3,0,0,0,549.81,145.27Z"/><path class="cls-7" d="M553,143.32v8.35l-.89-.51v-8.35Z"/><path class="cls-7" d="M555.42,144.71v8.35l-.89-.51v-8.36Z"/><path class="cls-7" d="M557.91,154.21a5.82,5.82,0,0,1-1-1.68,5.4,5.4,0,0,1-.35-1.89,2.58,2.58,0,0,1,.36-1.47,1.22,1.22,0,0,1,1-.56,2.6,2.6,0,0,1,1.38.41,5.14,5.14,0,0,1,1.38,1.19,5.9,5.9,0,0,1,1,1.67,5.2,5.2,0,0,1,.36,1.89,2.59,2.59,0,0,1-.37,1.48,1.26,1.26,0,0,1-1,.55,2.61,2.61,0,0,1-1.39-.41A5,5,0,0,1,557.91,154.21Zm2.26.54a.85.85,0,0,0,.68-.39,2,2,0,0,0,.26-1.12,4,4,0,0,0-.26-1.41,4,4,0,0,0-.66-1.15,3.33,3.33,0,0,0-.89-.77,1.71,1.71,0,0,0-.9-.27.83.83,0,0,0-.65.4,2.16,2.16,0,0,0-.24,1.13,4.09,4.09,0,0,0,.24,1.41,3.71,3.71,0,0,0,.64,1.14,3.32,3.32,0,0,0,.88.77A1.73,1.73,0,0,0,560.17,154.75Z"/><path class="cls-7" d="M566.75,159.41a4.94,4.94,0,0,1-.83-1.25,3.17,3.17,0,0,1-.31-1.31l.94.54a2.8,2.8,0,0,0,1.41,2.13,1.2,1.2,0,0,0,1,.21.7.7,0,0,0,.37-.73,1.85,1.85,0,0,0-.21-.86,3.6,3.6,0,0,0-.54-.74c-.22-.22-.51-.5-.87-.82s-.81-.74-1.08-1a4.4,4.4,0,0,1-.7-1,3.05,3.05,0,0,1-.29-1.33,1.47,1.47,0,0,1,.29-1,.92.92,0,0,1,.8-.31,2.79,2.79,0,0,1,1.17.41,4.68,4.68,0,0,1,1.57,1.46,3.83,3.83,0,0,1,.69,1.87l-1-.57a2.34,2.34,0,0,0-.41-1,2.83,2.83,0,0,0-.95-.9,1.12,1.12,0,0,0-.91-.19c-.24.09-.36.33-.36.73a1.72,1.72,0,0,0,.21.82,3.33,3.33,0,0,0,.52.71c.21.21.5.49.87.82a13.94,13.94,0,0,1,1.08,1,4.4,4.4,0,0,1,.71,1.05,3.11,3.11,0,0,1,.29,1.35,1.57,1.57,0,0,1-.26.93,1,1,0,0,1-.79.37,2.3,2.3,0,0,1-1.22-.38A5.16,5.16,0,0,1,566.75,159.41Z"/><path class="cls-7" d="M571.57,155a1.15,1.15,0,0,1-.18-.59.42.42,0,0,1,.18-.4.41.41,0,0,1,.43.05,1.19,1.19,0,0,1,.42.44,1.24,1.24,0,0,1,.17.59.44.44,0,0,1-.17.4.4.4,0,0,1-.42,0A1.2,1.2,0,0,1,571.57,155Zm.86,1.71v6.19l-.89-.52v-6.18Z"/><path class="cls-7" d="M575.51,158.65a2,2,0,0,1,1.06.32V160l-.24-.13c-1-.58-1.49-.24-1.49,1v3.36l-.89-.51v-6.19l.89.52v1A.83.83,0,0,1,575.51,158.65Z"/><path class="cls-7" d="M578.51,165l-1.09,2.41-.6-.35.71-2.62Z"/><path class="cls-7" d="M544.55,152.47v7.86l-.89-.51v-3.57l-3.48-2v3.57l-.89-.52v-7.87l.89.52v3.45l3.48,2V152Z"/><path class="cls-7" d="M547,161.48a6,6,0,0,1-.95-1.68,5.18,5.18,0,0,1-.35-1.89,2.58,2.58,0,0,1,.36-1.47,1.17,1.17,0,0,1,1-.55,2.49,2.49,0,0,1,1.38.4,5.47,5.47,0,0,1,1.38,1.19,5.9,5.9,0,0,1,1,1.67,5.18,5.18,0,0,1,.35,1.89,2.59,2.59,0,0,1-.36,1.48,1.29,1.29,0,0,1-1,.55,2.61,2.61,0,0,1-1.39-.41A5,5,0,0,1,547,161.48Zm2.27.54a.84.84,0,0,0,.68-.39,2,2,0,0,0,.26-1.11,4,4,0,0,0-.26-1.42,4,4,0,0,0-.66-1.15,3.33,3.33,0,0,0-.89-.77,1.6,1.6,0,0,0-.9-.26.78.78,0,0,0-.65.39,2.16,2.16,0,0,0-.24,1.13,4.09,4.09,0,0,0,.24,1.41,3.88,3.88,0,0,0,.64,1.15,3.3,3.3,0,0,0,.88.76A1.73,1.73,0,0,0,549.3,162Z"/><path class="cls-7" d="M559.46,162.76,557.78,168l-.92-.53-1.29-5.66L554.28,166l-.92-.53-1.68-7.16.91.52,1.23,5.91,1.33-4.43.91.53,1.3,5.95,1.22-4.5Z"/><path class="cls-7" d="M563,166.18a1.16,1.16,0,0,1,.92-.58,2.25,2.25,0,0,1,1.35.39,4.86,4.86,0,0,1,1.63,1.49,5.16,5.16,0,0,1,.85,2l-1-.55a3.22,3.22,0,0,0-.53-1.2,3.16,3.16,0,0,0-1-.9,1.11,1.11,0,0,0-1.23-.1,1.7,1.7,0,0,0-.47,1.44,4.25,4.25,0,0,0,.47,2,3.42,3.42,0,0,0,1.23,1.32,1.44,1.44,0,0,0,1,.24.75.75,0,0,0,.54-.59l1,.55a1.34,1.34,0,0,1-.86,1,2.13,2.13,0,0,1-1.62-.36,5,5,0,0,1-1.35-1.18,5.79,5.79,0,0,1-.92-1.65,5.31,5.31,0,0,1-.34-1.89A2.68,2.68,0,0,1,563,166.18Z"/><path class="cls-7" d="M568.88,169.6a1.18,1.18,0,0,1,.92-.58,2.21,2.21,0,0,1,1.29.35,4.26,4.26,0,0,1,1.22,1.06,4.77,4.77,0,0,1,.78,1.32v-1.12l.9.51v6.19l-.9-.52v-1.15a1,1,0,0,1-.79.44,2.09,2.09,0,0,1-1.22-.34,4.63,4.63,0,0,1-1.29-1.15,6.13,6.13,0,0,1-.91-1.67,5.53,5.53,0,0,1-.33-1.86A2.77,2.77,0,0,1,568.88,169.6Zm4,2.75a4,4,0,0,0-.66-1.18,3.38,3.38,0,0,0-.91-.8,1.57,1.57,0,0,0-.91-.26.84.84,0,0,0-.66.41,2.06,2.06,0,0,0-.24,1.08,4,4,0,0,0,.24,1.38,4.23,4.23,0,0,0,.66,1.18,3.11,3.11,0,0,0,.91.8,1.52,1.52,0,0,0,.91.25.81.81,0,0,0,.66-.42,2,2,0,0,0,.25-1.08A4,4,0,0,0,572.84,172.35Z"/><path class="cls-7" d="M579.69,175a4.51,4.51,0,0,1,.6,2.32V181l-.88-.51V177a3.29,3.29,0,0,0-.4-1.64,2.89,2.89,0,0,0-1.09-1.13,1.08,1.08,0,0,0-1.12-.14c-.28.18-.42.6-.42,1.24v3.42l-.89-.51V172l.89.52v.88a.88.88,0,0,1,.72-.32,2,2,0,0,1,1,.32A4.36,4.36,0,0,1,579.69,175Z"/><path class="cls-7" d="M584.39,175.94a1.16,1.16,0,0,1-.18-.6.41.41,0,0,1,.18-.39.43.43,0,0,1,.43,0,1.2,1.2,0,0,1,.41.45,1.13,1.13,0,0,1,.17.59.42.42,0,0,1-.17.4.37.37,0,0,1-.41,0A1.1,1.1,0,0,1,584.39,175.94Zm.86,1.71v6.18l-.89-.51v-6.19Z"/><path class="cls-7" d="M593.13,182.38a4.78,4.78,0,0,1,.77,1.34,4.84,4.84,0,0,1,.28,1.62V189l-.88-.51V185a3.31,3.31,0,0,0-.41-1.65,2.86,2.86,0,0,0-1.09-1.12c-.47-.27-.84-.32-1.12-.14s-.42.59-.42,1.24v3.42l-.89-.51v-8.36l.89.52v3a.9.9,0,0,1,.73-.31,2.26,2.26,0,0,1,1,.34A4.39,4.39,0,0,1,593.13,182.38Z"/><path class="cls-7" d="M600.49,189.93l-4.28-2.48a3.56,3.56,0,0,0,.54,1.74,3.39,3.39,0,0,0,1.2,1.21,1.45,1.45,0,0,0,1,.25.77.77,0,0,0,.55-.52l.95.55a1.26,1.26,0,0,1-.86,1,2.13,2.13,0,0,1-1.6-.37,4.88,4.88,0,0,1-1.36-1.18,5.74,5.74,0,0,1-1-1.67,5.39,5.39,0,0,1-.34-1.89,2.84,2.84,0,0,1,.33-1.49,1.17,1.17,0,0,1,.94-.57,2.47,2.47,0,0,1,1.38.41A4.79,4.79,0,0,1,599.3,186a5.52,5.52,0,0,1,.9,1.58,4.69,4.69,0,0,1,.32,1.7C600.52,189.52,600.51,189.72,600.49,189.93Zm-1.11-2.49a3.78,3.78,0,0,0-.61-1,3.35,3.35,0,0,0-.86-.71,1.22,1.22,0,0,0-1.15-.17,1.16,1.16,0,0,0-.54,1.06l3.38,2A2.93,2.93,0,0,0,599.38,187.44Z"/><path class="cls-7" d="M602.58,185.49v8.35l-.89-.51V185Z"/><path class="cls-7" d="M605.78,189.75a2.1,2.1,0,0,1,1.21.35,4.79,4.79,0,0,1,1.3,1.14,5.84,5.84,0,0,1,.91,1.64,5.46,5.46,0,0,1,.34,1.86,2.82,2.82,0,0,1-.34,1.48,1.18,1.18,0,0,1-.91.61,2.07,2.07,0,0,1-1.3-.34,4.11,4.11,0,0,1-1.2-1.05,5.27,5.27,0,0,1-.8-1.35v4.08l-.89-.52v-9.12l.89.52v1.14A1,1,0,0,1,605.78,189.75Zm2.6,3.11a4,4,0,0,0-.66-1.18,3.2,3.2,0,0,0-.91-.79,1.59,1.59,0,0,0-.91-.25.83.83,0,0,0-.66.42,1.9,1.9,0,0,0-.25,1.07,3.86,3.86,0,0,0,.25,1.37,4.23,4.23,0,0,0,.66,1.18,3.22,3.22,0,0,0,.91.8,1.54,1.54,0,0,0,.91.25.81.81,0,0,0,.66-.42,2,2,0,0,0,.25-1.09A4,4,0,0,0,608.38,192.86Z"/><path class="cls-7" d="M617.93,196.52l-3.22,7.24-.92-.53,1.05-2.38-2.16-7.36,1,.57,1.68,6,1.67-4Z"/><path class="cls-7" d="M619.8,203.49a5.82,5.82,0,0,1-1-1.68,5.4,5.4,0,0,1-.35-1.89,2.58,2.58,0,0,1,.36-1.47,1.19,1.19,0,0,1,1-.55,2.49,2.49,0,0,1,1.38.4,5.14,5.14,0,0,1,1.38,1.19,5.9,5.9,0,0,1,1,1.67,5.2,5.2,0,0,1,.36,1.89,2.51,2.51,0,0,1-.37,1.48,1.26,1.26,0,0,1-1,.55,2.61,2.61,0,0,1-1.39-.41A4.86,4.86,0,0,1,619.8,203.49Zm2.26.54a.83.83,0,0,0,.68-.39,2,2,0,0,0,.26-1.11,4.2,4.2,0,0,0-.25-1.42,4,4,0,0,0-.67-1.15,3.18,3.18,0,0,0-.89-.77,1.57,1.57,0,0,0-.89-.26.78.78,0,0,0-.65.39,2.06,2.06,0,0,0-.25,1.13,4.09,4.09,0,0,0,.24,1.41,3.88,3.88,0,0,0,.64,1.15,3.46,3.46,0,0,0,.88.76A1.73,1.73,0,0,0,622.06,204Z"/><path class="cls-7" d="M629.83,203.39v6.19l-.89-.52v-.91a.83.83,0,0,1-.7.33,2,2,0,0,1-1-.32,4.31,4.31,0,0,1-1.12-.94,4.71,4.71,0,0,1-.79-1.36,4.61,4.61,0,0,1-.29-1.62v-3.62l.88.51v3.48a3.4,3.4,0,0,0,.4,1.64,2.89,2.89,0,0,0,1.1,1.12c.47.28.85.33,1.12.15s.41-.6.41-1.25v-3.39Z"/><path class="cls-7" d="M634.64,205a3.86,3.86,0,0,1,.6,2c0,.79-.21,1.26-.63,1.39a2.25,2.25,0,0,1-1.73-.42l0,1-.77-.44,0-1.81.29.17a3.05,3.05,0,0,0,1.51.53c.37,0,.55-.33.55-1a2.48,2.48,0,0,0-.35-1.27,2.62,2.62,0,0,0-.95-.95,1,1,0,0,0-1-.17c-.24.12-.35.4-.35.83l-.84-.48a1.79,1.79,0,0,1,.26-1,.92.92,0,0,1,.75-.37,2.26,2.26,0,0,1,1.12.37A4.24,4.24,0,0,1,634.64,205Zm-2.61,5.7a1.24,1.24,0,0,1-.17-.6.42.42,0,0,1,.17-.39.4.4,0,0,1,.43,0,1.08,1.08,0,0,1,.42.45,1.24,1.24,0,0,1,.17.59.44.44,0,0,1-.17.4.39.39,0,0,1-.42,0A1.24,1.24,0,0,1,632,210.71Z"/><polygon class="cls-4" points="649.89 243.78 461 134.73 461 76.74 649.89 185.79 649.89 243.78"/><path class="cls-6" d="M477.7,103.06s2.34,27.09,27.39,47.44L510,145l-4.77-8.27L501,139.16s-13.48-14.28-14.65-25.38l4.57-2.63-6.37-11Z"/><path class="cls-6" d="M499.47,108.67l-.41-.27-.12,1.49.4.26c6.12,4.19,10.64,13,10.15,19.78l1.34.92C511.39,123.26,506.33,113.36,499.47,108.67Z"/><path class="cls-6" d="M498.09,112.27l-.31-.2-.1,1.13.31.21c4.68,3.2,8.14,9.94,7.77,15.12l1,.7C507.21,123.43,503.34,115.86,498.09,112.27Z"/><path class="cls-6" d="M496.26,116.05l-.24-.15-.07.85.24.15c3.5,2.39,6.08,7.44,5.8,11.31l.77.53C503.08,124.4,500.18,118.73,496.26,116.05Z"/><path class="cls-8" d="M542.49,141v7.87l-.89-.51v-3.57l-3.47-2v3.57l-.89-.51v-7.87l.89.51v3.46l3.47,2v-3.45Z"/><path class="cls-8" d="M548.87,149.81l-4.29-2.47a3.68,3.68,0,0,0,.55,1.74,3.44,3.44,0,0,0,1.2,1.2,1.33,1.33,0,0,0,1,.25.73.73,0,0,0,.54-.52l1,.56a1.23,1.23,0,0,1-.86,1,2.12,2.12,0,0,1-1.6-.37A4.76,4.76,0,0,1,545,150a5.82,5.82,0,0,1-.94-1.67,5.3,5.3,0,0,1-.34-1.88,2.81,2.81,0,0,1,.33-1.49,1.14,1.14,0,0,1,.93-.58,2.61,2.61,0,0,1,1.39.41,4.93,4.93,0,0,1,1.34,1.17,5.28,5.28,0,0,1,.91,1.57,4.92,4.92,0,0,1,.32,1.71Q548.9,149.5,548.87,149.81Zm-1.12-2.49a3.5,3.5,0,0,0-1.46-1.71,1.22,1.22,0,0,0-1.15-.17c-.32.15-.5.51-.55,1.07l3.39,2A3,3,0,0,0,547.75,147.32Z"/><path class="cls-8" d="M551,145.37v8.36l-.89-.52v-8.35Z"/><path class="cls-8" d="M553.36,146.76v8.36l-.89-.52v-8.35Z"/><path class="cls-8" d="M555.85,156.26a6.33,6.33,0,0,1-1-1.68,5.39,5.39,0,0,1-.34-1.89,2.66,2.66,0,0,1,.35-1.47,1.23,1.23,0,0,1,1-.55,2.58,2.58,0,0,1,1.38.4,5.26,5.26,0,0,1,1.37,1.19,5.83,5.83,0,0,1,1,1.67,5.18,5.18,0,0,1,.35,1.89,2.59,2.59,0,0,1-.36,1.48,1.26,1.26,0,0,1-1,.55,2.52,2.52,0,0,1-1.39-.41A4.9,4.9,0,0,1,555.85,156.26Zm2.27.54a.84.84,0,0,0,.68-.39,2,2,0,0,0,.26-1.11,3.88,3.88,0,0,0-.26-1.41,4.08,4.08,0,0,0-.66-1.16,3.33,3.33,0,0,0-.89-.77,1.6,1.6,0,0,0-.9-.26.77.77,0,0,0-.65.4,2.09,2.09,0,0,0-.24,1.12,4.05,4.05,0,0,0,.24,1.41,3.88,3.88,0,0,0,.64,1.15,3.3,3.3,0,0,0,.88.76A1.73,1.73,0,0,0,558.12,156.8Z"/><path class="cls-8" d="M564.7,161.46a4.77,4.77,0,0,1-.83-1.25,3.19,3.19,0,0,1-.32-1.31l1,.55a2.73,2.73,0,0,0,.4,1.16,2.83,2.83,0,0,0,1,1,1.2,1.2,0,0,0,1,.21c.25-.1.37-.35.37-.73a1.75,1.75,0,0,0-.22-.86,3.23,3.23,0,0,0-.53-.74c-.22-.22-.51-.49-.88-.82s-.8-.74-1.08-1a4.09,4.09,0,0,1-.69-1,3.05,3.05,0,0,1-.29-1.33,1.47,1.47,0,0,1,.29-1,.93.93,0,0,1,.79-.31,2.83,2.83,0,0,1,1.18.41,4.77,4.77,0,0,1,1.57,1.46,3.86,3.86,0,0,1,.69,1.87l-1-.57a2.34,2.34,0,0,0-.41-1,2.77,2.77,0,0,0-1-.9,1.14,1.14,0,0,0-.91-.19c-.23.09-.35.33-.35.73a1.7,1.7,0,0,0,.21.82,3,3,0,0,0,.52.71,10.8,10.8,0,0,0,.87.82c.44.41.81.76,1.08,1.05a4.37,4.37,0,0,1,.7,1,3,3,0,0,1,.3,1.35,1.47,1.47,0,0,1-.27.93.93.93,0,0,1-.78.38,2.42,2.42,0,0,1-1.22-.39A5.16,5.16,0,0,1,564.7,161.46Z"/><path class="cls-8" d="M569.52,157.05a1.21,1.21,0,0,1-.18-.6.42.42,0,0,1,.18-.4.43.43,0,0,1,.43,0,1.1,1.1,0,0,1,.41.44,1.14,1.14,0,0,1,.17.6c0,.19,0,.33-.17.39a.39.39,0,0,1-.41,0A1.17,1.17,0,0,1,569.52,157.05Zm.86,1.7v6.19l-.89-.52v-6.18Z"/><path class="cls-8" d="M573.45,160.71a1.84,1.84,0,0,1,1.06.32v1.06l-.23-.14c-1-.57-1.5-.24-1.5,1v3.37l-.89-.52v-6.18l.89.51v1A.85.85,0,0,1,573.45,160.71Z"/><path class="cls-8" d="M576.46,167l-1.1,2.4-.59-.34.71-2.63Z"/><path class="cls-8" d="M542.49,154.52v7.87l-.89-.52v-3.56l-3.47-2v3.57l-.89-.51v-7.87l.89.51v3.46l3.47,2V154Z"/><path class="cls-8" d="M545,163.53a5.82,5.82,0,0,1-1-1.68,5.34,5.34,0,0,1-.34-1.88,2.59,2.59,0,0,1,.35-1.48,1.22,1.22,0,0,1,1-.55,2.46,2.46,0,0,1,1.37.41,4.93,4.93,0,0,1,1.38,1.18,6.22,6.22,0,0,1,1,1.67,5.4,5.4,0,0,1,.35,1.89,2.59,2.59,0,0,1-.36,1.48,1.27,1.27,0,0,1-1,.55,2.54,2.54,0,0,1-1.39-.41A5,5,0,0,1,545,163.53Zm2.26.54a.83.83,0,0,0,.68-.39,1.88,1.88,0,0,0,.26-1.11,4,4,0,0,0-.92-2.57,3.35,3.35,0,0,0-.89-.77,1.63,1.63,0,0,0-.89-.26.77.77,0,0,0-.65.4,2.09,2.09,0,0,0-.25,1.12,4.05,4.05,0,0,0,.24,1.41,4.12,4.12,0,0,0,.64,1.15,3.43,3.43,0,0,0,.88.76A1.73,1.73,0,0,0,547.24,164.07Z"/><path class="cls-8" d="M557.4,164.81,555.73,170l-.92-.53-1.29-5.66L552.23,168l-.92-.53-1.68-7.16.91.53,1.23,5.9,1.33-4.42.91.52,1.3,6,1.21-4.51Z"/><path class="cls-8" d="M560.89,168.23a1.18,1.18,0,0,1,.93-.58,2.35,2.35,0,0,1,1.35.39,5.06,5.06,0,0,1,1.63,1.49,5.22,5.22,0,0,1,.85,2l-1-.55a3.09,3.09,0,0,0-.54-1.2,3,3,0,0,0-1-.89,1.09,1.09,0,0,0-1.23-.11,1.7,1.7,0,0,0-.47,1.44,4.25,4.25,0,0,0,.47,2,3.28,3.28,0,0,0,1.23,1.32,1.44,1.44,0,0,0,1,.25.76.76,0,0,0,.54-.6l1,.56a1.3,1.3,0,0,1-.87,1,2.1,2.1,0,0,1-1.61-.36,4.87,4.87,0,0,1-1.35-1.18,5.63,5.63,0,0,1-1.26-3.54A2.77,2.77,0,0,1,560.89,168.23Z"/><path class="cls-8" d="M566.83,171.66a1.18,1.18,0,0,1,.91-.59,2.22,2.22,0,0,1,1.3.35,4.57,4.57,0,0,1,1.22,1.06,4.77,4.77,0,0,1,.77,1.33v-1.13l.9.52v6.18l-.9-.52v-1.15a1,1,0,0,1-.78.45,2.1,2.1,0,0,1-1.22-.35,4.5,4.5,0,0,1-1.29-1.15,5.87,5.87,0,0,1-.91-1.67,5.49,5.49,0,0,1-.33-1.86A2.76,2.76,0,0,1,566.83,171.66Zm4,2.74a4.13,4.13,0,0,0-.66-1.18,3.27,3.27,0,0,0-.92-.8,1.61,1.61,0,0,0-.91-.26.84.84,0,0,0-.65.42,2,2,0,0,0-.24,1.07,4,4,0,0,0,.24,1.38,4.07,4.07,0,0,0,.65,1.18,3.38,3.38,0,0,0,.91.8,1.5,1.5,0,0,0,.92.25.81.81,0,0,0,.66-.42,2,2,0,0,0,.24-1.08A3.94,3.94,0,0,0,570.79,174.4Z"/><path class="cls-8" d="M577.63,177.06a4.44,4.44,0,0,1,.61,2.32V183l-.88-.51V179a3.3,3.3,0,0,0-.4-1.65,2.82,2.82,0,0,0-1.1-1.12c-.47-.28-.84-.32-1.12-.14s-.41.59-.41,1.24v3.42l-.89-.52v-6.18l.89.51v.88a.88.88,0,0,1,.72-.32,2.07,2.07,0,0,1,1,.32A4.33,4.33,0,0,1,577.63,177.06Z"/><path class="cls-8" d="M582.34,178a1.21,1.21,0,0,1-.18-.6.42.42,0,0,1,.18-.4.41.41,0,0,1,.43.05,1.1,1.1,0,0,1,.41.44,1.14,1.14,0,0,1,.17.6.41.41,0,0,1-.17.39.39.39,0,0,1-.41,0A1.17,1.17,0,0,1,582.34,178Zm.86,1.7v6.19l-.89-.52v-6.18Z"/><path class="cls-8" d="M591.08,184.44a4.29,4.29,0,0,1,.76,1.34,4.51,4.51,0,0,1,.28,1.61V191l-.88-.51V187a3.36,3.36,0,0,0-.4-1.65,2.93,2.93,0,0,0-1.09-1.12c-.47-.27-.85-.32-1.12-.14s-.42.6-.42,1.24v3.42l-.89-.51v-8.36l.89.52v3a.88.88,0,0,1,.73-.32,2.26,2.26,0,0,1,1,.34A4.23,4.23,0,0,1,591.08,184.44Z"/><path class="cls-8" d="M598.44,192l-4.28-2.47a3.62,3.62,0,0,0,.54,1.74,3.44,3.44,0,0,0,1.2,1.2,1.38,1.38,0,0,0,1,.25.73.73,0,0,0,.54-.52l1,.55a1.25,1.25,0,0,1-.86,1,2.13,2.13,0,0,1-1.6-.37,4.92,4.92,0,0,1-1.37-1.18,6,6,0,0,1-.94-1.67,5.34,5.34,0,0,1-.34-1.88,2.81,2.81,0,0,1,.33-1.49,1.14,1.14,0,0,1,.93-.58,2.5,2.5,0,0,1,1.39.41,5.11,5.11,0,0,1,1.35,1.16,5.66,5.66,0,0,1,.9,1.58,4.91,4.91,0,0,1,.32,1.7C598.47,191.57,598.46,191.77,598.44,192Zm-1.12-2.49a3.53,3.53,0,0,0-.61-1,3.35,3.35,0,0,0-.85-.71,1.22,1.22,0,0,0-1.15-.17c-.32.15-.5.51-.54,1.07l3.38,1.95A3,3,0,0,0,597.32,189.49Z"/><path class="cls-8" d="M600.53,187.54v8.36l-.89-.52V187Z"/><path class="cls-8" d="M603.72,191.81a2.09,2.09,0,0,1,1.22.34,4.67,4.67,0,0,1,1.3,1.15,5.81,5.81,0,0,1,.91,1.64,5.35,5.35,0,0,1,.33,1.85,2.82,2.82,0,0,1-.33,1.48,1.23,1.23,0,0,1-.91.62,2.15,2.15,0,0,1-1.3-.35,4.15,4.15,0,0,1-1.21-1,5.22,5.22,0,0,1-.79-1.35v4.08l-.89-.51v-9.13l.89.52v1.14A1,1,0,0,1,603.72,191.81Zm2.61,3.1a3.94,3.94,0,0,0-.66-1.17,3.38,3.38,0,0,0-.91-.8,1.59,1.59,0,0,0-.91-.25.86.86,0,0,0-.66.42,1.9,1.9,0,0,0-.25,1.07,3.82,3.82,0,0,0,.25,1.37,4,4,0,0,0,.66,1.18,3.22,3.22,0,0,0,.91.8,1.45,1.45,0,0,0,.91.25.81.81,0,0,0,.66-.42,2,2,0,0,0,.24-1.09A3.94,3.94,0,0,0,606.33,194.91Z"/><path class="cls-8" d="M615.88,198.57l-3.22,7.24-.92-.53,1-2.37-2.16-7.37,1,.57,1.68,6L615,198Z"/><path class="cls-8" d="M617.74,205.54a6,6,0,0,1-1-1.68,5.13,5.13,0,0,1-.35-1.88,2.59,2.59,0,0,1,.36-1.48,1.2,1.2,0,0,1,1-.55,2.51,2.51,0,0,1,1.38.41,4.93,4.93,0,0,1,1.38,1.18,6.18,6.18,0,0,1,1,1.67,5.2,5.2,0,0,1,.36,1.89,2.59,2.59,0,0,1-.37,1.48,1.26,1.26,0,0,1-1,.55,2.52,2.52,0,0,1-1.39-.41A5,5,0,0,1,617.74,205.54Zm2.27.54a.84.84,0,0,0,.68-.39,2,2,0,0,0,.26-1.11,3.88,3.88,0,0,0-.26-1.41A4.08,4.08,0,0,0,620,202a3.52,3.52,0,0,0-.89-.77,1.69,1.69,0,0,0-.9-.26.8.8,0,0,0-.65.4,2.09,2.09,0,0,0-.24,1.12,4.05,4.05,0,0,0,.24,1.41,3.88,3.88,0,0,0,.64,1.15,3.27,3.27,0,0,0,.88.76A1.73,1.73,0,0,0,620,206.08Z"/><path class="cls-8" d="M627.78,205.44v6.19l-.89-.52v-.91a.84.84,0,0,1-.71.33,2,2,0,0,1-1-.31,4.2,4.2,0,0,1-1.12-.95,4.33,4.33,0,0,1-.79-1.35,4.62,4.62,0,0,1-.29-1.63v-3.62l.88.51v3.49a3.26,3.26,0,0,0,.4,1.63,2.85,2.85,0,0,0,1.1,1.13c.47.27.85.32,1.12.14s.41-.6.41-1.24v-3.4Z"/><path class="cls-8" d="M632.59,207.07a3.84,3.84,0,0,1,.6,2c0,.79-.21,1.25-.64,1.38a2.24,2.24,0,0,1-1.72-.42l0,1.06-.77-.45,0-1.81.28.17a3.08,3.08,0,0,0,1.52.53c.36,0,.55-.33.55-1a2.51,2.51,0,0,0-.35-1.27,2.59,2.59,0,0,0-1-.94q-.62-.36-1-.18c-.23.12-.34.4-.34.84l-.84-.49a1.72,1.72,0,0,1,.26-1,.88.88,0,0,1,.75-.36,2.37,2.37,0,0,1,1.12.36A4.42,4.42,0,0,1,632.59,207.07ZM630,212.76a1.16,1.16,0,0,1-.18-.6.37.37,0,0,1,.61-.34,1.19,1.19,0,0,1,.42.44,1.24,1.24,0,0,1,.17.59.44.44,0,0,1-.17.4.39.39,0,0,1-.42,0A1.1,1.1,0,0,1,630,212.76Z"/></svg>