<svg id="Layer_2" data-name="Layer 2" xmlns="http://www.w3.org/2000/svg" xmlns:xlink="http://www.w3.org/1999/xlink" width="694" height="532.75" viewBox="0 0 694 532.75">
  <defs>
    <linearGradient id="linear-gradient" x1="-0.927" y1="-0.919" x2="1.897" y2="1.889" gradientUnits="objectBoundingBox">
      <stop offset="0" stop-color="#00c6ff"/>
      <stop offset="1" stop-color="#25f499"/>
    </linearGradient>
    <linearGradient id="linear-gradient-2" x1="-0.324" y1="-0.332" x2="2.039" y2="2.053" xlink:href="#linear-gradient"/>
    <linearGradient id="linear-gradient-3" x1="-1.393" y1="-1.411" x2="0.97" y2="0.974" xlink:href="#linear-gradient"/>
    <linearGradient id="linear-gradient-4" x1="-1.034" y1="-1.048" x2="1.329" y2="1.337" xlink:href="#linear-gradient"/>
    <linearGradient id="linear-gradient-5" y1="0.5" x2="1" y2="0.5" gradientUnits="objectBoundingBox">
      <stop offset="0" stop-color="#dce6f2"/>
      <stop offset="1" stop-color="#ebf1f8"/>
    </linearGradient>
    <linearGradient id="linear-gradient-7" x1="0.036" y1="0.031" x2="2.399" y2="2.417" xlink:href="#linear-gradient"/>
    <linearGradient id="linear-gradient-10" x1="0" y1="0.5" x2="1" y2="0.5" xlink:href="#linear-gradient"/>
    <linearGradient id="linear-gradient-11" x1="0.997" y1="0.61" x2="0.012" y2="0.216" gradientUnits="objectBoundingBox">
      <stop offset="0" stop-color="#374fc1" stop-opacity="0"/>
      <stop offset="1" stop-color="#374fc1" stop-opacity="0.302"/>
    </linearGradient>
    <linearGradient id="linear-gradient-12" x1="0.498" y1="0.005" x2="0.498" y2="0.999" gradientUnits="objectBoundingBox">
      <stop offset="0" stop-color="#fff" stop-opacity="0"/>
      <stop offset="1" stop-color="#fff" stop-opacity="0.502"/>
    </linearGradient>
  </defs>
  <g id="Layer_1" data-name="Layer 1">
    <path id="Path_177" data-name="Path 177" d="M414.65,307.99l-15.3-8.84L592.73,187.51l15.3,8.83Z" fill="#364371"/>
    <path id="Path_178" data-name="Path 178" d="M115.77,480.55l-15.3-8.83L293.84,360.07l15.3,8.83Z" fill="#364371"/>
    <path id="Path_179" data-name="Path 179" d="M399.36,368.9l15.29-8.83L608.03,471.72l-15.3,8.83Z" fill="#364371"/>
    <path id="Path_180" data-name="Path 180" d="M100.47,196.34l15.29-8.83L309.14,299.15l-15.3,8.84Z" fill="#364371"/>
    <path id="Path_181" data-name="Path 181" d="M414,309c-34-19.69-89.18-19.77-123.23-.16s-34.1,51.45-.1,71.15,89.18,19.76,123.24.16S448,328.7,414,309ZM308.1,369.94c-24.36-14.11-24.33-36.94.07-51s63.94-14,88.31.12,24.33,36.94-.07,51S332.47,384.05,308.1,369.94Z" fill="#364371"/>
    <path id="Path_182" data-name="Path 182" d="M265.15,343.92l.02-11.55,13.72.01-.01,11.54Z" fill="#364371"/>
    <path id="Path_183" data-name="Path 183" d="M425.69,344.13l.01-11.55,13.73.02-.02,11.54Z" fill="#364371"/>
    <path id="Path_184" data-name="Path 184" d="M414,298.68c-34-19.69-89.18-19.76-123.24-.16s-34.1,51.46-.09,71.15,89.18,19.77,123.23.17S448,318.38,414,298.68ZM308.12,359.61c-24.37-14.11-24.34-36.94.06-51s63.94-14,88.31.11,24.34,36.94-.07,51S332.48,373.72,308.12,359.61Z" fill="url(#linear-gradient)"/>
    <path id="Path_185" data-name="Path 185" d="M417.2,177.28c0-15-10.48-33.23-23.45-40.74L366,120.46c-13.42-7.77-23.5-.53-23.52,13.54a35.82,35.82,0,0,0,.79,7.25l5.07,2.94c3.33,1.92,4.69-.21,6.06-1.07a18.555,18.555,0,0,1-.18-2.32c0-7.22,5.24-10.55,11.77-6.77l27.76,16.08c6.48,3.75,11.74,12.89,11.73,20.37s-5.29,10.52-11.77,6.77l-18.35-10.62c-1.2,1.3-3.1,6.07-9.66,8,.08,0,.15.11.23.16l27.77,16.08C406.65,198.34,417.18,192.28,417.2,177.28Z" fill="#0067ff"/>
    <path id="Path_186" data-name="Path 186" d="M371.82,151a35.916,35.916,0,0,0-.8-7.25L366,140.82c-3.33-1.93-4.69.21-6.06,1.07a18.236,18.236,0,0,1,.18,2.31c0,7.22-5.24,10.55-11.77,6.77L318.4,133.65c-6.48-3.75-11.74-12.89-11.73-20.38s5.29-10.52,11.76-6.77l20.51,11.88c1.2-1.31,3.09-6.08,9.66-8-.08,0-.15-.12-.23-.16L318.45,92.93c-13-7.51-23.5-1.45-23.53,13.54s10.49,33.24,23.46,40.75l29.91,17.32C361.46,172.17,371.8,165.39,371.82,151Z" fill="#0067ff"/>
    <path id="Path_187" data-name="Path 187" d="M410,179.67c0-15-10.48-33.24-23.45-40.75l-27.76-16.08c-13.42-7.77-23.51-.53-23.53,13.54a35.838,35.838,0,0,0,.8,7.25l5.06,2.94c3.33,1.92,4.69-.21,6.06-1.07a16.677,16.677,0,0,1-.17-2.32c0-7.22,5.23-10.55,11.76-6.77l27.76,16.08c6.48,3.75,11.74,12.89,11.73,20.37s-5.29,10.53-11.76,6.77L368.16,169c-1.2,1.3-3.09,6.07-9.66,8,.08,0,.15.11.23.16l27.77,16.08C399.47,200.72,410,194.66,410,179.67Z" fill="#f2f5fa"/>
    <path id="Path_188" data-name="Path 188" d="M364.64,153.38a35.89,35.89,0,0,0-.79-7.25l-5.07-2.93c-3.32-1.93-4.69.21-6.06,1.07a16.69,16.69,0,0,1,.18,2.31c0,7.22-5.23,10.56-11.76,6.77L311.22,136c-6.48-3.75-11.74-12.89-11.73-20.37s5.29-10.53,11.77-6.78l20.5,11.88c1.21-1.31,3.1-6.08,9.66-8-.08,0-.15-.12-.23-.16L311.27,95.31c-13-7.51-23.5-1.45-23.52,13.54s10.48,33.24,23.45,40.75l29.92,17.33C354.29,174.55,364.62,167.77,364.64,153.38Z" fill="#f2f5fa"/>
    <path id="Path_189" data-name="Path 189" d="M99.56,464.02l15.3,8.83L308.23,361.2l-15.29-8.83Z" fill="url(#linear-gradient-2)"/>
    <path id="Path_190" data-name="Path 190" d="M413.75,352.37l-15.3,8.83L591.82,472.85l15.3-8.83Z" fill="url(#linear-gradient-3)"/>
    <path id="Path_191" data-name="Path 191" d="M450.69,211.4v-7.25l119.63,69.08v7.24Z" fill="#364371"/>
    <path id="Path_192" data-name="Path 192" d="M570.26,280.47v-7.24l119.63-69.08v7.25Z" fill="#364371"/>
    <path id="Path_193" data-name="Path 193" d="M607.12,188.64l-15.3-8.83L398.45,291.45l15.3,8.84Z" fill="url(#linear-gradient-4)"/>
    <path id="Path_194" data-name="Path 194" d="M570.29,273.11,450.66,204.04l119.63-69.07,119.63,69.07Z" fill="url(#linear-gradient-5)"/>
    <path id="Path_195" data-name="Path 195" d="M119.63,520.41,0,451.34l119.63-69.07,119.64,69.07Z" fill="url(#linear-gradient-5)"/>
    <path id="Path_196" data-name="Path 196" d="M.03,458.7v-7.25l119.64,69.07v7.25Z" fill="#364371"/>
    <path id="Path_197" data-name="Path 197" d="M119.6,527.77v-7.25l119.64-69.07v7.25Z" fill="#364371"/>
    <path id="Path_198" data-name="Path 198" d="M31.73,205.51v-7.24l119.64,69.07v7.24Z" fill="#364371"/>
    <path id="Path_199" data-name="Path 199" d="M151.31,274.58v-7.24l119.63-69.07v7.24Z" fill="#364371"/>
    <path id="Path_200" data-name="Path 200" d="M308.23,291.45,114.86,179.81l-15.3,8.83L292.94,300.29Z" fill="url(#linear-gradient-7)"/>
    <path id="Path_201" data-name="Path 201" d="M151.34,267.22,31.7,198.15l119.64-69.07,119.63,69.07Z" fill="url(#linear-gradient-5)"/>
    <path id="Path_202" data-name="Path 202" d="M574.37,525.39,454.73,456.32l119.64-69.07L694,456.32Z" fill="url(#linear-gradient-5)"/>
    <path id="Path_203" data-name="Path 203" d="M454.76,463.68v-7.25L574.4,525.5v7.25Z" fill="#364371"/>
    <path id="Path_204" data-name="Path 204" d="M574.34,532.75V525.5l119.63-69.07v7.25Z" fill="#364371"/>
    <path id="Path_205" data-name="Path 205" d="M628.98,156.16l-70.77-40.99,30.32-17.45L659.3,138.7Z" fill="#00c6ff"/>
    <path id="Path_206" data-name="Path 206" d="M628.82,215.96l.08-59.7,30.32-17.45-.08,59.7Z" fill="#0067ff"/>
    <path id="Path_207" data-name="Path 207" d="M628.91,215.72l-70.77-40.98.08-59.57,70.77,40.99Z" fill="#0094ff"/>
    <path id="Path_208" data-name="Path 208" d="M630.27,160.93l-80.8-46.79,34.62-19.93L664.89,141Z" fill="#00c6ff"/>
    <path id="Path_209" data-name="Path 209" d="M630.47,169.74l.01-8.89,34.63-19.93-.01,8.89Z" fill="#dbddf2"/>
    <path id="Path_210" data-name="Path 210" d="M630.46,169.91l-80.8-46.8.01-8.97,80.8,46.79Z" fill="#f2f5fa"/>
    <path id="Path_211" data-name="Path 211" d="M626.13,146.46l-60.66-35.13,25.99-14.96,60.67,35.13Z" fill="#fff"/>
    <path id="Path_212" data-name="Path 212" d="M626.28,153.08l.01-6.68,26-14.96-.01,6.68Z" fill="#0067ff"/>
    <path id="Path_213" data-name="Path 213" d="M626.28,153.2l-60.67-35.13.01-6.74,60.66,35.13Z" fill="#0094ff"/>
    <path id="Path_214" data-name="Path 214" d="M580.31,163.57l-16.51-9.56.02-13.76,16.51,9.56Z" fill="#f2f5fa"/>
    <path id="Path_215" data-name="Path 215" d="M619.4,186.21l-16.51-9.56.02-13.76,16.51,9.55Z" fill="#f2f5fa"/>
    <path id="Path_216" data-name="Path 216" d="M599.82,198.2l-16.5-9.56.04-34.06,16.51,9.56Z" fill="#f2f5fa"/>
    <path id="Path_217" data-name="Path 217" d="M561.41,145.74l-2.39-1.39,4.66-4.22,2.39,1.38Z" fill="#dbddf2"/>
    <path id="Path_218" data-name="Path 218" d="M563.8,147.12l-2.39-1.38,4.66-4.23,2.39,1.39Z" fill="#ff8577"/>
    <path id="Path_219" data-name="Path 219" d="M566.19,148.5l-2.39-1.38,4.66-4.22,2.39,1.38Z" fill="#dbddf2"/>
    <path id="Path_220" data-name="Path 220" d="M568.57,149.88l-2.38-1.38,4.66-4.22,2.39,1.38Z" fill="#ff8577"/>
    <path id="Path_221" data-name="Path 221" d="M570.96,151.27l-2.39-1.39,4.67-4.22,2.39,1.39Z" fill="#dbddf2"/>
    <path id="Path_222" data-name="Path 222" d="M573.35,152.65l-2.39-1.38,4.67-4.22,2.38,1.38Z" fill="#ff8577"/>
    <path id="Path_223" data-name="Path 223" d="M575.74,154.03l-2.39-1.38,4.66-4.22,2.39,1.38Z" fill="#dbddf2"/>
    <path id="Path_224" data-name="Path 224" d="M561.4,146.27l-2.39-1.38.01-.54,2.39,1.39Z" fill="#0067ff"/>
    <path id="Path_225" data-name="Path 225" d="M563.79,147.65l-2.39-1.38.01-.53,2.39,1.38Z" fill="#0067ff"/>
    <path id="Path_226" data-name="Path 226" d="M566.17,149.04l-2.38-1.39.01-.53,2.39,1.38Z" fill="#0067ff"/>
    <path id="Path_227" data-name="Path 227" d="M568.56,150.42l-2.39-1.38.02-.54,2.38,1.38Z" fill="#0067ff"/>
    <path id="Path_228" data-name="Path 228" d="M570.95,151.8l-2.39-1.38.01-.54,2.39,1.39Z" fill="#0067ff"/>
    <path id="Path_229" data-name="Path 229" d="M573.34,153.19l-2.39-1.39.01-.53,2.39,1.38Z" fill="#0067ff"/>
    <path id="Path_230" data-name="Path 230" d="M575.73,154.57l-2.39-1.38.01-.54,2.39,1.38Z" fill="#0067ff"/>
    <path id="Path_231" data-name="Path 231" d="M600.39,167.86,598,166.48l4.67-4.22,2.39,1.38Z" fill="#dbddf2"/>
    <path id="Path_232" data-name="Path 232" d="M602.78,169.25l-2.39-1.39,4.67-4.22,2.39,1.39Z" fill="#ff8577"/>
    <path id="Path_233" data-name="Path 233" d="M605.17,170.63l-2.39-1.38,4.67-4.22,2.38,1.38Z" fill="#dbddf2"/>
    <path id="Path_234" data-name="Path 234" d="M607.56,172.01l-2.39-1.38,4.66-4.22,2.39,1.38Z" fill="#ff8577"/>
    <path id="Path_235" data-name="Path 235" d="M609.95,173.4l-2.39-1.39,4.66-4.22,2.39,1.39Z" fill="#dbddf2"/>
    <path id="Path_236" data-name="Path 236" d="M612.34,174.78l-2.39-1.38,4.66-4.22,2.39,1.38Z" fill="#ff8577"/>
    <path id="Path_237" data-name="Path 237" d="M614.73,176.16l-2.39-1.38,4.66-4.22,2.39,1.38Z" fill="#dbddf2"/>
    <path id="Path_238" data-name="Path 238" d="M600.38,168.4l-2.39-1.39.01-.53,2.39,1.38Z" fill="#0067ff"/>
    <path id="Path_239" data-name="Path 239" d="M602.77,169.78l-2.39-1.38.01-.54,2.39,1.39Z" fill="#0067ff"/>
    <path id="Path_240" data-name="Path 240" d="M605.16,171.16l-2.39-1.38.01-.53,2.39,1.38Z" fill="#0067ff"/>
    <path id="Path_241" data-name="Path 241" d="M607.55,172.55l-2.39-1.39.01-.53,2.39,1.38Z" fill="#0067ff"/>
    <path id="Path_242" data-name="Path 242" d="M609.94,173.93l-2.39-1.38.01-.54,2.39,1.39Z" fill="#0067ff"/>
    <path id="Path_243" data-name="Path 243" d="M612.33,175.31l-2.39-1.38.01-.53,2.39,1.38Z" fill="#0067ff"/>
    <path id="Path_244" data-name="Path 244" d="M614.71,176.7l-2.38-1.39.01-.53,2.39,1.38Z" fill="#0067ff"/>
    <path id="Path_245" data-name="Path 245" d="M653.93,178.38l-15.53,8.93.02-10.91,15.52-8.94Z" fill="#f2f5fa"/>
    <path id="Path_246" data-name="Path 246" d="M643.14,178.14l-2.25,1.29-2.73-2.98,2.24-1.29Z" fill="#dbddf2"/>
    <path id="Path_247" data-name="Path 247" d="M645.38,176.85l-2.24,1.29-2.74-2.98,2.25-1.29Z" fill="#ff8577"/>
    <path id="Path_248" data-name="Path 248" d="M647.62,175.56l-2.24,1.29-2.73-2.98,2.24-1.29Z" fill="#dbddf2"/>
    <path id="Path_249" data-name="Path 249" d="M649.87,174.26l-2.25,1.3-2.73-2.98,2.24-1.29Z" fill="#ff8577"/>
    <path id="Path_250" data-name="Path 250" d="M652.11,172.97l-2.24,1.29-2.74-2.97,2.25-1.29Z" fill="#dbddf2"/>
    <path id="Path_251" data-name="Path 251" d="M654.35,171.68l-2.24,1.29L649.38,170l2.24-1.29Z" fill="#ff8577"/>
    <path id="Path_252" data-name="Path 252" d="M656.6,170.39l-2.25,1.29-2.73-2.97,2.24-1.3Z" fill="#dbddf2"/>
    <path id="Path_253" data-name="Path 253" d="M643.09,178.65l-2.24,1.29.04-.51,2.25-1.29Z" fill="#0094ff"/>
    <path id="Path_254" data-name="Path 254" d="M645.33,177.36l-2.24,1.29.05-.51,2.24-1.29Z" fill="#0094ff"/>
    <path id="Path_255" data-name="Path 255" d="M647.58,176.07l-2.25,1.29.05-.51,2.24-1.29Z" fill="#0094ff"/>
    <path id="Path_256" data-name="Path 256" d="M649.82,174.78l-2.24,1.29.04-.51,2.25-1.3Z" fill="#0094ff"/>
    <path id="Path_257" data-name="Path 257" d="M652.06,173.48l-2.24,1.3.05-.52,2.24-1.29Z" fill="#0094ff"/>
    <path id="Path_258" data-name="Path 258" d="M654.31,172.19l-2.25,1.29.05-.51,2.24-1.29Z" fill="#0094ff"/>
    <path id="Path_259" data-name="Path 259" d="M656.55,170.9l-2.24,1.29.04-.51,2.25-1.29Z" fill="#0094ff"/>
    <path id="Path_260" data-name="Path 260" d="M595.47,417.66,510.2,466.74a2.76,2.76,0,0,1-4.15-2.37L505.67,410a2.78,2.78,0,0,1,1.38-2.42l85.27-49.07a2.76,2.76,0,0,1,4.15,2.37l.39,54.35a2.78,2.78,0,0,1-1.39,2.43Z" fill="#0094ff"/>
    <path id="Path_261" data-name="Path 261" d="M651.11,450.49l-90.78,52.25-51.76-29.97,90.78-52.26Z" fill="#0067ff"/>
    <path id="Path_262" data-name="Path 262" d="M508.44,472.7v-3.31l3.03-.27v3.58Z" fill="#0067ff"/>
    <path id="Path_263" data-name="Path 263" d="M648.22,450.28v-3.31l3.03-.27v3.59Z" fill="#0067ff"/>
    <path id="Path_264" data-name="Path 264" d="M651.12,446.91l-90.78,52.25-51.76-29.98,90.78-52.25Z" fill="#dbddf2"/>
    <path id="Path_265" data-name="Path 265" d="M598.16,417.82l-86.11,49.56a2.34,2.34,0,0,1-3.51-2l-.4-55.31a2.36,2.36,0,0,1,1.18-2.05l86.11-49.57a2.34,2.34,0,0,1,3.51,2l.4,55.31a2.36,2.36,0,0,1-1.18,2.06Z" fill="#0067ff"/>
    <path id="Path_266" data-name="Path 266" d="M596.41,415.81,510.96,465l.08-56.31,85.44-49.18Z" fill="#dbddf2"/>
    <path id="Path_267" data-name="Path 267" d="M606.32,465.33l-11.79,6.79a7.15,7.15,0,0,1-6.43-.27l-2.32-1.35c-1.9-1.1-2.1-2.76-.45-3.71L597.12,460a7.15,7.15,0,0,1,6.43.28l2.32,1.34C607.77,462.72,608,464.38,606.32,465.33Z" fill="#00c6ff"/>
    <path id="Path_268" data-name="Path 268" d="M627.69,440.04l-79.25,45.61-29.93-17.33,79.25-45.61Z" fill="url(#linear-gradient-10)"/>
    <ellipse id="Ellipse_44" data-name="Ellipse 44" cx="6.06" cy="3.5" rx="6.06" ry="3.5" transform="translate(540.432 419.307) rotate(-59.92)" fill="#364371"/>
    <ellipse id="Ellipse_45" data-name="Ellipse 45" cx="6.06" cy="3.5" rx="6.06" ry="3.5" transform="translate(556.006 400.451) rotate(-59.92)" fill="#364371"/>
    <ellipse id="Ellipse_46" data-name="Ellipse 46" cx="6.081" cy="3.512" rx="6.081" ry="3.512" transform="translate(557.246 417.146) rotate(-60.113)" fill="#364371"/>
    <path id="Path_269" data-name="Path 269" d="M563.4,398.01l-17.02,18.9-1.14-2.17,17.03-18.9Z" fill="#364371"/>
    <path id="Path_270" data-name="Path 270" d="M563.38,414.62l-17,.68-1.14,3.48,17-.68Z" fill="#364371"/>
    <path id="Path_271" data-name="Path 271" d="M177.22,453.74l-55.65-32.22a4.12,4.12,0,0,1-2-3.55l.14-100.79a4.08,4.08,0,0,1,6.13-3.53l55.65,32.22a4.09,4.09,0,0,1,2,3.54l-.14,100.8a4.08,4.08,0,0,1-6.13,3.53Z" fill="#364371"/>
    <path id="Path_272" data-name="Path 272" d="M182.85,446.13l-58.57-34.3.13-95.41,58.57,34.29Z" fill="#364371"/>
    <ellipse id="Ellipse_47" data-name="Ellipse 47" cx="0.81" cy="1.4" rx="0.81" ry="1.4" transform="matrix(0.867, -0.499, 0.499, 0.867, 144.048, 325.552)" fill="#364371"/>
    <path id="Path_273" data-name="Path 273" d="M163.55,337.95l-15.79-9.14.01-2.28,15.79,9.14Z" fill="#364371"/>
    <ellipse id="Ellipse_48" data-name="Ellipse 48" cx="2.02" cy="3.49" rx="2.02" ry="3.49" transform="matrix(0.867, -0.499, 0.499, 0.867, 150.417, 432.152)" fill="#364371"/>
    <path id="Path_274" data-name="Path 274" d="M153.93,438.71a8.74,8.74,0,0,1-3.94-6.85c0-2.52,1.77-3.54,3.95-2.28a8.74,8.74,0,0,1,3.94,6.85C157.88,439,156.1,440,153.93,438.71Zm0-8.75c-2-1.15-3.62-.22-3.62,2.09a8,8,0,0,0,3.61,6.28c2,1.15,3.62.21,3.62-2.09a8,8,0,0,0-3.6-6.24Z" fill="#364371"/>
    <path id="Path_275" data-name="Path 275" d="M162.62,355.86a1.33,1.33,0,0,0-.46-.48l-3.44-2a14.51,14.51,0,0,0-1.28-4.09l4.68,2.71a.45.45,0,0,0,.46.06.48.48,0,0,0,.19-.43v-2.37a1.23,1.23,0,0,0-.18-.63,1.33,1.33,0,0,0-.46-.48l-16.72-9.68a.45.45,0,0,0-.46-.06.44.44,0,0,0-.19.43v3.09a1.23,1.23,0,0,0,.19.63,1.31,1.31,0,0,0,.45.48l2.92,1.69c2.82,1.64,4.62,3.55,5.38,5.74l-8.3-4.8a.45.45,0,0,0-.46-.06.46.46,0,0,0-.19.43v2.36a1.27,1.27,0,0,0,.18.64,1.33,1.33,0,0,0,.46.48l8.58,5a2.06,2.06,0,0,1-2.06,1.71,8.59,8.59,0,0,1-4.27-1.48l-2.25-1.3a.44.44,0,0,0-.45,0,.43.43,0,0,0-.2.41v2.95a1.25,1.25,0,0,0,.18.62q3.86,7,10,19.05a1.23,1.23,0,0,0,.5.57l3.92,2.27c.28.16.48.14.58-.08a.9.9,0,0,0-.08-.84q-5.85-11.7-9.2-17.78,3.42,1.5,5.55.65t2.6-3.93l3.37,2a.46.46,0,0,0,.46.05c.13-.06.19-.21.19-.42V356.5a1.27,1.27,0,0,0-.19-.64Z" fill="#364371"/>
    <path id="Path_276" data-name="Path 276" d="M175.12,455.76l-56.7-32.83a3.58,3.58,0,0,1-1.78-3.09l.14-102a3.56,3.56,0,0,1,5.35-3.07l56.69,32.83a3.57,3.57,0,0,1,1.78,3.09l-.14,102a3.55,3.55,0,0,1-5.34,3.07Z" fill="#0094ff"/>
    <path id="Path_277" data-name="Path 277" d="M178.17,446.88l-59.21-34.29.12-95.41,59.21,34.29Z" fill="#f2f5fa"/>
    <ellipse id="Ellipse_49" data-name="Ellipse 49" cx="0.81" cy="1.4" rx="0.81" ry="1.4" transform="matrix(0.867, -0.499, 0.499, 0.867, 138.721, 326.296)" fill="#f2f5fa"/>
    <path id="Path_278" data-name="Path 278" d="M158.23,338.71l-15.79-9.15v-2.28l15.79,9.15Z" fill="#f2f5fa"/>
    <ellipse id="Ellipse_50" data-name="Ellipse 50" cx="2.02" cy="3.49" rx="2.02" ry="3.49" transform="matrix(0.867, -0.499, 0.499, 0.867, 145.095, 432.904)" fill="#f2f5fa"/>
    <path id="Path_279" data-name="Path 279" d="M148.6,439.46a8.77,8.77,0,0,1-3.94-6.85c0-2.51,1.78-3.54,4-2.27a8.76,8.76,0,0,1,3.94,6.84C152.55,439.7,150.78,440.72,148.6,439.46Zm0-8.74c-2-1.16-3.62-.22-3.63,2.08a8,8,0,0,0,3.62,6.28c2,1.15,3.62.22,3.62-2.09a8,8,0,0,0-3.59-6.27Z" fill="#f2f5fa"/>
    <path id="Path_280" data-name="Path 280" d="M157.3,356.61a1.281,1.281,0,0,0-.47-.48l-3.43-2a14.78,14.78,0,0,0-1.28-4.08l4.68,2.71a.45.45,0,0,0,.46.06.46.46,0,0,0,.18-.43V350a1.35,1.35,0,0,0-.65-1.12l-16.72-9.68a.383.383,0,0,0-.64.37v3.09a1.23,1.23,0,0,0,.19.63,1.17,1.17,0,0,0,.45.48l2.91,1.69q4.24,2.46,5.38,5.74l-8.29-4.8a.46.46,0,0,0-.47-.06.45.45,0,0,0-.18.43v2.37a1.3,1.3,0,0,0,.18.64,1.22,1.22,0,0,0,.46.47l8.58,5a2.06,2.06,0,0,1-2.06,1.71,8.63,8.63,0,0,1-4.27-1.47l-2.25-1.31a.4.4,0,0,0-.65.38v2.94a1.23,1.23,0,0,0,.18.62q3.85,7,10,19.05a1.17,1.17,0,0,0,.5.57L154,380c.28.17.47.14.58-.08a.849.849,0,0,0-.08-.83q-5.85-11.72-9.21-17.79,3.42,1.51,5.55.66c1.43-.57,2.29-1.89,2.6-3.94l3.38,2a.383.383,0,0,0,.64-.37v-2.37a1.27,1.27,0,0,0-.16-.67Z" fill="#364371"/>
    <path id="Path_281" data-name="Path 281" d="M169.73,424l-42.32-24.52a8,8,0,0,1-3.33-6.37V373.7c0-2.46,1.5-3.58,3.34-2.52l42.32,24.51a8,8,0,0,1,3.32,6.38v19.41C173.07,423.91,171.57,425,169.73,424Z" fill="#364371"/>
    <path id="Path_282" data-name="Path 282" d="M140.29,392.49a1.76,1.76,0,0,1-1.51.77,4.89,4.89,0,0,1-2.52-.83l-1.85-1.07v5.09l-3-1.73V380.53l4.84,2.8a9.83,9.83,0,0,1,2.49,2,8.6,8.6,0,0,1,1.52,2.5,7.55,7.55,0,0,1,.5,2.66,3.48,3.48,0,0,1-.47,2Zm-3-2.66c.29-.15.43-.51.43-1.08a3,3,0,0,0-.42-1.55A3.48,3.48,0,0,0,136,386l-1.62-.94v3.56l1.63.94c.6.32.99.44,1.3.27Z" fill="#364371"/>
    <path id="Path_283" data-name="Path 283" d="M150,403l-4.58-2.65-.74,2.08-3.13-1.81L146,389l3.47,2,4.42,16.77-3.16-1.83Zm-.76-3.11-1.52-6.08-1.51,4.33Z" fill="#364371"/>
    <path id="Path_284" data-name="Path 284" d="M165.77,400.42l-4.26,7v4.69l-3-1.74v-4.69l-4.23-12,3.39,2,2.37,7.32,2.37-4.58Z" fill="#364371"/>
    <path id="Path_285" data-name="Path 285" d="M167.71,425.32l-42.33-24.51a8,8,0,0,1-3.32-6.37V375.02c0-2.45,1.49-3.58,3.33-2.51L167.75,397a8,8,0,0,1,3.32,6.37v19.42C171,425.26,169.55,426.39,167.71,425.32Z" fill="#00c6ff"/>
    <path id="Path_286" data-name="Path 286" d="M138.26,393.83a1.78,1.78,0,0,1-1.5.78,4.89,4.89,0,0,1-2.52-.83l-1.86-1.08v5.1l-3-1.73v-14.2l4.85,2.81a9.57,9.57,0,0,1,2.48,2,8.309,8.309,0,0,1,1.52,2.5,7.38,7.38,0,0,1,.51,2.66,3.46,3.46,0,0,1-.48,1.99Zm-3-2.66c.28-.15.42-.5.42-1.07a3.08,3.08,0,0,0-.41-1.56,3.46,3.46,0,0,0-1.28-1.2l-1.63-.94V390l1.62.95c.61.28,1.02.37,1.31.22Z" fill="#fff"/>
    <path id="Path_287" data-name="Path 287" d="M148,404.31l-4.58-2.66-.74,2.08-3.13-1.81L144,390.3l3.46,2,4.43,16.76-3.17-1.83Zm-.77-3.12-1.51-6.07-1.51,4.32Z" fill="#fff"/>
    <path id="Path_288" data-name="Path 288" d="M163.75,401.76l-4.27,7v4.69l-3-1.73v-4.69l-4.24-12,3.4,2,2.37,7.32,2.37-4.57Z" fill="#fff"/>
    <path id="Path_289" data-name="Path 289" d="M105.52,460.64l37.95,4.27,1.02,24.24-34.77-12.69-11.58-8.45Z" fill="url(#linear-gradient-11)"/>
    <path id="Path_290" data-name="Path 290" d="M94,393.87c-.2,1.73-2.34,8.89-1.9,11.46s7.57,7.18,7.57,7.18l1-4.39-3-3a2.46,2.46,0,0,1-.71-2.12l.88-6Z" fill="#ffa8a7"/>
    <path id="Path_291" data-name="Path 291" d="M97.71,402.61l3-13.2c.4-4.9-4.09-4.48-5.13-2.76s-3.18,13-3.27,14a13.73,13.73,0,0,0-.24,4.85c.22,1.05,2.72,4,7.63,7l1-4.39Z" fill="#364371"/>
    <path id="Path_292" data-name="Path 292" d="M98.37,465a14.209,14.209,0,0,1-.32,1.73c-.18.75-.22,1.73.63,2a2.06,2.06,0,0,0,2.35-.55,16.3,16.3,0,0,1,2-2.93,6.89,6.89,0,0,0,2.44-3.16c.31-1.22.12-2-.72-2.11-1.05-.16-2.73.73-3.58,1.35a33,33,0,0,0-2.8,3.67Z" fill="#2d2979"/>
    <path id="Path_293" data-name="Path 293" d="M109.75,472.13s-.06,1-.12,1.74a7.37,7.37,0,0,0-.09,2.58c.25.58,1.52,1,3,1a7.22,7.22,0,0,1,3.51,1.33,5.55,5.55,0,0,0,4.43.76c1.29-.4,2.72-1,2.93-1.59s-.45-.89-3.59-2.33-5.46-2.44-6.67-4.1Z" fill="#2d2979"/>
    <path id="Path_294" data-name="Path 294" d="M97.63,448.29A36.23,36.23,0,0,1,99,441.74s-.41-5.65-.6-11c-.21-5.79-.56-13.05-.66-14.49l18.77,4.2s-1.21,22.44-1.42,25.38-.45,7-.76,10.79c-.39,4.78-.81,15.34-.81,15.34a5.7,5.7,0,0,1-3.83.74s-1.61-13.19-1.87-16.57a25.88,25.88,0,0,1,.8-8.46s-.51-5.82-1-10.61c-.4-4.26-.9-6.82-1-8.9l-.37-.2s-.39,8.28-.6,11.22-.65,5.76-1.45,11.22c-.69,4.74-2.49,14.5-2.49,14.5a3.2,3.2,0,0,1-3.43.11S97.09,452.41,97.63,448.29Z" fill="#364371"/>
    <path id="Path_295" data-name="Path 295" d="M106.71,428.15a36,36,0,0,1-6.32-4.26,14.45,14.45,0,0,0,4.53,4.29s.9,10.29.9,10.09l.54-10.14Z" fill="#364371"/>
    <path id="Path_296" data-name="Path 296" d="M100.46,385.57c1.43.07,2.49.44,2.67,0a18.549,18.549,0,0,0,.33-2.23c-.16-.42-.3-.87-.3-.87a6.92,6.92,0,0,1-3.31-5.23,7,7,0,0,1,6.27-7.71c3.63-.38,6.3,2.18,7,5.68a18.59,18.59,0,0,1-.14,8.25c-.47,1.65-.86,2.12-1.56,2.35A12.588,12.588,0,0,1,109,386h0l-.33,1.76c-.14.68-.08,1.05,1.29,1.89s-2.08,2.58-4.33,2.41-4.78-1.54-5.47-3C99.41,387.43,99.48,385.52,100.46,385.57Z" fill="#ffa8a7"/>
    <path id="Path_297" data-name="Path 297" d="M100.46,385.57c1.43.07,2.49.44,2.67,0a18.549,18.549,0,0,0,.33-2.23c-.16-.42-.3-.87-.3-.87a7.29,7.29,0,0,1-1.69-1.44l4.75,1.57,1.39-.28.56-.32.37-.65a9.08,9.08,0,0,0,.67,2.86,4.07,4.07,0,0,0,2.29,1.57h-.07A12.592,12.592,0,0,1,109,386h0l-.33,1.76c-.12.62-.08,1,.94,1.67l-1.93,1.47-5.77-.1-.45-.3-1.72-2.65C99.5,386.61,99.72,385.53,100.46,385.57Z" fill="#f28f8f"/>
    <path id="Path_298" data-name="Path 298" d="M102.39,382.73a7.61,7.61,0,0,1-2.54-5.47,7,7,0,0,1,6.27-7.71,6,6,0,0,1,5.81,2.75,3.871,3.871,0,0,1-.66.91,1.64,1.64,0,0,1-.25,1.53,2.3,2.3,0,0,0-.44,1.71c0,.67.08,1.84,0,2.56-.1,1-1.23,1.24-1.23,1.24a12.231,12.231,0,0,0-.26-2.52,1.31,1.31,0,0,0-2.39.11,4.11,4.11,0,0,0,.13,2.87,1.15,1.15,0,0,0,1.7.66c0,.46.16,2.05-1.36,2.47a5.29,5.29,0,0,1-3.73-.37,7,7,0,0,1-1.05-.74Z" fill="#543354"/>
    <path id="Path_299" data-name="Path 299" d="M111.27,373.21a4.46,4.46,0,0,0,3.49-1.73c1.66-1.9.73-3.67-1.28-2.87s-5.36.34-7.06.16-6.2.73-5.74,4.38Z" fill="#543354"/>
    <path id="Path_300" data-name="Path 300" d="M102.53,385.79c-.4,1,.6,2.19,3.29,3s2.93-.24,2.93-.24a52.513,52.513,0,0,1,5.21,2.7c1.61,1.13,2.32,4.39,2.53,9.89.24,6.37.75,18.93.54,20.56,0,0-1.82,1.05-3.47-1.34a8.83,8.83,0,0,1-5.12,3.62,10,10,0,0,1-11.6-5.32c0-5.58,1.62-10.26.72-13.48-2.06-7.37-3.15-10.39-2.13-15.28.83-4,2-4.53,3.59-4.49a32.382,32.382,0,0,1,3.51.38Z" fill="#4f62b2"/>
    <path id="Path_301" data-name="Path 301" d="M103.31,384.67a.5.5,0,0,0-.54,0c-.29.21-1.08,1-1.08,1a3,3,0,0,0,1.65,2.76,6.59,6.59,0,0,0,6.53.69s-.44-1.53-.59-1.8a.64.64,0,0,0-.45-.3s-.6.77-2.87,0-2.7-1.87-2.7-1.87Z" fill="#6a89ce"/>
    <path id="Path_302" data-name="Path 302" d="M122.54,407.49c-3.16.79-3.9-1.2-4.32-2.86-1-4-1.53-7.61-2.28-9.88-.88-2.68-1.81-3.1-3.11-3.63-1.52-.61-2.84.68-2.33,4.08a67.82,67.82,0,0,0,2.88,11.64,10.33,10.33,0,0,0,2.59,4.53c1.63,1.32,4.09,1.27,7.81.35a42.924,42.924,0,0,0,6.33-2.74c.8-.37,1.43-.62,3-1.34a10.71,10.71,0,0,0,4-3.09c.81-1.17.92-1.72.75-2s-.57-.26-1,.23a8.63,8.63,0,0,1-2.27,2.1s1-1,1.54-1.7a8.66,8.66,0,0,0,1.2-1.95c.28-.68-.3-1.61-.75-1.13s-.66,1-1.48,2a8.51,8.51,0,0,1-1.47,1.39,16.231,16.231,0,0,0,1.35-2.17,3.62,3.62,0,0,0,.5-2c0-.36-.53-.78-1-.11a12.849,12.849,0,0,1-1.71,2.59c-.72.76-1.33,1.19-1.35,1s.44-.62.7-1.49,0-1.8-.49-1.9-.38-.08-.77.74a23.312,23.312,0,0,0-1.44,2.61,5.39,5.39,0,0,1-1.31,2.24C127.27,405.82,125.55,406.73,122.54,407.49Z" fill="#ffa8a7"/>
    <path id="Path_303" data-name="Path 303" d="M124.59,406.85l1.78-.81c1,.45,1.87,2.24,1.54,4.1l-2.15.87Z" fill="#f5fbfb"/>
    <path id="Path_304" data-name="Path 304" d="M112.61,390.49c2,.25,3,.83,4,5.37s1.61,9,2.39,10,1.14,2.41,5.89.64c0,0,2.2.86,2,4.55a37.441,37.441,0,0,1-5.43,1.52c-2.87.55-5.5.29-7.23-3.32a55.79,55.79,0,0,1-3.88-13.52C110,392.83,110.73,390.26,112.61,390.49Z" fill="#364371"/>
    <path id="Path_305" data-name="Path 305" d="M183.98,225.03l-75.43-43.69.08-61.92,75.43,43.69Z" fill="#0094ff"/>
    <path id="Path_306" data-name="Path 306" d="M184.02,163.01l-75.43-43.68,31.37-18.06,75.44,43.69Z" fill="#fff"/>
    <path id="Path_307" data-name="Path 307" d="M183.98,225.31l.08-62.4,31.38-18.06-.08,62.4Z" fill="#0067ff"/>
    <path id="Path_308" data-name="Path 308" d="M152.82,233l-52.34-30.32.05-42.97,52.35,30.32Z" fill="#0094ff"/>
    <path id="Path_309" data-name="Path 309" d="M152.85,189.96l-52.34-30.31,21.77-12.54,52.35,30.32Z" fill="#fff"/>
    <path id="Path_310" data-name="Path 310" d="M152.82,233.2l.06-43.31,21.78-12.53-.06,43.3Z" fill="#0067ff"/>
    <path id="Path_311" data-name="Path 311" d="M139.27,163.55a2.32,2.32,0,0,1-.83,0,2.44,2.44,0,0,1-.87-.33l-.53-.3-1.26.72-.85-.49,3.5-2,1.38.8a1.6,1.6,0,0,1,.57.49.52.52,0,0,1,0,.48,1,1,0,0,1-.44.42,1.93,1.93,0,0,1-.67.21Zm-.61-.62a.88.88,0,0,0,.44-.12c.14-.08.21-.16.21-.25s-.09-.19-.25-.28l-.46-.27-.88.51.46.26A.9.9,0,0,0,138.66,162.93Z" fill="#0426a1"/>
    <path id="Path_312" data-name="Path 312" d="M140.18,163.7a2.73,2.73,0,0,1,.94,0,2.15,2.15,0,0,1,.8.26,1,1,0,0,1,.4.37.46.46,0,0,1,0,.38l.4-.23.85.5-2.79,1.6-.85-.49.4-.23a2.09,2.09,0,0,1-.66,0,2,2,0,0,1-.64-.23.92.92,0,0,1-.44-.46.59.59,0,0,1,.06-.54,1.52,1.52,0,0,1,.6-.53A2.71,2.71,0,0,1,140.18,163.7Zm1.49,1.15a.37.37,0,0,0-.24-.35,1.21,1.21,0,0,0-.62-.15,1.4,1.4,0,0,0-.68.19q-.31.18-.33.39a.42.42,0,0,0,.25.36,1.08,1.08,0,0,0,.61.14,1.36,1.36,0,0,0,.68-.18c.22-.13.33-.25.33-.4Z" fill="#0426a1"/>
    <path id="Path_313" data-name="Path 313" d="M147.05,166.94l-5.85,1.36-.92-.53,2.06-.45,1.56-2.21.95.56-1.1,1.37,2.38-.63Z" fill="#0426a1"/>
    <path id="Path_314" data-name="Path 314" d="M151.45,169.82c0,.24-.19.46-.57.68l-1.62.94-.85-.49,1.51-.88c.18-.1.27-.21.28-.32s-.08-.21-.25-.31a1,1,0,0,0-.54-.14,1.06,1.06,0,0,0-.56.16l-1.51.87-.85-.49L148,169q.27-.16.27-.33c0-.11-.08-.21-.24-.31a1.14,1.14,0,0,0-.54-.14,1.06,1.06,0,0,0-.56.16l-1.51.87-.86-.5,2.79-1.6.85.49-.35.21a2.15,2.15,0,0,1,.62,0,1.929,1.929,0,0,1,.58.22,1,1,0,0,1,.42.4.45.45,0,0,1,0,.45,2.489,2.489,0,0,1,.77,0,2,2,0,0,1,.69.23Q151.46,169.46,151.45,169.82Z" fill="#0426a1"/>
    <path id="Path_315" data-name="Path 315" d="M153.65,172.61l-1.93-1.12c-.16.11-.24.22-.23.33a.36.36,0,0,0,.23.28,1,1,0,0,0,.71.11l.91.52a2.56,2.56,0,0,1-.75.14,3.06,3.06,0,0,1-.8-.07,2.359,2.359,0,0,1-.74-.28,1.33,1.33,0,0,1-.55-.52.6.6,0,0,1,0-.58,1.39,1.39,0,0,1,.58-.54,2.93,2.93,0,0,1,1.93-.33,2.6,2.6,0,0,1,.91.32,1.39,1.39,0,0,1,.55.52.61.61,0,0,1,0,.56,1.33,1.33,0,0,1-.55.52Zm-.38-.77c.14-.09.21-.18.2-.29a.45.45,0,0,0-.25-.29,1.08,1.08,0,0,0-.48-.14,1.29,1.29,0,0,0-.54.1Z" fill="#0426a1"/>
    <path id="Path_316" data-name="Path 316" d="M157.9,173.56c0,.23-.21.45-.58.67l-1.63.93-.84-.49,1.51-.87c.18-.11.28-.22.29-.33s-.07-.22-.24-.32a1,1,0,0,0-.54-.13,1.24,1.24,0,0,0-.58.16l-1.51.87-.85-.49,2.78-1.6.85.49-.37.21a2.05,2.05,0,0,1,.65,0,2.17,2.17,0,0,1,.6.22C157.76,173.11,157.92,173.32,157.9,173.56Z" fill="#0426a1"/>
    <path id="Path_317" data-name="Path 317" d="M158.56,176l-.72.42-.44-.26c-.31-.17-.47-.36-.49-.55s.14-.37.48-.57l1.11-.64-.34-.2.71-.4.34.19.68-.39.85.49-.68.4.56.32-.71.41-.56-.33-1.12.65c-.08.05-.12.09-.12.14s0,.09.15.14Z" fill="#0426a1"/>
    <path id="Path_318" data-name="Path 318" d="M132.22,168.49l.59-1.19-.2-.11-1.33.76-.85-.5,3.51-2,1.43.83a1.46,1.46,0,0,1,.56.49.49.49,0,0,1,0,.48,1,1,0,0,1-.42.41,2.07,2.07,0,0,1-.82.24,2.52,2.52,0,0,1-1-.11l-.58,1.27Zm1-1.65.53.3a.85.85,0,0,0,.47.14.88.88,0,0,0,.44-.12c.13-.07.2-.16.2-.25s-.08-.18-.24-.27l-.53-.3Z" fill="#0426a1"/>
    <path id="Path_319" data-name="Path 319" d="M137.48,170.16l-1.93-1.11c-.16.1-.24.21-.23.32a.38.38,0,0,0,.22.29,1,1,0,0,0,.72.1l.9.53a3.351,3.351,0,0,1-.74.14,3.06,3.06,0,0,1-.8-.07,2.639,2.639,0,0,1-.74-.28,1.34,1.34,0,0,1-.55-.53.58.58,0,0,1,0-.57,1.28,1.28,0,0,1,.58-.54,2.81,2.81,0,0,1,.93-.34,3.35,3.35,0,0,1,1,0,2.83,2.83,0,0,1,.91.33,1.22,1.22,0,0,1,.54.51.59.59,0,0,1,0,.56,1.31,1.31,0,0,1-.56.53A1.906,1.906,0,0,1,137.48,170.16Zm-.38-.77c.14-.08.21-.18.2-.28a.47.47,0,0,0-.25-.3,1.07,1.07,0,0,0-.48-.13,1.13,1.13,0,0,0-.54.1Z" fill="#0426a1"/>
    <path id="Path_320" data-name="Path 320" d="M143.82,173.79l-1.93-1.12c-.16.11-.24.21-.23.32a.38.38,0,0,0,.22.29,1,1,0,0,0,.72.1l.91.53a2.94,2.94,0,0,1-.75.14,3.059,3.059,0,0,1-.8-.07,2.64,2.64,0,0,1-.74-.28,1.33,1.33,0,0,1-.55-.52.6.6,0,0,1,0-.58,1.39,1.39,0,0,1,.58-.54,2.59,2.59,0,0,1,.93-.33,2.8,2.8,0,0,1,1,0,2.6,2.6,0,0,1,.91.32,1.34,1.34,0,0,1,.54.51.61.61,0,0,1,0,.57,1.3,1.3,0,0,1-.56.52Zm-.38-.77c.14-.09.21-.18.2-.29a.43.43,0,0,0-.25-.29,1,1,0,0,0-.48-.14,1.13,1.13,0,0,0-.54.1Z" fill="#0426a1"/>
    <path id="Path_321" data-name="Path 321" d="M138.91,169.88a2.8,2.8,0,0,1,1,0,2.62,2.62,0,0,1,.9.32,1.09,1.09,0,0,1,.6.66.77.77,0,0,1-.32.72l-.9-.53c.13-.17.09-.31-.13-.44a.9.9,0,0,0-.55-.11,1.44,1.44,0,0,0-.66.22c-.23.13-.36.26-.39.38s0,.23.2.32a.93.93,0,0,0,.76.07l.91.53a3.06,3.06,0,0,1-1.24.17,2.66,2.66,0,0,1-1.15-.34,1.33,1.33,0,0,1-.55-.52.63.63,0,0,1,0-.58,1.32,1.32,0,0,1,.58-.53,2.81,2.81,0,0,1,.94-.34Z" fill="#0426a1"/>
    <path id="Path_322" data-name="Path 322" d="M146.58,174l-2.79,1.6-.85-.49,2.79-1.61Zm-.37-.7a.3.3,0,0,1,.19-.27.8.8,0,0,1,.47-.11,1.06,1.06,0,0,1,.5.13c.15.09.22.18.23.29a.3.3,0,0,1-.19.27.88.88,0,0,1-.47.11,1,1,0,0,1-.49-.14.39.39,0,0,1-.24-.26Z" fill="#0426a1"/>
    <path id="Path_323" data-name="Path 323" d="M146.46,176.24l2.59-.79.91.52-3.77,1-1.05-.61,1.79-2.18.92.53Z" fill="#0426a1"/>
    <path id="Path_324" data-name="Path 324" d="M151.33,178.61l-1.93-1.11c-.16.1-.24.21-.23.32a.38.38,0,0,0,.22.29,1,1,0,0,0,.72.1l.91.53a3.44,3.44,0,0,1-.75.14,3.06,3.06,0,0,1-.8-.07,2.64,2.64,0,0,1-.74-.28,1.34,1.34,0,0,1-.55-.53.58.58,0,0,1,0-.57,1.28,1.28,0,0,1,.58-.54,2.81,2.81,0,0,1,.93-.34,3.35,3.35,0,0,1,1,0,2.83,2.83,0,0,1,.91.33,1.22,1.22,0,0,1,.54.51.59.59,0,0,1,0,.56,1.31,1.31,0,0,1-.56.53Zm-.38-.77c.14-.08.21-.18.2-.28a.47.47,0,0,0-.25-.3,1.07,1.07,0,0,0-.48-.13,1.13,1.13,0,0,0-.54.1Z" fill="#0426a1"/>
    <path id="Path_325" data-name="Path 325" d="M152.75,178.32a3,3,0,0,1,.94,0,2.22,2.22,0,0,1,.8.26,1,1,0,0,1,.38.36.41.41,0,0,1,0,.38l1.29-.74.86.49-3.7,2.13-.85-.5.4-.23a2.1,2.1,0,0,1-.66,0,2,2,0,0,1-.64-.23.92.92,0,0,1-.44-.46.61.61,0,0,1,.06-.55,1.64,1.64,0,0,1,.59-.53,3.1,3.1,0,0,1,.97-.38Zm1.49,1.16a.421.421,0,0,0-.25-.36,1.28,1.28,0,0,0-.61-.14,1.36,1.36,0,0,0-.68.18c-.21.13-.32.26-.33.4s.08.26.25.36a1.25,1.25,0,0,0,.61.14,1.37,1.37,0,0,0,.68-.19c.22-.12.32-.25.33-.39Z" fill="#0426a1"/>
    <path id="Path_326" data-name="Path 326" d="M117.42,162.59a4.7,4.7,0,0,0,3.72.23l-4.1-2.38C116.28,161.1,116.41,162,117.42,162.59Z" fill="#0426a1"/>
    <path id="Path_327" data-name="Path 327" d="M128,161h0c-2.15-1.25-2.15-3.27,0-4.51a6.54,6.54,0,0,1,2-.74c-.12-.08-.23-.16-.36-.23a8.63,8.63,0,0,0-7.81,0l-1.56.9a8,8,0,0,1-4.2.88,1.77,1.77,0,0,0-1.31.4c-.32.32-.16.73.29,1l9.08,5.25a2.26,2.26,0,0,0,1.79.15c.43-.17.67-.45.62-.74A2.44,2.44,0,0,1,128,161Z" fill="#0426a1"/>
    <path id="Path_328" data-name="Path 328" d="M134.72,160.36a6.13,6.13,0,0,1-5.58,0c-1.54-.89-1.54-2.33,0-3.22a6.16,6.16,0,0,1,5.58,0C136.26,158,136.26,159.47,134.72,160.36Z" fill="#25f499"/>
    <ellipse id="Ellipse_51" data-name="Ellipse 51" cx="6.5" cy="11.25" rx="6.5" ry="11.25" transform="matrix(0.867, -0.499, 0.499, 0.867, 146.292, 64.561)" fill="#0426a1"/>
    <ellipse id="Ellipse_52" data-name="Ellipse 52" cx="4.91" cy="8.51" rx="4.91" ry="8.51" transform="matrix(0.867, -0.499, 0.499, 0.867, 149.037, 66.143)" fill="#0426a1"/>
    <path id="Path_329" data-name="Path 329" d="M159.5,70.08a.36.36,0,0,0-.1-.11l-.78-.45a3.41,3.41,0,0,0-.29-1l1.06.61a.08.08,0,0,0,.1,0,.12.12,0,0,0,0-.1v-.58a.31.31,0,0,0,0-.15.27.27,0,0,0-.1-.11L155.62,66a.074.074,0,0,0-.1.11v.75a.31.31,0,0,0,0,.15.36.36,0,0,0,.1.11l.66.38a2.49,2.49,0,0,1,1.21,1.34l-1.87-1.09a.09.09,0,0,0-.1,0,.11.11,0,0,0,0,.1v.57a.32.32,0,0,0,0,.16.35.35,0,0,0,.1.11l1.93,1.12a.5.5,0,0,1-.46.43,1.83,1.83,0,0,1-1-.32l-.51-.29a.09.09,0,0,0-.11,0,.15.15,0,0,0,0,.1v.71a.27.27,0,0,0,0,.14q.87,1.65,2.25,4.51a.24.24,0,0,0,.11.13l.88.51h.13a1.242,1.242,0,0,0,0-.2c-.88-1.85-1.57-3.26-2.07-4.21a1.53,1.53,0,0,0,1.24.1,1.15,1.15,0,0,0,.59-1l.76.44a.074.074,0,0,0,.1-.11v-.56a.27.27,0,0,0,.04-.11Z" fill="#0426a1"/>
    <ellipse id="Ellipse_53" data-name="Ellipse 53" cx="6.5" cy="11.25" rx="6.5" ry="11.25" transform="matrix(0.867, -0.499, 0.499, 0.867, 144.89, 64.679)" fill="#0067ff"/>
    <ellipse id="Ellipse_54" data-name="Ellipse 54" cx="4.91" cy="8.51" rx="4.91" ry="8.51" transform="matrix(0.867, -0.499, 0.499, 0.867, 147.635, 66.26)" fill="#00c6ff"/>
    <path id="Path_330" data-name="Path 330" d="M158.08,70.19a.22.22,0,0,0-.1-.11l-.77-.44a3.41,3.41,0,0,0-.29-1l1.05.61a.11.11,0,0,0,.11,0,.16.16,0,0,0,0-.11V68.6a.42.42,0,0,0,0-.15.36.36,0,0,0-.1-.11l-3.77-2.18h-.1a.12.12,0,0,0,0,.1V67a.32.32,0,0,0,.14.27l.66.38A2.51,2.51,0,0,1,156.08,69l-1.87-1.08h-.1a.1.1,0,0,0,0,.11v.57a.42.42,0,0,0,0,.15.29.29,0,0,0,.11.11L156.14,70a.5.5,0,0,1-.47.44,1.85,1.85,0,0,1-1-.32l-.51-.3a.09.09,0,0,0-.1,0,.11.11,0,0,0,0,.1v.71a.27.27,0,0,0,0,.14c.58,1.1,1.32,2.6,2.25,4.51a.24.24,0,0,0,.11.13l.88.51h.13a.21.21,0,0,0,0-.2q-1.32-2.77-2.07-4.21a1.52,1.52,0,0,0,1.25.11,1.19,1.19,0,0,0,.59-1l.8.38a.08.08,0,0,0,.1,0,.12.12,0,0,0,0-.1v-.57A.31.31,0,0,0,158.08,70.19Z" fill="#0426a1"/>
    <ellipse id="Ellipse_55" data-name="Ellipse 55" cx="6.5" cy="11.25" rx="6.5" ry="11.25" transform="matrix(0.867, -0.499, 0.499, 0.867, 156.137, 104.281)" fill="#0426a1"/>
    <ellipse id="Ellipse_56" data-name="Ellipse 56" cx="4.91" cy="8.51" rx="4.91" ry="8.51" transform="matrix(0.867, -0.499, 0.499, 0.867, 158.882, 105.862)" fill="#0426a1"/>
    <path id="Path_331" data-name="Path 331" d="M169.34,109.79a.27.27,0,0,0-.1-.11l-.78-.45a3.719,3.719,0,0,0-.28-1l1,.61h.1a.12.12,0,0,0,0-.1v-.58a.31.31,0,0,0,0-.15.22.22,0,0,0-.1-.11l-3.76-2.18a.11.11,0,0,0-.11,0,.16.16,0,0,0,0,.11v.75a.481.481,0,0,0,0,.15.29.29,0,0,0,.11.11l.65.38a2.45,2.45,0,0,1,1.21,1.34l-1.87-1.09a.09.09,0,0,0-.1,0v.67a.34.34,0,0,0,0,.16.519.519,0,0,0,.1.11l1.93,1.11a.5.5,0,0,1-.46.44,1.83,1.83,0,0,1-1-.32l-.51-.29h-.1a.11.11,0,0,0-.05.1v.71a.43.43,0,0,0,0,.14q.87,1.65,2.25,4.51a.29.29,0,0,0,.11.13l.89.51a.08.08,0,0,0,.13,0,.21.21,0,0,0,0-.2c-.88-1.85-1.57-3.26-2.07-4.21a1.55,1.55,0,0,0,1.25.1,1.16,1.16,0,0,0,.58-1l.76.44a.12.12,0,0,0,.1,0,.1.1,0,0,0,0-.11v-.56A.28.28,0,0,0,169.34,109.79Z" fill="#0426a1"/>
    <ellipse id="Ellipse_57" data-name="Ellipse 57" cx="6.5" cy="11.25" rx="6.5" ry="11.25" transform="matrix(0.867, -0.499, 0.499, 0.867, 154.725, 104.398)" fill="#0067ff"/>
    <ellipse id="Ellipse_58" data-name="Ellipse 58" cx="4.91" cy="8.51" rx="4.91" ry="8.51" transform="matrix(0.867, -0.499, 0.499, 0.867, 157.47, 105.98)" fill="#00c6ff"/>
    <path id="Path_332" data-name="Path 332" d="M167.93,109.9a.29.29,0,0,0-.11-.11l-.77-.45a3.35,3.35,0,0,0-.29-1l1.06.61a.074.074,0,1,0,.1-.11v-.57a.28.28,0,0,0,0-.15.27.27,0,0,0-.1-.11l-3.77-2.18a.08.08,0,0,0-.1,0,.11.11,0,0,0,0,.1v.75a.28.28,0,0,0,0,.15.4.4,0,0,0,.1.12l.66.38a2.44,2.44,0,0,1,1.21,1.33l-1.87-1.08h-.1a.12.12,0,0,0,0,.11v.57a.21.21,0,0,0,0,.15.22.22,0,0,0,.1.11l1.93,1.12a.5.5,0,0,1-.46.44,1.89,1.89,0,0,1-1-.32l-.51-.3a.09.09,0,0,0-.1,0v.81a.27.27,0,0,0,0,.14q.87,1.65,2.25,4.51a.28.28,0,0,0,.11.13l.88.51h.13a.2.2,0,0,0,0-.2q-1.34-2.77-2.08-4.21a1.52,1.52,0,0,0,1.25.11,1.18,1.18,0,0,0,.59-1l.76.44a.08.08,0,0,0,.1,0,.12.12,0,0,0,0-.1v-.57A.441.441,0,0,0,167.93,109.9Z" fill="#0426a1"/>
    <ellipse id="Ellipse_59" data-name="Ellipse 59" cx="6.5" cy="11.25" rx="6.5" ry="11.25" transform="matrix(0.867, -0.499, 0.499, 0.867, 184.072, 126.546)" fill="#0426a1"/>
    <ellipse id="Ellipse_60" data-name="Ellipse 60" cx="4.91" cy="8.51" rx="4.91" ry="8.51" transform="matrix(0.867, -0.499, 0.499, 0.867, 186.816, 128.128)" fill="#0426a1"/>
    <path id="Path_333" data-name="Path 333" d="M197.28,132.06a.27.27,0,0,0-.1-.11l-.78-.45a3.72,3.72,0,0,0-.28-1l1,.61h.1a.12.12,0,0,0,0-.1v-.58a.23.23,0,0,0,0-.15.22.22,0,0,0-.1-.11L193.41,128a.11.11,0,0,0-.11,0,.16.16,0,0,0,0,.11v.75a.33.33,0,0,0,.05.15.22.22,0,0,0,.1.11l.65.38a2.45,2.45,0,0,1,1.21,1.34l-1.87-1.09a.09.09,0,0,0-.1,0v.67a.34.34,0,0,0,0,.16.52.52,0,0,0,.1.11l1.93,1.11a.5.5,0,0,1-.46.44,1.83,1.83,0,0,1-1-.32l-.51-.29h-.1a.11.11,0,0,0-.05.1v.71a.429.429,0,0,0,0,.14q.87,1.65,2.25,4.51a.29.29,0,0,0,.11.13l.89.51a.08.08,0,0,0,.13,0,.21.21,0,0,0,0-.2q-1.32-2.79-2.07-4.21a1.55,1.55,0,0,0,1.25.1,1.16,1.16,0,0,0,.58-1l.76.44a.12.12,0,0,0,.1,0,.13.13,0,0,0,0-.11v-.57A.27.27,0,0,0,197.28,132.06Z" fill="#0426a1"/>
    <ellipse id="Ellipse_61" data-name="Ellipse 61" cx="6.5" cy="11.25" rx="6.5" ry="11.25" transform="matrix(0.867, -0.499, 0.499, 0.867, 182.659, 126.664)" fill="#0067ff"/>
    <ellipse id="Ellipse_62" data-name="Ellipse 62" cx="4.927" cy="8.539" rx="4.927" ry="8.539" transform="translate(186.175 128.426) rotate(-29.887)" fill="#00c6ff"/>
    <path id="Path_334" data-name="Path 334" d="M195.87,132.17a.29.29,0,0,0-.11-.11l-.77-.45a3.35,3.35,0,0,0-.29-1l1.06.61a.074.074,0,1,0,.1-.11v-.57a.28.28,0,0,0,0-.15.27.27,0,0,0-.1-.11L192,128.14a.08.08,0,0,0-.1,0,.11.11,0,0,0,0,.1V129a.28.28,0,0,0,0,.15.4.4,0,0,0,.1.12l.66.38a2.44,2.44,0,0,1,1.21,1.33l-1.87-1.1h-.1a.12.12,0,0,0,0,.11v.57a.21.21,0,0,0,0,.15.22.22,0,0,0,.1.11l1.93,1.12a.5.5,0,0,1-.46.44,1.89,1.89,0,0,1-1-.32l-.51-.3a.09.09,0,0,0-.1,0v.81a.27.27,0,0,0,0,.14q.87,1.65,2.25,4.51a.35.35,0,0,0,.11.13l.88.51h.13a.2.2,0,0,0,0-.2q-1.34-2.77-2.08-4.21a1.52,1.52,0,0,0,1.25.11,1.18,1.18,0,0,0,.59-1l.76.44a.08.08,0,0,0,.1,0,.12.12,0,0,0,0-.1v-.57A.29.29,0,0,0,195.87,132.17Z" fill="#0426a1"/>
    <ellipse id="Ellipse_63" data-name="Ellipse 63" cx="6.5" cy="11.25" rx="6.5" ry="11.25" transform="matrix(0.867, -0.499, 0.499, 0.867, 136.993, 117.099)" fill="#0426a1"/>
    <ellipse id="Ellipse_64" data-name="Ellipse 64" cx="4.927" cy="8.539" rx="4.927" ry="8.539" transform="translate(140.347 118.885) rotate(-29.887)" fill="#0426a1"/>
    <path id="Path_335" data-name="Path 335" d="M150.2,122.6a.27.27,0,0,0-.1-.11l-.77-.45a4.11,4.11,0,0,0-.29-1l1.05.61a.12.12,0,0,0,.1,0,.1.1,0,0,0,0-.11V121a.25.25,0,0,0,0-.16.24.24,0,0,0-.1-.1l-3.76-2.19a.14.14,0,0,0-.11,0,.16.16,0,0,0,0,.11v.75a.3.3,0,0,0,0,.15.22.22,0,0,0,.1.11l.65.38a2.49,2.49,0,0,1,1.21,1.34l-1.87-1.08a.08.08,0,0,0-.1,0,.12.12,0,0,0,0,.1V121a.31.31,0,0,0,0,.15.27.27,0,0,0,.1.11l1.93,1.12a.51.51,0,0,1-.46.44,1.83,1.83,0,0,1-1-.32l-.51-.3a.12.12,0,0,0-.1,0,.13.13,0,0,0-.05.11v.7a.33.33,0,0,0,0,.14c.58,1.1,1.33,2.61,2.25,4.51a.33.33,0,0,0,.12.14l.88.51h.13a.21.21,0,0,0,0-.2q-1.32-2.78-2.07-4.21a1.56,1.56,0,0,0,1.25.11,1.17,1.17,0,0,0,.58-1l.76.44h.1a.13.13,0,0,0,.05-.11v-.56A.28.28,0,0,0,150.2,122.6Z" fill="#0426a1"/>
    <ellipse id="Ellipse_65" data-name="Ellipse 65" cx="6.5" cy="11.25" rx="6.5" ry="11.25" transform="matrix(0.867, -0.499, 0.499, 0.867, 135.586, 117.207)" fill="#0067ff"/>
    <ellipse id="Ellipse_66" data-name="Ellipse 66" cx="4.91" cy="8.51" rx="4.91" ry="8.51" transform="matrix(0.867, -0.499, 0.499, 0.867, 138.331, 118.789)" fill="#00c6ff"/>
    <path id="Path_336" data-name="Path 336" d="M148.79,122.72a.36.36,0,0,0-.1-.11l-.78-.45a3.41,3.41,0,0,0-.29-1l1.06.61a.08.08,0,0,0,.1,0,.12.12,0,0,0,0-.1v-.58a.31.31,0,0,0,0-.15.27.27,0,0,0-.1-.11l-3.77-2.18h-.1a.12.12,0,0,0,0,.11v.75a.31.31,0,0,0,0,.15.27.27,0,0,0,.1.11l.66.38a2.45,2.45,0,0,1,1.21,1.34l-1.87-1.09a.09.09,0,0,0-.1,0v.67a.32.32,0,0,0,.14.27l1.93,1.11a.5.5,0,0,1-.46.44,1.89,1.89,0,0,1-1-.32l-.5-.29a.09.09,0,0,0-.11,0,.13.13,0,0,0,0,.1v.71a.27.27,0,0,0,0,.14q.87,1.65,2.25,4.51a.24.24,0,0,0,.11.13l.88.51h.13a.21.21,0,0,0,0-.2c-.88-1.86-1.58-3.26-2.08-4.21a1.56,1.56,0,0,0,1.25.1,1.16,1.16,0,0,0,.59-1l.76.44a.074.074,0,0,0,.1-.11v-.57a.25.25,0,0,0-.01-.11Z" fill="#0426a1"/>
    <ellipse id="Ellipse_67" data-name="Ellipse 67" cx="6.5" cy="11.25" rx="6.5" ry="11.25" transform="translate(173.83 98.904) rotate(-89.92)" fill="#0426a1"/>
    <ellipse id="Ellipse_68" data-name="Ellipse 68" cx="4.91" cy="8.51" rx="4.91" ry="8.51" transform="translate(176.572 97.317) rotate(-89.92)" fill="#0426a1"/>
    <path id="Path_337" data-name="Path 337" d="M188.87,92.5a.1.1,0,0,0-.06-.09L188,92a1.25,1.25,0,0,0,.42-.57l1.05.61a.23.23,0,0,0,.14,0h.16l.49-.29a.12.12,0,0,0,.08-.09.09.09,0,0,0-.06-.08l-3.77-2.18a.23.23,0,0,0-.14,0,.38.38,0,0,0-.16,0l-.65.38a.1.1,0,0,0-.06.09.09.09,0,0,0,.05.08l.66.38q1,.55.66,1L185,90.23a.24.24,0,0,0-.15,0,.37.37,0,0,0-.15,0l-.49.29a.12.12,0,0,0-.08.09.09.09,0,0,0,.06.08l1.93,1.12a2,2,0,0,1-1.07.08,3.31,3.31,0,0,1-1.17-.43l-.51-.3a.32.32,0,0,0-.14,0,.27.27,0,0,0-.16,0l-.61.35a.09.09,0,0,0-.06.08,29.342,29.342,0,0,1-.53,2.9.08.08,0,0,0,.06.1l.88.51a.27.27,0,0,0,.22,0,.17.17,0,0,0,.15-.11c.27-1.18.45-2.08.53-2.7a4.71,4.71,0,0,0,1.78.42,4.12,4.12,0,0,0,1.72-.32l.76.44a.33.33,0,0,0,.15,0,.24.24,0,0,0,.15,0l.49-.28a.15.15,0,0,0,.11-.05Z" fill="#0426a1"/>
    <ellipse id="Ellipse_69" data-name="Ellipse 69" cx="6.5" cy="11.25" rx="6.5" ry="11.25" transform="translate(174.06 97.742) rotate(-89.92)" fill="#0067ff"/>
    <ellipse id="Ellipse_70" data-name="Ellipse 70" cx="4.91" cy="8.51" rx="4.91" ry="8.51" transform="translate(176.803 96.156) rotate(-89.92)" fill="#00c6ff"/>
    <path id="Path_338" data-name="Path 338" d="M189.1,91.32v-.09l-.78-.44a1.18,1.18,0,0,0,.41-.58l1.06.62a.29.29,0,0,0,.14,0,.38.38,0,0,0,.16,0l.49-.29a.11.11,0,0,0,.07-.09.09.09,0,0,0-.06-.08l-3.76-2.18a.24.24,0,0,0-.15,0,.26.26,0,0,0-.15,0l-.65.37a.15.15,0,0,0-.07.09.09.09,0,0,0,.06.08l.66.38q.95.56.66,1l-1.87-1.08a.34.34,0,0,0-.3,0l-.5.28a.12.12,0,0,0-.07.09.09.09,0,0,0,.06.08l1.93,1.12a2.14,2.14,0,0,1-1.07.09,3.52,3.52,0,0,1-1.17-.44l-.51-.3a.33.33,0,0,0-.15,0,.24.24,0,0,0-.15,0l-.61.35a.09.09,0,0,0-.06.08c-.09.72-.26,1.69-.53,2.91a.118.118,0,0,0,.06.1l.88.51a.32.32,0,0,0,.22,0c.08,0,.14,0,.14-.1a25.13,25.13,0,0,0,.53-2.71,4.58,4.58,0,0,0,1.79.42,4.12,4.12,0,0,0,1.72-.32l.76.44a.24.24,0,0,0,.15,0,.26.26,0,0,0,.15,0l.49-.28S189.1,91.35,189.1,91.32Z" fill="#0426a1"/>
    <ellipse id="Ellipse_71" data-name="Ellipse 71" cx="4.92" cy="8.53" rx="4.92" ry="8.53" transform="translate(166.628 141.71) rotate(-89.92)" fill="#0426a1"/>
    <ellipse id="Ellipse_72" data-name="Ellipse 72" cx="3.72" cy="6.45" rx="3.72" ry="6.45" transform="translate(168.71 140.512) rotate(-89.92)" fill="#0426a1"/>
    <path id="Path_339" data-name="Path 339" d="M178,136.85v-.07l-.59-.34a.83.83,0,0,0,.31-.43l.8.46a.2.2,0,0,0,.11,0,.21.21,0,0,0,.12,0l.38-.22v-.13l-2.86-1.65a.22.22,0,0,0-.22,0l-.5.29a.07.07,0,0,0,0,.06v.07l.49.29c.48.28.65.53.5.77l-1.41-.82a.2.2,0,0,0-.11,0,.21.21,0,0,0-.12,0l-.38.22v.13l1.47.85a1.61,1.61,0,0,1-.82.06,2.48,2.48,0,0,1-.88-.33l-.39-.23h-.11a.2.2,0,0,0-.11,0l-.47.27-.05.06c-.06.54-.19,1.28-.39,2.2a.05.05,0,0,0,0,.07l.67.39a.18.18,0,0,0,.16,0c.07,0,.11,0,.11-.08a19.074,19.074,0,0,0,.41-2.05,3.35,3.35,0,0,0,1.35.32,3.17,3.17,0,0,0,1.3-.24l.58.33a.2.2,0,0,0,.11,0h.12l.37-.21S178,136.87,178,136.85Z" fill="#0426a1"/>
    <ellipse id="Ellipse_73" data-name="Ellipse 73" cx="4.92" cy="8.53" rx="4.92" ry="8.53" transform="translate(166.809 140.818) rotate(-89.92)" fill="#0067ff"/>
    <ellipse id="Ellipse_74" data-name="Ellipse 74" cx="3.72" cy="6.45" rx="3.72" ry="6.45" transform="translate(168.89 139.621) rotate(-89.92)" fill="#00c6ff"/>
    <path id="Path_340" data-name="Path 340" d="M178.2,136v-.06l-.59-.34a.87.87,0,0,0,.31-.43l.8.46a.2.2,0,0,0,.11,0,.35.35,0,0,0,.12,0l.38-.22s.05,0,.05-.07v-.06l-2.86-1.65a.22.22,0,0,0-.22,0l-.5.28a.128.128,0,0,0-.05.14l.5.28c.48.28.65.54.5.78l-1.41-.82a.2.2,0,0,0-.11,0,.21.21,0,0,0-.12,0l-.38.22a.07.07,0,0,0-.05.06.1.1,0,0,0,0,.07l1.47.85a1.73,1.73,0,0,1-.82.06,2.69,2.69,0,0,1-.88-.33l-.39-.23h-.23l-.46.26a.12.12,0,0,0-.05.07c-.06.54-.19,1.27-.39,2.2v.07l.67.39a.22.22,0,0,0,.16,0c.07,0,.11,0,.11-.08.21-.9.35-1.58.41-2a3.53,3.53,0,0,0,1.35.31,2.88,2.88,0,0,0,1.3-.24l.58.34h.11a.24.24,0,0,0,.12,0l.37-.21Z" fill="#0426a1"/>
    <ellipse id="Ellipse_75" data-name="Ellipse 75" cx="3.59" cy="6.22" rx="3.59" ry="6.22" transform="translate(138.267 99.335) rotate(-89.92)" fill="#0426a1"/>
    <ellipse id="Ellipse_76" data-name="Ellipse 76" cx="2.72" cy="4.7" rx="2.72" ry="4.7" transform="translate(139.788 98.467) rotate(-89.92)" fill="#0426a1"/>
    <path id="Path_341" data-name="Path 341" d="M146.58,95.8l-.43-.25a.66.66,0,0,0,.23-.31l.58.33a.11.11,0,0,0,.08,0h.09l.27-.16-2.08-1.21h-.08a.12.12,0,0,0-.09,0l-.36.2h0v.05l.36.21c.35.2.47.39.36.56l-1-.6h-.08a.11.11,0,0,0-.08,0l-.28.15h0l1.07.62a1.17,1.17,0,0,1-.59,0,1.79,1.79,0,0,1-.65-.24l-.28-.16h-.16l-.34.2h0a15,15,0,0,1-.29,1.61l.49.28a.16.16,0,0,0,.12,0s.08,0,.08-.06c.16-.65.25-1.15.3-1.49a2.52,2.52,0,0,0,1,.22,2.21,2.21,0,0,0,1-.17l.42.24h.17l.27-.16A1.7,1.7,0,0,1,146.58,95.8Z" fill="#0426a1"/>
    <ellipse id="Ellipse_77" data-name="Ellipse 77" cx="3.59" cy="6.22" rx="3.59" ry="6.22" transform="translate(138.397 98.684) rotate(-89.92)" fill="#0067ff"/>
    <ellipse id="Ellipse_78" data-name="Ellipse 78" cx="2.72" cy="4.7" rx="2.72" ry="4.7" transform="translate(139.72 97.69) rotate(-90)" fill="#00c6ff"/>
    <path id="Path_342" data-name="Path 342" d="M146.71,95.15a.05.05,0,0,0,0-.05l-.43-.25a.66.66,0,0,0,.23-.31l.58.33a.11.11,0,0,0,.08,0h.09l.27-.16-2.08-1.21h-.17l-.36.21h0l.36.21c.35.2.47.39.37.56l-1-.6h-.08a.11.11,0,0,0-.08,0l-.28.15h0a.05.05,0,0,0,0,.05l1.06.62a1.16,1.16,0,0,1-.59,0,1.79,1.79,0,0,1-.65-.24l-.28-.16a.11.11,0,0,0-.08,0h-.08l-.34.2a15,15,0,0,1-.29,1.61h0l.49.28a.16.16,0,0,0,.12,0c.05,0,.08,0,.08-.06a13,13,0,0,0,.3-1.5,2.36,2.36,0,0,0,1,.23,2.21,2.21,0,0,0,.95-.17l.42.24h.17l.27-.16S146.71,95.16,146.71,95.15Z" fill="#0426a1"/>
    <ellipse id="Ellipse_79" data-name="Ellipse 79" cx="3.59" cy="6.22" rx="3.59" ry="6.22" transform="translate(180.927 114.817) rotate(-89.92)" fill="#0426a1"/>
    <ellipse id="Ellipse_80" data-name="Ellipse 80" cx="2.72" cy="4.7" rx="2.72" ry="4.7" transform="translate(182.448 113.949) rotate(-89.92)" fill="#0426a1"/>
    <path id="Path_343" data-name="Path 343" d="M189.23,111.27h0l-.43-.25a.62.62,0,0,0,.23-.32l.58.34h.17l.27-.16v-.05l-2.08-1.2h-.17l-.36.21.36.21c.35.21.47.4.37.57l-1-.6h-.16l-.28.16h0l1.06.61a1.16,1.16,0,0,1-.59,0,1.86,1.86,0,0,1-.64-.24l-.29-.17h-.08a.11.11,0,0,0-.08,0l-.34.19c-.05.39-.15.93-.29,1.6v.06l.48.28a.16.16,0,0,0,.12,0h.08a13.831,13.831,0,0,0,.3-1.5,2.36,2.36,0,0,0,1,.23,2.28,2.28,0,0,0,1-.17l.42.24h.08a.11.11,0,0,0,.08,0l.27-.15a.07.07,0,0,0-.08.11Z" fill="#0426a1"/>
    <ellipse id="Ellipse_81" data-name="Ellipse 81" cx="3.59" cy="6.22" rx="3.59" ry="6.22" transform="translate(181.057 114.166) rotate(-89.92)" fill="#0067ff"/>
    <ellipse id="Ellipse_82" data-name="Ellipse 82" cx="2.72" cy="4.7" rx="2.72" ry="4.7" transform="translate(182.578 113.298) rotate(-89.92)" fill="#00c6ff"/>
    <path id="Path_344" data-name="Path 344" d="M189.36,110.62v-.05l-.43-.24a.62.62,0,0,0,.23-.32l.58.34h.17l.27-.16h0l-2.08-1.2a.11.11,0,0,0-.08,0h-.09l-.35.21a.05.05,0,0,0,0,.05l.36.21c.35.21.48.39.37.57l-1-.6h-.16l-.27.16h0l1.07.62a1.21,1.21,0,0,1-.6.05,1.86,1.86,0,0,1-.64-.24l-.29-.17a419.37,419.37,0,0,0-.16,0l-.34.19c-.05.39-.15.93-.29,1.6v.06l.48.28a.16.16,0,0,0,.12,0,.09.09,0,0,0,.09-.06c.15-.65.25-1.15.29-1.49a2.72,2.72,0,0,0,1,.23,2.1,2.1,0,0,0,.95-.18l.42.25h.08a.11.11,0,0,0,.08,0l.27-.15a.05.05,0,0,0-.05.04Z" fill="#0426a1"/>
    <ellipse id="Ellipse_83" data-name="Ellipse 83" cx="3.59" cy="6.22" rx="3.59" ry="6.22" transform="translate(121.033 121.186) rotate(-89.92)" fill="#0426a1"/>
    <ellipse id="Ellipse_84" data-name="Ellipse 84" cx="2.72" cy="4.7" rx="2.72" ry="4.7" transform="translate(122.554 120.318) rotate(-89.92)" fill="#0426a1"/>
    <path id="Path_345" data-name="Path 345" d="M129.34,117.65a.05.05,0,0,0,0-.05l-.43-.25a.74.74,0,0,0,.23-.31l.58.34h.16l.28-.16-2.09-1.21h-.16l-.36.2h0l.37.21c.35.2.47.39.36.56l-1-.6a.11.11,0,0,0-.08,0,.15.15,0,0,0-.09,0l-.27.16h0a.05.05,0,0,0,0,.05l1.07.62a1.3,1.3,0,0,1-.59,0,2,2,0,0,1-.65-.25l-.28-.16h-.17l-.33.2h0a15,15,0,0,1-.29,1.61h0l.49.28a.16.16,0,0,0,.12,0c.05,0,.08,0,.08-.06a12.781,12.781,0,0,0,.29-1.49,2.77,2.77,0,0,0,1,.23,2.4,2.4,0,0,0,1-.18l.42.24a.11.11,0,0,0,.08,0h.09l.27-.16A1.451,1.451,0,0,1,129.34,117.65Z" fill="#0426a1"/>
    <ellipse id="Ellipse_85" data-name="Ellipse 85" cx="3.59" cy="6.22" rx="3.59" ry="6.22" transform="translate(121.163 120.545) rotate(-89.92)" fill="#0067ff"/>
    <ellipse id="Ellipse_86" data-name="Ellipse 86" cx="2.72" cy="4.7" rx="2.72" ry="4.7" transform="translate(122.685 119.677) rotate(-89.92)" fill="#00c6ff"/>
    <path id="Path_346" data-name="Path 346" d="M129.47,117l-.43-.25a.66.66,0,0,0,.23-.31l.58.33a.11.11,0,0,0,.08,0h.09l.27-.16-2.08-1.21h-.08a.12.12,0,0,0-.09,0l-.36.2h0l.36.21c.35.2.47.39.36.56l-1-.6h-.08a.11.11,0,0,0-.08,0l-.28.15h0l1.07.62a1.17,1.17,0,0,1-.59,0,1.79,1.79,0,0,1-.65-.24l-.28-.16h-.16l-.34.2h0a15,15,0,0,1-.29,1.61h0l.49.28a.16.16,0,0,0,.12,0s.08,0,.08-.06c.16-.65.25-1.15.3-1.49a2.71,2.71,0,0,0,1,.23,2.4,2.4,0,0,0,.95-.18l.42.24a.11.11,0,0,0,.08,0h.09l.27-.16Z" fill="#0426a1"/>
    <g id="Group_2" data-name="Group 2" opacity="0.25">
      <path id="Path_347" data-name="Path 347" d="M184.05,172.68l-75.43-43.69.08-61.92,75.43,43.68Z" fill="#f2f5fa"/>
      <path id="Path_348" data-name="Path 348" d="M184.05,172.96l.08-62.4L215.51,92.5l-.08,62.4Z" fill="#dbddf2"/>
      <path id="Path_349" data-name="Path 349" d="M184.09,110.66,108.66,66.97l31.37-18.05L215.47,92.6Z" fill="#fff"/>
    </g>
    <path id="Path_350" data-name="Path 350" d="M352.75.28,145.19,0,289.86,334.57c.51,47.53,125.35,47.51,124.88.17L568.43.56Z" fill="url(#linear-gradient-12)"/>
  </g>
</svg>
