<svg xmlns="http://www.w3.org/2000/svg" xmlns:xlink="http://www.w3.org/1999/xlink" width="50" height="50" viewBox="0 0 50 50">
  <defs>
    <linearGradient id="linear-gradient" x1="0.5" x2="0.5" y2="1" gradientUnits="objectBoundingBox">
      <stop offset="0" stop-color="#ff9472"/>
      <stop offset="1" stop-color="#f2709c"/>
    </linearGradient>
  </defs>
  <g id="integration" transform="translate(-7340 -437)">
    <circle id="Ellipse_14" data-name="Ellipse 14" cx="25" cy="25" r="25" transform="translate(7340 437)" fill="url(#linear-gradient)"/>
    <g id="Group_142" data-name="Group 142" transform="translate(7347 452)">
      <g id="Group_96" data-name="Group 96" transform="translate(14.062 0)">
        <g id="Group_95" data-name="Group 95">
          <path id="Path_28" data-name="Path 28" d="M716.186,1254.245a1.684,1.684,0,0,1-1.63-2.11l4.376-16.752a1.684,1.684,0,1,1,3.258.851l-4.376,16.752A1.684,1.684,0,0,1,716.186,1254.245Z" transform="translate(-714.5 -1234.124)" fill="#fff"/>
        </g>
      </g>
      <g id="Group_97" data-name="Group 97" transform="translate(0 0.379)">
        <path id="Path_29" data-name="Path 29" d="M683.6,1254.612a1.678,1.678,0,0,1-1.153-.457l-9.71-9.127,9.7-9.309a1.684,1.684,0,1,1,2.332,2.429l-7.14,6.854,7.127,6.7a1.684,1.684,0,0,1-1.153,2.911Z" transform="translate(-672.74 -1235.25)" fill="#fff"/>
      </g>
      <g id="Group_98" data-name="Group 98" transform="translate(23.322 0.379)">
        <path id="Path_30" data-name="Path 30" d="M743.684,1254.612a1.684,1.684,0,0,1-1.153-2.911l7.127-6.7-7.14-6.854a1.684,1.684,0,0,1,2.332-2.429l9.7,9.309-9.71,9.127A1.678,1.678,0,0,1,743.684,1254.612Z" transform="translate(-742 -1235.25)" fill="#fff"/>
      </g>
    </g>
  </g>
</svg>
