<svg xmlns="http://www.w3.org/2000/svg" width="70" height="70" viewBox="0 0 70 70"><path fill="#FFF" d="M68.001 52.096c0 8.543-6.926 15.469-15.469 15.469H17.469C8.926 67.565 2 60.639 2 52.096V17.034C2 8.491 8.926 1.565 17.469 1.565h35.062C61.074 1.565 68 8.491 68 17.034l.001 35.062z"/><linearGradient id="a" gradientUnits="userSpaceOnUse" x1="24.318" y1="16.047" x2="45.338" y2="52.455"><stop offset="0" stop-color="#ffd000"/><stop offset=".309" stop-color="#ff000a"/><stop offset=".722" stop-color="#0075ff"/><stop offset=".748" stop-color="#0078f9"/><stop offset=".783" stop-color="#007fe8"/><stop offset=".822" stop-color="#008bcd"/><stop offset=".865" stop-color="#009ca6"/><stop offset=".911" stop-color="#00b174"/><stop offset=".959" stop-color="#00cb39"/><stop offset="1" stop-color="#00e400"/></linearGradient><path fill="url(#a)" d="M13.864 25.646c-.912 0-1.553-.776-1.553-1.689 0-.878.675-1.655 1.587-1.655.946 0 1.554.743 1.554 1.655-.001 1.013-.677 1.689-1.588 1.689zm1.047 21.783h-2.094V29.158h2.094v18.271zM41.49 34.393c0 9.084-5.268 13.441-11.212 13.441-6.248 0-10.976-4.897-10.976-12.968 0-8.51 4.896-13.475 11.28-13.475 6.484 0 10.908 5.099 10.908 13.002zm-20.026.405c0 5.674 3.141 11.314 8.882 11.314 5.843 0 8.983-5.471 8.983-11.617 0-5.336-2.769-11.381-8.882-11.381-6.248-.001-8.983 5.977-8.983 11.684zm35.53-10.435c-.709-.507-2.33-1.216-4.491-1.216-3.918 0-5.302 2.466-5.302 4.457 0 2.77 1.621 4.154 5.167 5.64 4.154 1.723 6.349 3.748 6.349 7.531 0 3.884-2.837 7.025-8.173 7.025-2.229 0-4.762-.709-6.045-1.655l.709-1.756c1.418.979 3.411 1.656 5.505 1.656 3.681 0 5.877-2.061 5.877-5.066 0-2.804-1.418-4.492-4.965-5.911-3.951-1.418-6.517-3.614-6.517-7.159 0-3.782 3.107-6.518 7.531-6.518 2.364 0 4.188.608 5.066 1.182l-.711 1.79z"/></svg>