<svg xmlns="http://www.w3.org/2000/svg" width="200" height="120" viewBox="0 0 200 120">
  <g id="java" transform="translate(-1208 -1301)">
    <rect id="Rectangle_285" data-name="Rectangle 285" width="200" height="120" transform="translate(1208 1301)" fill="none"/>
    <g id="Group_96" data-name="Group 96" transform="translate(-393.203 1052.29)">
      <path id="Path_914" data-name="Path 914" d="M1683.489,326.549s-4.257,2.477,3.031,3.314c8.829,1.008,13.342.862,23.071-.978a40.122,40.122,0,0,0,6.131,2.993c-21.812,9.348-49.365-.542-32.233-5.329" transform="translate(3.091 12.618)" fill="#5382a1"/>
      <path id="Path_915" data-name="Path 915" d="M1681.308,316.137s-4.775,3.535,2.519,4.289c9.431.974,16.88,1.053,29.768-1.429a13.206,13.206,0,0,0,4.585,2.8c-26.372,7.711-55.745.608-36.872-5.656" transform="translate(2.607 10.831)" fill="#5382a1"/>
      <path id="Path_916" data-name="Path 916" d="M1700.331,302.943c5.375,6.188-1.412,11.755-1.412,11.755s13.646-7.045,7.38-15.866c-5.854-8.227-10.343-12.314,13.958-26.407,0,0-38.143,9.526-19.926,30.518" transform="translate(6.053 3.332)" fill="#e76f00"/>
      <path id="Path_917" data-name="Path 917" d="M1735.233,334.389s3.15,2.6-3.47,4.6c-12.591,3.815-52.4,4.966-63.461.152-3.975-1.729,3.479-4.13,5.825-4.634a15.159,15.159,0,0,1,3.844-.431c-4.421-3.114-28.577,6.116-12.27,8.759,44.471,7.212,81.067-3.248,69.532-8.45" transform="translate(0 13.801)" fill="#5382a1"/>
      <path id="Path_918" data-name="Path 918" d="M1687.318,305.352s-20.25,4.809-7.171,6.556c5.523.739,16.532.572,26.785-.287,8.381-.708,16.8-2.211,16.8-2.211a35.611,35.611,0,0,0-5.094,2.726c-20.563,5.408-60.289,2.891-48.853-2.641,9.672-4.674,17.536-4.144,17.536-4.144" transform="translate(1.31 8.978)" fill="#5382a1"/>
      <path id="Path_919" data-name="Path 919" d="M1715.521,325.811c20.9-10.861,11.239-21.3,4.493-19.894a15.586,15.586,0,0,0-2.391.642,3.806,3.806,0,0,1,1.787-1.378c13.346-4.692,23.61,13.838-4.308,21.178a1.82,1.82,0,0,0,.419-.548" transform="translate(9.433 8.823)" fill="#5382a1"/>
      <path id="Path_920" data-name="Path 920" d="M1708.475,253s11.576,11.581-10.981,29.39c-18.089,14.285-4.125,22.429-.007,31.736-10.559-9.527-18.308-17.913-13.109-25.718,7.63-11.458,28.768-17.012,24.1-35.408" transform="translate(3.877 0)" fill="#e76f00"/>
      <path id="Path_921" data-name="Path 921" d="M1688.513,349.3c20.066,1.285,50.878-.712,51.608-10.207,0,0-1.4,3.6-16.583,6.458-17.126,3.223-38.249,2.847-50.776.781,0,0,2.564,2.122,15.752,2.968" transform="translate(2.169 14.769)" fill="#5382a1"/>
    </g>
  </g>
</svg>
