<svg id="Layer_1" data-name="Layer 1" xmlns="http://www.w3.org/2000/svg" width="28.797" height="28.797" viewBox="0 0 28.797 28.797">
  <circle id="Ellipse_322" data-name="Ellipse 322" cx="14.398" cy="14.398" r="14.398" fill="#174191"/>
  <path id="Path_185" data-name="Path 185" d="M65.121,49.687c-.767-.136-1.542-.243-2.319-.305a56.44,56.44,0,0,0-8.041-.089c-1.313.081-2.619.287-3.929.437a1.767,1.767,0,0,0-1.2.908.033.033,0,0,0-.022.045l-.131.261v.008q-.078.6-.153,1.2c-.006.916-.016,1.831-.015,2.747s.015,1.856.023,2.783c.022.174.045.346.067.519,0,0,.079.44.083.461.047.177.093.356.139.533a.349.349,0,0,0,.015.074c.018.052.037.1.056.156-.02-.052-.038-.1-.056-.156.018.052.037.1.056.156h0l.074.243-.074-.243.074.243a13.172,13.172,0,0,0,.544,1.326,14.962,14.962,0,0,0,6.668,6.361,2.574,2.574,0,0,0,1.382.207,6.269,6.269,0,0,0,2.52-1.267l-3.906-3.686-.082-.076-.078-.073-.61-.59-.012-.01L55.073,60.8l-.156-.158-.4-.827v-.17a1.269,1.269,0,0,1,1.467-.738,7.756,7.756,0,0,0,1.152-.079h0a1.654,1.654,0,0,0,1.115-.615l.061-.055q.2-.305.4-.61c-1.433,0-2.866,0-4.3-.012a3.813,3.813,0,0,1-.441-.054h0l-.082.017.009.01-.477-.43-.031-.088a1,1,0,0,1,.434-1.193,6.017,6.017,0,0,1,.669-.078c1.009-.009,2.018,0,3.027,0h1.169a2.18,2.18,0,0,0-2.04-1.363c-.806-.008-1.613,0-2.419-.006a.9.9,0,0,1-.921-.818.834.834,0,0,1,.672-.936,2.355,2.355,0,0,1,.394-.069h7.036a2.12,2.12,0,0,1,.393.073h0a.854.854,0,0,1,.638,1.01.8.8,0,0,1-.856.672c-.491.02-.979.067-1.459.1l.555,1.335c.258,0,.547-.008.835,0a.911.911,0,1,1-.015,1.821h-.865a4.239,4.239,0,0,1-3.042,3.11l4.8,4.573c.589-.6,1.168-1.152,1.7-1.755a10.943,10.943,0,0,0,1.919-3.021A7.788,7.788,0,0,0,66.736,57V52.152A2.146,2.146,0,0,0,65.121,49.687Z" transform="translate(-43.63 -43.524)" fill="#fff"/>
</svg>
