<svg xmlns="http://www.w3.org/2000/svg" width="200" height="120" viewBox="0 0 200 120">
  <g id="js" transform="translate(-948 -1361)">
    <rect id="Rectangle_284" data-name="Rectangle 284" width="200" height="120" transform="translate(948 1361)" fill="none"/>
    <g id="Group_95" data-name="Group 95" transform="translate(-540.82 1107.58)">
      <path id="Path_911" data-name="Path 911" d="M1532,261.6h103.64V365.24H1532Z" fill="#f7df1e"/>
      <path id="Path_912" data-name="Path 912" d="M1559.251,348.209l7.931-4.8c1.53,2.713,2.922,5.009,6.261,5.009,3.2,0,5.218-1.252,5.218-6.122V309.181h9.739v33.253c0,10.088-5.913,14.679-14.54,14.679-7.791,0-12.314-4.035-14.609-8.9"/>
      <path id="Path_913" data-name="Path 913" d="M1593.69,347.166l7.931-4.592c2.087,3.409,4.8,5.914,9.6,5.914,4.035,0,6.609-2.018,6.609-4.8,0-3.339-2.644-4.522-7.1-6.469l-2.434-1.045c-7.027-2.991-11.688-6.747-11.688-14.678,0-7.3,5.565-12.871,14.262-12.871,6.192,0,10.644,2.157,13.844,7.792l-7.583,4.87c-1.67-2.992-3.478-4.174-6.261-4.174-2.852,0-4.661,1.809-4.661,4.174,0,2.922,1.809,4.1,5.982,5.914l2.435,1.043c8.279,3.548,12.94,7.165,12.94,15.3,0,8.766-6.887,13.566-16.139,13.566-9.044,0-14.888-4.313-17.74-9.948"/>
    </g>
  </g>
</svg>
