<svg xmlns="http://www.w3.org/2000/svg" viewBox="0 0 272.36 84.77"><defs><style>.cls-1{fill:#c01a1a;}.cls-2{fill:#c01919;}.cls-3{fill:#75170e;}.cls-4{fill:#be0d0d;}.cls-5{fill:#bf1212;}.cls-6{fill:#6d0000;}.cls-7{fill:#c83d3d;}.cls-8{fill:#be0303;}.cls-11,.cls-9{isolation:isolate;}.cls-10{fill:#545557;}.cls-11{font-size:10px;font-family:Calibri-Bold, Calibri;font-weight:700;}</style></defs><title>McAfee Secure</title><g id="Layer_2" data-name="Layer 2"><g id="Layer_1-2" data-name="Layer 1"><g id="Layer_2-2" data-name="Layer 2"><g id="Layer_1-2-2" data-name="Layer 1-2"><path class="cls-1" d="M180.81,34.67l.51,1.15c-1.88,0-3.75.09-5.62,0a19.42,19.42,0,0,1-2.82-.52l-.48-1.14.33-.25-.49-.22-1.53-3.21H158.29l-1.74,3.15c-1.08.3-.57,1.14-.6,1.8a.59.59,0,0,1-.1.39H147.6c4.13-9.35,8.23-18.7,12.42-28,.75-1.67,1.17-3.15.24-4.91A9.66,9.66,0,0,1,159.72,0h6.06a15.43,15.43,0,0,1,2.88,5.14c3.71,9,7.48,18,11.22,27a10.18,10.18,0,0,1,.36,1.31C180.16,34,179.94,34.56,180.81,34.67Zm-16.28-20L161,23c3.1.46,4.64.42,6.7-.21-1-2.64-2-5.23-3.17-8.15Z"/><path class="cls-2" d="M35.92,84.72C30.61,82.43,25.29,80.19,20,77.84S9.48,73,4.17,70.64A27.33,27.33,0,0,0,0,69.51v-66A12,12,0,0,1,2.79,4C5.22,5,7.6,6.18,10,7.34c8.19,4,17,6.66,24.57,12.07.31.22,1,0,1.45-.06l-.15,15.54L15.12,26V59.6L36,69.05Z"/><path class="cls-2" d="M185.11,20.39c-2.86,0-2.93-.09-2.94-2.88V14.38l3.14-.3c.06-1,.14-2,.16-2.91,0-1.84,0-3.73,1.05-5.31a16.59,16.59,0,0,1,3.17-3.67A10.06,10.06,0,0,1,195,0c.37,0,5,1,6.42,1.32-1.08,2.36-2,4.41-3,6.54-1.67-.16-3.34-1.16-4.77.28s-.55,3.47-1,5.43h4.68c.56,2.32.19,4.46.32,6.78h-4.79c-.06,5.28-.11,10.39-.16,15.49h-6.55v-14C186.2,21,186.17,20.35,185.11,20.39Z"/><path class="cls-3" d="M36,19.35,71,3.61V64.33a23.13,23.13,0,0,0,.77,4.13c-3.14,1.64-6.23,3.41-9.44,4.9C54.61,77,46.8,80.46,39,84a18.15,18.15,0,0,1-3.07.77L36,69.05l21.68-9.62c.44-.73,1.25-1.45,1.25-2.19q.14-14.39,0-28.79c0-.64-.67-1.28-1-1.93-2,.56-4.06,1-6,1.71-5.4,2.14-10.75,4.43-16.12,6.66Z"/><path class="cls-2" d="M207.7,26c.78,2.37,3.67,4.24,6.06,4.85s4-1.54,6.37-2.46c3.11,1.22,3.91,1.73,5.1,3.32a14.86,14.86,0,0,1-18.46,3.14c-5.3-2.89-7.9-9.5-6.2-15.61a13.55,13.55,0,0,1,13.92-9.78,12.22,12.22,0,0,1,8.24,3c2.4,2.12,4.33,4.6,4.74,8a9.85,9.85,0,0,0-.47,1.69c-.09.86-.06,1.74-.08,2.7H211a12.53,12.53,0,0,0-2.45.06C208.18,24.94,208,25.59,207.7,26Zm.63-5.54c3.82-.45,7.53.74,11.11-.86-1.61-3-4.06-4.35-6.76-3.79-2.92.59-4.23,1.88-4.35,4.62Z"/><path class="cls-2" d="M257.71,19.84l.16,1.11c-1.36,1,.1,2.65-1.07,3.86h-18c-.8,0-.79.6-.78,1.16h0l-.4.2.49.28c1.7,3.17,4.68,4,8,4.37,2.27-.53,2.62-1.72,4-2.65l4.55,2.39a1.63,1.63,0,0,1-.19,2.3l-.16.12c-2.93,2.34-6.08,4-10,3.53a37,37,0,0,1-4.57-.52c-5.52-1.43-9.22-6.4-9.5-12.43A12.78,12.78,0,0,1,235,12.91a13.73,13.73,0,0,1,4.52-2.5,17.64,17.64,0,0,1,6.12-.85,12.92,12.92,0,0,1,5.43,1.72,26.92,26.92,0,0,1,4.54,3.92,3.63,3.63,0,0,1,.59,1.2l.58,1.24h0C257,18.39,256.08,19.62,257.71,19.84Zm-7.9-.26c-2.46-4.72-8-5.24-10.87-1.28a1.39,1.39,0,0,0,0,2l.12.11C242.48,20,246.14,21.12,249.81,19.58Z"/><path class="cls-1" d="M134.75,30.31a8.13,8.13,0,0,0,6.54-4.15l5.87,3.41c-2.63,6-10.27,8.14-15.46,6.92-6-1.42-10.33-5.47-11-13a12.36,12.36,0,0,1,2.3-8A13.53,13.53,0,0,1,130.32,10a14.66,14.66,0,0,1,9.19-.09c3.72,1.26,5.32,2.68,7.76,6.4-1.31.79-2.6,1.62-3.93,2.36-1.62.9-1.91.87-3.26-.57a6.34,6.34,0,0,0-7.5-1.65,6.51,6.51,0,0,0-4.37,6.61,6.86,6.86,0,0,0,4.51,6.57A16.66,16.66,0,0,0,134.75,30.31Z"/><path class="cls-4" d="M207.7,26c.27-.38.48-1,.82-1.1a12.53,12.53,0,0,1,2.45-.06h15.95c0-1,0-1.84.08-2.7a9.85,9.85,0,0,1,.47-1.69l.69,5c-1,.1-1.7.22-2.4.22H210.39A24.39,24.39,0,0,0,207.7,26Z"/><path class="cls-4" d="M238.05,26c0-.56,0-1.14.78-1.16h18C258,23.63,256.54,22,257.9,21c.2,1.41.39,2.83.62,4.47-1,.1-1.67.24-2.36.24H241.05A23.4,23.4,0,0,0,238.05,26Z"/><path class="cls-5" d="M185.11,20.39c1.06,0,1.09.65,1.08,1.45v14h6.55c.12.75-.29.95-.94.94h-6.17a15.32,15.32,0,0,1-.3-1.9V23.07C185.3,22.2,185.18,21.3,185.11,20.39Z"/><path class="cls-6" d="M71.8,68.46a23.19,23.19,0,0,1-.8-4.13V3.61l1.06-.42q.06,31.92.09,63.85A5.79,5.79,0,0,1,71.8,68.46Z"/><path class="cls-7" d="M172.88,35.32a19.42,19.42,0,0,0,2.82.52c1.87.07,3.74,0,5.62,0l.51.84h-8.55Z"/><path class="cls-7" d="M147.6,35.84h8.25c0,.91-.57,1-1.27,1H147.2Z"/><path class="cls-4" d="M109.58,35.84h7.73c-.15.29-.29.83-.45.83-2.28.06-4.57.06-6.85,0C109.86,36.67,109.73,36.13,109.58,35.84Z"/><path class="cls-8" d="M85.86,35.84h7.71c-.2.25-.4.71-.6.71q-3.24.08-6.5,0C86.26,36.52,86.06,36.08,85.86,35.84Z"/><path class="cls-4" d="M257.71,19.84c-1.63-.22-.75-1.45-.91-2.27Z"/><path class="cls-8" d="M117.31,1.66l-.69-.73L101.64,12c-.86-.6-1.61-1.11-2.34-1.65-3.21-2.41-6.41-4.83-9.63-7.23C88.81,2.48,86.83.63,85.82.5V2.2c0,4-.11,8-.1,12,0,7.21.06,14.41.1,21.61h7.71c.06-6.57.12-13.13.18-20.08l7.87,5.77,8-5.87V35.84h7.73c0-3.64.1-7.28.1-10.93C117.39,17.16,117.34,9.41,117.31,1.66Z"/><path class="cls-7" d="M156,35.45c0-.66-.48-1.5.6-1.8Z"/><path class="cls-4" d="M256.84,17.61l-.58-1.24Z"/><path class="cls-4" d="M117.31,1.66l-.69-.73.67-.48Z"/><path class="cls-7" d="M180.81,34.67c-.87-.11-.65-.72-.57-1.26Z"/><path class="cls-7" d="M172.24,33.71l.49.22-.33.25A.58.58,0,0,1,172.24,33.71Z"/><path class="cls-4" d="M238.16,26.42l-.49-.28.4-.2A1.32,1.32,0,0,1,238.16,26.42Z"/><path class="cls-6" d="M57.69,59.43l.25-32.91c.35.65,1,1.29,1,1.93q.09,14.4,0,28.79C58.94,58,58.13,58.7,57.69,59.43Z"/><g class="cls-9"><g class="cls-9"><path class="cls-10" d="M109.47,71.51a7.48,7.48,0,0,1-1,3.89,8.66,8.66,0,0,1-2.69,2.8,12.61,12.61,0,0,1-4,1.68,20,20,0,0,1-4.86.57,20.58,20.58,0,0,1-3.25-.24,20.82,20.82,0,0,1-2.65-.58,12.83,12.83,0,0,1-1.92-.7A5.94,5.94,0,0,1,88,78.27a1.46,1.46,0,0,1-.48-.81,6.05,6.05,0,0,1-.15-1.54,9.06,9.06,0,0,1,.06-1.13,2.61,2.61,0,0,1,.17-.74.86.86,0,0,1,.31-.4.85.85,0,0,1,.46-.12,2.46,2.46,0,0,1,1,.36,18.46,18.46,0,0,0,4.2,1.59,14.07,14.07,0,0,0,3.36.36,9.53,9.53,0,0,0,2.24-.25,5.45,5.45,0,0,0,1.69-.71,3.08,3.08,0,0,0,1.42-2.63,2.36,2.36,0,0,0-.63-1.65,6,6,0,0,0-1.63-1.21,17.49,17.49,0,0,0-2.28-1l-2.64-1a26.22,26.22,0,0,1-2.64-1.19,10.32,10.32,0,0,1-2.28-1.59,7.2,7.2,0,0,1-1.63-2.18,6.74,6.74,0,0,1-.63-3,6.93,6.93,0,0,1,.9-3.56,7.65,7.65,0,0,1,2.43-2.54,11.07,11.07,0,0,1,3.6-1.51,18.36,18.36,0,0,1,4.4-.51,19.35,19.35,0,0,1,2.4.16,20.09,20.09,0,0,1,2.25.41,15,15,0,0,1,1.85.59,4.78,4.78,0,0,1,1.07.54,1.6,1.6,0,0,1,.35.37,1.24,1.24,0,0,1,.16.4,3.27,3.27,0,0,1,.09.64c0,.25,0,.56,0,.94s0,.78,0,1.07a3.75,3.75,0,0,1-.13.72.88.88,0,0,1-.26.41.74.74,0,0,1-.46.13,2.49,2.49,0,0,1-.91-.3c-.42-.21-.93-.43-1.54-.67a17.41,17.41,0,0,0-2.12-.65,10.87,10.87,0,0,0-2.63-.29,7.56,7.56,0,0,0-2,.22,4.66,4.66,0,0,0-1.4.63A2.58,2.58,0,0,0,95,58.78a2.35,2.35,0,0,0,.61,1.62,5.71,5.71,0,0,0,1.65,1.22,19.35,19.35,0,0,0,2.34,1c.87.31,1.75.64,2.66,1a27.36,27.36,0,0,1,2.66,1.19,10.72,10.72,0,0,1,2.33,1.58,7.67,7.67,0,0,1,1.64,2.18A6.48,6.48,0,0,1,109.47,71.51Z"/></g><g class="cls-9"><path class="cls-10" d="M134.74,77.71a6.19,6.19,0,0,1-.07,1.05,2.12,2.12,0,0,1-.19.69,1,1,0,0,1-.33.38.8.8,0,0,1-.43.12h-17a2.44,2.44,0,0,1-1.45-.42,1.62,1.62,0,0,1-.59-1.39V53.6a1.58,1.58,0,0,1,.59-1.38,2.44,2.44,0,0,1,1.45-.42h16.87a.8.8,0,0,1,.41.1.85.85,0,0,1,.32.39,2.61,2.61,0,0,1,.19.69,6.42,6.42,0,0,1,.07,1.08,6.09,6.09,0,0,1-.07,1,2.61,2.61,0,0,1-.19.69.94.94,0,0,1-.32.38.73.73,0,0,1-.41.12H121.55v6.87h10.21a.8.8,0,0,1,.43.12,1,1,0,0,1,.33.37,2.3,2.3,0,0,1,.2.68,7.42,7.42,0,0,1,.06,1,7.63,7.63,0,0,1-.06,1.05,2.35,2.35,0,0,1-.2.66.83.83,0,0,1-.33.36.89.89,0,0,1-.43.11H121.55v7.94h12.17a.8.8,0,0,1,.43.12.9.9,0,0,1,.33.38,2.13,2.13,0,0,1,.19.68A6.39,6.39,0,0,1,134.74,77.71Z"/></g><g class="cls-9"><path class="cls-10" d="M163.38,75.69c0,.36,0,.67,0,.92a4.48,4.48,0,0,1-.12.65,1.56,1.56,0,0,1-.21.47,2.35,2.35,0,0,1-.42.45,5.63,5.63,0,0,1-1.11.64,13.92,13.92,0,0,1-2,.75,20.05,20.05,0,0,1-2.71.6,21.33,21.33,0,0,1-3.3.24,20.69,20.69,0,0,1-6.27-.89,12.83,12.83,0,0,1-4.75-2.67,11.46,11.46,0,0,1-3-4.43,16.74,16.74,0,0,1-1.05-6.18,16.49,16.49,0,0,1,1.15-6.37,13,13,0,0,1,3.21-4.68,13.81,13.81,0,0,1,4.95-2.87,19.73,19.73,0,0,1,6.36-1,18.3,18.3,0,0,1,2.71.19,21.32,21.32,0,0,1,2.42.52,13.89,13.89,0,0,1,2,.72,6.22,6.22,0,0,1,1.24.71,2.76,2.76,0,0,1,.49.49,2.15,2.15,0,0,1,.21.5,4.38,4.38,0,0,1,.11.72,10,10,0,0,1,0,1,8.83,8.83,0,0,1-.05,1.11,2.22,2.22,0,0,1-.18.74,1,1,0,0,1-.32.42.74.74,0,0,1-.41.13,2.06,2.06,0,0,1-1-.38,14.43,14.43,0,0,0-1.55-.85,12.76,12.76,0,0,0-2.27-.85,11.23,11.23,0,0,0-3.15-.38,9.08,9.08,0,0,0-3.59.68,7.51,7.51,0,0,0-2.69,2,8.57,8.57,0,0,0-1.68,3.08,15.14,15.14,0,0,0,0,8.37,7.86,7.86,0,0,0,1.75,3A7.2,7.2,0,0,0,150.91,75a10.78,10.78,0,0,0,3.62.58,12.27,12.27,0,0,0,3.16-.36,15.33,15.33,0,0,0,2.28-.8c.64-.29,1.16-.55,1.57-.78a2.18,2.18,0,0,1,1-.35.87.87,0,0,1,.42.09.67.67,0,0,1,.26.35,3,3,0,0,1,.16.72C163.36,74.75,163.38,75.16,163.38,75.69Z"/><path class="cls-10" d="M195.88,69.46A11.27,11.27,0,0,1,195,74.1a9.26,9.26,0,0,1-2.69,3.46,12.34,12.34,0,0,1-4.39,2.15,22.18,22.18,0,0,1-6,.74,22.76,22.76,0,0,1-5.72-.66,12,12,0,0,1-4.28-2,8.8,8.8,0,0,1-2.68-3.36,11.28,11.28,0,0,1-.92-4.71V52.58a.56.56,0,0,1,.15-.39,1.21,1.21,0,0,1,.56-.29,6.92,6.92,0,0,1,1.06-.17c.44,0,1-.06,1.67-.06s1.21,0,1.65.06a6.41,6.41,0,0,1,1,.17,1.27,1.27,0,0,1,.56.29.5.5,0,0,1,.17.39V69.2a7.77,7.77,0,0,0,.5,2.91,5.21,5.21,0,0,0,1.42,2,6.12,6.12,0,0,0,2.22,1.21,9.62,9.62,0,0,0,2.89.4,9.51,9.51,0,0,0,2.89-.41,5.94,5.94,0,0,0,2.17-1.21,5.3,5.3,0,0,0,1.37-2,6.86,6.86,0,0,0,.49-2.64v-17a.56.56,0,0,1,.15-.39,1.22,1.22,0,0,1,.55-.29,6.34,6.34,0,0,1,1.06-.17c.44,0,1-.06,1.66-.06s1.2,0,1.63.06a6.46,6.46,0,0,1,1,.17,1.22,1.22,0,0,1,.55.29.56.56,0,0,1,.15.39Z"/><path class="cls-10" d="M228.29,79.21a.72.72,0,0,1-.11.4.82.82,0,0,1-.49.27,5.44,5.44,0,0,1-1.15.16c-.51,0-1.2,0-2.07,0s-1.31,0-1.75,0a4.57,4.57,0,0,1-1-.17,1.14,1.14,0,0,1-.53-.3,1.4,1.4,0,0,1-.26-.45l-3-6.28c-.37-.71-.72-1.35-1.07-1.9a6.42,6.42,0,0,0-1.16-1.38,4.41,4.41,0,0,0-1.48-.84,6,6,0,0,0-1.93-.28h-2.14V79.17a.57.57,0,0,1-.17.39,1.33,1.33,0,0,1-.56.28,7.44,7.44,0,0,1-1.05.18c-.43,0-1,.06-1.67.06s-1.21,0-1.66-.06a7.44,7.44,0,0,1-1-.18,1.12,1.12,0,0,1-.55-.28.56.56,0,0,1-.16-.39V53.6a1.58,1.58,0,0,1,.59-1.38,2.41,2.41,0,0,1,1.45-.42H214c.89,0,1.62,0,2.2,0s1.09.06,1.56.11a16.66,16.66,0,0,1,3.67.82,9.32,9.32,0,0,1,2.77,1.54,6.38,6.38,0,0,1,1.74,2.24,7,7,0,0,1,.6,3,7.59,7.59,0,0,1-.43,2.58,6.37,6.37,0,0,1-1.27,2.08,8.1,8.1,0,0,1-2.06,1.58,12,12,0,0,1-2.8,1.09,8.78,8.78,0,0,1,1.43.74,6.83,6.83,0,0,1,1.25,1.06,10.17,10.17,0,0,1,1.11,1.41,16.5,16.5,0,0,1,1,1.8l2.84,5.54a12.91,12.91,0,0,1,.52,1.21A2,2,0,0,1,228.29,79.21Zm-8.86-19.1a3.69,3.69,0,0,0-.75-2.35,4.23,4.23,0,0,0-2.48-1.35c-.35-.07-.75-.13-1.19-.18s-1.06-.06-1.84-.06h-3.08v8h3.5a9.73,9.73,0,0,0,2.55-.29A5.43,5.43,0,0,0,218,63a3.5,3.5,0,0,0,1.1-1.27A3.7,3.7,0,0,0,219.43,60.11Z"/><path class="cls-10" d="M253.35,77.71a7.63,7.63,0,0,1-.06,1.05,2.38,2.38,0,0,1-.2.69,1,1,0,0,1-.33.38.8.8,0,0,1-.43.12h-17a2.44,2.44,0,0,1-1.45-.42,1.62,1.62,0,0,1-.59-1.39V53.6a1.58,1.58,0,0,1,.59-1.38,2.44,2.44,0,0,1,1.45-.42h16.87a.87.87,0,0,1,.42.1.91.91,0,0,1,.31.39,2.28,2.28,0,0,1,.19.69,6.42,6.42,0,0,1,.07,1.08,6.09,6.09,0,0,1-.07,1,2.28,2.28,0,0,1-.19.69,1,1,0,0,1-.31.38.79.79,0,0,1-.42.12H240.17v6.87h10.2a.8.8,0,0,1,.43.12.92.92,0,0,1,.33.37,2.3,2.3,0,0,1,.2.68,7.42,7.42,0,0,1,.06,1,7.63,7.63,0,0,1-.06,1.05,2.35,2.35,0,0,1-.2.66.78.78,0,0,1-.33.36.89.89,0,0,1-.43.11h-10.2v7.94h12.16a.8.8,0,0,1,.43.12.9.9,0,0,1,.33.38,2.4,2.4,0,0,1,.2.68A7.89,7.89,0,0,1,253.35,77.71Z"/></g></g><text class="cls-11" transform="translate(258.67 58.43)">TM</text></g></g></g></g></svg>