<svg xmlns="http://www.w3.org/2000/svg" width="334.29" height="564.73" viewBox="0 0 334.29 564.73"><defs><style>.cls-1{fill:#374fc1;}.cls-2{fill:#4b67eb;}.cls-3{fill:#fff;}.cls-4{isolation:isolate;}.cls-5{fill:#183963;}.cls-6{fill:#0767f6;}.cls-7{fill:#3bb94e;}.cls-8{fill:#347ad4;}.cls-9{opacity:0.25;}</style></defs><g id="Layer_2" data-name="Layer 2"><g id="Layer_1-2" data-name="Layer 1"><rect class="cls-1" width="334.29" height="564.73" rx="26.82"/><circle class="cls-2" cx="167.15" cy="525.59" r="21.78"/><path class="cls-2" d="M127.15,21.73h80a6.51,6.51,0,0,1,6.5,6.5h0a6.51,6.51,0,0,1-6.5,6.5h-80a6.5,6.5,0,0,1-6.5-6.5h0A6.5,6.5,0,0,1,127.15,21.73Z"/><circle class="cls-2" cx="102.01" cy="28.23" r="6.14"/><rect class="cls-3" x="22.15" y="45.86" width="290" height="448" rx="8.32"/><g class="cls-4"><path class="cls-5" d="M104.66,86.14V99.83h-1.84l-7.38-9.59v9.59H93.13V86.14H95l7.37,9.58V86.14Z"/><path class="cls-5" d="M110.26,99.15A5.74,5.74,0,0,1,108,96.71a9.15,9.15,0,0,1,0-7.46,5.49,5.49,0,0,1,2.26-2.43,7.49,7.49,0,0,1,6.93,0,5.47,5.47,0,0,1,2.25,2.43,9.25,9.25,0,0,1,0,7.46,5.7,5.7,0,0,1-2.24,2.44,7.47,7.47,0,0,1-6.92,0Zm6.42-2.43a5.88,5.88,0,0,0,1-3.75,5.76,5.76,0,0,0-1-3.72,4,4,0,0,0-5.92,0A5.72,5.72,0,0,0,109.7,93a5.82,5.82,0,0,0,1.06,3.75,4,4,0,0,0,5.92,0Z"/><path class="cls-5" d="M125.15,88.18h-4.46v-2h11.44v2h-4.48V99.83h-2.5Z"/><path class="cls-5" d="M133.84,86.14h2.48V99.83h-2.48Z"/><path class="cls-5" d="M139.28,86.14h8.94v2h-6.48v3.75h6.09v2h-6.09v6h-2.46Z"/><path class="cls-5" d="M150.27,86.14h2.48V99.83h-2.48Z"/><path class="cls-5" d="M158.39,99.14a5.87,5.87,0,0,1-2.31-2.45,8.09,8.09,0,0,1-.81-3.72,8,8,0,0,1,.81-3.7,5.73,5.73,0,0,1,2.31-2.44,7.07,7.07,0,0,1,3.53-.86,8,8,0,0,1,2.61.43,5.59,5.59,0,0,1,2,1.2l-.8,1.81a6.44,6.44,0,0,0-1.84-1.08A5.48,5.48,0,0,0,162,88a3.8,3.8,0,0,0-3.07,1.29A5.6,5.6,0,0,0,157.81,93a5.74,5.74,0,0,0,1.07,3.72A3.8,3.8,0,0,0,162,98a5.7,5.7,0,0,0,1.95-.33,6.74,6.74,0,0,0,1.84-1.09l.8,1.81a5.59,5.59,0,0,1-2,1.2,7.77,7.77,0,0,1-2.61.43A7.07,7.07,0,0,1,158.39,99.14Z"/><path class="cls-5" d="M177.72,96.62H171l-1.38,3.21h-2.5l6.19-13.69h2l6.21,13.69h-2.48Zm-.83-1.92-2.51-5.87-2.52,5.87Z"/><path class="cls-5" d="M184.56,88.18H180.1v-2h11.44v2h-4.48V99.83h-2.5Z"/><path class="cls-5" d="M193.25,86.14h2.48V99.83h-2.48Z"/><path class="cls-5" d="M201.32,99.15a5.76,5.76,0,0,1-2.27-2.44,9.15,9.15,0,0,1,0-7.46,5.55,5.55,0,0,1,2.26-2.43,7.51,7.51,0,0,1,6.94,0,5.45,5.45,0,0,1,2.24,2.43,9.25,9.25,0,0,1,0,7.46,5.7,5.7,0,0,1-2.24,2.44,7.45,7.45,0,0,1-6.91,0Zm6.41-2.43A5.88,5.88,0,0,0,208.78,93a5.76,5.76,0,0,0-1.05-3.72,4,4,0,0,0-5.92,0A5.72,5.72,0,0,0,200.75,93a5.82,5.82,0,0,0,1.06,3.75,4,4,0,0,0,5.92,0Z"/><path class="cls-5" d="M225.33,86.14V99.83h-1.84l-7.38-9.59v9.59H213.8V86.14h1.84L223,95.72V86.14Z"/></g><rect class="cls-3" x="47.15" y="192.86" width="241" height="179" rx="18.32"/><path class="cls-6" d="M269.83,372.37H65.47a18.85,18.85,0,0,1-18.83-18.82V211.18a18.84,18.84,0,0,1,18.83-18.81H269.83a18.83,18.83,0,0,1,18.81,18.81V353.55A18.84,18.84,0,0,1,269.83,372.37Zm-204.36-179a17.84,17.84,0,0,0-17.83,17.81V353.55a17.85,17.85,0,0,0,17.83,17.82H269.83a17.84,17.84,0,0,0,17.81-17.82V211.18a17.83,17.83,0,0,0-17.81-17.81Z"/><g class="cls-4"><path class="cls-5" d="M98.07,211h4.68a4,4,0,0,1,2.71.84,3.2,3.2,0,0,1,0,4.6,4,4,0,0,1-2.7.85H100v4.5h-2Zm4.45,4.77a2.48,2.48,0,0,0,1.54-.41,1.45,1.45,0,0,0,.52-1.21,1.49,1.49,0,0,0-.51-1.22,2.43,2.43,0,0,0-1.55-.41H100v3.25Z"/><path class="cls-5" d="M114.18,219.3H108.9l-1.09,2.53h-2L110.72,211h1.59l4.9,10.79h-2Zm-.66-1.52-2-4.62-2,4.62Z"/><path class="cls-5" d="M121.69,217.56v4.27h-2v-4.27L115.36,211h2.23l3.12,4.88,3.13-4.88h2.23Z"/><path class="cls-5" d="M137.17,211v10.79h-1.73v-6.7l-2.87,6.7h-1.28l-2.88-6.62v6.62h-1.73V211h1.54l3.72,8.44,3.68-8.44Z"/><path class="cls-5" d="M139.53,211h7.21v1.55h-5.3v3h5v1.55h-5v3.16h5.3v1.55h-7.21Z"/><path class="cls-5" d="M157.64,211v10.79h-1.46l-5.81-7.56v7.56h-1.82V211H150l5.81,7.55V211Z"/><path class="cls-5" d="M162.52,212.65H159V211h9v1.61h-3.53v9.18h-2Z"/><path class="cls-5" d="M182.4,221.83h-2.06L179,218.24a1.15,1.15,0,0,0-.56-.7,2.13,2.13,0,0,0-1-.2h-2v4.49h-1.94V211h4.62a4.24,4.24,0,0,1,2.79.8,2.85,2.85,0,0,1,1,2.31,2.93,2.93,0,0,1-.57,1.82,3.09,3.09,0,0,1-1.61,1.07,1.91,1.91,0,0,1,1.38,1.33Zm-4.53-6a2.69,2.69,0,0,0,1.64-.41,1.48,1.48,0,0,0,.53-1.24,1.42,1.42,0,0,0-.52-1.22,2.71,2.71,0,0,0-1.65-.4h-2.44v3.27Z"/><path class="cls-5" d="M184.16,211h7.22v1.55h-5.31v3h5v1.55h-5v3.16h5.31v1.55h-7.22Z"/><path class="cls-5" d="M195.26,221.28a4.47,4.47,0,0,1-1.82-1.93,7,7,0,0,1,0-5.85,4.5,4.5,0,0,1,1.82-1.92,5.53,5.53,0,0,1,2.78-.68,6.36,6.36,0,0,1,2.06.34,4.6,4.6,0,0,1,1.6.95l-.64,1.43a5.17,5.17,0,0,0-1.45-.86,4.34,4.34,0,0,0-1.54-.27,3,3,0,0,0-2.41,1,5.41,5.41,0,0,0,0,5.84,3,3,0,0,0,2.42,1,4.33,4.33,0,0,0,1.54-.26,5.17,5.17,0,0,0,1.45-.86l.64,1.43a4.6,4.6,0,0,1-1.6.95A6.36,6.36,0,0,1,198,222,5.43,5.43,0,0,1,195.26,221.28Z"/><path class="cls-5" d="M203.53,211h1.95v10.79h-1.95Z"/><path class="cls-5" d="M207.82,211H215v1.55h-5.3v3h5v1.55h-5v3.16H215v1.55h-7.21Z"/><path class="cls-5" d="M226.73,211l-4.8,10.79h-1.59L215.53,211h2l3.59,8.33,3.6-8.33Z"/><path class="cls-5" d="M227.76,211H235v1.55h-5.31v3h5v1.55h-5v3.16H235v1.55h-7.22Z"/><path class="cls-5" d="M236.78,211h4a5.66,5.66,0,0,1,4.11,1.41,6.12,6.12,0,0,1,0,8,5.63,5.63,0,0,1-4.11,1.42h-4Zm3.85,9.2c2.48,0,3.73-1.27,3.73-3.82s-1.25-3.79-3.73-3.79h-1.9v7.61Z"/></g><rect class="cls-7" x="71.67" y="215.89" width="2.41" height="8.69" transform="translate(-134.38 116.04) rotate(-45)"/><rect class="cls-7" x="71.64" y="216.04" width="17.14" height="2.41" transform="translate(-130.12 120.35) rotate(-45)"/><path class="cls-8" d="M78.5,245.17v1.51H72.2v-1.51h2.24v-6.58l-2.08,1.25v-1.65l2.84-1.72h1.07v8.7Z"/><path class="cls-8" d="M87.07,245.17v1.51H80.22v-1.36l3.47-3.74a5.94,5.94,0,0,0,.9-1.24,2.41,2.41,0,0,0,.29-1.1,1.34,1.34,0,0,0-.41-1.06,1.71,1.71,0,0,0-1.17-.36,4.64,4.64,0,0,0-2.77,1.06l-.61-1.35a4.47,4.47,0,0,1,1.54-.87,6,6,0,0,1,1.91-.32,3.68,3.68,0,0,1,2.43.75,2.52,2.52,0,0,1,.9,2,3.7,3.7,0,0,1-.38,1.65,7.86,7.86,0,0,1-1.27,1.74l-2.51,2.66Z"/><path class="cls-8" d="M95.08,242.32a2.59,2.59,0,0,1,.48,1.59,2.56,2.56,0,0,1-1,2.11,4.16,4.16,0,0,1-2.65.77,6.32,6.32,0,0,1-2-.31,4.21,4.21,0,0,1-1.56-.88l.63-1.34a4.58,4.58,0,0,0,2.85,1.06,2.26,2.26,0,0,0,1.45-.39,1.43,1.43,0,0,0,.48-1.18,1.36,1.36,0,0,0-.48-1.14,2.57,2.57,0,0,0-1.51-.36H90.45v-1.48h1.11q2,0,2-1.5a1.38,1.38,0,0,0-.43-1.08,1.79,1.79,0,0,0-1.21-.37,4.48,4.48,0,0,0-2.75,1.06l-.62-1.35a4.67,4.67,0,0,1,1.56-.87,6,6,0,0,1,1.93-.32,3.68,3.68,0,0,1,2.4.74,2.44,2.44,0,0,1,.89,2,2.63,2.63,0,0,1-.43,1.47,2.42,2.42,0,0,1-1.19.91A2.43,2.43,0,0,1,95.08,242.32Z"/><path class="cls-8" d="M103,240.56a2.93,2.93,0,0,1,1.14,1.15,3.59,3.59,0,0,1,.4,1.7,3.34,3.34,0,0,1-.46,1.77,3.12,3.12,0,0,1-1.32,1.19,4.48,4.48,0,0,1-2,.42,5.6,5.6,0,0,1-1.89-.32,4.17,4.17,0,0,1-1.54-.87l.62-1.34a4.69,4.69,0,0,0,2.84,1.06,2.07,2.07,0,0,0,1.47-.48,1.83,1.83,0,0,0,.5-1.37,1.8,1.8,0,0,0-.52-1.36,1.91,1.91,0,0,0-1.4-.51,2.85,2.85,0,0,0-1.13.23,2.57,2.57,0,0,0-.93.65H97.62v-6H104v1.43H99.43v2.79a3.11,3.11,0,0,1,1.83-.53A3.41,3.41,0,0,1,103,240.56Z"/><path class="cls-8" d="M112.92,245.17v1.51h-6.3v-1.51h2.24v-6.58l-2.08,1.25v-1.65l2.84-1.72h1.08v8.7Z"/><path class="cls-8" d="M114.61,242.09h4.32v1.43h-4.32Z"/><path class="cls-8" d="M128.16,244.69h-1.45v2H124.9v-2h-4.44v-1.38l4.77-6.84h1.48v6.77h1.45Zm-3.26-1.45v-3.89l-2.69,3.89Z"/><path class="cls-8" d="M135,240.56a2.91,2.91,0,0,1,1.13,1.15,3.47,3.47,0,0,1,.4,1.7,3.34,3.34,0,0,1-.46,1.77,3,3,0,0,1-1.31,1.19,4.53,4.53,0,0,1-2,.42,5.6,5.6,0,0,1-1.89-.32,4.2,4.2,0,0,1-1.53-.87l.61-1.34a4.71,4.71,0,0,0,2.84,1.06,2.07,2.07,0,0,0,1.47-.48,2.07,2.07,0,0,0,0-2.73,1.93,1.93,0,0,0-1.4-.51,2.85,2.85,0,0,0-1.13.23,2.53,2.53,0,0,0-.94.65h-1.11v-6h6.39v1.43h-4.59v2.79a3.14,3.14,0,0,1,1.84-.53A3.43,3.43,0,0,1,135,240.56Z"/><path class="cls-8" d="M143.65,240.54a3,3,0,0,1,1.11,1.16,3.77,3.77,0,0,1,0,3.46,3.09,3.09,0,0,1-1.22,1.21,3.95,3.95,0,0,1-4.75-.87,5.86,5.86,0,0,1-1-3.74,7.71,7.71,0,0,1,.49-2.91,4.06,4.06,0,0,1,1.43-1.86,3.85,3.85,0,0,1,2.23-.65,5.48,5.48,0,0,1,1.79.31,4.62,4.62,0,0,1,1.51.88l-.63,1.35a4.23,4.23,0,0,0-2.6-1.06,2,2,0,0,0-1.75,1,5.29,5.29,0,0,0-.64,2.75,2.4,2.4,0,0,1,1-1,2.93,2.93,0,0,1,1.49-.38A3.22,3.22,0,0,1,143.65,240.54Zm-.73,4.29a2.17,2.17,0,0,0,0-2.72,1.69,1.69,0,0,0-1.29-.51,1.75,1.75,0,0,0-1.3.52,1.82,1.82,0,0,0-.5,1.35,1.86,1.86,0,0,0,.51,1.35,1.74,1.74,0,0,0,1.31.53A1.68,1.68,0,0,0,142.92,244.83Z"/><path class="cls-8" d="M153.56,236.47v1.38l-4.63,8.83h-2l4.62-8.7h-5.12v-1.51Z"/><path class="cls-8" d="M161.88,242.33a2.41,2.41,0,0,1,.55,1.6,2.48,2.48,0,0,1-.48,1.52,3,3,0,0,1-1.34,1,5.41,5.41,0,0,1-2,.34,5.34,5.34,0,0,1-2-.34,3,3,0,0,1-1.35-1,2.48,2.48,0,0,1-.48-1.52,2.42,2.42,0,0,1,.56-1.6,2.89,2.89,0,0,1,1.55-.9,2.81,2.81,0,0,1-1.36-.9,2.22,2.22,0,0,1-.49-1.44,2.37,2.37,0,0,1,.46-1.45,2.8,2.8,0,0,1,1.26-1,4.69,4.69,0,0,1,1.85-.34,4.64,4.64,0,0,1,1.84.34,2.89,2.89,0,0,1,1.27,1,2.43,2.43,0,0,1,.46,1.45,2.29,2.29,0,0,1-.5,1.46,2.6,2.6,0,0,1-1.35.88A2.93,2.93,0,0,1,161.88,242.33Zm-1.75,2.61a1.32,1.32,0,0,0,.56-1.14,1.37,1.37,0,0,0-.57-1.14,3.18,3.18,0,0,0-1.51-.55,3.22,3.22,0,0,0-1.52.55,1.38,1.38,0,0,0-.56,1.14,1.31,1.31,0,0,0,.55,1.14,2.55,2.55,0,0,0,1.53.41A2.5,2.5,0,0,0,160.13,244.94Zm-2.86-6.76a1.33,1.33,0,0,0-.48,1.1,1.37,1.37,0,0,0,.49,1.1,1.87,1.87,0,0,0,2.65,0,1.38,1.38,0,0,0,.5-1.1,1.34,1.34,0,0,0-.49-1.1,2.07,2.07,0,0,0-1.33-.39A2.1,2.1,0,0,0,157.27,238.18Z"/><path class="cls-8" d="M163.9,242.09h4.31v1.43H163.9Z"/><path class="cls-8" d="M176.45,242.32a2.59,2.59,0,0,1,.48,1.59,2.56,2.56,0,0,1-1,2.11,4.16,4.16,0,0,1-2.65.77,6.22,6.22,0,0,1-2-.31,4.18,4.18,0,0,1-1.57-.88l.63-1.34a4.61,4.61,0,0,0,2.85,1.06,2.26,2.26,0,0,0,1.45-.39,1.4,1.4,0,0,0,.49-1.18,1.36,1.36,0,0,0-.49-1.14,2.57,2.57,0,0,0-1.51-.36h-1.35v-1.48h1.11q2,0,2-1.5a1.38,1.38,0,0,0-.43-1.08,1.79,1.79,0,0,0-1.21-.37,4.48,4.48,0,0,0-2.75,1.06l-.62-1.35a4.67,4.67,0,0,1,1.56-.87,6.06,6.06,0,0,1,1.93-.32,3.68,3.68,0,0,1,2.4.74,2.41,2.41,0,0,1,.89,2,2.55,2.55,0,0,1-.43,1.47,2.38,2.38,0,0,1-1.19.91A2.43,2.43,0,0,1,176.45,242.32Z"/><path class="cls-8" d="M185.66,245.17v1.51h-6.85v-1.36l3.47-3.74a5.94,5.94,0,0,0,.9-1.24,2.41,2.41,0,0,0,.29-1.1,1.34,1.34,0,0,0-.41-1.06,1.74,1.74,0,0,0-1.17-.36,4.64,4.64,0,0,0-2.77,1.06l-.61-1.35a4.47,4.47,0,0,1,1.54-.87,6,6,0,0,1,1.91-.32,3.68,3.68,0,0,1,2.43.75,2.52,2.52,0,0,1,.9,2,3.7,3.7,0,0,1-.38,1.65,7.86,7.86,0,0,1-1.27,1.74l-2.51,2.66Z"/><path class="cls-8" d="M192.94,240.56a2.84,2.84,0,0,1,1.13,1.15,3.48,3.48,0,0,1,.41,1.7,3.43,3.43,0,0,1-.46,1.77,3.12,3.12,0,0,1-1.32,1.19,4.51,4.51,0,0,1-2,.42,5.62,5.62,0,0,1-1.9-.32,4.2,4.2,0,0,1-1.53-.87l.62-1.34a4.66,4.66,0,0,0,2.83,1.06,2.07,2.07,0,0,0,1.47-.48,2.07,2.07,0,0,0,0-2.73,1.93,1.93,0,0,0-1.4-.51,2.85,2.85,0,0,0-1.13.23,2.41,2.41,0,0,0-.93.65h-1.12v-6H194v1.43h-4.58v2.79a3.09,3.09,0,0,1,1.83-.53A3.43,3.43,0,0,1,192.94,240.56Z"/><path class="cls-8" d="M201.55,240.54a3,3,0,0,1,1.11,1.16,3.81,3.81,0,0,1,0,3.46,3.15,3.15,0,0,1-1.22,1.21,3.57,3.57,0,0,1-1.77.44,3.62,3.62,0,0,1-3-1.31,5.92,5.92,0,0,1-1-3.74,7.71,7.71,0,0,1,.49-2.91,4,4,0,0,1,1.44-1.86,3.83,3.83,0,0,1,2.23-.65,5.42,5.42,0,0,1,1.78.31,4.62,4.62,0,0,1,1.51.88l-.63,1.35a4.23,4.23,0,0,0-2.59-1.06,2,2,0,0,0-1.75,1,5.28,5.28,0,0,0-.65,2.75,2.42,2.42,0,0,1,1-1,2.9,2.9,0,0,1,1.49-.38A3.19,3.19,0,0,1,201.55,240.54Zm-.73,4.29a2.17,2.17,0,0,0,0-2.72,1.68,1.68,0,0,0-1.28-.51,1.77,1.77,0,0,0-1.31.52,2.06,2.06,0,0,0,0,2.7,1.74,1.74,0,0,0,1.31.53A1.66,1.66,0,0,0,200.82,244.83Z"/><path class="cls-8" d="M211.51,245.17v1.51h-6.3v-1.51h2.24v-6.58l-2.08,1.25v-1.65l2.84-1.72h1.07v8.7Z"/><path class="cls-8" d="M213.2,242.09h4.31v1.43H213.2Z"/><path class="cls-8" d="M226.75,244.69H225.3v2h-1.81v-2h-4.44v-1.38l4.77-6.84h1.48v6.77h1.45Zm-3.26-1.45v-3.89l-2.69,3.89Z"/><path class="cls-8" d="M233.63,240.56a3,3,0,0,1,1.13,1.15,3.47,3.47,0,0,1,.4,1.7,3.34,3.34,0,0,1-.46,1.77,3,3,0,0,1-1.32,1.19,4.48,4.48,0,0,1-2,.42,5.6,5.6,0,0,1-1.89-.32,4.34,4.34,0,0,1-1.54-.87l.62-1.34a4.69,4.69,0,0,0,2.84,1.06,2.07,2.07,0,0,0,1.47-.48,2.05,2.05,0,0,0,0-2.73,1.9,1.9,0,0,0-1.39-.51,2.9,2.9,0,0,0-1.14.23,2.57,2.57,0,0,0-.93.65h-1.12v-6h6.4v1.43H230.1v2.79a3.13,3.13,0,0,1,1.83-.53A3.45,3.45,0,0,1,233.63,240.56Z"/><path class="cls-8" d="M242.24,240.54a3,3,0,0,1,1.11,1.16,3.66,3.66,0,0,1,.4,1.71,3.53,3.53,0,0,1-.44,1.75,3.09,3.09,0,0,1-1.22,1.21,3.95,3.95,0,0,1-4.75-.87,5.86,5.86,0,0,1-1.05-3.74,7.7,7.7,0,0,1,.5-2.91,4,4,0,0,1,1.43-1.86,3.85,3.85,0,0,1,2.23-.65,5.48,5.48,0,0,1,1.79.31,4.72,4.72,0,0,1,1.51.88l-.63,1.35a4.25,4.25,0,0,0-2.6-1.06,2,2,0,0,0-1.75,1,5.29,5.29,0,0,0-.64,2.75,2.4,2.4,0,0,1,1-1,2.93,2.93,0,0,1,1.49-.38A3.25,3.25,0,0,1,242.24,240.54Zm-.74,4.29a2.17,2.17,0,0,0,0-2.72,1.66,1.66,0,0,0-1.28-.51,1.75,1.75,0,0,0-1.3.52,1.82,1.82,0,0,0-.51,1.35,1.86,1.86,0,0,0,.51,1.35,1.76,1.76,0,0,0,1.32.53A1.66,1.66,0,0,0,241.5,244.83Z"/><path class="cls-8" d="M252.16,245.17v1.51h-6.85v-1.36l3.47-3.74a5.94,5.94,0,0,0,.9-1.24,2.41,2.41,0,0,0,.29-1.1,1.34,1.34,0,0,0-.41-1.06,1.71,1.71,0,0,0-1.17-.36,4.59,4.59,0,0,0-2.76,1.06l-.62-1.35a4.52,4.52,0,0,1,1.55-.87,6,6,0,0,1,1.9-.32,3.64,3.64,0,0,1,2.43.75,2.52,2.52,0,0,1,.9,2,3.7,3.7,0,0,1-.38,1.65,7.54,7.54,0,0,1-1.27,1.74l-2.51,2.66Z"/><path class="cls-8" d="M260.81,245.17v1.51h-6.3v-1.51h2.24v-6.58l-2.08,1.25v-1.65l2.84-1.72h1.08v8.7Z"/><g class="cls-9"><g class="cls-9"><rect class="cls-8" x="70.65" y="262.86" width="193" height="75"/></g><g class="cls-9"><rect class="cls-8" x="166.65" y="341.86" width="97" height="14"/></g></g><path class="cls-1" d="M75.54,92.15V89.1a9.93,9.93,0,0,0-7-9.48V78.24a2.88,2.88,0,1,0-5.75,0v1.38a9.93,9.93,0,0,0-7,9.48v3.05a15,15,0,0,1-4.21,10.46,1,1,0,0,0-.19,1,1,1,0,0,0,.88.58H61a4.79,4.79,0,0,0,9.39,0h8.72a1,1,0,0,0,.88-.58,1,1,0,0,0-.19-1A15,15,0,0,1,75.54,92.15ZM64.69,78.24a1,1,0,1,1,1.91,0v1c-.31,0-.63,0-.95,0s-.65,0-1,0Zm1,27.91a2.87,2.87,0,0,1-2.71-1.92h5.41a2.87,2.87,0,0,1-2.7,1.92ZM54.3,102.32a17,17,0,0,0,3.36-10.17V89.1a8,8,0,1,1,16,0v3.05A17,17,0,0,0,77,102.32Z"/><path class="cls-1" d="M78.1,89.1a1,1,0,0,0,1.92,0,14.28,14.28,0,0,0-4.21-10.16,1,1,0,0,0-1.36,1.35A12.38,12.38,0,0,1,78.1,89.1Z"/><path class="cls-1" d="M52.23,90.05a1,1,0,0,0,1-1,12.38,12.38,0,0,1,3.65-8.81,1,1,0,0,0-1.36-1.35A14.28,14.28,0,0,0,51.27,89.1,1,1,0,0,0,52.23,90.05Z"/></g></g></svg>