<svg xmlns="http://www.w3.org/2000/svg" xmlns:xlink="http://www.w3.org/1999/xlink" width="200" height="120" viewBox="0 0 200 120">
  <defs>
    <linearGradient id="linear-gradient" y1="0.5" x2="1" y2="0.5" gradientUnits="objectBoundingBox">
      <stop offset="0" stop-color="#21b9ec"/>
      <stop offset="1" stop-color="#3bc4ed"/>
    </linearGradient>
    <linearGradient id="linear-gradient-11" x1="0" y1="0.5" x2="1" y2="0.5" xlink:href="#linear-gradient"/>
    <linearGradient id="linear-gradient-12" x1="0" y1="0.5" x2="1" y2="0.5" xlink:href="#linear-gradient"/>
  </defs>
  <g id="opencart" transform="translate(-1249 -1814)">
    <rect id="Rectangle_290" data-name="Rectangle 290" width="200" height="120" transform="translate(1249 1814)" fill="none"/>
    <g id="Group_94" data-name="Group 94" transform="translate(426.669 1185.762)">
      <path id="Path_899" data-name="Path 899" d="M846.617,692.66a5.119,5.119,0,0,0-.858-3.014,3.293,3.293,0,0,0-5.369,0,5.081,5.081,0,0,0-.863,3.014,5.243,5.243,0,0,0,.863,3.045,3.293,3.293,0,0,0,5.369,0A5.283,5.283,0,0,0,846.617,692.66Zm5.2,0a9.736,9.736,0,0,1-2.356,6.65,8.616,8.616,0,0,1-12.764,0,10.54,10.54,0,0,1,0-13.3,8.681,8.681,0,0,1,12.764,0A9.714,9.714,0,0,1,851.813,692.66Z" transform="translate(0 -3.549)" fill-rule="evenodd" fill="url(#linear-gradient)"/>
      <path id="Path_900" data-name="Path 900" d="M873.315,692.66a5.126,5.126,0,0,0-.863-3.014,3.294,3.294,0,0,0-5.37,0,5.123,5.123,0,0,0-.857,3.014,5.287,5.287,0,0,0,.857,3.045,3.293,3.293,0,0,0,5.37,0A5.291,5.291,0,0,0,873.315,692.66Zm5.2,0a10.235,10.235,0,0,1-2.132,6.451,7.066,7.066,0,0,1-5.873,3.026,6.489,6.489,0,0,1-4.281-1.46c0,.223.025.764.075,1.628s.074,1.578.074,2.137q0,4.635-2.759,4.63a2.422,2.422,0,0,1-1.858-.8,2.766,2.766,0,0,1-.728-1.932V686.253a2.7,2.7,0,0,1,.746-1.9,2.435,2.435,0,0,1,1.846-.794,2.534,2.534,0,0,1,2.423,1.652,5.451,5.451,0,0,1,4.456-1.995,7.085,7.085,0,0,1,5.879,2.989A10.3,10.3,0,0,1,878.511,692.66Z" transform="translate(-7.912 -3.549)" fill-rule="evenodd" fill="url(#linear-gradient)"/>
      <path id="Path_901" data-name="Path 901" d="M900.181,690.8a3.04,3.04,0,0,0-1.1-2.169,3.29,3.29,0,0,0-2.256-.975,3.329,3.329,0,0,0-2.293.975,2.9,2.9,0,0,0-1.062,2.169Zm5.2,1.305a2.22,2.22,0,0,1-.616,1.8,3.042,3.042,0,0,1-1.913.5h-9.378a2.514,2.514,0,0,0,1.4,2.293,5.62,5.62,0,0,0,2.759.628,7.5,7.5,0,0,0,3.045-.832,7.743,7.743,0,0,1,2.281-.834,2.025,2.025,0,0,1,1.535.665,2.247,2.247,0,0,1,.628,1.592q0,2.133-3.188,3.325a14.247,14.247,0,0,1-4.952.9,8.556,8.556,0,0,1-6.569-2.7,9.56,9.56,0,0,1-2.511-6.781,9.385,9.385,0,0,1,2.61-6.667,8.495,8.495,0,0,1,6.463-2.779,7.8,7.8,0,0,1,6,2.629A8.967,8.967,0,0,1,905.376,692.1Z" transform="translate(-15.873 -3.549)" fill-rule="evenodd" fill="url(#linear-gradient)"/>
      <path id="Path_902" data-name="Path 902" d="M930.775,699.067a2.772,2.772,0,0,1-.727,1.933,2.425,2.425,0,0,1-1.858.8q-2.722,0-2.722-4.319c0-.553.037-1.423.112-2.623s.118-2.069.118-2.623q0-4.578-2.958-4.58t-2.952,4.58c0,.553.031,1.429.087,2.623s.094,2.07.094,2.623q0,4.316-2.685,4.319a2.4,2.4,0,0,1-1.852-.8,2.746,2.746,0,0,1-.734-1.933V686.247a2.664,2.664,0,0,1,.734-1.908,2.426,2.426,0,0,1,1.858-.782,2.607,2.607,0,0,1,2.591,1.652q1.259-1.994,4.449-1.995a6.742,6.742,0,0,1,4.686,1.559,6.015,6.015,0,0,1,1.758,4.587Z" transform="translate(-23.816 -3.549)" fill-rule="evenodd" fill="url(#linear-gradient)"/>
      <g id="Group_92" data-name="Group 92" transform="translate(908.364 674.054)">
        <path id="Path_903" data-name="Path 903" d="M954.437,698.514q0,1.762-2.293,2.791a9.236,9.236,0,0,1-3.859.832,8.07,8.07,0,0,1-6.382-2.827,10.528,10.528,0,0,1,.049-13.349,8.016,8.016,0,0,1,6.333-2.747,10.278,10.278,0,0,1,3.891.666q2.264.894,2.261,2.8a2.613,2.613,0,0,1-.6,1.7,1.893,1.893,0,0,1-1.528.733,6.093,6.093,0,0,1-1.827-.421,5.937,5.937,0,0,0-1.894-.424,3.462,3.462,0,0,0-2.891,1.324,4.743,4.743,0,0,0-.963,3.076,5.064,5.064,0,0,0,.865,3.008,3.063,3.063,0,0,0,2.69,1.423,6.893,6.893,0,0,0,2.093-.455,7.113,7.113,0,0,1,1.927-.452,1.929,1.929,0,0,1,1.5.733A2.412,2.412,0,0,1,954.437,698.514Z" transform="translate(-939.542 -677.603)" fill-rule="evenodd" fill="url(#linear-gradient)"/>
        <path id="Path_904" data-name="Path 904" d="M974.993,692.66a5.118,5.118,0,0,0-.858-3.014,3.136,3.136,0,0,0-2.684-1.386,3.08,3.08,0,0,0-2.686,1.386,5.086,5.086,0,0,0-.863,3.014,5.417,5.417,0,0,0,.832,3.045,3.155,3.155,0,0,0,2.717,1.386,3.077,3.077,0,0,0,2.684-1.386A5.282,5.282,0,0,0,974.993,692.66Zm5.2,6.407a2.769,2.769,0,0,1-.727,1.933,2.438,2.438,0,0,1-1.865.8,2.491,2.491,0,0,1-2.423-1.654,5.445,5.445,0,0,1-4.456,1.995,7.121,7.121,0,0,1-5.916-3.026,10.995,10.995,0,0,1,0-12.907,7.187,7.187,0,0,1,5.916-2.989,5.449,5.449,0,0,1,4.456,1.995,2.489,2.489,0,0,1,2.423-1.652,2.436,2.436,0,0,1,1.847.794,2.688,2.688,0,0,1,.745,1.9Z" transform="translate(-946.407 -677.603)" fill-rule="evenodd" fill="url(#linear-gradient)"/>
        <path id="Path_905" data-name="Path 905" d="M1001.573,685.9a2.286,2.286,0,0,1-1.622,2.292q-1.5.5-2.989,1.032a3.632,3.632,0,0,0-1.628,3.456v6.382A2.78,2.78,0,0,1,994.6,701a2.442,2.442,0,0,1-1.865.8,2.416,2.416,0,0,1-1.863-.8,2.743,2.743,0,0,1-.734-1.933V686.247a2.685,2.685,0,0,1,.727-1.908,2.449,2.449,0,0,1,1.865-.782,2.607,2.607,0,0,1,2.591,1.652,4.717,4.717,0,0,1,3.592-1.995,2.556,2.556,0,0,1,1.883.8A2.645,2.645,0,0,1,1001.573,685.9Z" transform="translate(-954.535 -677.603)" fill-rule="evenodd" fill="url(#linear-gradient)"/>
        <path id="Path_906" data-name="Path 906" d="M1020.315,683.778a2.052,2.052,0,0,1-1.353,2.195,10.322,10.322,0,0,1-2.779.236v10.5a2.777,2.777,0,0,1-.733,1.933,2.568,2.568,0,0,1-3.717,0,2.734,2.734,0,0,1-.745-1.933v-10.5a5.117,5.117,0,0,1-2.337-.4,2.114,2.114,0,0,1-1-2.026,2.033,2.033,0,0,1,1.032-1.995,4.99,4.99,0,0,1,2.307-.4v-2.225q0-3.924,2.6-3.921c1.728,0,2.6,1.3,2.6,3.921v2.225a10.29,10.29,0,0,1,2.779.236A2.026,2.026,0,0,1,1020.315,683.778Z" transform="translate(-959.724 -675.24)" fill-rule="evenodd" fill="url(#linear-gradient)"/>
      </g>
      <g id="Group_93" data-name="Group 93" transform="translate(905.959 672.307)">
        <path id="Path_907" data-name="Path 907" d="M939.225,674.355h-.715v1.3h.715a1.665,1.665,0,0,0,.839-.149.572.572,0,0,0,.23-.528.5.5,0,0,0-.261-.472A1.6,1.6,0,0,0,939.225,674.355Zm.094-.343a2.011,2.011,0,0,1,1.112.243.827.827,0,0,1,.355.745.889.889,0,0,1-.23.628.944.944,0,0,1-.621.3l.8,1.685h-.547L939.411,676h-.9v1.609h-.49v-3.6Zm2.69,1.852a2.805,2.805,0,0,0-.807-1.964,2.715,2.715,0,0,0-.914-.609,2.862,2.862,0,0,0-1.075-.211,2.652,2.652,0,0,0-1.062.211,2.784,2.784,0,0,0-.9.592,2.944,2.944,0,0,0-.615.925,2.7,2.7,0,0,0-.211,1.057,2.677,2.677,0,0,0,.211,1.057,2.711,2.711,0,0,0,.609.9,2.765,2.765,0,0,0,.907.609,2.691,2.691,0,0,0,1.056.217,2.8,2.8,0,0,0,1.069-.217,2.912,2.912,0,0,0,.92-.615,2.682,2.682,0,0,0,.807-1.952Zm-2.8-3.107a3.125,3.125,0,0,1,1.2.236,3.06,3.06,0,0,1,1.007.678,3,3,0,0,1,.664,1,3.083,3.083,0,0,1,.23,1.193,3.016,3.016,0,0,1-.894,2.175,3.3,3.3,0,0,1-1.025.69,2.968,2.968,0,0,1-1.182.236,2.912,2.912,0,0,1-1.174-.236,3.213,3.213,0,0,1-1.684-1.683,3.055,3.055,0,0,1-.23-1.181,2.994,2.994,0,0,1,.236-1.187,3.1,3.1,0,0,1,.683-1.019,2.951,2.951,0,0,1,.982-.671A3.154,3.154,0,0,1,939.212,672.757Z" transform="translate(-936.124 -672.757)" fill-rule="evenodd" fill="url(#linear-gradient)"/>
      </g>
      <path id="Path_908" data-name="Path 908" d="M1031.107,671.238c4.861,5.114,9.4,5.879,27.306,5.879s10.03,3.983-1.025,13.852c3.505-6.1,15.55-11.49-4.195-11.186C1034.271,680.069,1033.152,674.309,1031.107,671.238Z" transform="translate(-58.312)" fill="url(#linear-gradient)"/>
      <path id="Path_909" data-name="Path 909" d="M1046.933,705.026a2.706,2.706,0,1,1-2.7-2.709A2.7,2.7,0,0,1,1046.933,705.026Z" transform="translate(-61.398 -9.21)" fill="url(#linear-gradient-11)"/>
      <path id="Path_910" data-name="Path 910" d="M1064.454,705.026a2.706,2.706,0,1,1-2.7-2.709A2.7,2.7,0,0,1,1064.454,705.026Z" transform="translate(-66.59 -9.21)" fill="url(#linear-gradient-12)"/>
    </g>
  </g>
</svg>
