<svg xmlns="http://www.w3.org/2000/svg" width="47.593" height="27.567" viewBox="0 0 47.593 27.567">
  <g id="partner" transform="translate(0 -4.949)">
    <path id="Path_176" data-name="Path 176" d="M24.741,8.842V21.87a3.687,3.687,0,0,1-3.411.535l-.377-.139a6.074,6.074,0,0,0-1.11-7L13.16,8.584,18.475,6.72Z" transform="translate(12.937 1.741)" fill="#2a4b75"/>
    <path id="Path_177" data-name="Path 177" d="M16.65,18.836l7,6.881v.02a3.848,3.848,0,0,1-.992,1.686,4.129,4.129,0,0,1-3.094,1.19l-7.456-7.456a.783.783,0,0,0-.258.595.81.81,0,0,0,.377.694l7.079,6.941a3.949,3.949,0,0,1-.853,1.289,4.155,4.155,0,0,1-2.955,1.21,4.068,4.068,0,0,1-2.856-1.15L8.282,26.788A8.5,8.5,0,0,0,4.99,24.924a.549.549,0,0,0,.02-.178V8.088l5.1-2.1a5.172,5.172,0,0,1,4.462.238l-.317.159A6,6,0,0,0,12.684,16a6,6,0,0,0,3.728,1.725.7.7,0,0,0-.139.416.787.787,0,0,0,.377.694Z" transform="translate(4.905 0.631)" fill="#2a4b75"/>
    <path id="Path_178" data-name="Path 178" d="M21.3,18.064a3.218,3.218,0,0,1-.615.853,4.219,4.219,0,0,1-2.637,1.289L10.89,13.067h.238a6.18,6.18,0,0,0,2.737-.654l.635-.337L17.91,10.35l2.756,2.756.02.02A4.114,4.114,0,0,1,21.3,18.064Z" transform="translate(10.705 5.31)" fill="#2a4b75"/>
    <path id="Path_179" data-name="Path 179" d="M6.445,25.83H1.487A1.488,1.488,0,0,1,0,24.343V7.487A1.488,1.488,0,0,1,1.487,6H6.445A1.488,1.488,0,0,1,7.932,7.487V24.343A1.488,1.488,0,0,1,6.445,25.83Z" transform="translate(0 1.034)" fill="#2a4b75"/>
    <path id="Path_180" data-name="Path 180" d="M26.445,25.83H21.487A1.488,1.488,0,0,1,20,24.343V7.487A1.488,1.488,0,0,1,21.487,6h4.958a1.488,1.488,0,0,1,1.487,1.487V24.343A1.488,1.488,0,0,1,26.445,25.83Z" transform="translate(19.661 1.034)" fill="#2a4b75"/>
    <path id="Path_181" data-name="Path 181" d="M26.743,7.232c-.02,0-.04-.02-.079-.02L22.122,5.348a5.241,5.241,0,0,0-4.363.159L12.346,8.223l-1.13.555a4.016,4.016,0,0,0-1.051,6.445,4.026,4.026,0,0,0,4.66.734l.654-.337,2.836-1.428,7.892-3.966,2.637,1.091v-2.8a1.284,1.284,0,0,1,.04-.4Z" transform="translate(8.833 0)" fill="#2a4b75"/>
  </g>
</svg>
