<svg xmlns="http://www.w3.org/2000/svg" width="334.29" height="564.73" viewBox="0 0 334.29 564.73"><defs><style>.cls-1{fill:#374fc1;}.cls-2{fill:#4b67eb;}.cls-3,.cls-4{fill:#fff;}.cls-4{stroke:#0767f6;stroke-miterlimit:10;}.cls-5,.cls-8{isolation:isolate;font-size:19.22px;}.cls-5{fill:#183963;font-family:Muli-Bold, Muli;font-weight:700;}.cls-6{letter-spacing:-0.08em;}.cls-7{letter-spacing:-0.08em;}.cls-8{fill:#152e4d;font-family:MyriadPro-Regular, Myriad Pro;}.cls-9{letter-spacing:-0.08em;}.cls-10{letter-spacing:-0.08em;}.cls-11{letter-spacing:-0.01em;}.cls-12{letter-spacing:-0.02em;}.cls-13{letter-spacing:0em;}.cls-14{fill:#3bb94e;}</style></defs><g id="Layer_2" data-name="Layer 2"><g id="Layer_1-2" data-name="Layer 1"><rect class="cls-1" width="334.29" height="564.73" rx="26.82"/><circle class="cls-2" cx="167.15" cy="525.59" r="21.78"/><path class="cls-2" d="M127.15,21.73h80a6.51,6.51,0,0,1,6.5,6.5h0a6.51,6.51,0,0,1-6.5,6.5h-80a6.5,6.5,0,0,1-6.5-6.5h0A6.5,6.5,0,0,1,127.15,21.73Z"/><circle class="cls-2" cx="102.01" cy="28.23" r="6.14"/><rect class="cls-3" x="22.15" y="45.86" width="290" height="448" rx="8.32"/><rect class="cls-4" x="46.65" y="107.86" width="242" height="44" rx="8.92"/><text class="cls-5" transform="translate(46.65 97.83)"><tspan class="cls-6">P</tspan><tspan class="cls-7" x="11.34" y="0">A</tspan><tspan x="24.16" y="0">YMENT LINK</tspan></text><text class="cls-8" transform="translate(66.77 137.83)"><tspan class="cls-9">P</tspan><tspan class="cls-10" x="8.61" y="0">A</tspan><tspan class="cls-11" x="18.86" y="0">Y</tspan><tspan x="29.12" y="0">KUN.IN/9865ABC</tspan></text><text class="cls-5" transform="translate(46.65 203.83)"><tspan class="cls-6">P</tspan><tspan class="cls-7" x="11.34" y="0">A</tspan><tspan x="24.16" y="0">YMENT O</tspan><tspan class="cls-12" x="110.81" y="0">P</tspan><tspan class="cls-13" x="123.28" y="0">TION</tspan></text><path class="cls-1" d="M134.35,277.68H73.52a6.81,6.81,0,0,1-6.8-6.8V235.33a6.81,6.81,0,0,1,6.8-6.8h60.83a6.81,6.81,0,0,1,6.8,6.8v35.55A6.81,6.81,0,0,1,134.35,277.68Zm-60.83-47a4.69,4.69,0,0,0-4.69,4.69v35.55a4.7,4.7,0,0,0,4.69,4.7h60.83a4.71,4.71,0,0,0,4.7-4.7V235.33a4.7,4.7,0,0,0-4.7-4.69Z"/><rect class="cls-1" x="67.77" y="243.5" width="72.33" height="2.11"/><rect class="cls-1" x="67.77" y="252.05" width="71.97" height="2.11"/><rect class="cls-1" x="75.85" y="268.91" width="7.72" height="2.11"/><rect class="cls-1" x="87.79" y="268.91" width="12.64" height="2.11"/><rect class="cls-1" x="206.09" y="242.15" width="57.58" height="2.11"/><rect class="cls-1" x="206.09" y="272.34" width="57.58" height="2.11"/><rect class="cls-1" x="215.27" y="243.55" width="2.11" height="29.84"/><rect class="cls-1" x="220.09" y="243.2" width="2.11" height="30.19"/><rect class="cls-1" x="231.42" y="243.55" width="2.11" height="29.84"/><rect class="cls-1" x="236.24" y="243.2" width="2.11" height="30.19"/><rect class="cls-1" x="247.57" y="243.55" width="2.11" height="29.84"/><rect class="cls-1" x="252.39" y="243.2" width="2.11" height="30.19"/><path class="cls-1" d="M264.7,286.38H205v-9.83H264.7Zm-57.58-2.1h55.47v-5.62H207.12Z"/><path class="cls-1" d="M267.57,240.74H202.85l32.36-20.91ZM210,238.64h50.44l-25.22-16.3Z"/><path class="cls-1" d="M127.55,399.56H76.29v-40h51.26Zm-49.16-2.1h47.05V361.65h-47Z"/><path class="cls-1" d="M131.59,386.75H111.92v-14h19.67ZM114,384.64h15.45v-9.83H114Z"/><path class="cls-1" d="M118.59,382.54a3.16,3.16,0,1,1,3.16-3.16A3.16,3.16,0,0,1,118.59,382.54Zm0-4.22a1.06,1.06,0,1,0,1.06,1.06A1.06,1.06,0,0,0,118.59,378.32Z"/><path class="cls-1" d="M117.54,358.66h-41l-.2-.91a1.09,1.09,0,0,1,.7-1.22l.08,0L117.54,345Zm-32.92-2.1h30.82v-8.79Z"/><polygon class="cls-1" points="78.46 358.48 77.28 356.74 104.83 338.12 105.29 350.93 103.19 351 102.86 341.99 78.46 358.48"/><path class="cls-1" d="M215.23,403.53V334.15l27.32,34.69Zm2.11-63.3v57.22l22.53-28.61Z"/><path class="cls-1" d="M227.87,403.53V334.15l27.32,34.69Zm2.11-63.3v57.22l22.53-28.61Z"/><circle class="cls-14" cx="143.15" cy="271.36" r="14"/><rect class="cls-3" x="135.91" y="273.07" width="6.14" height="1.42" transform="translate(234.3 -18.08) rotate(45)"/><rect class="cls-3" x="138.03" y="270.2" width="14.26" height="1.42" transform="translate(-149.05 181.99) rotate(-45)"/><rect class="cls-2" x="96.15" y="430.36" width="142" height="44" rx="12.49"/><path class="cls-3" d="M139.54,464.11v-22.5H146q1.13,0,1.95,0c.55,0,1.15.07,1.79.13a10.17,10.17,0,0,1,1.66.3,12.25,12.25,0,0,1,1.42.52,3.87,3.87,0,0,1,1.2.8,5.32,5.32,0,0,1,.88,1.13,4.59,4.59,0,0,1,.58,1.52,9.24,9.24,0,0,1,.19,2,7.17,7.17,0,0,1-.58,3.06,4.46,4.46,0,0,1-1.75,2,8.16,8.16,0,0,1-2.72,1,18.66,18.66,0,0,1-3.68.32h-3.43v9.7Zm3.93-13.06h3.37a12.87,12.87,0,0,0,1.91-.12,5.11,5.11,0,0,0,1.45-.44,2.11,2.11,0,0,0,1-.93,3.15,3.15,0,0,0,.32-1.51,4.09,4.09,0,0,0-.08-.89,5,5,0,0,0-.21-.71,1.4,1.4,0,0,0-.39-.53c-.18-.15-.34-.28-.48-.38a2,2,0,0,0-.65-.24l-.73-.16c-.19,0-.48-.06-.87-.08l-.93,0h-3.69Z"/><path class="cls-3" d="M156.87,464.11l9-22.5h4l9.12,22.5h-4.44l-2.17-5.49h-9.09l-2.13,5.49Zm7.91-9.15h6q-1.77-5.26-3-8.76Q166.82,449.13,164.78,455Z"/><path class="cls-3" d="M187,464.11v-8.7l-8-13.8h4.47L189,451.92l5.53-10.31h4.57l-8.2,13.78v8.72Z"/></g></g></svg>