<?xml version="1.0" encoding="utf-8"?>
<!-- Generator: Adobe Illustrator 25.0.0, SVG Export Plug-In . SVG Version: 6.00 Build 0)  -->
<svg version="1.1" id="dashboard-hero" xmlns="http://www.w3.org/2000/svg" xmlns:xlink="http://www.w3.org/1999/xlink" x="0px"
	 y="0px" viewBox="0 0 725.7 579" style="enable-background:new 0 0 725.7 579;" xml:space="preserve">
<style type="text/css">
	.st0{fill:#00C6FF;}
	.st1{fill:#0094FF;}
	.st2{fill:#0067FF;}
	.st3{fill:url(#Path_953_1_);}
	.st4{fill:url(#Path_954_1_);}
	.st5{fill:url(#Path_955_1_);}
	.st6{fill:url(#Path_956_1_);}
	.st7{fill:url(#Path_957_1_);}
	.st8{fill:url(#Path_958_1_);}
	.st9{fill:#B58F17;}
	.st10{fill:#FFC921;}
	.st11{fill:#B86056;}
	.st12{fill:#FF8577;}
	.st13{fill:#F2F5FA;}
	.st14{opacity:0.1;fill:#0094FF;enable-background:new    ;}
	.st15{fill:#C1E1FA;}
	.st16{fill:#45B1FF;}
	.st17{fill:url(#Path_983_1_);}
	.st18{fill:#2D2979;}
	.st19{fill:#FFC79F;}
	.st20{fill:#543354;}
	.st21{fill:#331F33;}
	.st22{fill:#4F62B2;}
	.st23{fill:#364371;}
	.st24{opacity:0.5;fill:#215FC1;enable-background:new    ;}
	.st25{opacity:0.5;fill:#BAD6FF;enable-background:new    ;}
	.st26{fill:#112754;}
	.st27{fill:#FFFFFF;}
	.st28{opacity:0.5;}
	.st29{opacity:0.75;}
	.st30{opacity:0.25;}
	.st31{opacity:0.5;fill:#FFFFFF;enable-background:new    ;}
	.st32{fill:url(#Path_1023_1_);}
	.st33{fill:#FFA8A7;}
	.st34{fill:#EDB68E;}
	.st35{fill:#F5FBFB;}
	.st36{fill:#3888FF;}
	.st37{fill:url(#Path_1041_1_);}
	.st38{fill:url(#Path_1042_1_);}
	.st39{fill:url(#Path_1043_1_);}
	.st40{fill:url(#Path_1044_1_);}
	.st41{fill:url(#Path_1045_1_);}
	.st42{fill:url(#Path_1046_1_);}
	.st43{fill:url(#Path_1047_1_);}
	.st44{fill:url(#Path_1048_1_);}
</style>
<g id="Layer_1">
	<path id="Path_944" class="st0" d="M377,65.3l-56.6-32.7L377,0l56.6,32.7L377,65.3z"/>
	<path id="Path_945" class="st1" d="M376.9,298.5l-56.6-32.7V32.5l56.6,32.7V298.5z"/>
	<path id="Path_946" class="st2" d="M433.7,265.8l-56.6,32.7V65.2l56.6-32.7V265.8z"/>
	<path id="Path_947" class="st0" d="M292,159l-46.7-27l46.7-27l46.7,27L292,159z"/>
	<path id="Path_948" class="st1" d="M291.9,351.5l-46.7-27V131.8l46.7,27V351.5z"/>
	<path id="Path_949" class="st2" d="M338.8,324.5l-46.7,27V158.8l46.7-27L338.8,324.5z"/>
	<path id="Path_950" class="st0" d="M228,223.5l-34.2-19.8L228,184l34.2,19.8L228,223.5z"/>
	<path id="Path_951" class="st1" d="M227.9,364.5l-34.2-19.8V203.7l34.2,19.8V364.5z"/>
	<path id="Path_952" class="st2" d="M262.3,344.7l-34.2,19.8V223.4l34.2-19.8L262.3,344.7z"/>
	
		<linearGradient id="Path_953_1_" gradientUnits="userSpaceOnUse" x1="-593.8268" y1="827.9211" x2="-592.8268" y2="827.9211" gradientTransform="matrix(274.25 0 0 -158.34 162857.125 131368.4062)">
		<stop  offset="0" style="stop-color:#DCE6F2"/>
		<stop  offset="1" style="stop-color:#EBF1F8"/>
	</linearGradient>
	<path id="Path_953" class="st3" d="M137.2,354.6L0.1,275.4l137.1-79.2l137.1,79.2L137.2,354.6z"/>
	<linearGradient id="Path_954_1_" gradientUnits="userSpaceOnUse" x1="177.1571" y1="355.0627" x2="-48.4667" y2="471.6171">
		<stop  offset="0" style="stop-color:#FDFEFE"/>
		<stop  offset="1" style="stop-color:#7593D7"/>
	</linearGradient>
	<path id="Path_954" class="st4" d="M137.1,354.7v192.1L0,579V275.5L137.1,354.7z"/>
	
		<linearGradient id="Path_955_1_" gradientUnits="userSpaceOnUse" x1="-590.5685" y1="828.2288" x2="-591.5565" y2="828.8217" gradientTransform="matrix(137.12 0 0 -271.69 81264.8906 225527.8125)">
		<stop  offset="0" style="stop-color:#DEEAFF"/>
		<stop  offset="1" style="stop-color:#A9C0EE"/>
	</linearGradient>
	<path id="Path_955" class="st5" d="M274.5,275.1v239.5l-137.1,32.2V354.2l136.8-79L274.5,275.1z"/>
	
		<linearGradient id="Path_956_1_" gradientUnits="userSpaceOnUse" x1="-594.4131" y1="828.347" x2="-593.4131" y2="828.347" gradientTransform="matrix(375.58 0 0 -216.84 223599.75 179839.5156)">
		<stop  offset="0" style="stop-color:#DCE6F2"/>
		<stop  offset="1" style="stop-color:#EBF1F8"/>
	</linearGradient>
	<path id="Path_956" class="st6" d="M590.9,329.2L350.1,190.1l134.7-77.8l240.9,139.1L590.9,329.2z"/>
	
		<linearGradient id="Path_957_1_" gradientUnits="userSpaceOnUse" x1="-590.506" y1="827.9337" x2="-591.489" y2="828.3527" gradientTransform="matrix(134.72 0 0 -188.91 80287.75 156796.8281)">
		<stop  offset="0" style="stop-color:#DEEAFF"/>
		<stop  offset="1" style="stop-color:#A9C0EE"/>
	</linearGradient>
	<path id="Path_957" class="st7" d="M590.8,440.4l134.6-31.6V251.5l-134.5,77.6l-0.2,0.1l-0.1,0.1L590.8,440.4"/>
	
		<linearGradient id="Path_958_1_" gradientUnits="userSpaceOnUse" x1="-593.0199" y1="828.9734" x2="-593.0519" y2="827.8585" gradientTransform="matrix(240.86 0 0 -306.91 143306.4531 254675.2969)">
		<stop  offset="0" style="stop-color:#FDFEFE"/>
		<stop  offset="1" style="stop-color:#7593D7"/>
	</linearGradient>
	<path id="Path_958" class="st8" d="M590.8,440.4V329.1l-240.7-139l-0.2-0.1v306.9l240.8-56.5"/>
	<path id="Path_959" class="st1" d="M512.7,261.8L453,227.3l29.9-17.2l59.7,34.5L512.7,261.8z"/>
	<path id="Path_960" class="st9" d="M572.3,280.6l0.1,14.8l17.8,1.3l13.7-8v-15L572.3,280.6z"/>
	<path id="Path_961" class="st10" d="M577.7,273.5c-3.3,1.9-5.1,4.4-5.4,6.9c0,0,0,0,0,0.1v0l0,0l17.9,0.9l13.8-8
		C596.7,269.4,585,269.4,577.7,273.5z"/>
	<path id="Path_962" class="st9" d="M577.7,288.7c-3.3,1.9-5.1,4.4-5.4,6.9c0,0,0,0,0,0.1v0l0,0l17.9,0.9l13.8-8
		C596.7,284.5,585,284.5,577.7,288.7z"/>
	<path id="Path_963" class="st2" d="M590.3,275.4v24.7l1.8,10.4l17.5-11l0-25L590.3,275.4z"/>
	<path id="Path_964" class="st1" d="M604.2,282.6c-3.7,2-7.8,3.1-12,3.1H592l-1.6-10.3l13.8-8C611.4,271.6,611.4,278.4,604.2,282.6z
		"/>
	<path id="Path_965" class="st2" d="M604.2,307.4c-3.7,2-7.8,3.1-12,3.1H592l-1.6-10.3l13.8-8C611.4,296.4,611.4,303.2,604.2,307.4z
		"/>
	<path id="Path_966" class="st11" d="M592,297.2v13.3l-19.7-11.3v-13.3L592,297.2z"/>
	<path id="Path_967" class="st12" d="M592,297.2c-4.9,0.3-9.9-0.8-14.3-3.1c-3.9-2.3-5.7-5.3-5.4-8.2l17.9,1L592,297.2z"/>
	<path id="Path_968" class="st11" d="M592,310.5c-4.9,0.3-9.9-0.8-14.3-3.1c-3.9-2.3-5.7-5.3-5.4-8.2l17.9,1L592,310.5z"/>
	<path id="Path_969" class="st1" d="M657.4,220l-164.5-95c-0.8-0.5-1.3-1.3-1.3-2.2l-3.7-103.5c0.6-1.8,4.9-3.4,6.3-3.4
		c0.4,0,0.9,0.1,1.3,0.3l164.5,95c0.8,0.5,1.3,1.3,1.3,2.2v104.3c0,1.4-1.1,2.5-2.5,2.6C658.2,220.3,657.8,220.2,657.4,220z"/>
	<path id="Path_970" class="st0" d="M653.4,222l-164.5-95c-0.8-0.5-1.3-1.3-1.3-2.2V20.5c0-1.4,1.1-2.5,2.5-2.5
		c0.4,0,0.9,0.1,1.3,0.3l164.5,95c0.8,0.5,1.3,1.3,1.3,2.2v104.3c0,1.4-1.1,2.5-2.5,2.6C654.2,222.3,653.8,222.2,653.4,222z"/>
	<path id="Path_971" class="st13" d="M651.7,217.5L493,125.8V22.8l158.7,91.6V217.5z"/>
	<path id="Path_972" class="st14" d="M635.1,200.5L507,126.6V43.3l128.1,74V200.5z"/>
	<g id="Group_494">
		<path id="Path_973" class="st15" d="M633.1,127.1v69l-123.6-71.3c0,0,2.4-16.2,18.7-15.1c16.3,1.1,26.4,25.7,41.6,22.8
			s20.8-12,36.6-5.1S623,134.8,633.1,127.1z"/>
		<path id="Path_974" class="st15" d="M510.3,108.9l-0.2-0.1c-0.7-0.6-1.1-1.4-1.1-2.3c0.5-2.9,1.6-5.6,3.2-8
			c2.4-3.6,7-7.7,15.4-7.1c7.8,0.5,14.2,6.3,20.3,12c6.3,5.8,12.2,11.3,19.4,9.9c4.2-0.9,8.2-2.2,12.1-4c7-2.9,13-5.4,23.5-0.8
			l0.4,0.2c14.5,6.4,15,6.6,24.3-0.4c0.5-0.3,1.3,0,1.8,0.9s0.6,1.8,0.1,2.2c-10,7.6-11.2,7-26,0.5l-0.4-0.2
			c-9.6-4.2-15.1-2-22.1,0.9c-4,1.8-8.1,3.1-12.3,4c-8.1,1.6-15-4.7-21.5-10.8c-5.9-5.5-11.5-10.6-18.5-11.1
			c-6.2-0.4-10.9,1.8-14.1,6.5c-1.5,2.2-2.5,4.7-3,7.3C511.5,109,511,109.2,510.3,108.9z"/>
	</g>
	<path id="Path_975" class="st1" d="M631.2,130.8v69l-123.5-71.3c0,0,2.4-16.2,18.7-15.1c16.3,1.1,26.4,25.7,41.6,22.8
		s20.8-12,36.5-5.1S621.1,138.5,631.2,130.8z"/>
	<path id="Path_976" class="st1" d="M508.5,112.6l-0.2-0.1c-0.7-0.5-1.1-1.4-1.1-2.3c0.5-2.9,1.6-5.6,3.2-8c2.4-3.6,7-7.7,15.4-7.1
		c7.8,0.5,14.2,6.3,20.3,12c6.3,5.8,12.2,11.3,19.4,9.9c4.2-0.9,8.2-2.2,12.1-4c7-2.9,13-5.4,23.5-0.8l0.4,0.2
		c14.5,6.4,15,6.6,24.3-0.4c0.5-0.3,1.3,0,1.8,0.9s0.6,1.8,0.1,2.2c-10,7.6-11.2,7-26,0.5l-0.4-0.2c-9.7-4.2-15.1-2-22.1,0.9
		c-4,1.8-8.1,3.1-12.3,4c-8.1,1.6-15-4.7-21.5-10.7c-5.9-5.5-11.5-10.6-18.5-11.1c-6.2-0.4-10.9,1.8-14.1,6.5
		c-1.5,2.2-2.5,4.7-3,7.3C509.6,112.7,509.1,112.9,508.5,112.6z"/>
	<path id="Path_977" class="st1" d="M684.6,266.2l-50.9-29.4v-66.2l50.9,29.4V266.2z"/>
	
		<ellipse id="Ellipse_1" transform="matrix(0.866 -0.5 0.5 0.866 -18.0115 358.5689)" class="st12" cx="660.1" cy="212.9" rx="12" ry="20.8"/>
	<path id="Path_978" class="st10" d="M677.6,222.7c0,4.5-1.5,7.7-3.9,9.3l-3.6-4.5l-13.1-16.3L670,210l4-0.4
		C676.2,213.7,677.4,218.1,677.6,222.7L677.6,222.7z"/>
	<path id="Path_979" class="st16" d="M680.7,257.9l-43.3-25v-6l43.3,25V257.9z"/>
	<path id="Path_980" class="st0" d="M684.5,200.1l-50.9-29.4l3.7-2.1l50.9,29.4L684.5,200.1z"/>
	<path id="Path_981" class="st2" d="M684.6,266.2V200l3.7-2.1V264L684.6,266.2z"/>
	
		<ellipse id="Ellipse_2" transform="matrix(0.866 -0.5 0.5 0.866 49.6447 255.3681)" class="st1" cx="501.3" cy="35" rx="2.1" ry="3.6"/>
	<path id="Path_982" class="st1" d="M529.8,54.3l-22.9-13.2v-5.9l22.9,13.2V54.3z"/>
	
		<linearGradient id="Path_983_1_" gradientUnits="userSpaceOnUse" x1="-583.0621" y1="816.8605" x2="-584.056" y2="817.1885" gradientTransform="matrix(50.03 0 0 -19.87 29747.9375 16436.7383)">
		<stop  offset="0" style="stop-color:#374FC1;stop-opacity:0"/>
		<stop  offset="1" style="stop-color:#374FC1;stop-opacity:0.302"/>
	</linearGradient>
	<path id="Path_983" class="st17" d="M536.4,194.6l30.6,0.8l9.1,19.1l-50-10L536.4,194.6z"/>
	<path id="Path_984" class="st18" d="M536.9,201.5l-7.8,3.6c-0.9,0.4-1.9,0-2.3-0.8c0-0.1,0-0.1-0.1-0.2l0,0c-0.4-1-0.2-2.2,0.7-3
		l6.8-5.8c1.1-1,2.8-1,3.9,0.2c0.2,0.3,0.4,0.6,0.6,0.9l0,0C539.4,198.3,538.7,200.5,536.9,201.5z"/>
	<path id="Path_985" class="st19" d="M529.3,203.5L529.3,203.5c-1.3-0.3-2-1.6-1.8-2.9l2.7-21.4l6.7,1.2l-5,21
		C531.8,202.7,530.6,203.6,529.3,203.5z"/>
	<path id="Path_986" class="st18" d="M546.6,203.3l-8,3.8c-0.9,0.4-2,0-2.4-0.9c0,0,0-0.1-0.1-0.1l0,0c-0.5-1.1-0.2-2.3,0.7-3.1l7-6
		c1.1-1.1,2.9-1,4,0.1c0.3,0.3,0.5,0.6,0.6,1l0,0C549.3,200,548.5,202.3,546.6,203.3z"/>
	<path id="Path_987" class="st19" d="M538.9,205.2L538.9,205.2c-1.3-0.3-2-1.6-1.8-2.9l2.7-21.4l6.7,1.2l-5,21
		C541.4,204.4,540.2,205.4,538.9,205.2z"/>
	<path id="Path_988" class="st19" d="M544.9,131l-5,14.2l-4.2-1.9l7-13.4c0,0,2.7-3.8,5.5-3.3S544.9,131,544.9,131z"/>
	<path id="Path_989" class="st19" d="M533.4,133.1c-0.3,1.7-0.1,3.4,0.3,5h-5.3c0.2-2.1,0.2-4.2,0.1-6.3c0-0.5-0.2-0.9-0.6-1.2
		c-2.6-2.5-2.6-6.7,0-9.2c2.5-2.6,6.7-2.6,9.2,0c2.6,2.5,2.6,6.7,0,9.2c-0.8,0.8-1.8,1.4-2.9,1.7
		C533.8,132.3,533.5,132.7,533.4,133.1z"/>
	<path id="Path_990" class="st20" d="M535,123.5c0,3.6-2.9,6.5-6.5,6.5c-1,0-1.9-0.2-2.8-0.6c-2.1-2.9-1.5-7,1.4-9.1
		c1.9-1.4,4.5-1.6,6.6-0.6C534.6,120.8,535,122.1,535,123.5z"/>
	<circle id="Ellipse_3" class="st19" cx="534.2" cy="125.5" r="1.6"/>
	<path id="Path_991" class="st20" d="M520,143.9L520,143.9c-2-0.8-3-3.1-2.1-5.1c0.1-0.2,0.2-0.4,0.3-0.5l6.6-9.5l2.1,1.6l-1.5,10.8
		c-0.5,2.1-2.5,3.4-4.7,3C520.4,144,520.2,144,520,143.9L520,143.9z"/>
	<circle id="Ellipse_4" class="st21" cx="525.2" cy="129.6" r="2.4"/>
	<path id="Path_992" class="st22" d="M528.5,136.1c0,0-3.7,3.2-4.1,12.2s7.3,26.4,3.2,34.2h20.7c0,0,0-47.2-14.6-46.3L528.5,136.1z"
		/>
	<path id="Path_993" class="st19" d="M555.7,160.1l-0.1-0.1L555.7,160.1l-13.1-5.4c-1.6-0.5-2.4-2.3-1.8-3.8c0.5-1.3,1.7-2.1,3.1-2
		c0.4,0,0.9,0.1,1.3,0.3l10.8,8.2l0.1-0.1c0,0,2.8-2,4.5-0.8S558.2,160.5,555.7,160.1z"/>
	<path id="Path_994" class="st23" d="M535.8,139.5l1.6-0.9c1-0.6,2.4-0.2,2.9,0.8l6,10.5l-5.4,3.1l-6-10.5
		C534.4,141.4,534.7,140.1,535.8,139.5L535.8,139.5z"/>
	<path id="Path_995" class="st1" d="M179.9,292.5l-74.7-43.1c-1.3-0.8-2.1-2.2-2.1-3.7l-2.9-140.3c0-4,4.8-5.4,7.2-5.4
		c0.8,0,1.5,0.2,2.2,0.6l74.7,43.1c1.3,0.8,2.2,2.2,2.1,3.7v141.4c0,2.4-1.9,4.3-4.3,4.3C181.3,293,180.6,292.8,179.9,292.5
		L179.9,292.5z"/>
	<path id="Path_996" class="st0" d="M176.9,294.5l-74.7-43.1c-1.3-0.8-2.1-2.2-2.1-3.7V106.2c0-2.4,1.9-4.3,4.3-4.3
		c0.8,0,1.5,0.2,2.2,0.6l74.7,43.1c1.3,0.8,2.2,2.2,2.1,3.7v141.4c0,2.4-1.9,4.3-4.3,4.3C178.3,295,177.6,294.8,176.9,294.5
		L176.9,294.5z"/>
	<path id="Path_997" class="st13" d="M179.4,292.8L104,249.2V108.2l75.4,43.5V292.8z"/>
	<path id="Path_998" class="st24" d="M174.5,177.8l-66.3-38.3v-18.2l66.3,38.3V177.8z"/>
	<path id="Path_999" class="st24" d="M174.5,201.4l-66.3-38.3v-18.2l66.3,38.3V201.4z"/>
	<path id="Path_1000" class="st24" d="M174.5,224.9l-66.3-38.3v-18.2l66.3,38.3V224.9z"/>
	<path id="Path_1001" class="st24" d="M174.5,248.5l-66.3-38.3V192l66.3,38.3V248.5z"/>
	
		<ellipse id="Ellipse_5" transform="matrix(0.866 -0.5 0.5 0.866 -51.9347 75.8316)" class="st25" cx="115.5" cy="134.8" rx="2.2" ry="3.8"/>
	<path id="Path_1002" class="st25" d="M171.4,168.4l-51.3-29.6v-3.1l51.3,29.6V168.4z"/>
	
		<ellipse id="Ellipse_6" transform="matrix(0.866 -0.5 0.5 0.866 -63.7285 78.9944)" class="st13" cx="115.5" cy="158.4" rx="2.2" ry="3.8"/>
	<path id="Path_1003" class="st25" d="M171.4,192l-51.3-29.6v-3.1l51.3,29.6V192z"/>
	
		<ellipse id="Ellipse_7" transform="matrix(0.866 -0.5 0.5 0.866 -75.5242 82.1523)" class="st25" cx="115.5" cy="182" rx="2.2" ry="3.8"/>
	<path id="Path_1004" class="st25" d="M171.4,215.6L120.2,186v-3.1l51.3,29.6V215.6z"/>
	
		<ellipse id="Ellipse_8" transform="matrix(0.866 -0.5 0.5 0.866 -87.3147 85.3116)" class="st13" cx="115.5" cy="205.6" rx="2.2" ry="3.8"/>
	<path id="Path_1005" class="st25" d="M171.4,239.2l-51.3-29.6v-3.1l51.3,29.6V239.2z"/>
	
		<ellipse id="Ellipse_9" transform="matrix(0.866 -0.5 0.5 0.866 -42.0666 80.6213)" class="st26" cx="129.4" cy="118.8" rx="1.3" ry="2.2"/>
	<path id="Path_1006" class="st26" d="M156.4,135.3L131.7,121v-1.8l24.7,14.2V135.3z"/>
	<path id="Path_1007" class="st12" d="M153.1,195l-74.2-42.9v-27l74.2,42.9V195z"/>
	<path id="Path_1008" class="st27" d="M94.3,158.2L81.8,151v-2.3l12.4,7.2V158.2z"/>
	<path id="Path_1009" class="st27" d="M87.2,144l1.1-0.4l4.3,6.3l-1.1,0.4L87.2,144z"/>
	<path id="Path_1010" class="st27" d="M84,145l4.3-1.3l1.1,1.6l-4.3,1.3L84,145z"/>
	<g id="Group_495" class="st28">
		<path id="Path_1011" class="st27" d="M87.2,136.6l1.1-0.4l4.3,6.3l-1.1,0.3L87.2,136.6z"/>
		<path id="Path_1012" class="st27" d="M84,137.5l4.3-1.3l1.1,1.6l-4.3,1.3L84,137.5z"/>
	</g>
	<path id="Path_1013" class="st12" d="M87.2,122.8l1.1-0.3l4.3,6.3l-1.1,0.4L87.2,122.8z"/>
	<path id="Path_1014" class="st12" d="M84,123.7l4.3-1.3l1.1,1.6l-4.3,1.3L84,123.7z"/>
	<g id="Group_496" class="st29">
		<path id="Path_1015" class="st12" d="M87.5,117l0.8-0.2l3.1,4.5l-0.8,0.2L87.5,117z"/>
		<path id="Path_1016" class="st12" d="M85.2,117.7l3.1-1l0.8,1.2l-3.1,1L85.2,117.7z"/>
	</g>
	<g id="Group_497" class="st28">
		<path id="Path_1017" class="st12" d="M87.8,111.2l0.5-0.2l2.1,3l-0.5,0.2L87.8,111.2z"/>
		<path id="Path_1018" class="st12" d="M86.2,111.6l2.1-0.6l0.5,0.8l-2.1,0.6L86.2,111.6z"/>
	</g>
	<g id="Group_498" class="st30">
		<path id="Path_1019" class="st12" d="M88,106.5l0.3-0.1l1,1.5l-0.3,0.1L88,106.5z"/>
		<path id="Path_1020" class="st12" d="M87.3,106.7l1-0.3l0.3,0.4l-1,0.3L87.3,106.7z"/>
	</g>
	<path id="Path_1021" class="st31" d="M146.1,169.7v17.8l-42.3-24.4c0,0,11-0.6,19.9,4.6s8,0.6,13.5,2.6S142.6,172.2,146.1,169.7z"
		/>
	<path id="Path_1022" class="st27" d="M104.5,161.1c-0.3-0.2-0.5-0.5-0.6-0.8c-0.2-0.5-0.1-0.9,0.3-1s10.8-0.5,19.6,4.5
		c5,2.9,6.5,2.5,8.2,2.1c1.5-0.4,3.2-0.3,4.7,0.3c5,1.9,5,1.9,8.2-0.5c0.3-0.2,0.7,0,1,0.5s0.3,1,0.1,1.2c-3.5,2.6-3.6,2.6-9.1,0.6
		c-1.3-0.6-2.7-0.6-4.1-0.2c-1.8,0.4-3.6,0.8-9-2.3c-8.4-4.8-18.8-4.4-18.9-4.3C104.7,161.2,104.6,161.2,104.5,161.1L104.5,161.1z"
		/>
	
		<linearGradient id="Path_1023_1_" gradientUnits="userSpaceOnUse" x1="-581.4556" y1="820.1625" x2="-582.4396" y2="820.5565" gradientTransform="matrix(44 0 0 -27 25738 22444)">
		<stop  offset="0" style="stop-color:#374FC1;stop-opacity:0"/>
		<stop  offset="1" style="stop-color:#374FC1;stop-opacity:0.302"/>
	</linearGradient>
	<path id="Path_1023" class="st32" d="M117,284l36,4l1,23l-33-12l-11-8L117,284z"/>
	<path id="Path_1024" class="st33" d="M106,220.7c-0.2,1.6-2.2,8.4-1.8,10.9s7.2,6.8,7.2,6.8l0.9-4.2l-2.9-2.8
		c-0.5-0.5-0.8-1.3-0.7-2l0.8-5.7L106,220.7z"/>
	<path id="Path_1025" class="st23" d="M109.5,229l2.8-12.5c0.4-4.6-3.9-4.2-4.9-2.6s-3,12.3-3.1,13.3c-0.3,1.5-0.4,3.1-0.2,4.6
		c0.2,1,2.6,3.8,7.2,6.6l0.9-4.2L109.5,229z"/>
	<path id="Path_1026" class="st18" d="M110.2,288.1c-0.1,0.6-0.2,1.1-0.3,1.6c-0.2,0.7-0.2,1.6,0.6,1.9c0.8,0.3,1.7,0.1,2.2-0.5
		c0.5-1,1.2-1.9,1.9-2.8c1-0.8,1.9-1.8,2.3-3c0.3-1.2,0.1-1.9-0.7-2c-1.2,0.1-2.4,0.5-3.4,1.3C111.9,285.8,111,286.9,110.2,288.1
		L110.2,288.1z"/>
	<path id="Path_1027" class="st18" d="M121,294.9c0,0-0.1,0.9-0.1,1.7c-0.2,0.8-0.2,1.6-0.1,2.5c0.2,0.5,1.4,0.9,2.9,0.9
		c1.2,0.1,2.4,0.5,3.3,1.2c1.2,0.8,2.8,1.1,4.2,0.7c1.2-0.4,2.6-1,2.8-1.5s-0.4-0.9-3.4-2.2s-5.2-2.3-6.3-3.9L121,294.9z"/>
	<path id="Path_1028" class="st23" d="M109.5,272.3c0.2-2.1,0.7-4.2,1.3-6.2c0,0-0.4-5.4-0.6-10.4c-0.2-5.5-0.5-12.4-0.6-13.7
		l17.8,4c0,0-1.1,21.3-1.3,24.1s-0.4,6.7-0.7,10.2c-0.4,4.5-0.8,14.5-0.8,14.5c-1.1,0.7-2.4,0.9-3.6,0.7c0,0-1.5-12.5-1.8-15.7
		c-0.2-2.7,0.1-5.4,0.8-8c0,0-0.5-5.5-0.9-10.1c-0.4-4-0.9-6.5-0.9-8.4l-0.4-0.2c0,0-0.4,7.8-0.6,10.6s-0.6,5.5-1.4,10.6
		c-0.7,4.5-2.3,13.8-2.3,13.8c-1,0.7-2.2,0.7-3.2,0.1C110.2,288.2,109,276.2,109.5,272.3z"/>
	<path id="Path_1029" class="st23" d="M118.1,253.2c-2.1-1.1-4.1-2.5-6-4c1.1,1.7,2.6,3,4.3,4.1c0,0,0.9,9.8,0.9,9.6l0.5-9.6
		L118.1,253.2z"/>
	<path id="Path_1030" class="st19" d="M112.1,212.8c1.4,0.1,2.4,0.4,2.5,0c0.1-0.7,0.2-1.4,0.3-2.1c-0.2-0.4-0.3-0.8-0.3-0.8
		c-1.8-1.1-3-2.9-3.2-5c-0.4-3.7,2.3-6.9,5.9-7.3c3.4-0.4,6,2.1,6.7,5.4c0.5,2.6,0.5,5.3-0.1,7.8c-0.4,1.6-0.8,2-1.5,2.2
		c-0.8,0.1-1.5,0.2-2.3,0.2l0,0c0,0-0.2,1-0.3,1.7s-0.1,1,1.2,1.8s-2,2.4-4.1,2.3s-4.5-1.4-5.2-2.8
		C111.1,214.6,111.2,212.8,112.1,212.8z"/>
	<path id="Path_1031" class="st34" d="M112.1,212.8c1.4,0.1,2.4,0.4,2.5,0c0.1-0.7,0.2-1.4,0.3-2.1c-0.2-0.4-0.3-0.8-0.3-0.8
		c-0.6-0.4-1.1-0.8-1.6-1.4l4.5,1.5l1.3-0.3l0.5-0.3l0.3-0.6c0.1,0.9,0.3,1.9,0.6,2.7c0.5,0.7,1.3,1.3,2.2,1.5h-0.1
		c-0.8,0.1-1.5,0.2-2.3,0.2l0,0c0,0-0.2,1-0.3,1.7s-0.1,0.9,0.9,1.6l-1.8,1.4l-5.5-0.1c-0.2-0.1-0.3-0.2-0.4-0.3l-1.6-2.4
		C111.2,213.8,111.4,212.8,112.1,212.8z"/>
	<path id="Path_1032" class="st20" d="M113.9,210.1c-1.5-1.3-2.4-3.2-2.4-5.2c-0.4-3.7,2.3-6.9,5.9-7.3c2.2-0.3,4.3,0.7,5.5,2.6
		c-0.2,0.3-0.4,0.6-0.6,0.9c0.2,0.5,0.1,1-0.2,1.4c-0.3,0.5-0.5,1-0.4,1.6c0,0.6,0.1,1.8,0,2.4c-0.1,0.6-0.6,1.1-1.2,1.2
		c0-0.8-0.1-1.6-0.2-2.4c-0.3-0.6-1.1-0.8-1.7-0.5c-0.3,0.1-0.5,0.4-0.6,0.6c-0.3,0.9-0.2,1.9,0.1,2.7c0.2,0.6,0.8,0.9,1.4,0.7
		c0.1,0,0.2-0.1,0.3-0.1c0,0.4,0.2,1.9-1.3,2.4c-1.2,0.3-2.4,0.2-3.5-0.4C114.6,210.6,114.2,210.4,113.9,210.1L113.9,210.1z"/>
	<path id="Path_1033" class="st20" d="M122.3,201.1c1.3,0,2.5-0.6,3.3-1.6c1.6-1.8,0.7-3.5-1.2-2.7s-5.1,0.3-6.7,0.2
		s-5.9,0.7-5.4,4.2L122.3,201.1z"/>
	<path id="Path_1034" class="st22" d="M114.1,213c-0.4,0.9,0.6,2.1,3.1,2.9s2.8-0.2,2.8-0.2c1.7,0.8,3.4,1.6,5,2.6
		c1.5,1.1,2.2,4.2,2.4,9.4c0.2,6,0.7,18,0.5,19.5c0,0-1.7,1-3.3-1.3c-1.1,1.7-2.9,2.9-4.8,3.4c-4.4,1.2-9-0.9-11-5
		c0-5.3,1.5-9.7,0.7-12.8c-2-7-3-9.9-2-14.5c0.8-3.8,1.9-4.3,3.4-4.3C111.9,212.8,113,212.8,114.1,213z"/>
	<path id="Path_1035" class="st23" d="M114.8,211.9c-0.2-0.1-0.4-0.1-0.5,0c-0.3,0.3-0.7,0.6-1,0.9c0,1.1,0.6,2.1,1.6,2.6
		c1.8,1.3,4.2,1.5,6.2,0.6c0,0-0.4-1.4-0.6-1.7c-0.1-0.2-0.3-0.3-0.4-0.3c0,0-0.6,0.7-2.7,0s-2.6-1.8-2.6-1.8L114.8,211.9z"/>
	<path id="Path_1036" class="st19" d="M133.1,233.6c-3,0.8-3.7-1.1-4.1-2.7c-1-3.8-1.5-7.2-2.2-9.4c-0.8-2.5-1.7-3-3-3.4
		c-1.4-0.6-2.7,0.6-2.2,3.9c0.6,3.7,1.5,7.4,2.8,11c0.4,1.6,1.3,3.1,2.5,4.3c1.5,1.2,3.9,1.2,7.4,0.3c2.1-0.7,4.1-1.6,6-2.6
		c0.8-0.4,1.4-0.6,2.8-1.3c1.5-0.7,2.8-1.7,3.8-2.9c0.8-1.1,0.9-1.6,0.7-1.9s-0.6-0.2-1,0.2c-0.6,0.8-1.3,1.5-2.2,2
		c0,0,0.9-1,1.5-1.6c0.5-0.6,0.8-1.2,1.1-1.9c0.3-0.6-0.3-1.5-0.7-1.1s-0.6,0.9-1.4,1.9c-0.4,0.5-0.9,0.9-1.4,1.3
		c0.5-0.7,0.9-1.3,1.3-2.1c0.3-0.6,0.5-1.2,0.5-1.9c0-0.3-0.5-0.7-0.9-0.1c-0.4,0.9-1,1.7-1.6,2.5c-0.7,0.7-1.3,1.1-1.3,0.9
		s0.4-0.6,0.7-1.4s0-1.7-0.5-1.8s-0.4-0.1-0.7,0.7c-0.5,0.8-1,1.6-1.4,2.5c-0.2,0.8-0.7,1.5-1.2,2.1
		C137.6,232,135.9,232.8,133.1,233.6z"/>
	<path id="Path_1037" class="st35" d="M135,233l1.7-0.8c1,0.4,1.8,2.1,1.5,3.9l-2,0.8L135,233z"/>
	<path id="Path_1038" class="st23" d="M123.6,217.4c2,0.2,2.8,0.8,3.8,5.1s1.5,8.5,2.3,9.4s1.1,2.3,5.6,0.6c0,0,2.1,0.8,1.9,4.3
		c-1.7,0.6-3.4,1.1-5.1,1.4c-2.7,0.5-5.2,0.3-6.9-3.1c-1.8-4.1-3-8.4-3.7-12.8C121.2,219.7,121.8,217.2,123.6,217.4z"/>
	<ellipse id="Ellipse_10" class="st2" cx="35.5" cy="282.8" rx="5.9" ry="3.4"/>
	<rect id="Rectangle_336" x="29.6" y="270.9" class="st2" width="11.7" height="12.2"/>
	<path id="Path_1039" class="st36" d="M32.1,193.5l-13.5,58.9c-1.4,6.1,0.9,12.5,5.8,16.4l0,0c5.8,4.6,14,4.6,19.9,0.1l2-1.6
		c5.1-3.9,7.4-10.4,5.9-16.7l-13.8-57.1c-0.4-1.7-2.2-2.8-3.9-2.3C33.2,191.4,32.3,192.3,32.1,193.5L32.1,193.5z"/>
	<path id="Path_1040" class="st2" d="M46.7,266.9c2-3.5,2.5-7.7,1.6-11.6l-13.9-57.1c-0.3-1.4-1.4-2.4-2.8-2.4l0.5-2.2
		c0.4-1.7,2.2-2.8,3.9-2.4c1.2,0.3,2.1,1.2,2.4,2.4l13.9,57.1C53.6,256.7,51.5,263,46.7,266.9z"/>
	<linearGradient id="Path_1041_1_" gradientUnits="userSpaceOnUse" x1="337.5131" y1="399.2213" x2="182.1072" y2="333.6371">
		<stop  offset="0" style="stop-color:#FDFEFE"/>
		<stop  offset="1" style="stop-color:#7593D7"/>
	</linearGradient>
	<path id="Path_1041" class="st37" d="M304.3,396.5L227,351.9v-10.6l77.3,44.6L304.3,396.5z"/>
	
		<linearGradient id="Path_1042_1_" gradientUnits="userSpaceOnUse" x1="-589.1098" y1="824.494" x2="-588.1098" y2="824.494" gradientTransform="matrix(86.5 0 0 -49.94 51184.8203 41536.2031)">
		<stop  offset="0" style="stop-color:#DCE6F2"/>
		<stop  offset="1" style="stop-color:#EBF1F8"/>
	</linearGradient>
	<path id="Path_1042" class="st38" d="M304.2,385.9l-77.3-44.6l9.2-5.3l77.3,44.6L304.2,385.9z"/>
	<linearGradient id="Path_1043_1_" gradientUnits="userSpaceOnUse" x1="282.5309" y1="399.3" x2="387.323" y2="346.5475">
		<stop  offset="0" style="stop-color:#DEEAFF"/>
		<stop  offset="1" style="stop-color:#A9C0EE"/>
	</linearGradient>
	<path id="Path_1043" class="st39" d="M381.6,351.9l-77.3,44.6v-10.6l77.3-44.6V351.9z"/>
	
		<linearGradient id="Path_1044_1_" gradientUnits="userSpaceOnUse" x1="-589.1098" y1="824.494" x2="-588.1098" y2="824.494" gradientTransform="matrix(86.5 0 0 -49.94 51252.9688 41536.2031)">
		<stop  offset="0" style="stop-color:#DCE6F2"/>
		<stop  offset="1" style="stop-color:#EBF1F8"/>
	</linearGradient>
	<path id="Path_1044" class="st40" d="M381.5,341.3l-77.3,44.6l-9.2-5.3l77.3-44.6L381.5,341.3z"/>
	<linearGradient id="Path_1045_1_" gradientUnits="userSpaceOnUse" x1="328.3924" y1="420.8333" x2="172.9865" y2="355.2492">
		<stop  offset="0" style="stop-color:#FDFEFE"/>
		<stop  offset="1" style="stop-color:#7593D7"/>
	</linearGradient>
	<path id="Path_1045" class="st41" d="M304.4,425l-98-56.6V355l98,56.6V425z"/>
	
		<linearGradient id="Path_1046_1_" gradientUnits="userSpaceOnUse" x1="-590.5601" y1="825.548" x2="-589.5601" y2="825.548" gradientTransform="matrix(109.56 0 0 -63.26 64907.9492 52604.1562)">
		<stop  offset="0" style="stop-color:#DCE6F2"/>
		<stop  offset="1" style="stop-color:#EBF1F8"/>
	</linearGradient>
	<path id="Path_1046" class="st42" d="M304.1,411.6l-98-56.6l11.6-6.7l98,56.6L304.1,411.6z"/>
	<linearGradient id="Path_1047_1_" gradientUnits="userSpaceOnUse" x1="293.1017" y1="420.2987" x2="397.8938" y2="367.5462">
		<stop  offset="0" style="stop-color:#DEEAFF"/>
		<stop  offset="1" style="stop-color:#A9C0EE"/>
	</linearGradient>
	<path id="Path_1047" class="st43" d="M402.2,368.4l-98,56.6v-13.4l98-56.6V368.4z"/>
	
		<linearGradient id="Path_1048_1_" gradientUnits="userSpaceOnUse" x1="-590.5601" y1="825.548" x2="-589.5601" y2="825.548" gradientTransform="matrix(109.56 0 0 -63.26 64994.2695 52604.1562)">
		<stop  offset="0" style="stop-color:#DCE6F2"/>
		<stop  offset="1" style="stop-color:#EBF1F8"/>
	</linearGradient>
	<path id="Path_1048" class="st44" d="M402.1,355l-98,56.6l-11.6-6.7l98-56.6L402.1,355z"/>
</g>
</svg>
