<svg xmlns="http://www.w3.org/2000/svg" xmlns:xlink="http://www.w3.org/1999/xlink" width="200" height="120" viewBox="0 0 200 120">
  <defs>
    <clipPath id="clip-path">
      <path id="Path_800" data-name="Path 800" d="M1311.338,469c0,22.435,34.574,40.622,77.222,40.622h0c42.648,0,77.223-18.187,77.223-40.622h0c0-22.434-34.575-40.622-77.223-40.622h0c-42.648,0-77.222,18.188-77.222,40.622" fill="none"/>
    </clipPath>
    <radialGradient id="radial-gradient" cx="0.3" cy="0.176" r="1.248" gradientTransform="matrix(0.526, 0, 0, -1, -4.017, 16.058)" gradientUnits="objectBoundingBox">
      <stop offset="0" stop-color="#aeb2d5"/>
      <stop offset="0.3" stop-color="#aeb2d5"/>
      <stop offset="0.75" stop-color="#484c89"/>
      <stop offset="1" stop-color="#484c89"/>
    </radialGradient>
    <clipPath id="clip-path-2">
      <rect id="Rectangle_278" data-name="Rectangle 278" width="160.88" height="90.495" transform="translate(1308.12 423.753)" fill="none"/>
    </clipPath>
  </defs>
  <g id="php" transform="translate(-539 -1586)">
    <rect id="Rectangle_281" data-name="Rectangle 281" width="200" height="120" transform="translate(539 1586)" fill="none"/>
    <g id="g3438" transform="translate(-749.56 1177)">
      <g id="g3440">
        <g id="Group_80" data-name="Group 80">
          <g id="Group_79" data-name="Group 79" clip-path="url(#clip-path)">
            <g id="g3442">
              <g id="g3448">
                <g id="g3450">
                  <path id="path3462" d="M1311.338,469c0,22.435,34.574,40.622,77.222,40.622h0c42.648,0,77.223-18.187,77.223-40.622h0c0-22.434-34.575-40.622-77.223-40.622h0c-42.648,0-77.222,18.188-77.222,40.622" fill="url(#radial-gradient)"/>
                </g>
              </g>
            </g>
          </g>
        </g>
      </g>
      <g id="g3464">
        <g id="Group_82" data-name="Group 82">
          <g id="Group_81" data-name="Group 81" clip-path="url(#clip-path-2)">
            <g id="g3466">
              <g id="g3472">
                <path id="path3474" d="M1388.56,506.606c40.982,0,74.206-16.837,74.206-37.606s-33.224-37.606-74.206-37.606-74.206,16.837-74.206,37.606,33.224,37.606,74.206,37.606" fill="#777bb3"/>
              </g>
            </g>
          </g>
        </g>
      </g>
      <g id="g3476">
        <g id="Group_84" data-name="Group 84">
          <g id="Group_83" data-name="Group 83" clip-path="url(#clip-path-2)">
            <g id="g3478">
              <g id="g3484">
                <path id="path3486" d="M1353.293,473.663c3.37,0,5.886-.622,7.478-1.847,1.574-1.212,2.662-3.313,3.232-6.243.532-2.739.329-4.652-.6-5.684-.951-1.054-3.009-1.588-6.114-1.588H1351.9l-2.985,15.362Zm-17.614,18.923a.838.838,0,0,1-.822-1l7.912-40.709a.839.839,0,0,1,.823-.678h17.053c5.359,0,9.348,1.455,11.855,4.325,2.521,2.886,3.3,6.919,2.314,11.989a18.539,18.539,0,0,1-5.824,10.429,16.566,16.566,0,0,1-6.211,3.721,28.138,28.138,0,0,1-8.532,1.1h-6.9l-1.972,10.145a.838.838,0,0,1-.822.679Z"/>
              </g>
              <g id="g3488">
                <path id="path3490" d="M1352.592,459.139h4.695c3.748,0,5.05.822,5.493,1.312.734.814.872,2.53.4,4.963-.531,2.723-1.513,4.654-2.921,5.738-1.442,1.11-3.786,1.673-6.967,1.673h-3.361Zm8.053-9.776h-17.053a1.676,1.676,0,0,0-1.645,1.356l-7.912,40.709a1.673,1.673,0,0,0,1.645,1.995h8.867a1.676,1.676,0,0,0,1.646-1.356l1.84-9.467h6.214a28.93,28.93,0,0,0,8.792-1.139,17.389,17.389,0,0,0,6.523-3.9,19.355,19.355,0,0,0,6.074-10.882c1.038-5.336.2-9.608-2.505-12.7-2.673-3.06-6.874-4.612-12.486-4.612M1347.9,474.5h5.394q5.364,0,7.989-2.02t3.544-6.747q.879-4.539-.8-6.4t-6.737-1.865h-6.076L1347.9,474.5m12.746-23.461q7.7,0,11.224,4.039t2.122,11.277a17.691,17.691,0,0,1-5.568,9.972,15.66,15.66,0,0,1-5.9,3.541,27.187,27.187,0,0,1-8.273,1.056h-7.6l-2.1,10.823h-8.867l7.912-40.708h17.053" fill="#fff"/>
              </g>
              <g id="g3492">
                <path id="path3494" d="M1395.147,481.762a.839.839,0,0,1-.823-1l3.5-18.012c.333-1.713.251-2.943-.231-3.462-.3-.318-1.181-.851-3.8-.851h-6.341l-4.4,22.644a.839.839,0,0,1-.823.678h-8.8a.838.838,0,0,1-.823-1l7.912-40.709a.839.839,0,0,1,.823-.678h8.8a.838.838,0,0,1,.823,1l-1.91,9.826h6.822c5.2,0,8.72.916,10.772,2.8,2.092,1.923,2.745,5,1.94,9.138l-3.681,18.944a.837.837,0,0,1-.822.678Z"/>
              </g>
              <g id="g3496">
                <path id="path3498" d="M1390.141,438.54h-8.8a1.675,1.675,0,0,0-1.645,1.356l-7.912,40.709a1.676,1.676,0,0,0,1.645,1.995h8.8a1.675,1.675,0,0,0,1.645-1.356l4.269-21.966h5.65c2.615,0,3.164.559,3.186.583.159.17.367.961.023,2.732l-3.5,18.012a1.676,1.676,0,0,0,1.645,1.995h8.938a1.675,1.675,0,0,0,1.645-1.356l3.681-18.944c.864-4.447.125-7.782-2.2-9.915-2.214-2.034-5.923-3.022-11.339-3.022h-5.8l1.715-8.828a1.676,1.676,0,0,0-1.645-1.995m0,1.676-2.1,10.823h7.838q7.4,0,10.205,2.58t1.685,8.362l-3.681,18.943h-8.938l3.5-18.011q.6-3.073-.44-4.192t-4.414-1.119h-7.032l-4.532,23.322h-8.8l7.912-40.708h8.8" fill="#fff"/>
              </g>
              <g id="g3500">
                <path id="path3502" d="M1422.51,473.663c3.369,0,5.885-.622,7.477-1.847,1.575-1.212,2.662-3.313,3.233-6.243.531-2.739.329-4.652-.6-5.684-.952-1.054-3.009-1.588-6.115-1.588h-5.386l-2.985,15.362ZM1404.9,492.586a.839.839,0,0,1-.823-1l7.913-40.709a.837.837,0,0,1,.822-.678h17.053c5.359,0,9.348,1.455,11.856,4.325,2.521,2.886,3.3,6.919,2.313,11.989a18.524,18.524,0,0,1-5.824,10.429,16.559,16.559,0,0,1-6.211,3.721,28.137,28.137,0,0,1-8.532,1.1h-6.905l-1.971,10.145a.84.84,0,0,1-.823.679Z"/>
              </g>
              <g id="g3504">
                <path id="path3506" d="M1421.808,459.139h4.7c3.748,0,5.051.822,5.493,1.312.734.814.873,2.53.4,4.962-.53,2.724-1.513,4.655-2.921,5.739-1.442,1.11-3.786,1.673-6.966,1.673h-3.361Zm8.053-9.776h-17.053a1.676,1.676,0,0,0-1.645,1.356l-7.912,40.709a1.675,1.675,0,0,0,1.645,1.995h8.868a1.675,1.675,0,0,0,1.645-1.356l1.84-9.467h6.214a28.93,28.93,0,0,0,8.792-1.139,17.39,17.39,0,0,0,6.524-3.906,19.364,19.364,0,0,0,6.074-10.881c1.037-5.336.194-9.609-2.505-12.7-2.674-3.06-6.875-4.612-12.487-4.612M1417.116,474.5h5.394q5.362,0,7.988-2.02t3.544-6.747q.881-4.539-.8-6.4t-6.737-1.865h-6.076l-3.311,17.037m12.745-23.461q7.7,0,11.225,4.039t2.122,11.277a17.7,17.7,0,0,1-5.569,9.972,15.66,15.66,0,0,1-5.9,3.541,27.186,27.186,0,0,1-8.273,1.056h-7.6l-2.1,10.823H1404.9l7.912-40.708h17.053" fill="#fff"/>
              </g>
            </g>
          </g>
        </g>
      </g>
    </g>
  </g>
</svg>
