<svg id="Layer_1" data-name="Layer 1" xmlns="http://www.w3.org/2000/svg" width="80" height="80" viewBox="0 0 80 80"><defs><style>.cls-1{fill:#1976d2;}</style></defs><title>plugin</title><g id="plugin"><path id="Path_161" data-name="Path 161" class="cls-1" d="M18,0V20.64h3V3H77v55.9H71.39v3H80V0Z"/><path id="Path_162" data-name="Path 162" class="cls-1" d="M58,30.21H48.88V20.43H46.2v9.78h-13V20.43H30.48v9.78h-9l-.21,1.26c-.07.39-1.58,9.66,3.85,16.1,3,3.52,7.4,5.46,13.16,5.76v5.61H20.92v3H41.35V53.35c5.26-.27,9.41-2.06,12.33-5.37,5.66-6.4,4.56-16,4.51-16.44ZM51.39,46C48.82,48.88,45,50.34,40,50.34c-5.65,0-9.85-1.58-12.51-4.72C24,41.54,24,35.77,24.16,33.25h31.1c.06,2.64-.23,8.64-3.87,12.73Z"/></g></svg>