<svg xmlns="http://www.w3.org/2000/svg" width="200" height="120" viewBox="0 0 200 120">
  <g id="prestashop" transform="translate(-980 -1810)">
    <rect id="Rectangle_287" data-name="Rectangle 287" width="200" height="120" transform="translate(980 1810)" fill="none"/>
    <g id="Group_110" data-name="Group 110" transform="translate(-464.5 1257.24)">
      <path id="Path_931" data-name="Path 931" d="M1524.888,642.564c.89-.4,1.792-.761,2.7-1.1,1.028-.387,2.064-.75,3.114-1.066,1.308-.394,2.626-.75,3.962-1.034a49.338,49.338,0,0,1,5.46-.844q-1.555,4.878-3.4,9.657.077.933.1,1.868a39.562,39.562,0,0,1,15.354,0q.021-.934.1-1.868-1.845-4.776-3.4-9.657a49.2,49.2,0,0,1,5.46.844c1.336.284,2.654.64,3.961,1.034,1.051.316,2.087.679,3.115,1.066.911.342,1.814.707,2.7,1.1a48.385,48.385,0,0,1,16.8,12.4,55.76,55.76,0,1,0-72.83,0,48.39,48.39,0,0,1,16.8-12.4" fill="#a5dbe8"/>
      <path id="Path_932" data-name="Path 932" d="M1564.113,642.564l3.462,11.9.982.046c.637,0,1.085.168,1.085.8,0,1.059.055,2.25.156,3.289.863.733,1.913,1.559,2.71,2.361a55.992,55.992,0,0,0,8.407-6,48.385,48.385,0,0,0-16.8-12.4m-6.768-.119,4.064-.984c-1.028-.387-2.064-.75-3.115-1.066-1.307-.394-2.625-.75-3.961-1.034a49.338,49.338,0,0,0-5.46-.844q1.555,4.879,3.4,9.657-.077.933-.1,1.868a39.95,39.95,0,0,1,8.329,2.713l-3.161-10.31" fill="#525353"/>
      <path id="Path_933" data-name="Path 933" d="M1516.492,660.968c.648.377,1.3.745,1.966,1.1.233-1.117.6-2.666.717-3.815-.862.732-1.886,1.916-2.683,2.718m43.946-8.316a39.168,39.168,0,0,0-8.261-2.61,39.562,39.562,0,0,0-15.354,0,41.255,41.255,0,0,0-8.5,2.586l-.278,1.735h32.913l-.519-1.711"/>
      <path id="Path_934" data-name="Path 934" d="M1519.073,658.58a29.724,29.724,0,0,0,.176-3.026,1,1,0,0,1,1.074-1.045l1.045-.037,3.52-11.908a48.39,48.39,0,0,0-16.8,12.4,55.992,55.992,0,0,0,8.407,6q1.2-1.2,2.489-2.3" fill="#525353"/>
      <path id="Path_935" data-name="Path 935" d="M1570.224,660.7a5.567,5.567,0,0,0,.318,1.367q.993-.528,1.966-1.1-1.208-1.218-2.515-2.33l.231,2.06"/>
      <path id="Path_936" data-name="Path 936" d="M1560.438,652.652l.519,1.711h6.732l-3.576-11.8q-1.335-.591-2.7-1.1l-4.064.984,3.093,10.207" fill="#aa9678"/>
      <path id="Path_937" data-name="Path 937" d="M1521.429,656.745l.106-.074h-.1c0,.024,0,.05-.005.074" fill="#c4b6a1"/>
      <path id="Path_938" data-name="Path 938" d="M1567.566,656.671h-.1l.106.074c0-.024,0-.05-.005-.074" fill="#aa9678"/>
      <path id="Path_939" data-name="Path 939" d="M1567.45,656.5l-23,.027.048,11.995a55.54,55.54,0,0,0,23.913-5.38,35.241,35.241,0,0,1-.6-6.5c-.035-.026-.365-.145-.365-.145" fill="#aa9678"/>
      <path id="Path_940" data-name="Path 940" d="M1544.463,656.574s-23.125-.029-23.16,0c-.077,2.179-.527,4.765-.716,6.57a55.54,55.54,0,0,0,23.913,5.38l.013-11.907-.05-.039" fill="#c4b6a1"/>
      <path id="Path_941" data-name="Path 941" d="M1544.5,655.517h0v1.154h0Z" fill="#786453"/>
      <path id="Path_942" data-name="Path 942" d="M1560.465,646.406" fill="#525353"/>
      <path id="Path_943" data-name="Path 943" d="M1561.748,647.68l.012.036-.012-.036a10.919,10.919,0,0,1-1.283-1.274,10.919,10.919,0,0,0,1.283,1.274" fill="#aa9678"/>
      <path id="Path_944" data-name="Path 944" d="M1578.786,597.229v0m2.244,16.054v0" fill="#fff"/>
      <path id="Path_945" data-name="Path 945" d="M1581.031,613.267v0" fill="#bbbcbd"/>
      <path id="Path_946" data-name="Path 946" d="M1580.968,612.4c0,.015.006.028.008.043l.005.026v0a6.152,6.152,0,0,1,.041.66c0,.042.008.08.008.121v.032c0,.045-.008.086-.008.13q0,.324-.041.647v0l-.006.032c0,.017-.007.032-.009.049a5.914,5.914,0,0,1-.125.66v0h0l.008-.008,0-.01h0l1.46-1.528-1.472-1.54v0a5.762,5.762,0,0,1,.128.673" fill="#676a6a"/>
      <path id="Path_947" data-name="Path 947" d="M1580.966,614.144c0-.029.011-.054.015-.084a6.474,6.474,0,0,0,.041-.647c0-.05.008-.1.008-.146s-.007-.091-.008-.137a6.318,6.318,0,0,0-.041-.66c0-.025-.01-.047-.013-.072a5.873,5.873,0,0,0-.128-.673c-.019-.075-.046-.142-.068-.214a4.336,4.336,0,0,0-.525-1.143,3.61,3.61,0,0,0-.268-.348,2.286,2.286,0,0,0-.288-.268c-.039-.029-.079-.05-.118-.075a1.665,1.665,0,0,0-.387-.187,1.192,1.192,0,0,0-.8,0,1.628,1.628,0,0,0-.387.187,1.393,1.393,0,0,0-.118.075,2.268,2.268,0,0,0-.467.491c-.031.041-.061.083-.089.126a4.3,4.3,0,0,0-.525,1.142l-.017.052a5.812,5.812,0,0,0-.141.628c-.012.066-.027.13-.036.2a5.9,5.9,0,0,0-.057.753c0,.036-.006.07-.006.106h.008c0,2.124,1.005,3.846,2.245,3.846a1.389,1.389,0,0,0,.614-.152,1.8,1.8,0,0,0,.33-.208c.042-.034.082-.075.123-.113a2.608,2.608,0,0,0,.282-.314,2.994,2.994,0,0,0,.179-.254c.037-.058.07-.12.1-.182.063-.116.122-.237.176-.365.02-.046.04-.091.059-.138a5.151,5.151,0,0,0,.178-.564,5.758,5.758,0,0,0,.125-.66Zm-2.1-1.389c-.465,0-.842-.646-.842-1.443s.377-1.441.842-1.441.841.646.841,1.441S1579.332,612.755,1578.867,612.755Z"/>
      <path id="Path_948" data-name="Path 948" d="M1578.867,609.87c-.465,0-.842.647-.842,1.442s.377,1.443.842,1.443.841-.646.841-1.443-.376-1.442-.841-1.442" fill="#fff"/>
      <path id="Path_949" data-name="Path 949" d="M1576.8,611.511a4.3,4.3,0,0,1,.525-1.142c.029-.044.058-.084.089-.126a2.268,2.268,0,0,1,.467-.491,1.393,1.393,0,0,1,.118-.075,1.628,1.628,0,0,1,.387-.187,1.192,1.192,0,0,1,.8,0,1.665,1.665,0,0,1,.387.187c.039.025.079.046.118.075a2.245,2.245,0,0,1,.288.268,3.61,3.61,0,0,1,.268.348,4.336,4.336,0,0,1,.525,1.143h0l-1.986-9.094-1.986,9.094h0" fill="#909393"/>
      <path id="Path_950" data-name="Path 950" d="M1552.472,613.182c0-.183-.015-.364-.035-.542l0-.007c-.02-.174-.05-.347-.087-.518l0-.013c-.037-.167-.083-.331-.136-.494l0-.011q-.081-.242-.184-.474l-.005-.009a5.281,5.281,0,0,0-2.805-2.719l-.016-.005a5.2,5.2,0,0,0-.94-.284l-.024,0a5.169,5.169,0,0,0-1.008-.1,5.293,5.293,0,0,0-.99.1l-.034.005a5.236,5.236,0,0,0-.923.276l-.024.009a5.117,5.117,0,0,0-.857.445,5.275,5.275,0,0,0-.761.594l-.006.018-.019,0a5.305,5.305,0,0,0-.954,1.217l-.009.016a4.742,4.742,0,0,0-.215.428c-.007.016-.016.031-.022.047-.06.135-.111.275-.159.417-.009.027-.022.054-.03.081-.042.132-.076.267-.108.4-.009.039-.021.077-.03.115-.027.135-.047.272-.065.409-.005.043-.014.083-.018.125a5.229,5.229,0,0,0,.071,1.564l0,.02a5.181,5.181,0,0,0,.287.947l.005.013a5.3,5.3,0,0,0,2.29,2.585l.007,0c.141.079.287.151.435.217l.037.017c.138.06.28.112.423.161l.073.026c.132.043.269.076.406.108.037.009.072.021.11.029.133.027.27.046.407.064.042,0,.083.014.125.018a5.253,5.253,0,0,0,5.8-5.225c0-.012,0-.024,0-.036l0-.039Zm-5.25-.616a1.973,1.973,0,1,1,1.974-1.973A1.973,1.973,0,0,1,1547.222,612.566Z"/>
      <path id="Path_951" data-name="Path 951" d="M1547.222,608.619a1.973,1.973,0,1,0,0,3.947h0a1.973,1.973,0,0,0,0-3.947" fill="#fff"/>
      <path id="Path_952" data-name="Path 952" d="M1543.608,609.451l.019,0,.006-.018,3.618-11.066v-2.619a30.819,30.819,0,0,0-6.208-.64c-.708,0-1.41.03-2.108.077-.1.007-.2.013-.305.021a31.086,31.086,0,0,0-10.52,2.734,33.64,33.64,0,0,0-7.85,5.03h0l0,0q-.953.816-1.843,1.7c-.112.109-.225.217-.335.327q-.843.849-1.628,1.751c-.114.131-.226.265-.338.4q-.794.931-1.526,1.91c-.04.055-.078.112-.118.167q-.7.95-1.332,1.938c-.083.128-.168.255-.25.385-.344.546-.664,1.106-.982,1.668h16.483l15.221-3.76" fill="#bbbcbd"/>
      <path id="Path_953" data-name="Path 953" d="M1557.523,608.206q.051-.648.083-1.295.045-.878.062-1.755c.009-.455.007-.909.005-1.364,0-.131,0-.262,0-.394q-.021-1.76-.129-3.516l-.01-.007-.005-.008q-.653-.375-1.308-.748l-.03-.017-.341-.193-.007,0-.236-.132-.047-.026-.172-.094q-1.137-.59-2.317-1.088a40.992,40.992,0,0,0-5.822-1.821v2.619l3.587,11.084,0,.009a5.288,5.288,0,0,1,.944,1.205h0c.083.146.16.3.229.452l.005.009q.1.233.184.474l0,.011c.053.162.1.326.136.494l0,.013c.037.17.066.343.087.518l0,.007a5.362,5.362,0,0,1,.034.542l.014.029h4.392a48.005,48.005,0,0,0,.634-4.87c0-.045.009-.09.012-.135" fill="#e3dddb"/>
      <path id="Path_954" data-name="Path 954" d="M1563.266,604.287l-.008.015.008-.014" fill="#fcb03f"/>
      <path id="Path_955" data-name="Path 955" d="M1543.633,609.429a5.366,5.366,0,0,1,.764-.6,5.157,5.157,0,0,1,.854-.443l.024-.009a5.242,5.242,0,0,1,.923-.276l.034-.005a5.3,5.3,0,0,1,.99-.1,5.225,5.225,0,0,1,1.008.1l.024,0a5.23,5.23,0,0,1,2.588,1.35l0-.009-3.587-11.084-3.618,11.066" fill="#909393"/>
      <path id="Path_956" data-name="Path 956" d="M1542.359,615.24a5.1,5.1,0,0,1-.287-.947l0-.021a5.221,5.221,0,0,1-.071-1.563c0-.042.013-.082.019-.125.017-.137.037-.274.064-.409.009-.038.021-.076.03-.115.032-.136.066-.271.108-.4.009-.027.02-.054.03-.081.048-.142.1-.282.159-.417.006-.016.015-.031.022-.047a4.742,4.742,0,0,1,.215-.428l.009-.016a5.305,5.305,0,0,1,.954-1.217l-15.221,3.76h-.03l15.077,3.68a5.256,5.256,0,0,1-1.07-1.638l-.005-.013" fill="#676a6a"/>
      <path id="Path_957" data-name="Path 957" d="M1576.607,612.389c.009-.068.024-.132.036-.2a5.812,5.812,0,0,1,.141-.628c.007-.022.009-.048.016-.07l1.986-9.094v-5.186a8.109,8.109,0,0,0-5.17-2.073,8.939,8.939,0,0,0-6.011,2.822,22.522,22.522,0,0,0-4.182,6.019c-.05.1-.1.2-.151.3q.5.437,1,.886,1.112,1.021,2.185,2.083c.334.329.661.665.99,1,.348.356.7.71,1.04,1.07q.942.99,1.857,2,.785.867,1.553,1.748h0c.086.089.146.154.169.18h4.479c0-.036.007-.069.008-.106a5.9,5.9,0,0,1,.057-.753m-13.336-8.088-.005-.013-.008.014.02.02-.007-.021" fill="#e3dddb"/>
      <path id="Path_958" data-name="Path 958" d="M1509.2,618.934l.041-.1a42.074,42.074,0,0,1,2.077-4.562c.121-.23.239-.461.365-.689.069-.126.147-.246.218-.372.318-.562.638-1.122.982-1.668.082-.13.167-.257.25-.385q.638-.988,1.332-1.938c.04-.055.078-.112.118-.167q.732-.979,1.526-1.91c.112-.132.224-.265.338-.4q.785-.9,1.628-1.751c.11-.11.223-.218.335-.327q.89-.882,1.843-1.7l0,0c2.505-8.392,10.594-13.549,19.665-13.549a20.044,20.044,0,0,1,10.392,2.956,16.98,16.98,0,0,1,7.057,7.193l.025.05c.043.084.09.165.132.251l.005.008.01.007a33.633,33.633,0,0,1,4.043,2.938q.642.542,1.26,1.112c.135.125.275.244.409.37l.008-.015.005-.01c.046-.095.092-.191.138-.284,1.278-8.067,5.339-12.465,9.536-12.465,3.164,0,5.463,1.886,7.2,6.964l.018.054,0,.006a19.213,19.213,0,0,1,1.432,1.763h0l.028.036h0c.025.074.046.15.07.223h0l-.065-.265a39.114,39.114,0,0,0-76.167,12.522A38.684,38.684,0,0,0,1507.408,625l.005-.022a42.041,42.041,0,0,1,1.79-6.046" fill="#525353"/>
      <path id="Path_959" data-name="Path 959" d="M1582.215,613.263l-1.364,1.526h0l0,.01a5.108,5.108,0,0,1-.185.569c-.019.047-.039.092-.059.138-.053.125-.111.246-.176.365-.033.062-.066.124-.1.182a2.994,2.994,0,0,1-.179.254,2.624,2.624,0,0,1-.282.314c-.041.037-.08.079-.123.113a1.8,1.8,0,0,1-.33.208,1.389,1.389,0,0,1-.614.152c-1.24,0-2.245-1.722-2.245-3.846h-4.5l0,0q1.269,1.467,2.5,2.968,1.18,1.443,2.332,2.909l.113.144q1.092,1.392,2.163,2.8l.208.272q1.139,1.5,2.261,3.007a39,39,0,0,0,2.051-12.1l-1.266-.048-.2.063" fill="#fff"/>
      <path id="Path_960" data-name="Path 960" d="M1538.63,595.2c.1-.008.2-.014.305-.021q1.053-.075,2.108-.077a30.864,30.864,0,0,1,6.208.64h0a40.992,40.992,0,0,1,5.822,1.821q1.18.5,2.317,1.088l.172.094.047.026c.07.039.147.081.236.132l.007,0,.341.193.03.017c.482.273,1.015.58,1.219.7l.052.03.037.022c-.042-.086-.089-.167-.132-.251l-.025-.05a20.369,20.369,0,0,0-7.482-8.146,19.942,19.942,0,0,0-29.632,11.546,33.64,33.64,0,0,1,7.85-5.03,31.109,31.109,0,0,1,10.52-2.734"/>
      <path id="Path_961" data-name="Path 961" d="M1581.626,600.351h0l-.028-.036h0a19.1,19.1,0,0,0-1.432-1.764l-.012-.015q-.328-.355-.676-.691c-.086-.082-.175-.154-.261-.233-.144-.13-.286-.265-.432-.384v5.188l1.986,9.1h0c.022.071.048.137.067.21l1.376,1.542.014-.015h1.439c0-.133.01-.265.01-.4v0a39.013,39.013,0,0,0-1.982-12.273h0c-.024-.073-.045-.149-.07-.223" fill="#bbbcbd"/>
      <path id="Path_962" data-name="Path 962" d="M1567.6,597.962a8.939,8.939,0,0,1,6.011-2.822,8.109,8.109,0,0,1,5.17,2.073v.016c.146.119.288.254.432.384.086.079.175.151.261.233q.348.336.676.691l.012.015,0-.005h0l-.018-.054c-1.737-5.078-4.539-8.377-7.7-8.377-4.2,0-7.756,5.811-9.034,13.878l.014-.012a22.522,22.522,0,0,1,4.182-6.019m-5.672,49.577a10.784,10.784,0,0,1-1.282-1.274,13.03,13.03,0,0,1-.932-1.2c-.091-.133-.182-.272-.272-.415a13.113,13.113,0,0,1-.727-1.467,8.558,8.558,0,0,1-.436-1.552,11.085,11.085,0,0,1-.277-1.247,10.768,10.768,0,0,1-.132-2.06,11.072,11.072,0,0,1,.113-1.229,12.055,12.055,0,0,1,.242-1.236,14.864,14.864,0,0,1,1.716-4.034l.217-.487c.279-.464.341-.444.606-.891,3.731-6.3,5.743-11.057,4.759-18.388q-.162-1.126-.368-2.246-.129.812-.272,1.62a4.113,4.113,0,0,1-.177.463c-1.621,4.8-4.172,8.324-7.842,12.308q-.766.829-1.552,1.64-1.4,1.45-2.834,2.871-.6.593-1.214,1.2c-.379.375-.85,1.176-1.412,1.766-.346.971-.741,2.067-1.074,3.218-.15-.057-.294-.108-.446-.167a52.189,52.189,0,0,1-11.905-6.443,52.171,52.171,0,0,0,9.862,9.272,19.848,19.848,0,0,0,1.768,1.145c-.255,4.041,1.527,7.92,9.574,9.077a16.324,16.324,0,0,0,4.157.029c-.014-.042.078-.041.071-.064s.075-.086.075-.086"/>
      <path id="Path_963" data-name="Path 963" d="M1557.629,637.137a49.743,49.743,0,0,0,28.691-4.175c.264-.124.556.2.82.072,0,0-7.5,7.662-16.459,11.993-.262.127-.52.261-.784.381-.866.4-1.746.74-2.63,1.058a24.632,24.632,0,0,1-5.234,1.314c-.08.011-.16.026-.24.035l-.033-.1-.012-.036a10.919,10.919,0,0,1-1.283-1.274,12.7,12.7,0,0,1-.931-1.2,12.449,12.449,0,0,1-1.046-1.834,11.541,11.541,0,0,1-.622-1.672,10.8,10.8,0,0,1-.41-3.306,11.214,11.214,0,0,1,.113-1.229l.06-.027" fill="#9f2254"/>
      <path id="Path_964" data-name="Path 964" d="M1552.509,629q1.432-1.421,2.835-2.87.784-.811,1.551-1.64c3.67-3.984,6.365-7.712,7.986-12.509a4.361,4.361,0,0,0,.113-.432l.017-.078c.038-.179.075-.378.112-.6.015-.155.5-.467.514-.612a19.07,19.07,0,0,0-2.366-5.96l.007.021-.02-.02c-.134-.126-.274-.245-.409-.37q-.618-.57-1.26-1.112a33.747,33.747,0,0,0-4.043-2.938c.071,1.173.117,2.345.129,3.516,0,.132,0,.263,0,.394,0,.455,0,.909-.005,1.364q-.016.878-.062,1.755-.033.648-.083,1.295c0,.045-.009.09-.012.135a48.005,48.005,0,0,1-.634,4.87l-.516,2.439c-1.078,4.368-3.266,8.33-5.065,12.42-.477,1.085-.929,2.182-1.326,3.3l-.113.315q.709-.747,1.438-1.475.618-.612,1.214-1.2" fill="#fcb03f"/>
      <path id="Path_965" data-name="Path 965" d="M1528.9,652.495a35.849,35.849,0,0,1,7.919-2.453q-.021-.934-.1-1.868,1.845-4.776,3.4-9.657a49.338,49.338,0,0,0-5.46.844c-1.336.284-2.654.64-3.962,1.034-1.05.316-2.086.679-3.114,1.066l4.065.984-3.271,10.266.519-.216" fill="#525353"/>
      <path id="Path_966" data-name="Path 966" d="M1579.158,622.073q-1.071-1.409-2.163-2.8l-.113-.144q-1.165-1.484-2.361-2.945-1.215-1.482-2.469-2.932c-.053-.061-.1-.123-.159-.184q-1.033-1.188-2.1-2.346-.649-.708-1.312-1.405-.516-.539-1.04-1.07c-.329-.334-.656-.671-.99-1q-1.074-1.062-2.185-2.083-.493-.45-1-.886l-.005.01a44.653,44.653,0,0,1,1.917,6.205c.1.551.192,1.087.262,1.611.985,7.33-1.364,12.116-5.094,18.412q-.409.69-.823,1.379a14.875,14.875,0,0,0-1.716,4.033,12.4,12.4,0,0,0-.243,1.237,49.156,49.156,0,0,0,29.571-4.13s-2.207-3.244-5.528-7.7q-1.116-1.5-2.246-2.986l-.208-.272" fill="#df0067"/>
      <path id="Path_967" data-name="Path 967" d="M1528,654.546l3.66-12.1-4.065-.984c-.911.342-1.813.706-2.7,1.1l-3.624,11.982,4.045.063,2.687-.063" fill="#aa9678"/>
      <path id="Path_968" data-name="Path 968" d="M1530.569,649.311c.357.137.72.261,1.083.387a39.073,39.073,0,0,0,27.525-.632c.239-.1.473-.2.709-.3q.575-.243,1.141-.505c.337-.157.674-.313,1.006-.479-.08.011-.16.026-.24.035a16.324,16.324,0,0,1-4.157-.029c-8.047-1.157-9.829-5.036-9.574-9.077a19.848,19.848,0,0,1-1.768-1.145,52.171,52.171,0,0,1-9.862-9.272,52.189,52.189,0,0,0,11.905,6.443c.152.059.3.11.446.167.333-1.151.728-2.247,1.074-3.218l.113-.315c.4-1.117.849-2.214,1.326-3.3,1.8-4.09,3.987-8.052,5.065-12.42l.516-2.439h-4.4v.008h0c0,.012,0,.024,0,.036a5.249,5.249,0,0,1-5.8,5.225c-.042,0-.083-.013-.125-.018-.137-.018-.274-.037-.407-.064l-.11-.029c-.137-.032-.274-.065-.406-.108l-.073-.026c-.143-.049-.285-.1-.423-.161l-.037-.017c-.148-.066-.293-.138-.435-.217l-.007,0a5.266,5.266,0,0,1-1.22-.947l-15.077-3.68H1511.9c-.071.126-.149.246-.218.372-.126.228-.244.459-.365.689q-.608,1.145-1.142,2.327-.5,1.1-.935,2.235l-.041.1a42.041,42.041,0,0,0-1.79,6.046,39.2,39.2,0,0,0,14.218,19.474c.192.139.394.263.588.4a38.844,38.844,0,0,0,8.35,4.458" fill="#fff"/>
      <path id="Path_969" data-name="Path 969" d="M1570.019,658.664q-.159-1.569-.164-3.147a1.153,1.153,0,0,0-1.153-1.154h-48.4a1.154,1.154,0,0,0-1.154,1.154c0,1.059-.062,2.107-.163,3.147a32.01,32.01,0,0,1-.523,3.4c.7.371,1.41.732,2.129,1.075a34.2,34.2,0,0,0,.842-6.4c0-.024,0-.05.005-.074h46.132c0,.024,0,.05.005.074a34.281,34.281,0,0,0,.842,6.4q1.076-.516,2.129-1.075a32.01,32.01,0,0,1-.523-3.4" fill="#8b7460"/>
    </g>
  </g>
</svg>
