<svg xmlns="http://www.w3.org/2000/svg" width="74" height="74" viewBox="0 0 74 74">
  <g id="punjab" transform="translate(-668.125 -402.698)">
    <path id="path2898" d="M668.125,402.7h74v74h-74Z" fill="none" fill-rule="evenodd"/>
    <path id="path2950" d="M741.062,420.7h18.262v70.993H741.062V474.229c-15.99,5.961-30.968,6.508-44.79-7.173-5.731-6.03-8.9-14.211-7.538-28.548.163-2.113-.822-11-3.41-16.662h16.219c7.543,12.187-2.349,26.442,9.283,36.376,15.791,10.38,29.595-1.984,30.236-13.241Zm-18.14,7.648a15.626,15.626,0,1,1-15.655,15.629,15.67,15.67,0,0,1,15.655-15.629" transform="translate(-17.199 -16.5)" fill="#ffa700" fill-rule="evenodd"/>
  </g>
</svg>
