<svg xmlns="http://www.w3.org/2000/svg" xmlns:xlink="http://www.w3.org/1999/xlink" width="47.533" height="47.525" viewBox="0 0 47.533 47.525"><defs><linearGradient id="a" y1="0.5" x2="1" y2="0.5" gradientUnits="objectBoundingBox"><stop offset="0" stop-color="#d931f9"/><stop offset="1" stop-color="#9637d9"/></linearGradient></defs><g transform="translate(-10.87 -10.88)"><g transform="translate(10.87 10.88)"><rect width="7.327" height="7.327" transform="translate(5.863 5.863)" fill="url(#a)"/><rect width="7.327" height="7.327" transform="translate(5.863 34.336)" fill="url(#a)"/><path d="M10.87,36.107v22.3H29.922V48.147h4.4V58.194h5.34V53.8h4.2v4.4H49.19V53.172h3.873v5.022H58.4V52.857H53.37V47.832H48.033v5.025h-3.51V42.481H39.658V38.1h5.025v5.025H50.02V39.787h3.035V47.31H58.4V39.457H55.06v-4.71H58.4V10.88H39.343v.033H34.318v5.829h-4.4V10.88H10.87V33.071h3.335v3.035Zm15.7,18.949H14.205V42.7H26.572Zm8.06-11.933h4.555v4.71H34.633Zm0-10.051h4.24v4.71h-4.24Zm18.422,1.364h-2.88v-1.69H39.658V29.932h13.4ZM42.693,14.215H55.045V26.582H42.693Zm-3.335,13.5H34.633V17.3h4.71Zm-5.04,5.025h-4.38v-4.7h4.38ZM14.205,14.215H26.572V26.582H14.205ZM24.582,29.932v3.139h4.71V38.1h5.025v4.71h-4.4V39.353H16.21V38.1h8.372V32.745H16.21V29.932Z" transform="translate(-10.87 -10.88)" fill="url(#a)"/><rect width="7.327" height="7.327" transform="translate(34.336 5.863)" fill="url(#a)"/></g></g></svg>