<svg id="Layer_1" data-name="Layer 1" xmlns="http://www.w3.org/2000/svg" width="80" height="80" viewBox="0 0 80 80"><defs><style>.cls-1{fill:#1976d2;}</style></defs><title>saas</title><g id="saas"><path id="Path_159" data-name="Path 159" class="cls-1" d="M18,20.64h3V3H77v55.9H71.39v3H80V0H18Z"/><path id="Path_160" data-name="Path 160" class="cls-1" d="M64,41.8a14.15,14.15,0,0,0-9.58-3c-1-3.25-4.53-10.8-17-10.8-7,0-12.07,4.42-14.63,12.8H16.94a7,7,0,0,0-7,7v7H68.45V53.3C68.45,48.17,67,44.3,64,41.8ZM13,51.78v-4a4,4,0,0,1,4-4h8.14l.3-1.13C27.46,35,31.51,31,37.4,31c13,0,14.3,9.14,14.35,9.55l.17,1.57,1.57-.24s5.14-.75,8.58,2.2c1.94,1.67,3,4.24,3.29,7.66Z"/></g></svg>