<svg id="Layer_1" data-name="Layer 1" xmlns="http://www.w3.org/2000/svg" xmlns:xlink="http://www.w3.org/1999/xlink" viewBox="0 0 848 760"><defs><style>.cls-1{fill:none;}.cls-2{opacity:0.1;}.cls-3{fill:#0094ff;}.cls-4{fill:#2b3656;}.cls-5{fill:#fff;}.cls-6{fill:#c5cde6;}.cls-7{opacity:0.5;}.cls-8{fill:#00c6ff;}.cls-9{fill:#0067ff;}.cls-10{fill:#56cbfc;}.cls-11{fill:#25f499;}.cls-12{clip-path:url(#clip-path);}.cls-13{fill:#00c6fe;}.cls-14{fill:#01c7fd;}.cls-15{fill:#01c7fc;}.cls-16{fill:#01c8fb;}.cls-17{fill:#02c8fa;}.cls-18{fill:#02c9f9;}.cls-19{fill:#03c9f8;}.cls-20{fill:#03caf7;}.cls-21{fill:#03caf6;}.cls-22{fill:#04cbf5;}.cls-23{fill:#04cbf4;}.cls-24{fill:#04cbf3;}.cls-25{fill:#05ccf2;}.cls-26{fill:#05ccf1;}.cls-27{fill:#05cdf0;}.cls-28{fill:#06cdef;}.cls-29{fill:#06ceee;}.cls-30{fill:#07ceed;}.cls-31{fill:#07cfec;}.cls-32{fill:#07cfeb;}.cls-33{fill:#08d0ea;}.cls-34{fill:#08d0e9;}.cls-35{fill:#08d0e8;}.cls-36{fill:#09d1e7;}.cls-37{fill:#09d1e6;}.cls-38{fill:#0ad2e5;}.cls-39{fill:#0ad2e4;}.cls-40{fill:#0ad3e3;}.cls-41{fill:#0bd3e2;}.cls-42{fill:#0bd4e1;}.cls-43{fill:#0bd4e0;}.cls-44{fill:#0cd5df;}.cls-45{fill:#0cd5de;}.cls-46{fill:#0cd5dd;}.cls-47{fill:#0dd6dc;}.cls-48{fill:#0dd6db;}.cls-49{fill:#0ed7da;}.cls-50{fill:#0ed7d9;}.cls-51{fill:#0ed8d8;}.cls-52{fill:#0fd8d7;}.cls-53{fill:#0fd9d6;}.cls-54{fill:#0fd9d5;}.cls-55{fill:#10dad4;}.cls-56{fill:#10dad3;}.cls-57{fill:#10dad2;}.cls-58{fill:#11dbd1;}.cls-59{fill:#11dbd0;}.cls-60{fill:#12dccf;}.cls-61{fill:#12dcce;}.cls-62{fill:#12ddcd;}.cls-63{fill:#13ddcb;}.cls-64{fill:#13deca;}.cls-65{fill:#13dec9;}.cls-66{fill:#14dfc8;}.cls-67{fill:#14dfc7;}.cls-68{fill:#15e0c6;}.cls-69{fill:#15e0c5;}.cls-70{fill:#15e0c4;}.cls-71{fill:#16e1c3;}.cls-72{fill:#16e1c2;}.cls-73{fill:#16e2c1;}.cls-74{fill:#17e2c0;}.cls-75{fill:#17e3bf;}.cls-76{fill:#17e3be;}.cls-77{fill:#18e4bd;}.cls-78{fill:#18e4bc;}.cls-79{fill:#19e5bb;}.cls-80{fill:#19e5ba;}.cls-81{fill:#19e5b9;}.cls-82{fill:#1ae6b8;}.cls-83{fill:#1ae6b7;}.cls-84{fill:#1ae7b6;}.cls-85{fill:#1be7b5;}.cls-86{fill:#1be8b4;}.cls-87{fill:#1be8b3;}.cls-88{fill:#1ce9b2;}.cls-89{fill:#1ce9b1;}.cls-90{fill:#1deab0;}.cls-91{fill:#1deaaf;}.cls-92{fill:#1deaae;}.cls-93{fill:#1eebad;}.cls-94{fill:#1eebac;}.cls-95{fill:#1eecab;}.cls-96{fill:#1fecaa;}.cls-97{fill:#1feda9;}.cls-98{fill:#20eda8;}.cls-99{fill:#20eea7;}.cls-100{fill:#20eea6;}.cls-101{fill:#21efa5;}.cls-102{fill:#21efa4;}.cls-103{fill:#21efa3;}.cls-104{fill:#22f0a2;}.cls-105{fill:#22f0a1;}.cls-106{fill:#22f1a0;}.cls-107{fill:#23f19f;}.cls-108{fill:#23f29e;}.cls-109{fill:#24f29d;}.cls-110{fill:#24f39c;}.cls-111{fill:#24f39b;}.cls-112{fill:#25f49a;}.cls-113{clip-path:url(#clip-path-2);}.cls-114{fill:url(#linear-gradient);}.cls-115{fill:#9896f7;}.cls-116{fill:#b0d5f6;}</style><clipPath id="clip-path"><path class="cls-1" d="M695,358.86l86.3-74.22L714,365.76l69.6,24.75a7,7,0,0,0,9.23-5.61l16.94-123.18a3.37,3.37,0,0,0-4.88-3.45L653.12,336.53a3.3,3.3,0,0,0,.3,6Z"/></clipPath><clipPath id="clip-path-2"><path class="cls-1" d="M696.7,365.76,726,377.84l-19.56,20.87a4.13,4.13,0,0,1-7.13-2.47Z"/></clipPath><linearGradient id="linear-gradient" x1="83.13" y1="97.38" x2="124.55" y2="97.38" gradientUnits="userSpaceOnUse"><stop offset="0" stop-color="#deeaff"/><stop offset="1" stop-color="#a9c0ee"/></linearGradient></defs><g class="cls-2"><circle class="cls-3" cx="461.11" cy="392.51" r="280.46"/></g><polygon class="cls-4" points="303.18 388.2 461.97 231.14 619.03 388.2 575.88 488.3 405.01 512.47 325.62 458.96 303.18 388.2"/><polyline class="cls-5" points="581.06 225.65 581.06 512.47 329.07 512.47 329.07 175.91 524.2 175.91"/><path class="cls-6" d="M524.1,175.91l1.44,41.7a8.65,8.65,0,0,0,8.65,8.35h46.87"/><g class="cls-7"><rect class="cls-8" x="368.77" y="217.33" width="105.28" height="12.08" rx="6.04"/><rect class="cls-8" x="368.77" y="241.49" width="70.76" height="12.08" rx="6.04"/><rect class="cls-8" x="368.77" y="286.37" width="174.32" height="12.08" rx="6.04"/><rect class="cls-8" x="368.77" y="310.53" width="162.24" height="12.08" rx="6.04"/><rect class="cls-8" x="368.77" y="334.69" width="174.32" height="12.08" rx="6.04"/><rect class="cls-8" x="368.77" y="367.49" width="138.08" height="12.08" rx="6.04"/><rect class="cls-8" x="368.77" y="389.92" width="174.32" height="12.08" rx="6.04"/></g><path class="cls-3" d="M619,388.2V574a17.86,17.86,0,0,1-17.86,17.86H321.05A17.87,17.87,0,0,1,303.18,574V388.2L423.33,460a74.91,74.91,0,0,0,77.17-.19Z"/><path class="cls-9" d="M619,574.58a17.84,17.84,0,0,1-17.84,17.28H321.05a17.85,17.85,0,0,1-17.85-17.28L424.83,460.89a74.88,74.88,0,0,0,73.87,0Z"/><circle class="cls-8" cx="228.69" cy="107.66" r="79.39"/><path class="cls-5" d="M240.66,137.85a14.08,14.08,0,0,0,18.22-18.21Z"/><path class="cls-5" d="M196.15,75.12a31.6,31.6,0,0,1,9-6.3l-.29-.3a10.39,10.39,0,0,0-14.67,0l-.61.61a10.38,10.38,0,0,0,0,14.67l.29.29A31.58,31.58,0,0,1,196.15,75.12Z"/><path class="cls-5" d="M270,100.76,221.79,149a2.76,2.76,0,0,1-3.45.43,2.64,2.64,0,0,1-1.1-3.16c.07-.32.51-2.8-1.12-7.35-3-8.35-10.41-16.91-16.11-22.61a26.39,26.39,0,0,1,37.24-37.39l.08.07c5.7,5.71,14.25,13.13,22.61,16.12,4.54,1.62,7,1.18,7.34,1.12a2.66,2.66,0,0,1,3.17,1.1A2.78,2.78,0,0,1,270,100.76Zm-2.7-4.55Z"/><polygon class="cls-10" points="291.92 155.68 309.39 173.15 270.39 173.15 277.3 153.47 291.92 155.68"/><rect class="cls-3" x="73.63" y="172.46" width="176.05" height="115.64" rx="14.26"/><polygon class="cls-3" points="219.57 288.09 219.57 310.53 187.9 278.86 219.57 288.09"/><circle class="cls-11" cx="124.07" cy="224.23" r="12.08"/><circle class="cls-11" cx="161.66" cy="224.23" r="12.08"/><circle class="cls-11" cx="199.24" cy="224.23" r="12.08"/><g class="cls-12"><rect class="cls-8" x="650.6" y="257.02" width="0.73" height="134.97"/><rect class="cls-8" x="651.33" y="257.02" width="1.55" height="134.97"/><rect class="cls-13" x="652.88" y="257.02" width="1.55" height="134.97"/><rect class="cls-14" x="654.44" y="257.02" width="1.55" height="134.97"/><rect class="cls-15" x="655.99" y="257.02" width="1.55" height="134.97"/><rect class="cls-16" x="657.54" y="257.02" width="1.55" height="134.97"/><rect class="cls-17" x="659.1" y="257.02" width="1.55" height="134.97"/><rect class="cls-18" x="660.65" y="257.02" width="1.55" height="134.97"/><rect class="cls-19" x="662.2" y="257.02" width="1.55" height="134.97"/><rect class="cls-20" x="663.76" y="257.02" width="1.55" height="134.97"/><rect class="cls-21" x="665.31" y="257.02" width="1.55" height="134.97"/><rect class="cls-22" x="666.86" y="257.02" width="1.55" height="134.97"/><rect class="cls-23" x="668.42" y="257.02" width="1.55" height="134.97"/><rect class="cls-24" x="669.97" y="257.02" width="1.55" height="134.97"/><rect class="cls-25" x="671.52" y="257.02" width="1.55" height="134.97"/><rect class="cls-26" x="673.08" y="257.02" width="1.55" height="134.97"/><rect class="cls-27" x="674.63" y="257.02" width="1.55" height="134.97"/><rect class="cls-28" x="676.18" y="257.02" width="1.55" height="134.97"/><rect class="cls-29" x="677.74" y="257.02" width="1.55" height="134.97"/><rect class="cls-30" x="679.29" y="257.02" width="1.55" height="134.97"/><rect class="cls-31" x="680.84" y="257.02" width="1.55" height="134.97"/><rect class="cls-32" x="682.39" y="257.02" width="1.55" height="134.97"/><rect class="cls-33" x="683.95" y="257.02" width="1.55" height="134.97"/><rect class="cls-34" x="685.5" y="257.02" width="1.55" height="134.97"/><rect class="cls-35" x="687.05" y="257.02" width="1.55" height="134.97"/><rect class="cls-36" x="688.61" y="257.02" width="1.55" height="134.97"/><rect class="cls-37" x="690.16" y="257.02" width="1.55" height="134.97"/><rect class="cls-38" x="691.71" y="257.02" width="1.55" height="134.97"/><rect class="cls-39" x="693.27" y="257.02" width="1.55" height="134.97"/><rect class="cls-40" x="694.82" y="257.02" width="1.55" height="134.97"/><rect class="cls-41" x="696.37" y="257.02" width="1.55" height="134.97"/><rect class="cls-42" x="697.93" y="257.02" width="1.55" height="134.97"/><rect class="cls-43" x="699.48" y="257.02" width="1.55" height="134.97"/><rect class="cls-44" x="701.03" y="257.02" width="1.55" height="134.97"/><rect class="cls-45" x="702.59" y="257.02" width="1.55" height="134.97"/><rect class="cls-46" x="704.14" y="257.02" width="1.55" height="134.97"/><rect class="cls-47" x="705.69" y="257.02" width="1.55" height="134.97"/><rect class="cls-48" x="707.25" y="257.02" width="1.55" height="134.97"/><rect class="cls-49" x="708.8" y="257.02" width="1.55" height="134.97"/><rect class="cls-50" x="710.35" y="257.02" width="1.55" height="134.97"/><rect class="cls-51" x="711.91" y="257.02" width="1.55" height="134.97"/><rect class="cls-52" x="713.46" y="257.02" width="1.55" height="134.97"/><rect class="cls-53" x="715.01" y="257.02" width="1.55" height="134.97"/><rect class="cls-54" x="716.57" y="257.02" width="1.55" height="134.97"/><rect class="cls-55" x="718.12" y="257.02" width="1.55" height="134.97"/><rect class="cls-56" x="719.67" y="257.02" width="1.55" height="134.97"/><rect class="cls-57" x="721.23" y="257.02" width="1.55" height="134.97"/><rect class="cls-58" x="722.78" y="257.02" width="1.55" height="134.97"/><rect class="cls-59" x="724.33" y="257.02" width="1.55" height="134.97"/><rect class="cls-60" x="725.89" y="257.02" width="1.55" height="134.97"/><rect class="cls-61" x="727.44" y="257.02" width="1.55" height="134.97"/><rect class="cls-62" x="728.99" y="257.02" width="1.55" height="134.97"/><rect class="cls-63" x="730.55" y="257.02" width="1.55" height="134.97"/><rect class="cls-64" x="732.1" y="257.02" width="1.55" height="134.97"/><rect class="cls-65" x="733.65" y="257.02" width="1.55" height="134.97"/><rect class="cls-66" x="735.21" y="257.02" width="1.55" height="134.97"/><rect class="cls-67" x="736.76" y="257.02" width="1.55" height="134.97"/><rect class="cls-68" x="738.31" y="257.02" width="1.55" height="134.97"/><rect class="cls-69" x="739.86" y="257.02" width="1.55" height="134.97"/><rect class="cls-70" x="741.42" y="257.02" width="1.55" height="134.97"/><rect class="cls-71" x="742.97" y="257.02" width="1.55" height="134.97"/><rect class="cls-72" x="744.52" y="257.02" width="1.55" height="134.97"/><rect class="cls-73" x="746.08" y="257.02" width="1.55" height="134.97"/><rect class="cls-74" x="747.63" y="257.02" width="1.55" height="134.97"/><rect class="cls-75" x="749.18" y="257.02" width="1.55" height="134.97"/><rect class="cls-76" x="750.74" y="257.02" width="1.55" height="134.97"/><rect class="cls-77" x="752.29" y="257.02" width="1.55" height="134.97"/><rect class="cls-78" x="753.84" y="257.02" width="1.55" height="134.97"/><rect class="cls-79" x="755.4" y="257.02" width="1.55" height="134.97"/><rect class="cls-80" x="756.95" y="257.02" width="1.55" height="134.97"/><rect class="cls-81" x="758.5" y="257.02" width="1.55" height="134.97"/><rect class="cls-82" x="760.06" y="257.02" width="1.55" height="134.97"/><rect class="cls-83" x="761.61" y="257.02" width="1.55" height="134.97"/><rect class="cls-84" x="763.16" y="257.02" width="1.55" height="134.97"/><rect class="cls-85" x="764.72" y="257.02" width="1.55" height="134.97"/><rect class="cls-86" x="766.27" y="257.02" width="1.55" height="134.97"/><rect class="cls-87" x="767.82" y="257.02" width="1.55" height="134.97"/><rect class="cls-88" x="769.38" y="257.02" width="1.55" height="134.97"/><rect class="cls-89" x="770.93" y="257.02" width="1.55" height="134.97"/><rect class="cls-90" x="772.48" y="257.02" width="1.55" height="134.97"/><rect class="cls-91" x="774.04" y="257.02" width="1.55" height="134.97"/><rect class="cls-92" x="775.59" y="257.02" width="1.55" height="134.97"/><rect class="cls-93" x="777.14" y="257.02" width="1.55" height="134.97"/><rect class="cls-94" x="778.7" y="257.02" width="1.55" height="134.97"/><rect class="cls-95" x="780.25" y="257.02" width="1.55" height="134.97"/><rect class="cls-96" x="781.8" y="257.02" width="1.55" height="134.97"/><rect class="cls-97" x="783.36" y="257.02" width="1.55" height="134.97"/><rect class="cls-98" x="784.91" y="257.02" width="1.55" height="134.97"/><rect class="cls-99" x="786.46" y="257.02" width="1.55" height="134.97"/><rect class="cls-100" x="788.02" y="257.02" width="1.55" height="134.97"/><rect class="cls-101" x="789.57" y="257.02" width="1.55" height="134.97"/><rect class="cls-102" x="791.12" y="257.02" width="1.55" height="134.97"/><rect class="cls-103" x="792.68" y="257.02" width="1.55" height="134.97"/><rect class="cls-104" x="794.23" y="257.02" width="1.55" height="134.97"/><rect class="cls-105" x="795.78" y="257.02" width="1.55" height="134.97"/><rect class="cls-106" x="797.34" y="257.02" width="1.55" height="134.97"/><rect class="cls-107" x="798.89" y="257.02" width="1.55" height="134.97"/><rect class="cls-108" x="800.44" y="257.02" width="1.55" height="134.97"/><rect class="cls-109" x="801.99" y="257.02" width="1.55" height="134.97"/><rect class="cls-110" x="803.55" y="257.02" width="1.55" height="134.97"/><rect class="cls-111" x="805.1" y="257.02" width="1.55" height="134.97"/><rect class="cls-112" x="806.65" y="257.02" width="1.55" height="134.97"/><rect class="cls-11" x="808.21" y="257.02" width="1.55" height="134.97"/><rect class="cls-11" x="809.76" y="257.02" width="0.34" height="134.97"/></g><g class="cls-113"><rect class="cls-8" x="696.7" y="365.76" width="0.29" height="35.55"/><rect class="cls-13" x="696.99" y="365.76" width="0.29" height="35.55"/><rect class="cls-14" x="697.27" y="365.76" width="0.29" height="35.55"/><rect class="cls-15" x="697.56" y="365.76" width="0.29" height="35.55"/><rect class="cls-16" x="697.85" y="365.76" width="0.29" height="35.55"/><rect class="cls-17" x="698.14" y="365.76" width="0.29" height="35.55"/><rect class="cls-18" x="698.42" y="365.76" width="0.29" height="35.55"/><rect class="cls-19" x="698.71" y="365.76" width="0.29" height="35.55"/><rect class="cls-20" x="699" y="365.76" width="0.29" height="35.55"/><rect class="cls-21" x="699.29" y="365.76" width="0.29" height="35.55"/><rect class="cls-22" x="699.57" y="365.76" width="0.29" height="35.55"/><rect class="cls-23" x="699.86" y="365.76" width="0.29" height="35.55"/><rect class="cls-24" x="700.15" y="365.76" width="0.29" height="35.55"/><rect class="cls-25" x="700.44" y="365.76" width="0.29" height="35.55"/><rect class="cls-26" x="700.73" y="365.76" width="0.29" height="35.55"/><rect class="cls-27" x="701.01" y="365.76" width="0.29" height="35.55"/><rect class="cls-28" x="701.3" y="365.76" width="0.29" height="35.55"/><rect class="cls-29" x="701.59" y="365.76" width="0.29" height="35.55"/><rect class="cls-30" x="701.88" y="365.76" width="0.29" height="35.55"/><rect class="cls-31" x="702.16" y="365.76" width="0.29" height="35.55"/><rect class="cls-32" x="702.45" y="365.76" width="0.29" height="35.55"/><rect class="cls-33" x="702.74" y="365.76" width="0.29" height="35.55"/><rect class="cls-34" x="703.03" y="365.76" width="0.29" height="35.55"/><rect class="cls-35" x="703.31" y="365.76" width="0.29" height="35.55"/><rect class="cls-36" x="703.6" y="365.76" width="0.29" height="35.55"/><rect class="cls-37" x="703.89" y="365.76" width="0.29" height="35.55"/><rect class="cls-38" x="704.18" y="365.76" width="0.29" height="35.55"/><rect class="cls-39" x="704.46" y="365.76" width="0.29" height="35.55"/><rect class="cls-40" x="704.75" y="365.76" width="0.29" height="35.55"/><rect class="cls-41" x="705.04" y="365.76" width="0.29" height="35.55"/><rect class="cls-42" x="705.33" y="365.76" width="0.29" height="35.55"/><rect class="cls-43" x="705.62" y="365.76" width="0.29" height="35.55"/><rect class="cls-44" x="705.9" y="365.76" width="0.29" height="35.55"/><rect class="cls-45" x="706.19" y="365.76" width="0.29" height="35.55"/><rect class="cls-46" x="706.48" y="365.76" width="0.29" height="35.55"/><rect class="cls-47" x="706.77" y="365.76" width="0.29" height="35.55"/><rect class="cls-48" x="707.05" y="365.76" width="0.29" height="35.55"/><rect class="cls-49" x="707.34" y="365.76" width="0.29" height="35.55"/><rect class="cls-50" x="707.63" y="365.76" width="0.29" height="35.55"/><rect class="cls-51" x="707.92" y="365.76" width="0.29" height="35.55"/><rect class="cls-52" x="708.2" y="365.76" width="0.29" height="35.55"/><rect class="cls-53" x="708.49" y="365.76" width="0.29" height="35.55"/><rect class="cls-54" x="708.78" y="365.76" width="0.29" height="35.55"/><rect class="cls-55" x="709.07" y="365.76" width="0.29" height="35.55"/><rect class="cls-56" x="709.36" y="365.76" width="0.29" height="35.55"/><rect class="cls-57" x="709.64" y="365.76" width="0.29" height="35.55"/><rect class="cls-58" x="709.93" y="365.76" width="0.29" height="35.55"/><rect class="cls-59" x="710.22" y="365.76" width="0.29" height="35.55"/><rect class="cls-60" x="710.51" y="365.76" width="0.29" height="35.55"/><rect class="cls-61" x="710.79" y="365.76" width="0.29" height="35.55"/><rect class="cls-62" x="711.08" y="365.76" width="0.29" height="35.55"/><rect class="cls-63" x="711.37" y="365.76" width="0.29" height="35.55"/><rect class="cls-64" x="711.66" y="365.76" width="0.29" height="35.55"/><rect class="cls-65" x="711.94" y="365.76" width="0.29" height="35.55"/><rect class="cls-66" x="712.23" y="365.76" width="0.29" height="35.55"/><rect class="cls-67" x="712.52" y="365.76" width="0.29" height="35.55"/><rect class="cls-68" x="712.81" y="365.76" width="0.29" height="35.55"/><rect class="cls-69" x="713.09" y="365.76" width="0.29" height="35.55"/><rect class="cls-70" x="713.38" y="365.76" width="0.29" height="35.55"/><rect class="cls-71" x="713.67" y="365.76" width="0.29" height="35.55"/><rect class="cls-72" x="713.96" y="365.76" width="0.29" height="35.55"/><rect class="cls-73" x="714.25" y="365.76" width="0.29" height="35.55"/><rect class="cls-74" x="714.53" y="365.76" width="0.29" height="35.55"/><rect class="cls-75" x="714.82" y="365.76" width="0.29" height="35.55"/><rect class="cls-76" x="715.11" y="365.76" width="0.29" height="35.55"/><rect class="cls-77" x="715.4" y="365.76" width="0.29" height="35.55"/><rect class="cls-78" x="715.68" y="365.76" width="0.29" height="35.55"/><rect class="cls-79" x="715.97" y="365.76" width="0.29" height="35.55"/><rect class="cls-80" x="716.26" y="365.76" width="0.29" height="35.55"/><rect class="cls-81" x="716.55" y="365.76" width="0.29" height="35.55"/><rect class="cls-82" x="716.83" y="365.76" width="0.29" height="35.55"/><rect class="cls-83" x="717.12" y="365.76" width="0.29" height="35.55"/><rect class="cls-84" x="717.41" y="365.76" width="0.29" height="35.55"/><rect class="cls-85" x="717.7" y="365.76" width="0.29" height="35.55"/><rect class="cls-86" x="717.98" y="365.76" width="0.29" height="35.55"/><rect class="cls-87" x="718.27" y="365.76" width="0.29" height="35.55"/><rect class="cls-88" x="718.56" y="365.76" width="0.29" height="35.55"/><rect class="cls-89" x="718.85" y="365.76" width="0.29" height="35.55"/><rect class="cls-90" x="719.14" y="365.76" width="0.29" height="35.55"/><rect class="cls-91" x="719.42" y="365.76" width="0.29" height="35.55"/><rect class="cls-92" x="719.71" y="365.76" width="0.29" height="35.55"/><rect class="cls-93" x="720" y="365.76" width="0.29" height="35.55"/><rect class="cls-94" x="720.29" y="365.76" width="0.29" height="35.55"/><rect class="cls-95" x="720.57" y="365.76" width="0.29" height="35.55"/><rect class="cls-96" x="720.86" y="365.76" width="0.29" height="35.55"/><rect class="cls-97" x="721.15" y="365.76" width="0.29" height="35.55"/><rect class="cls-98" x="721.44" y="365.76" width="0.29" height="35.55"/><rect class="cls-99" x="721.72" y="365.76" width="0.29" height="35.55"/><rect class="cls-100" x="722.01" y="365.76" width="0.29" height="35.55"/><rect class="cls-101" x="722.3" y="365.76" width="0.29" height="35.55"/><rect class="cls-102" x="722.59" y="365.76" width="0.29" height="35.55"/><rect class="cls-103" x="722.87" y="365.76" width="0.29" height="35.55"/><rect class="cls-104" x="723.16" y="365.76" width="0.29" height="35.55"/><rect class="cls-105" x="723.45" y="365.76" width="0.29" height="35.55"/><rect class="cls-106" x="723.74" y="365.76" width="0.29" height="35.55"/><rect class="cls-107" x="724.03" y="365.76" width="0.29" height="35.55"/><rect class="cls-108" x="724.31" y="365.76" width="0.29" height="35.55"/><rect class="cls-109" x="724.6" y="365.76" width="0.29" height="35.55"/><rect class="cls-110" x="724.89" y="365.76" width="0.29" height="35.55"/><rect class="cls-111" x="725.18" y="365.76" width="0.29" height="35.55"/><rect class="cls-112" x="725.46" y="365.76" width="0.29" height="35.55"/><rect class="cls-11" x="725.75" y="365.76" width="0.29" height="35.55"/></g><path class="cls-3" d="M810.61,446.88a8.83,8.83,0,0,1-2.82-.47l-44.88-15.54a8.63,8.63,0,0,1,5.65-16.31l34.61,12,12.67-120.36A8.63,8.63,0,1,1,833,308L819.19,439.15a8.63,8.63,0,0,1-8.58,7.73Z"/><path class="cls-11" d="M387.22,740.93a13.38,13.38,0,0,1-1.54-.09c-94.53-11.28-157.25-61.46-193.23-101.58-38.87-43.34-55.38-83.79-56.06-85.5a12.94,12.94,0,0,1,24-9.66c.28.7,16,38.74,52,78.59,47.91,53.09,107.25,84.19,176.38,92.44a12.95,12.95,0,0,1-1.52,25.8Z"/><circle class="cls-114" cx="103.84" cy="97.38" r="20.71"/><circle class="cls-4" cx="625.93" cy="32.65" r="13.81"/><path class="cls-115" d="M28.76,440a19,19,0,1,0,19,19A19,19,0,0,0,28.76,440Zm0,29.34A10.36,10.36,0,1,1,39.12,459,10.37,10.37,0,0,1,28.76,469.32Z"/><path class="cls-77" d="M420.55,24A22.44,22.44,0,1,0,443,46.46,22.42,22.42,0,0,0,420.55,24Zm0,34.67a12.24,12.24,0,1,1,12.24-12.24A12.25,12.25,0,0,1,420.55,58.7Z"/><path class="cls-11" d="M807.16,591.86a31.07,31.07,0,1,0,31.07,31.07A31.05,31.05,0,0,0,807.16,591.86Zm0,48a16.95,16.95,0,1,1,16.94-16.94A17,17,0,0,1,807.16,639.87Z"/><path class="cls-116" d="M137.49,741.15a2.59,2.59,0,0,1-1.83-4.42L151.2,721.2a2.59,2.59,0,1,1,3.66,3.66l-15.54,15.53A2.54,2.54,0,0,1,137.49,741.15Z"/><path class="cls-116" d="M153,741.15a2.56,2.56,0,0,1-1.83-.76l-15.54-15.53a2.59,2.59,0,1,1,3.66-3.66l15.54,15.53a2.59,2.59,0,0,1-1.83,4.42Z"/><path class="cls-11" d="M783.69,203.08a4.31,4.31,0,0,1-3.05-1.26L758.2,179.38a4.32,4.32,0,1,1,6.11-6.1l22.43,22.44a4.31,4.31,0,0,1-3,7.36Z"/><path class="cls-11" d="M761.25,203.08a4.31,4.31,0,0,1-3-7.36l22.44-22.44a4.31,4.31,0,1,1,6.1,6.1l-22.43,22.44A4.33,4.33,0,0,1,761.25,203.08Z"/></svg>