<svg id="settlement-step-1" xmlns="http://www.w3.org/2000/svg" xmlns:xlink="http://www.w3.org/1999/xlink" width="400" height="227" viewBox="0 0 400 227">
  <defs>
    <linearGradient id="linear-gradient" x1="2.292" y1="-1.501" x2="-0.21" y2="1.293" gradientUnits="objectBoundingBox">
      <stop offset="0" stop-color="#fff"/>
      <stop offset="0.069" stop-color="#fff" stop-opacity="0.882"/>
      <stop offset="0.214" stop-color="#fff" stop-opacity="0.651"/>
      <stop offset="0.358" stop-color="#fff" stop-opacity="0.451"/>
      <stop offset="0.5" stop-color="#fff" stop-opacity="0.29"/>
      <stop offset="0.637" stop-color="#fff" stop-opacity="0.165"/>
      <stop offset="0.768" stop-color="#fff" stop-opacity="0.075"/>
      <stop offset="0.892" stop-color="#fff" stop-opacity="0.02"/>
      <stop offset="1" stop-color="#fff" stop-opacity="0"/>
    </linearGradient>
    <linearGradient id="linear-gradient-2" x1="-0.527" y1="4.652" x2="0.96" y2="-1.361" gradientUnits="objectBoundingBox">
      <stop offset="0" stop-color="#fff"/>
      <stop offset="0.123" stop-color="#fff" stop-opacity="0.769"/>
      <stop offset="0.246" stop-color="#fff" stop-opacity="0.569"/>
      <stop offset="0.372" stop-color="#fff" stop-opacity="0.392"/>
      <stop offset="0.497" stop-color="#fff" stop-opacity="0.251"/>
      <stop offset="0.623" stop-color="#fff" stop-opacity="0.141"/>
      <stop offset="0.748" stop-color="#fff" stop-opacity="0.063"/>
      <stop offset="0.874" stop-color="#fff" stop-opacity="0.016"/>
      <stop offset="1" stop-color="#fff" stop-opacity="0"/>
    </linearGradient>
  </defs>
  <rect id="Rectangle_394" data-name="Rectangle 394" width="400" height="227" fill="#374fc1"/>
  <path id="Path_663" data-name="Path 663" d="M475.566,734.191H408.475a17.025,17.025,0,0,1-17.026-17.025v-81.14A17.026,17.026,0,0,1,408.475,619h81.14a17.026,17.026,0,0,1,17.026,17.026v117.7C506.641,763.126,484.97,734.191,475.566,734.191Z" transform="translate(-338.436 -593.303)" fill="#fff" opacity="0.1"/>
  <rect id="Rectangle_395" data-name="Rectangle 395" width="78.667" height="78.667" rx="8.34" transform="translate(71.275 43.959)" fill="#fff" stroke="#3045a8" stroke-miterlimit="10" stroke-width="2"/>
  <path id="Path_664" data-name="Path 664" d="M514.751,804.394H344V753H447.5A69.7,69.7,0,0,1,514.751,804.394Z" transform="translate(-344 -577.59)" fill="url(#linear-gradient)"/>
  <path id="Path_665" data-name="Path 665" d="M723.326,596v50.277H585.188c-29.674,0-55.014-20.877-65.058-50.277Z" transform="translate(-323.347 -596)" fill="url(#linear-gradient-2)"/>
  <g id="Group_575" data-name="Group 575" transform="translate(196.638 39.021)">
    <g id="Phone" transform="translate(14.188)">
      <rect id="Rectangle_396" data-name="Rectangle 396" width="77.216" height="139.418" rx="8.85" fill="#0d132e"/>
      <rect id="Rectangle_397" data-name="Rectangle 397" width="72.926" height="122.259" rx="6" transform="translate(2.145 8.58)" fill="#1cd699"/>
      <path id="Path_666" data-name="Path 666" d="M575.448,636.187H560.863a1.287,1.287,0,0,1-1.287-1.287h0a1.287,1.287,0,0,1,1.287-1.287h14.585a1.287,1.287,0,0,1,1.287,1.287h0A1.287,1.287,0,0,1,575.448,636.187Z" transform="translate(-529.547 -630.61)" fill="#222f69"/>
      <path id="Path_667" data-name="Path 667" d="M558.31,634.9a1.287,1.287,0,1,0-1.287,1.287A1.287,1.287,0,0,0,558.31,634.9Z" transform="translate(-529.998 -630.61)" fill="#222f69"/>
      <path id="Path_668" data-name="Path 668" d="M579.044,634.9a1.287,1.287,0,1,0-1.287,1.287A1.287,1.287,0,0,0,579.044,634.9Z" transform="translate(-527.566 -630.61)" fill="#222f69"/>
      <rect id="Rectangle_398" data-name="Rectangle 398" width="17.159" height="4.29" rx="1.841" transform="translate(30.029 132.984)" fill="#222f69"/>
    </g>
    <g id="Check_mark" data-name="Check mark" transform="translate(29.631 46.544)">
      <circle id="Frame" cx="23.165" cy="23.165" r="23.165" fill="#16a677"/>
      <path id="Check_mark-2" data-name="Check mark" d="M583.754,686.983l-18.088,18.093-9.559-9.559,2.735-4.094,6.824,6.829L581.023,682.9Z" transform="translate(-545.397 -671.376)" fill="#fff"/>
    </g>
    <g id="Hand" transform="translate(0 38.089)">
      <g id="Shadow" transform="translate(14.188 31.745)">
        <path id="Path_669" data-name="Path 669" d="M536.844,715.495a11.851,11.851,0,0,0,3.381-8.53c0-4.094-2.81-8.394-5.606-11.915v51.959a6.139,6.139,0,0,0,3.357-2.1c2.208-2.717,1.954-6.945,1.48-9.651,2.276-2.414,3.258-4.618,3.258-7.251C542.715,723.712,540.842,719.7,536.844,715.495Z" transform="translate(-532.474 -693.24)" fill="#18b582"/>
        <path id="Path_670" data-name="Path 670" d="M533.468,693.553l-.535-.087c-.016,0-.1-.017-.234-.036v54.029a8.671,8.671,0,0,0,2.145-.26V695.239c-.345-.435-.692-.86-1.031-1.269Z" transform="translate(-532.699 -693.43)" fill="#334357"/>
      </g>
      <g id="Hand-2" data-name="Hand">
        <g id="Group_573" data-name="Group 573">
          <path id="Path_671" data-name="Path 671" d="M635.778,789.795l-52.353,7.582s-9.653-13.856-13.832-17.645c-4.162-3.772-9.564-8.069-14.921-13.386h47.079a9.652,9.652,0,0,0,9.652-9.652V680.937c0-4.221,2.6-8.473,6.718-8.473,5,0,5.58,6.468,5.58,9.335,0,18.344,8.885,38.759,8.885,45.875,0,12.119-6.7,22.92-6.7,38.826C625.885,774.511,628.421,776.27,635.778,789.795ZM536.324,716.41c2.826-1.447,4.167-5.288,4.167-8.337,0-4.392-3.885-9.346-6.3-12.26V666.606a16.141,16.141,0,0,0-5.727-1.589c-2.95,0-5.4,3.309-5.4,6.582a5.956,5.956,0,0,0,.378,2.122c2.213,5.809,7.039,9.76,10.26,12.951-6.893,1.917-13.7,6.819-13.7,14.091,0,4.682,4.883,10.416,4.883,10.416-2.326.921-4.791,3.054-4.791,7.809a13.919,13.919,0,0,0,4.877,10.493c-1.837.953-3.167,3.538-3.167,6.582,0,3.876,6.8,10.866,12.386,10.866,6.964,0,6.059-7.966,5.418-11.032,2.378-2.352,3.375-4.315,3.375-6.78C542.981,724.633,540.641,720.567,536.324,716.41Z" transform="translate(-520 -665.017)" fill="#fff"/>
          <g id="Group_572" data-name="Group 572" transform="translate(4.543 9.884)">
            <path id="Path_672" data-name="Path 672" d="M613.867,688.143a67.852,67.852,0,0,1-.432-7.382,14.931,14.931,0,0,0-1.375-6.731c-2.114-.61-4.611.458-4.5,3.238C607.908,685.62,609.415,687.88,613.867,688.143Z" transform="translate(-514.276 -673.863)" fill="#d5d6e9"/>
            <path id="Path_673" data-name="Path 673" d="M528.768,709.35c2.565,1.932,4.669-2.122,5.938-5.476.911-2.41-5.19-8.568-8.66-5.754-1.312,1.064-2.584,4.781-1.67,6.514A15.832,15.832,0,0,0,528.768,709.35Z" transform="translate(-524.067 -671.103)" fill="#d5d6e9"/>
            <path id="Path_674" data-name="Path 674" d="M530.465,726.419c2.679,1.655,5.3-2.368,5.3-5.885,0-2.567-5.844-7.9-8.978-4.833-1.184,1.158-2.089,4.9-1.04,6.511A15.524,15.524,0,0,0,530.465,726.419Z" transform="translate(-523.924 -669.066)" fill="#d5d6e9"/>
            <path id="Path_675" data-name="Path 675" d="M528.031,725.741c-3.364.552-3.341,6.155-2.453,7.349a11.657,11.657,0,0,0,4.053,3.1c2.666,1.331,4.124-5.408,3.936-6.828A16.685,16.685,0,0,1,528.031,725.741Z" transform="translate(-523.949 -667.78)" fill="#d5d6e9"/>
          </g>
          <path id="Path_676" data-name="Path 676" d="M530.107,665.478a28.2,28.2,0,0,1,2.9,1.074v29.207l-1.985-3.108a5.792,5.792,0,0,1-.911-3.117V687.4c.8-.294,1.6-.554,2.409-.779-.735-.728-1.556-1.5-2.409-2.321Zm39.8,115.724c18.995-16.352,40.31-1.957,40.31-24.562a9.652,9.652,0,0,1-9.652,9.652H553.488c5.357,5.317,10.759,9.614,14.921,13.386C568.852,780.08,569.361,780.6,569.909,781.2Z" transform="translate(-518.815 -664.963)" fill="#d5d6e9"/>
        </g>
        <g id="Group_574" data-name="Group 574" transform="translate(52.893 104.208)">
          <path id="Path_677" data-name="Path 677" d="M576.732,803.774h67.907l-17.359-41.91a5.793,5.793,0,0,0-7.567-3.134l-47.261,19.577a5.791,5.791,0,0,0-3.135,7.566Z" transform="translate(-567.162 -758.288)" fill="#f4e5f0"/>
          <path id="Path_678" data-name="Path 678" d="M571.044,803.206H652.01l-15.118-36.5a5.791,5.791,0,0,0-7.566-3.134l-58.408,24.193a5.791,5.791,0,0,0-3.134,7.567Z" transform="translate(-567.342 -757.72)" fill="#140f4b"/>
          <path id="Path_679" data-name="Path 679" d="M580.623,791.717a4.344,4.344,0,1,1-4.5-4.176A4.345,4.345,0,0,1,580.623,791.717Z" transform="translate(-566.803 -754.859)" fill="none" stroke="#fff" stroke-miterlimit="10" stroke-width="1"/>
        </g>
      </g>
    </g>
  </g>
  <path id="Path_680" data-name="Path 680" d="M472.063,667.4l-8.436,8.438-5.449-5.45v20.6H433.343v-20.6l-5.449,5.45-8.436-8.438,13.4-13.4h5.776c0,6.452,7.127,7.682,7.127,7.682s7.127-1.23,7.127-7.682h5.776Z" transform="translate(-335.152 -589.199)" fill="#42b7f1" stroke="#3aa0d4" stroke-miterlimit="10" stroke-width="2"/>
</svg>
