<svg xmlns="http://www.w3.org/2000/svg" xmlns:xlink="http://www.w3.org/1999/xlink" width="50" height="50" viewBox="0 0 50 50">
  <defs>
    <linearGradient id="linear-gradient" x1="0.5" x2="0.5" y2="1" gradientUnits="objectBoundingBox">
      <stop offset="0" stop-color="#3cd3ad"/>
      <stop offset="1" stop-color="#228b97"/>
    </linearGradient>
  </defs>
  <g id="settlement" transform="translate(-7730 -670)">
    <circle id="Ellipse_26" data-name="Ellipse 26" cx="25" cy="25" r="25" transform="translate(7730 670)" fill="url(#linear-gradient)"/>
    <g id="Group_149" data-name="Group 149" transform="translate(-30.88 -52.578)">
      <path id="Path_50" data-name="Path 50" d="M1699.559,298h-6.8a.78.78,0,0,0-.78.78v.017a.779.779,0,0,0,.78.779h2.076a2.1,2.1,0,0,1,.964.274,1.9,1.9,0,0,1,.741.8,2.309,2.309,0,0,1,.146.381h-3.927a.779.779,0,1,0,0,1.559h3.945a2.294,2.294,0,0,1-.168.45,1.925,1.925,0,0,1-.745.8,2.137,2.137,0,0,1-1.105.283h-1.927a.78.78,0,0,0-.78.78v.017a.779.779,0,0,0,.78.779h1.773c.095,0,.184-.009.275-.013l2.423,4.366a.779.779,0,0,0,.681.4h.266a.779.779,0,0,0,.676-1.168l-2.3-3.992c.031-.014.064-.024.094-.038a3.313,3.313,0,0,0,1.9-2.664h1.014a.779.779,0,1,0,0-1.559h-1.1a3.9,3.9,0,0,0-.317-.908,3.42,3.42,0,0,0-.35-.548h1.763a.779.779,0,0,0,.78-.779v-.017A.78.78,0,0,0,1699.559,298Z" transform="translate(6089.978 444.362)" fill="#fff"/>
      <path id="Path_51" data-name="Path 51" d="M1686.176,270.555l.654-.654a1.542,1.542,0,1,0-2.181-2.181l-.837.837a12.179,12.179,0,0,0-5.126-1.875V263.37a1.542,1.542,0,0,0-3.084,0v3.312a12.257,12.257,0,1,0,10.574,3.873Zm-9.032,17.457a9.173,9.173,0,1,1,9.173-9.173A9.183,9.183,0,0,1,1677.144,288.012Z" transform="translate(6108.993 469.75)" fill="#fff"/>
    </g>
  </g>
</svg>
