<svg xmlns="http://www.w3.org/2000/svg" width="334.29" height="564.73" viewBox="0 0 334.29 564.73"><defs><style>.cls-1{fill:#374fc1;}.cls-2{fill:#4b67eb;}.cls-3{fill:#fff;}.cls-4{fill:#f2f5ff;}.cls-5{fill:#0767f6;}.cls-6{isolation:isolate;}.cls-7{fill:#183963;}.cls-8{fill:#152e4d;}.cls-9{fill:#22ab73;fill-rule:evenodd;}.cls-10{fill:#475993;}.cls-11{fill:#eceff1;}.cls-12{fill:#cfd8dc;}.cls-13{fill:#f44336;}.cls-14{fill:#2988ec;}.cls-15{fill:#f0f6ff;}</style></defs><g id="Layer_2" data-name="Layer 2"><g id="Layer_1-2" data-name="Layer 1"><rect class="cls-1" width="334.29" height="564.73" rx="26.82"/><circle class="cls-2" cx="167.15" cy="525.59" r="21.78"/><path class="cls-2" d="M127.15,21.73h80a6.51,6.51,0,0,1,6.5,6.5h0a6.51,6.51,0,0,1-6.5,6.5h-80a6.5,6.5,0,0,1-6.5-6.5h0A6.5,6.5,0,0,1,127.15,21.73Z"/><circle class="cls-2" cx="102.01" cy="28.23" r="6.14"/><rect class="cls-3" x="22.15" y="45.86" width="290" height="448" rx="8.32"/><rect class="cls-4" x="46.65" y="107.86" width="195" height="44" rx="8.92"/><path class="cls-5" d="M232.72,152.36H55.57a9.42,9.42,0,0,1-9.42-9.42V116.79a9.43,9.43,0,0,1,9.42-9.43H232.72a9.44,9.44,0,0,1,9.43,9.43v26.15A9.43,9.43,0,0,1,232.72,152.36Zm-177.15-44a8.43,8.43,0,0,0-8.42,8.43v26.15a8.42,8.42,0,0,0,8.42,8.42H232.72a8.43,8.43,0,0,0,8.43-8.42V116.79a8.44,8.44,0,0,0-8.43-8.43Z"/><g class="cls-6"><path class="cls-7" d="M48.13,84.14h5.94a5.1,5.1,0,0,1,3.44,1.07,4.06,4.06,0,0,1,0,5.83,5.06,5.06,0,0,1-3.43,1.08H50.61v5.71H48.13Zm5.65,6.06a3.08,3.08,0,0,0,1.95-.53,1.85,1.85,0,0,0,.67-1.53,1.88,1.88,0,0,0-.66-1.55,3.08,3.08,0,0,0-2-.52H50.61V90.2Z"/><path class="cls-7" d="M68.56,94.62H61.87l-1.38,3.21H58l6.19-13.69h2l6.21,13.69H69.93Zm-.83-1.92-2.51-5.87L62.7,92.7Z"/><path class="cls-7" d="M78.1,92.41v5.42H75.62V92.41l-5.56-8.27h2.83l4,6.19,4-6.19h2.83Z"/><path class="cls-7" d="M97.72,84.14V97.83H95.53v-8.5l-3.63,8.5H90.26l-3.65-8.4v8.4H84.42V84.14h2l4.71,10.71,4.67-10.71Z"/><path class="cls-7" d="M100.72,84.14h9.15v2h-6.73v3.79h6.32v2h-6.32v4h6.73v2h-9.15Z"/><path class="cls-7" d="M123.69,84.14V97.83h-1.85l-7.38-9.59v9.59h-2.31V84.14H114l7.36,9.58V84.14Z"/><path class="cls-7" d="M129.88,86.18h-4.46v-2h11.43v2h-4.47V97.83h-2.5Z"/><path class="cls-7" d="M143.83,84.14h2.48V95.79h6.4v2h-8.88Z"/><path class="cls-7" d="M154.6,84.14h2.47V97.83H154.6Z"/><path class="cls-7" d="M171.57,84.14V97.83h-1.85l-7.38-9.59v9.59H160V84.14h1.85l7.36,9.58V84.14Z"/><path class="cls-7" d="M183.39,97.83,177,91.43v6.4h-2.48V84.14H177v6.14l6.11-6.14h3l-6.65,6.58,6.95,7.11Z"/></g><rect class="cls-3" x="260.85" y="114.01" width="20.94" height="24.25" rx="2.77"/><path class="cls-5" d="M279,139.27H263.63a3.79,3.79,0,0,1-3.78-3.78v-18.7a3.79,3.79,0,0,1,3.78-3.78H279a3.78,3.78,0,0,1,3.78,3.78v18.7A3.78,3.78,0,0,1,279,139.27ZM263.63,115a1.78,1.78,0,0,0-1.78,1.78v18.7a1.78,1.78,0,0,0,1.78,1.78H279a1.78,1.78,0,0,0,1.78-1.78v-18.7A1.78,1.78,0,0,0,279,115Z"/><rect class="cls-3" x="256.51" y="109.61" width="20.94" height="24.25" rx="2.77"/><path class="cls-5" d="M274.68,134.87H259.29a3.78,3.78,0,0,1-3.78-3.78v-18.7a3.78,3.78,0,0,1,3.78-3.78h15.39a3.79,3.79,0,0,1,3.78,3.78v18.7A3.79,3.79,0,0,1,274.68,134.87Zm-15.39-24.26a1.78,1.78,0,0,0-1.78,1.78v18.7a1.78,1.78,0,0,0,1.78,1.78h15.39a1.78,1.78,0,0,0,1.78-1.78v-18.7a1.78,1.78,0,0,0-1.78-1.78Z"/><path class="cls-5" d="M257.86,151.29a2.76,2.76,0,0,1-1.1-1.17,4.19,4.19,0,0,1,0-3.53,2.68,2.68,0,0,1,1.1-1.16,3.37,3.37,0,0,1,1.68-.41,3.63,3.63,0,0,1,1.24.21,2.41,2.41,0,0,1,1,.57l-.38.86a3.13,3.13,0,0,0-.88-.52,2.51,2.51,0,0,0-.92-.16,1.82,1.82,0,0,0-1.46.61,2.64,2.64,0,0,0-.52,1.76,2.71,2.71,0,0,0,.51,1.77,1.8,1.8,0,0,0,1.47.62,2.51,2.51,0,0,0,.92-.16,3.13,3.13,0,0,0,.88-.52l.38.86a2.41,2.41,0,0,1-1,.57,3.63,3.63,0,0,1-1.24.21A3.37,3.37,0,0,1,257.86,151.29Z"/><path class="cls-5" d="M264,151.29a2.82,2.82,0,0,1-1.08-1.16,4,4,0,0,1-.38-1.78,3.91,3.91,0,0,1,.38-1.77,2.73,2.73,0,0,1,1.07-1.16,3.62,3.62,0,0,1,3.31,0,2.73,2.73,0,0,1,1.07,1.16,4.05,4.05,0,0,1,.37,1.77,4,4,0,0,1-.38,1.78,2.73,2.73,0,0,1-1.07,1.16,3.2,3.2,0,0,1-1.65.41A3.25,3.25,0,0,1,264,151.29Zm3-1.16a3.34,3.34,0,0,0,0-3.55,1.71,1.71,0,0,0-1.41-.62,1.74,1.74,0,0,0-1.41.62,2.75,2.75,0,0,0-.5,1.77,2.78,2.78,0,0,0,.5,1.78,1.71,1.71,0,0,0,1.41.63A1.69,1.69,0,0,0,267,150.13Z"/><path class="cls-5" d="M269.91,145.1h2.83a2.42,2.42,0,0,1,1.64.51,1.94,1.94,0,0,1,0,2.78,2.39,2.39,0,0,1-1.63.51h-1.65v2.72h-1.18ZM272.6,148a1.45,1.45,0,0,0,.93-.25.86.86,0,0,0,.32-.72.91.91,0,0,0-.31-.74,1.47,1.47,0,0,0-.94-.25h-1.51v2Z"/><path class="cls-5" d="M278.75,149v2.58h-1.18V149l-2.64-3.94h1.34l1.89,3,1.89-3h1.35Z"/><g class="cls-6"><path class="cls-8" d="M70.92,126.74a4.14,4.14,0,0,1,1.45,1.69,5.91,5.91,0,0,1,.51,2.52,5.71,5.71,0,0,1-.51,2.49,3.79,3.79,0,0,1-3.59,2.24,3.69,3.69,0,0,1-1.88-.47,3,3,0,0,1-1.22-1.36v5.65H64.2V128.94a20.16,20.16,0,0,0-.15-2.58h1.41l.14,1.77a3,3,0,0,1,1.22-1.47,3.59,3.59,0,0,1,2-.52A3.85,3.85,0,0,1,70.92,126.74Zm-.32,6.8a4,4,0,0,0,.74-2.59,4.14,4.14,0,0,0-.75-2.63,2.81,2.81,0,0,0-4.18,0,5,5,0,0,0,0,5.23,2.83,2.83,0,0,0,4.19,0Z"/><path class="cls-8" d="M83.26,126.36v9.19H81.8v-1.66a2.91,2.91,0,0,1-1.22,1.33,3.73,3.73,0,0,1-1.89.46,3.93,3.93,0,0,1-2.15-.58,3.8,3.8,0,0,1-1.42-1.66,5.71,5.71,0,0,1-.51-2.49,5.91,5.91,0,0,1,.52-2.52,4.09,4.09,0,0,1,1.43-1.69,3.84,3.84,0,0,1,2.13-.6,3.58,3.58,0,0,1,1.88.48A3,3,0,0,1,81.8,128v-1.59Zm-2.19,7.17a5,5,0,0,0,0-5.23,2.52,2.52,0,0,0-2.09-.92,2.59,2.59,0,0,0-2.11.94,4.14,4.14,0,0,0-.76,2.63,4,4,0,0,0,.75,2.59,2.59,2.59,0,0,0,2.12.92A2.5,2.5,0,0,0,81.07,133.53Z"/><path class="cls-8" d="M94.21,126.36l-4.3,10a5.31,5.31,0,0,1-1.7,2.3,6.09,6.09,0,0,1-2.52,1l-.31-1.15a5.42,5.42,0,0,0,2-.77,3.59,3.59,0,0,0,1.1-1.49l.37-.83-3.9-9.1h1.56L89.59,134l3.14-7.59Z"/><path class="cls-8" d="M102,135.55l-4.71-4.42v4.42H95.84V122.1h1.48v8.48l4.33-4.2h1.88l-4.6,4.4,5,4.77Z"/><path class="cls-8" d="M113,126.36v9.19H111.5V134a3,3,0,0,1-1.22,1.28,3.53,3.53,0,0,1-1.78.44,3.17,3.17,0,0,1-2.46-.91,3.88,3.88,0,0,1-.84-2.71v-5.7h1.48V132a2.71,2.71,0,0,0,.51,1.82,2,2,0,0,0,1.55.59,2.6,2.6,0,0,0,2-.8,2.91,2.91,0,0,0,.75-2.09v-5.19Z"/><path class="cls-8" d="M123.69,129.78v5.77h-1.48v-5.7a2.82,2.82,0,0,0-.51-1.87,2,2,0,0,0-1.61-.6,2.73,2.73,0,0,0-2,.79,2.86,2.86,0,0,0-.77,2.12v5.26H115.8v-6.61a20.16,20.16,0,0,0-.15-2.58h1.41l.14,1.65a3.11,3.11,0,0,1,1.27-1.39,3.8,3.8,0,0,1,1.92-.48Q123.69,126.14,123.69,129.78Z"/><path class="cls-8" d="M128.12,133.67v1.88h-1.89v-1.88Z"/><path class="cls-8" d="M132.38,122.47v1.68h-1.81v-1.68Zm-1.67,3.89h1.48v9.19h-1.48Z"/><path class="cls-8" d="M143,129.78v5.77h-1.48v-5.7A2.82,2.82,0,0,0,141,128a2,2,0,0,0-1.61-.6,2.76,2.76,0,0,0-2.05.79,2.9,2.9,0,0,0-.77,2.12v5.26h-1.48v-6.61a20.27,20.27,0,0,0-.14-2.58h1.41l.14,1.65a3.09,3.09,0,0,1,1.26-1.39,3.8,3.8,0,0,1,1.92-.48Q143,126.14,143,129.78Z"/><path class="cls-8" d="M143.91,136.56l4.7-14.7H150l-4.72,14.7Z"/><path class="cls-8" d="M158.26,124a7.51,7.51,0,0,1,1.28,4.68,8.61,8.61,0,0,1-1.33,5.14,4.28,4.28,0,0,1-3.7,1.84,5.91,5.91,0,0,1-2.18-.42,5.78,5.78,0,0,1-1.89-1.19l.58-1.15a7,7,0,0,0,1.77,1.14,4.29,4.29,0,0,0,1.7.36,2.9,2.9,0,0,0,2.61-1.5,8.08,8.08,0,0,0,.92-4.2v-.24a3.43,3.43,0,0,1-1.37,1.62,4.06,4.06,0,0,1-2.17.59,4.15,4.15,0,0,1-2.11-.52,3.69,3.69,0,0,1-1.42-1.46,4.46,4.46,0,0,1-.51-2.15,4.33,4.33,0,0,1,.54-2.16,3.81,3.81,0,0,1,1.49-1.49,4.26,4.26,0,0,1,2.15-.54A4.34,4.34,0,0,1,158.26,124Zm-1.46,4.6a2.83,2.83,0,0,0,.8-2.08,2.76,2.76,0,0,0-2.91-2.91,2.66,2.66,0,0,0-2,.8,2.87,2.87,0,0,0-.77,2.11,2.84,2.84,0,0,0,.77,2.09,2.67,2.67,0,0,0,2,.8A2.82,2.82,0,0,0,156.8,128.64Z"/><path class="cls-8" d="M170,130.06a3.34,3.34,0,0,1-.56,4.66,6.5,6.5,0,0,1-6.8,0,3.32,3.32,0,0,1-.54-4.67,3.78,3.78,0,0,1,2-1.19,3.47,3.47,0,0,1-1.8-1.14,3,3,0,0,1-.62-1.87,3.11,3.11,0,0,1,.55-1.82,3.59,3.59,0,0,1,1.55-1.21,6.23,6.23,0,0,1,4.55,0,3.56,3.56,0,0,1,1.54,1.21,3,3,0,0,1,.55,1.82,2.91,2.91,0,0,1-.63,1.87,3.47,3.47,0,0,1-1.76,1.14A3.81,3.81,0,0,1,170,130.06Zm-1.6,3.76a2.13,2.13,0,0,0,.82-1.81,2,2,0,0,0-.87-1.73,3.77,3.77,0,0,0-4.62,0,2,2,0,0,0-.87,1.73,2.16,2.16,0,0,0,.82,1.81,4.8,4.8,0,0,0,4.72,0Zm-4.45-6.17a3.17,3.17,0,0,0,4.19,0,2.12,2.12,0,0,0,.77-1.69,2.06,2.06,0,0,0-.76-1.7,3.9,3.9,0,0,0-4.22,0,2.25,2.25,0,0,0,0,3.39Z"/><path class="cls-8" d="M179.62,127.9a3.68,3.68,0,0,1,1.43,1.47,4.4,4.4,0,0,1,.51,2.14,4.27,4.27,0,0,1-.53,2.16,3.88,3.88,0,0,1-1.49,1.49,4.76,4.76,0,0,1-5.8-1.1,7.51,7.51,0,0,1-1.28-4.68,10.57,10.57,0,0,1,.6-3.77,5,5,0,0,1,1.71-2.39,4.44,4.44,0,0,1,2.7-.83,5.93,5.93,0,0,1,2.2.42,5.73,5.73,0,0,1,1.88,1.19l-.57,1.15a7.25,7.25,0,0,0-1.75-1.13,4.4,4.4,0,0,0-1.72-.37,2.94,2.94,0,0,0-2.62,1.5,8,8,0,0,0-.93,4.21v.27a3.43,3.43,0,0,1,1.37-1.64,3.93,3.93,0,0,1,2.18-.61A4.31,4.31,0,0,1,179.62,127.9Zm-.3,5.74a2.91,2.91,0,0,0,.76-2.11,2.85,2.85,0,0,0-.77-2.09,2.7,2.7,0,0,0-2-.8,2.76,2.76,0,0,0-2.89,2.89,2.75,2.75,0,0,0,2.91,2.91A2.67,2.67,0,0,0,179.32,133.64Z"/><path class="cls-8" d="M190.62,127.9a3.56,3.56,0,0,1,1.42,1.46,4.52,4.52,0,0,1,.49,2.15,4.32,4.32,0,0,1-.54,2.18,3.74,3.74,0,0,1-1.53,1.47,4.94,4.94,0,0,1-2.33.52,6.59,6.59,0,0,1-2.34-.43,5.46,5.46,0,0,1-1.94-1.18l.57-1.15a5.76,5.76,0,0,0,3.71,1.5,2.91,2.91,0,0,0,2.15-.78,3.25,3.25,0,0,0,0-4.2,2.7,2.7,0,0,0-2-.8,3.51,3.51,0,0,0-3,1.52h-1v-7.62H192v1.24h-6.3v4.65a3.76,3.76,0,0,1,2.76-1.05A4.35,4.35,0,0,1,190.62,127.9Z"/><path class="cls-8" d="M203,135.55H201.2l-2.91-3.61-2.87,3.61h-1.81l3.82-4.73-3.6-4.46h1.79l2.67,3.38,2.67-3.38h1.81l-3.58,4.46Z"/><path class="cls-8" d="M212.58,126.36l-4.29,10a5.39,5.39,0,0,1-1.7,2.3,6.09,6.09,0,0,1-2.52,1l-.31-1.15a5.36,5.36,0,0,0,2-.77,3.6,3.6,0,0,0,1.11-1.49l.36-.83-3.89-9.1h1.55L208,134l3.14-7.59Z"/><path class="cls-8" d="M221.36,134.38v1.17h-7.77v-1l5.8-7h-5.6v-1.17h7.37v1.08l-5.74,6.94Z"/></g><g class="cls-6"><path class="cls-7" d="M49.81,214.58a6.86,6.86,0,0,1-2.33-1.21l.84-1.81a7.29,7.29,0,0,0,2.09,1.11,7.75,7.75,0,0,0,2.37.35,4,4,0,0,0,2.2-.5,1.57,1.57,0,0,0,.78-1.4,1.29,1.29,0,0,0-.72-1.18,8.73,8.73,0,0,0-2.37-.78,9.8,9.8,0,0,1-3.75-1.44,3,3,0,0,1-1.18-2.58A3.65,3.65,0,0,1,48.4,203a4.31,4.31,0,0,1,1.85-1.48A6.73,6.73,0,0,1,53,201a8.59,8.59,0,0,1,2.74.43,5.72,5.72,0,0,1,2.12,1.2l-.82,1.81A6.35,6.35,0,0,0,53,203a3.5,3.5,0,0,0-2.09.55,1.71,1.71,0,0,0-.77,1.49,1.35,1.35,0,0,0,.68,1.23,8.27,8.27,0,0,0,2.33.79,17.3,17.3,0,0,1,2.79.87,4.29,4.29,0,0,1,1.66,1.21A3,3,0,0,1,58.2,211a3.62,3.62,0,0,1-.65,2.14,4.18,4.18,0,0,1-1.89,1.41,7.52,7.52,0,0,1-2.9.5A10.07,10.07,0,0,1,49.81,214.58Z"/><path class="cls-7" d="M72.43,201.14v13.69H70v-5.94H63v5.94H60.51V201.14H63v5.73h7v-5.73Z"/><path class="cls-7" d="M84.48,211.62H77.79l-1.39,3.21H73.9l6.19-13.69h2l6.21,13.69H85.84Zm-.83-1.92-2.52-5.87-2.52,5.87Z"/><path class="cls-7" d="M101.06,214.83H98.45l-1.75-4.56a1.52,1.52,0,0,0-.71-.88,2.67,2.67,0,0,0-1.25-.25H92.26v5.69H89.8V201.14h5.86a5.38,5.38,0,0,1,3.54,1,3.61,3.61,0,0,1,1.21,2.92,3.73,3.73,0,0,1-.72,2.32,3.92,3.92,0,0,1-2,1.36,2.38,2.38,0,0,1,1.75,1.69Zm-5.74-7.61a3.42,3.42,0,0,0,2.07-.52,1.87,1.87,0,0,0,.68-1.58,1.81,1.81,0,0,0-.67-1.54,3.4,3.4,0,0,0-2.08-.51h-3.1v4.15Z"/><path class="cls-7" d="M103.29,201.14h9.15v2h-6.72v3.79H112v2h-6.32v4h6.72v2h-9.15Z"/></g><path class="cls-9" d="M80.8,239.11a20.1,20.1,0,0,0-31.63,24.25l-2.86,10.42L57,271a20,20,0,0,0,9.61,2.45h0a20.13,20.13,0,0,0,20.1-20.1A19.93,19.93,0,0,0,80.8,239.11ZM66.58,270h0a16.82,16.82,0,0,1-8.51-2.33l-.61-.36L51.14,269l1.69-6.16-.4-.63A16.71,16.71,0,1,1,66.58,270Zm9.17-12.52c-.5-.25-3-1.46-3.43-1.63s-.8-.25-1.13.25-1.3,1.63-1.59,2-.59.38-1.09.13a14.1,14.1,0,0,1-4-2.5,15.31,15.31,0,0,1-2.8-3.48c-.29-.5,0-.75.22-1a13.93,13.93,0,0,0,1.26-1.72.93.93,0,0,0,0-.88c-.13-.25-1.13-2.72-1.55-3.73s-.82-.85-1.13-.86-.63,0-1,0a1.85,1.85,0,0,0-1.34.63,5.63,5.63,0,0,0-1.76,4.19,9.83,9.83,0,0,0,2.05,5.2c.25.33,3.54,5.4,8.58,7.58a28.07,28.07,0,0,0,2.86,1.06,6.94,6.94,0,0,0,3.17.2c1-.15,3-1.22,3.39-2.39a4.14,4.14,0,0,0,.29-2.39C76.59,257.9,76.25,257.77,75.75,257.52Z"/><path class="cls-10" d="M133.32,234.67H105.77a5.09,5.09,0,0,0-5.08,5.09V267.3a5.09,5.09,0,0,0,5.08,5.09h13.59l0-13.48h-3.5a.82.82,0,0,1-.82-.82l0-4.35a.83.83,0,0,1,.83-.83h3.49v-4.19c0-4.87,3-7.53,7.32-7.53h3.57a.83.83,0,0,1,.82.83v3.66a.83.83,0,0,1-.82.83h-2.19c-2.36,0-2.82,1.12-2.82,2.77v3.63h5.19a.83.83,0,0,1,.82.93l-.51,4.34a.83.83,0,0,1-.82.73h-4.66l0,13.48h8.08a5.08,5.08,0,0,0,5.08-5.08V239.76A5.08,5.08,0,0,0,133.32,234.67Z"/><rect class="cls-11" x="157.48" y="237.01" width="32.23" height="32.23"/><polygon class="cls-12" points="173.6 256.51 189.71 269.23 189.71 244.11 173.6 256.51"/><path class="cls-13" d="M191.05,237h-1.34L173.6,249.73,157.48,237h-1.34a4,4,0,0,0-4,4V265.2a4,4,0,0,0,4,4h1.34V244.11l16.12,12.4,16.11-12.4v25.12h1.34a4,4,0,0,0,4-4V241A4,4,0,0,0,191.05,237Z"/><path class="cls-14" d="M244.92,237.17H218.37a9.23,9.23,0,0,0-9.22,9.23v14.25a9.08,9.08,0,0,0,6.52,8.73l4.46,4.46a1.31,1.31,0,0,0,.93.39,1.33,1.33,0,0,0,.94-.39l4.08-4.09h18.84a9.24,9.24,0,0,0,9.23-9.23V246.4A9.24,9.24,0,0,0,244.92,237.17Zm6.59,23.35a6.6,6.6,0,0,1-6.59,6.59H225.54a1.29,1.29,0,0,0-.93.39L221.06,271l-3.77-3.77a1.34,1.34,0,0,0-.61-.35,6.43,6.43,0,0,1-4.9-6.27V246.4a6.6,6.6,0,0,1,6.59-6.59h26.55a6.6,6.6,0,0,1,6.59,6.59Z"/><path class="cls-14" d="M240,249.81H223.27a1.32,1.32,0,0,0,0,2.64H240a1.32,1.32,0,0,0,0-2.64Z"/><path class="cls-14" d="M240,254.47H223.27a1.32,1.32,0,0,0,0,2.64H240a1.32,1.32,0,0,0,0-2.64Z"/><line class="cls-3" x1="47.15" y1="182.86" x2="210.15" y2="182.86"/><rect class="cls-15" x="47.15" y="182.36" width="163" height="1"/></g></g></svg>