<svg xmlns="http://www.w3.org/2000/svg" xmlns:xlink="http://www.w3.org/1999/xlink" width="346.666" height="372.385" viewBox="0 0 346.666 372.385">
  <defs>
    <linearGradient id="linear-gradient" x1="0.157" y1="0.006" x2="0.779" y2="0.798" gradientUnits="objectBoundingBox">
      <stop offset="0" stop-color="#4fbffe"/>
      <stop offset="1" stop-color="#427fc8"/>
    </linearGradient>
    <linearGradient id="linear-gradient-2" x1="0.746" y1="0.025" x2="0.558" y2="0.483" gradientUnits="objectBoundingBox">
      <stop offset="0" stop-color="#0ed2f7"/>
      <stop offset="1" stop-color="#b2fefa" stop-opacity="0"/>
    </linearGradient>
    <linearGradient id="linear-gradient-3" x1="10.785" y1="5.752" x2="9.447" y2="3.939" gradientUnits="objectBoundingBox">
      <stop offset="0" stop-color="#29abe2"/>
      <stop offset="1" stop-color="#1b1464"/>
    </linearGradient>
  </defs>
  <g id="smart-analytics" transform="translate(-31 -7.228)">
    <path id="Shadow" d="M112.943,305.063l44.974-26.021a9.147,9.147,0,0,1,8.275,0l228.457,131.9c2.285,1.319,2.285,3.458,0,4.778l-44.974,26.02a9.142,9.142,0,0,1-8.275,0l-85.614-49.429-13.16,7.65c-6.968,4.023-18.268,4.024-25.237,0L178.158,377.48c-6.969-4.022-6.97-10.543,0-14.567l13.151-7.646-78.364-45.426C110.658,308.521,110.658,306.382,112.943,305.063Z" transform="translate(-18.698 -63.117)" fill="#e1e9f6"/>
    <ellipse id="Shadow-2" data-name="Shadow" cx="46.68" cy="26.951" rx="46.68" ry="26.951" transform="translate(31 311.514)" fill="#e1e9f6"/>
    <g id="Device" transform="translate(103.9 7.228)">
      <g id="Monitor" transform="translate(0)">
        <g id="Group_524" data-name="Group 524" transform="translate(55.746 228.738)">
          <g id="Group_523" data-name="Group 523" transform="translate(0)">
            <g id="Group_522" data-name="Group 522">
              <path id="Path_1057" data-name="Path 1057" d="M237.781,402.559l-33.8-19.544c-3.484-2.012-5.226-4.648-5.227-7.284s-.015-4.7-.015-4.7l31.807-18.052a7.438,7.438,0,0,0,3.365-5.828V305.473l59.039,34.116,0,41.674a7.437,7.437,0,0,1-3.365,5.828l-26.569,15.468C256.048,406.582,244.749,406.582,237.781,402.559Z" transform="translate(-198.738 -305.473)" fill="#283a8f"/>
            </g>
          </g>
          <path id="Path_1058" data-name="Path 1058" d="M303.1,397.039v4.681l10.82-6.235a7.447,7.447,0,0,0,3.361-5.828v-41.67L306.029,341.5c-.232,2.856-.485,5.809-.718,8.684l7.886,4.565v32.559a7.391,7.391,0,0,1-3.361,5.827Z" transform="translate(-223.059 -313.869)" fill="#284dfa"/>
          <path id="Path_1059" data-name="Path 1059" d="M288.878,380.973a7.437,7.437,0,0,1-3.365,5.829l-22.492,13.113c-6.968,4.023-18.268,4.024-25.237,0l-33.818-19.542c-6.97-4.022-6.971-10.544,0-14.567l22.508-13.124a7.437,7.437,0,0,0,3.365-5.828V314.293l59.04,34.115Z" transform="translate(-198.737 -307.529)" fill="#4766fa"/>
          <path id="Path_1060" data-name="Path 1060" d="M225.964,356.646v-.005l6.853-3.957a7.437,7.437,0,0,0,3.365-5.828V314.293l59.041,34.115v32.564a7.437,7.437,0,0,1-3.365,5.829l-6.735,3.888Z" transform="translate(-205.083 -307.529)" opacity="0.15"/>
          <path id="Path_1061" data-name="Path 1061" d="M198.747,390.954v4.7c0,2.641,1.748,5.264,5.226,7.284l33.807,19.533a25.307,25.307,0,0,0,12.044,2.992v-4.682a25.308,25.308,0,0,1-12.044-2.991l-33.807-19.553C200.495,396.237,198.747,393.6,198.747,390.954Z" transform="translate(-198.74 -325.395)" fill="#2e42a1"/>
        </g>
        <path id="Path_1062" data-name="Path 1062" d="M366.734,354.369a9.02,9.02,0,0,1-8.152-.151L130.258,222.4a9.294,9.294,0,0,1-4.205-7.284V15.264A9.018,9.018,0,0,1,130,8.129a9.022,9.022,0,0,1,8.152.15L366.471,140.1a9.3,9.3,0,0,1,4.206,7.285l0,199.848A9.018,9.018,0,0,1,366.734,354.369Z" transform="translate(-126.052 -7.228)" fill="#4766fa"/>
        <path id="Path_1063" data-name="Path 1063" d="M358.581,355.741,130.258,223.921a9.294,9.294,0,0,1-4.206-7.285V16.786c0-2.683,1.882-3.77,4.206-2.429l228.32,131.821a9.3,9.3,0,0,1,4.206,7.285l0,199.848C362.787,355.995,360.9,357.082,358.581,355.741Z" transform="translate(-126.052 -8.756)" fill="#283a8f"/>
        <path id="Path_1064" data-name="Path 1064" d="M357.295,330.842l0-170.83a5.578,5.578,0,0,0-2.523-4.371L138.869,30.99c-1.394-.8-2.524-.153-2.524,1.457l-.007,170.833a5.574,5.574,0,0,0,2.523,4.371L354.772,332.3C356.165,333.1,357.295,332.452,357.295,330.842Z" transform="translate(-128.449 -12.686)" fill="#27debf"/>
        <path id="Path_1065" data-name="Path 1065" d="M357.295,330.842l0-170.83a5.578,5.578,0,0,0-2.523-4.371L138.869,30.99c-1.394-.8-2.524-.153-2.524,1.457l-.007,170.833a5.574,5.574,0,0,0,2.523,4.371L354.772,332.3C356.165,333.1,357.295,332.452,357.295,330.842Z" transform="translate(-128.449 -12.686)" fill="#fff"/>
        <path id="Path_1066" data-name="Path 1066" d="M277.068,359.175a9.124,9.124,0,0,1-4.185-7.249,2.871,2.871,0,0,1,4.663-2.692h0a9.126,9.126,0,0,1,4.185,7.249,3.219,3.219,0,0,1-1.394,2.968,2.487,2.487,0,0,1-1.266.329A4.06,4.06,0,0,1,277.068,359.175Zm-2.312-9.391a2.332,2.332,0,0,0-.918,2.141,8.208,8.208,0,0,0,3.707,6.422,1.944,1.944,0,0,0,3.23-1.865,8.205,8.205,0,0,0-3.707-6.421h0a3.118,3.118,0,0,0-1.522-.477A1.56,1.56,0,0,0,274.756,349.785Z" transform="translate(-160.272 -86.793)" fill="#27debf"/>
      </g>
    </g>
    <g id="Window" transform="translate(64.734 34.313)">
      <g id="Group_526" data-name="Group 526" transform="translate(0 12.677)">
        <g id="Group_525" data-name="Group 525" transform="translate(0 3.045)">
          <path id="Path_1067" data-name="Path 1067" d="M74.985,63.043l222.364,128.23,0,163.887a2.838,2.838,0,0,1-4.25,2.464l-3.963-2.289-210-121.085a9.159,9.159,0,0,1-4.146-7.178Z" transform="translate(-74.985 -63.043)" fill="#f0f0f0"/>
          <path id="Path_1068" data-name="Path 1068" d="M75.941,64.7,296.393,191.825V355.16a1.86,1.86,0,0,1-.572,1.355,1.921,1.921,0,0,1-1.316.536,1.841,1.841,0,0,1-.93-.255l-3.963-2.289-210-121.086a8.24,8.24,0,0,1-3.668-6.35V64.7m-.956-1.654v164.03a9.159,9.159,0,0,0,4.146,7.178l210,121.085,3.963,2.289a2.8,2.8,0,0,0,1.407.382,2.845,2.845,0,0,0,2.843-2.846l0-163.887L74.985,63.043Z" transform="translate(-74.985 -63.043)" fill="#8f9fb8"/>
        </g>
        <path id="Path_1069" data-name="Path 1069" d="M80.259,59.073,302.637,187.295l-5.288,3.053L74.985,62.118Z" transform="translate(-74.985 -59.073)" fill="#455a64" opacity="0.8"/>
        <path id="Path_1070" data-name="Path 1070" d="M362.976,395.7a2.865,2.865,0,0,0,1.489-2.5l0-159.167v-4.72l5.288-3.053.006,162.981a4.713,4.713,0,0,1-.04.605,4.389,4.389,0,0,1-2.164,3.21l-4.366,2.526-.215.121Z" transform="translate(-142.102 -98.036)" fill="#a1b3cf"/>
      </g>
      <g id="KoiPayments-partner-color" transform="translate(10.482 39.48)">
        <g id="Group_528" data-name="Group 528">
          <g id="Group_527" data-name="Group 527">
            <g id="_Group_" data-name=" Group ">
              <g id="_Group_2" data-name=" Group 2" transform="translate(9.558 2.771)">
                <path id="_Path_" data-name=" Path " d="M107.106,104.022l-1.134,5.493,1.354.782.311-1.518.624-.356.936,2.953,1.491.861-1.306-4.053,2.434-1.443-1.559-.9L108,107.163l-.026-.015.483-2.345Z" transform="translate(-102.247 -99.123)" fill="#4877b9"/>
                <path id="_Path_2" data-name=" Path 2" d="M123.332,113.39l-.686,3.362-.026-.015-1.571-4.664-1.063-.614-1.133,5.493,1.3.75.689-3.36.026.015,1.572,4.666,1.061.613,1.133-5.493Z" transform="translate(-105.249 -100.856)" fill="#4877b9"/>
                <path id="_Path_3" data-name=" Path 3" d="M114.465,107.528c-1.236-4.736-5.511-9.124-9.549-9.8a4.562,4.562,0,0,0-3.8.855,4.889,4.889,0,0,1,3.168-.416c3.848.653,7.847,4.582,8.946,8.793a7.461,7.461,0,0,1,.216,2.961l-.154.7c-.126.614-.495.775-1.025.469a1.679,1.679,0,0,1-.881-1.391,1.838,1.838,0,0,1,.036-.371l.673-3.271-1.358-.784-.68,3.288a2.287,2.287,0,0,0-.048.5,4.049,4.049,0,0,0,2.17,3.292c1.245.719,2.166.489,2.4-.664l.184-1.024A9.113,9.113,0,0,0,114.465,107.528Z" transform="translate(-101.115 -97.634)" fill="#4877b9"/>
              </g>
              <g id="_Group_3" data-name=" Group 3">
                <path id="_Compound_Path_" data-name=" Compound Path " d="M93.621,98.09a3.5,3.5,0,0,0-1.859-2.927l-1.979-1.142-1.131,5.494,1.358.784.328-1.613.881.509C92.673,100.034,93.621,99.626,93.621,98.09Zm-2.4-.08-.668-.386.361-1.752.566.327a1.405,1.405,0,0,1,.778,1.242c0,.693-.407.938-1.038.574Z" transform="translate(-88.652 -94.021)" fill="#a1b0bf"/>
                <path id="_Path_4" data-name=" Path 4" d="M102.787,103.894l-.029-.017-.605-2.914-1.4-.809,1.092,4.655-.264,1.29-.123.608,1.353.782.384-1.874,2.579-2.562L104.3,102.2Z" transform="translate(-91.471 -95.45)" fill="#a1b0bf"/>
                <path id="_Compound_Path_2" data-name=" Compound Path 2" d="M99.292,105.742a8.889,8.889,0,0,1-.234-1.249l-.88-5.3-1.656-.956-2.966,4.429,1.431.826.6-1,2.128,1.228a10.392,10.392,0,0,0,.266,1.413c1.236,4.736,5.511,9.125,9.549,9.8a4.659,4.659,0,0,0,3.853-.736,5.068,5.068,0,0,1-3.223.294C104.32,113.847,100.391,109.954,99.292,105.742Zm-3.217-4.094,1-1.724.422,2.545Z" transform="translate(-89.795 -95.003)" fill="#a1b0bf"/>
              </g>
            </g>
          </g>
        </g>
      </g>
      <g id="Group_531" data-name="Group 531" transform="translate(0 0)">
        <g id="Group_529" data-name="Group 529">
          <path id="Path_1071" data-name="Path 1071" d="M302.637,183.515V172.458a4.605,4.605,0,0,0-2.062-3.595L82.322,43.046a4.54,4.54,0,0,0-4.131-.011l-1.137.656a4.573,4.573,0,0,0-2.069,3.583V58.351L297.349,186.566Z" transform="translate(-74.985 -42.544)" fill="#27debf"/>
          <path id="Path_1072" data-name="Path 1072" d="M302.637,183.515V172.458a4.605,4.605,0,0,0-2.062-3.595L82.322,43.046a4.54,4.54,0,0,0-4.131-.011l-1.137.656a4.573,4.573,0,0,0-2.069,3.583V58.351L297.349,186.566Z" transform="translate(-74.985 -42.544)" fill="#284dfa"/>
          <path id="Path_1073" data-name="Path 1073" d="M297.349,176.5a4.605,4.605,0,0,0-2.062-3.595L77.047,47.082c-1.139-.666-2.062-.136-2.062,1.183V59.341L297.349,187.556Z" transform="translate(-74.985 -43.535)" fill="#27debf"/>
          <path id="Path_1074" data-name="Path 1074" d="M297.349,176.5a4.605,4.605,0,0,0-2.062-3.595L77.047,47.082c-1.139-.666-2.062-.136-2.062,1.183V59.341L297.349,187.556Z" transform="translate(-74.985 -43.535)" fill="#4766fa"/>
          <path id="Path_1075" data-name="Path 1075" d="M364.133,212.324a4.258,4.258,0,0,1,.6,2.045v11.056l5.284-3.049V211.31a4.232,4.232,0,0,0-.6-2.035Z" transform="translate(-142.372 -81.401)" fill="#27debf"/>
          <path id="Path_1076" data-name="Path 1076" d="M364.133,212.324a4.258,4.258,0,0,1,.6,2.045v11.056l5.284-3.049V211.31a4.232,4.232,0,0,0-.6-2.035Z" transform="translate(-142.372 -81.401)" fill="#2e42a1"/>
        </g>
        <g id="Group_530" data-name="Group 530" transform="translate(5.823 11.679)">
          <path id="Path_1077" data-name="Path 1077" d="M86.458,61.4c0,1.238-.868,1.739-1.94,1.12a4.288,4.288,0,0,1-1.94-3.362c0-1.238.868-1.739,1.94-1.121A4.288,4.288,0,0,1,86.458,61.4Z" transform="translate(-82.577 -57.771)" fill="#fafafa"/>
          <path id="Path_1078" data-name="Path 1078" d="M96.579,67.242c0,1.237-.869,1.739-1.94,1.121A4.289,4.289,0,0,1,92.7,65c0-1.238.869-1.739,1.941-1.121A4.29,4.29,0,0,1,96.579,67.242Z" transform="translate(-84.936 -59.133)" fill="#fafafa"/>
          <path id="Path_1079" data-name="Path 1079" d="M106.7,73.086c0,1.237-.869,1.739-1.94,1.12a4.288,4.288,0,0,1-1.941-3.361c0-1.238.869-1.739,1.941-1.121A4.29,4.29,0,0,1,106.7,73.086Z" transform="translate(-87.295 -60.495)" fill="#fafafa"/>
        </g>
      </g>
    </g>
    <path id="Path_1080" data-name="Path 1080" d="M90.209,266.831c-.064-.085,27.745-38.236,43.967-40.5,4.556-.637,7.315,5.36,8.5,9.8,1.614,6.078,1.686,12.437,2.251,18.7s1.715,12.682,5.189,17.928,9.724,9.073,15.923,8.006c6.867-1.163,11.448-7.518,15.261-13.348l10.7-16.36c2.233-3.414,4.844-7.1,8.788-8.078s8.144,1.167,10.723,4.3,3.881,7.113,5.069,11a476.206,476.206,0,0,1,13.195,54.394c.836,4.6,2.244,10.022,6.654,11.576,5.421,1.914,10.513-3.549,13.128-8.674s5.484-11.292,11.149-12.238c3.635-.6,7.3,1.348,9.681,4.129s3.717,6.3,4.9,9.773a197.137,197.137,0,0,1,10.549,62.439" transform="translate(-13.799 -51.052)" fill="url(#linear-gradient)"/>
    <g id="Group_532" data-name="Group 532" transform="translate(74.152 169.227)" opacity="0.4">
      <path id="Path_1081" data-name="Path 1081" d="M269.582,370.638c-5.224-34.21-10.6-68.922-24.928-100.423-1.608-3.525-3.378-7.081-6.178-9.756s-6.857-4.339-10.6-3.35c-4.708,1.248-7.429,6.035-9.631,10.381q-9.582,18.924-19.16,37.853c-2.027,4-5.794,8.72-9.94,7.017-3.069-1.259-3.77-5.214-4.026-8.518q-2.636-34.069-5.274-68.129c-.3-3.809-.623-7.746-2.4-11.128s-5.4-6.1-9.193-5.606c-4.944.651-7.636,5.986-9.486,10.609q-7.8,19.589-15.627,39.151a8.319,8.319,0,0,1-2.572,3.983c-2.312,1.608-5.708.377-7.419-1.86s-2.184-5.15-2.657-7.928c-1.917-11.249-2.756-23.117-6.366-33.943-1.266-3.806-3.642-9.493-7.646-9.677-10.542-.476-20.088,14.376-28.712,43.464" transform="translate(-87.381 -218.563)" fill="url(#linear-gradient-2)"/>
      <path id="Path_1082" data-name="Path 1082" d="M87.274,262.563a.381.381,0,0,0,.732.2c1.2-4.048,2.489-8.067,3.912-12.043a103.886,103.886,0,0,1,8.486-18.772c2.376-3.965,5.281-8.009,9.282-10.5a12.185,12.185,0,0,1,4.98-1.818c3.065-.348,5.043,1.266,6.569,3.827a38.533,38.533,0,0,1,3.688,9.855,123.435,123.435,0,0,1,2.571,12.8c.676,4.314,1.227,8.646,1.885,12.964.555,3.589.8,7.732,2.689,10.933,1.344,2.276,3.947,4.076,6.7,3.649,2.98-.466,4.023-3.457,5-5.911l10.289-25.778c1.71-4.283,3.378-8.579,5.129-12.846,1.33-3.24,3.019-6.918,6.109-8.834,3.888-2.408,8.436-.416,10.9,3.026s2.831,7.9,3.151,11.978q1.066,13.85,2.134,27.691l2.177,28.1c.356,4.513.594,9.055,1.067,13.557.278,2.486.779,5.353,2.767,7.078,5.335,4.634,10.446-3.607,12.448-7.561l12.771-25.223c2.031-4.012,4.033-8.038,6.1-12.032,1.636-3.165,3.542-6.59,6.675-8.5,3.819-2.326,8.461-1.209,11.78,1.486,3.151,2.55,5.043,6.281,6.708,9.887,14.624,31.682,19.909,66.661,25.134,100.86.071.484.808.278.733-.2q-.974-6.47-2-12.928c-2.746-17.427-5.808-34.854-10.4-51.925a244.7,244.7,0,0,0-8.226-25.351c-1.49-3.83-3.08-7.633-4.826-11.356-1.593-3.407-3.457-6.86-6.369-9.332a12.155,12.155,0,0,0-9.173-3.115,11.327,11.327,0,0,0-7.262,4.549c-2.333,2.909-3.862,6.4-5.534,9.7l-6.544,12.931-6.4,12.619c-1.97,3.887-3.681,8.18-6.217,11.737-1.2,1.675-2.792,3.485-4.841,4.082a4.522,4.522,0,0,1-5.192-2.262c-1.942-3.289-1.625-8-1.91-11.662q-2.2-28.452-4.4-56.9c-.545-7-.036-16.417-6.438-21.041a8.233,8.233,0,0,0-7.97-1.167c-2.9,1.188-4.812,3.948-6.2,6.636-1.8,3.49-3.077,7.266-4.528,10.9l-5.21,13.05-5.335,13.376c-.921,2.3-1.725,4.716-2.813,6.945-1.06,2.166-2.973,3.539-5.438,2.828-4.356-1.27-5.217-6.171-5.875-10.033-.747-4.4-1.324-8.82-1.963-13.234-1.149-7.949-2.344-16.236-5.513-23.676-1.038-2.436-2.5-5.31-5.018-6.5a7.768,7.768,0,0,0-5.1-.16c-3.641.9-6.643,3.482-9.033,6.267a59.949,59.949,0,0,0-8.636,14.429,177.506,177.506,0,0,0-8.2,22.727Z" transform="translate(-87.265 -218.454)" fill="#00fbff"/>
    </g>
    <g id="Group_533" data-name="Group 533" transform="translate(50.174 189.97)">
      <path id="Path_1083" data-name="Path 1083" d="M144.974,286.026a4.455,4.455,0,0,1,.283.7l.318-.4a15.994,15.994,0,0,0,1.134-1.349,11.661,11.661,0,0,0,1.444-3.156,2.489,2.489,0,0,0-.124-.714,38.309,38.309,0,0,0-3.36-7.247,12.144,12.144,0,0,1-1.972-.294l.856,3.791a5.6,5.6,0,0,1-.794,1.75c0-1.654.38-5.184-2.1-4.657.731,1.841-.527,3.5-.4,5.326h.062a8.02,8.02,0,0,1,.515,2.561c.363.2.771.431,1.184.709l.346.226A8.088,8.088,0,0,1,144.974,286.026Z" transform="translate(-75.634 -252.041)" fill="#fff"/>
      <path id="Path_1084" data-name="Path 1084" d="M57.322,279.242A132.609,132.609,0,0,0,71.543,286.8c.51.209,1.19.5,2.011.821,1.836.748,4.352,1.768,6.987,2.833,1.558.64,3.156,1.286,4.685,1.892.357.147.726.289,1.071.425.736.272,1.467.578,2.141.839.42.17.839.328,1.229.476a7.712,7.712,0,0,0-.85,3.139,2.841,2.841,0,0,0,0,.443c-.124.328-.255.674-.368,1l.051.034v.476a4.912,4.912,0,0,0,1.921,2.98c.957.821,1.955,1.621,2.98,2.408a3.344,3.344,0,0,0,.323.244c1.241.935,2.539,1.875,3.864,2.833.3.2.578.408.867.617.187.13.374.266.567.414a1.831,1.831,0,0,1,.232.158c1.032.737,2.045,1.5,3.105,2.17l.147-.057a1.35,1.35,0,0,1-.124.074c.039.034.084.057.124.085a11.8,11.8,0,0,0,1.224.7l.476.26a.367.367,0,0,0,.074.057,2.876,2.876,0,0,1,.261.21,10.892,10.892,0,0,0,.935.663,7.8,7.8,0,0,0,4.181,1.462,4.38,4.38,0,0,0,2.72-.838l.084-.074h0a8.271,8.271,0,0,0,.93-.9c.249-.278.5-.589.776-.94.686-.883,1.445-1.966,2.233-3.19,1.246-1.927,2.561-4.164,3.813-6.431.328-.567.646-1.134.94-1.7.074-.119.137-.243.2-.363.442-.8.878-1.575,1.263-2.357s.776-1.512,1.134-2.21c.691-1.394,1.28-2.584,1.7-3.434.317-.674.538-1.139.624-1.348a10.009,10.009,0,0,0-.674-1.961,13.733,13.733,0,0,0-1.009-1.915,9.243,9.243,0,0,0-2.108-1.915c-.062-.045-.119-.074-.17-.119l-.629-.42a2.755,2.755,0,0,0-.941-.464,2.235,2.235,0,0,1-.176.17l-.566.113a.943.943,0,0,1-.125.193l-.957,1.558c-.4.629-.873,1.36-1.371,2.17-.04.074-.1.147-.137.221l-1.28,1.995c-.686,1.088-1.423,2.266-2.147,3.4-.4.589-.776,1.213-1.134,1.779-.963,1.49-1.875,2.93-2.7,4.216-.561.85-1.055,1.632-1.508,2.306-1.467-1.581-3.167-3.343-4.867-5.043l-.788-.794q-.907-.878-1.762-1.7c-.249-.244-.522-.487-.742-.7s-.436-.413-.646-.6c-.714-.669-1.388-1.286-2-1.8l-.318-.272a18.351,18.351,0,0,0-1.7-1.331l-.114-.051-.085-.062c-.085-.074-.159-.136-.243-.2-1.032-.81-2.1-1.615-3.23-2.4q-1.3-.93-2.647-1.825a.489.489,0,0,1-.113-.085l-.969-.629c-.946-.634-1.915-1.252-2.867-1.853a20.711,20.711,0,0,1-2.532.334h-.771a22.518,22.518,0,0,1-3.49-.221c-.38-.04-.759-.107-1.161-.159h0l-1.179-.176a16.693,16.693,0,0,1-2.969-1.014q-.921-.38-1.8-.85a4.53,4.53,0,0,1-.482-.278c-1.915-1.105-3.371-2.5-2.266-3.78a.243.243,0,0,1,.067-.051.7.7,0,0,0,.051-.057c-1.655-.165-4.6-.431-4.783-.431A9.618,9.618,0,0,0,57.322,279.242ZM88.966,298.41c.05.083.1.168.137.255a.5.5,0,0,1-.13-.255Zm1.241-4.074a.446.446,0,0,0-.057.148.933.933,0,0,1,.063-.148h-.006Zm-.136-6.986a6.065,6.065,0,0,1-.425-.89c.136.3.283.6.43.89Z" transform="translate(-56.308 -252.6)" fill="#1b1464"/>
      <path id="Path_1085" data-name="Path 1085" d="M106.487,349.259c.453-.295.907-.589,1.331-.918a8.172,8.172,0,0,0,2.357-2.623.792.792,0,0,0,.085-.148c-.085-.176-.159-.357-.244-.532a36.888,36.888,0,0,1-1.83-5.666c-.425-1.813-.782-3.74-1.042-5.666-.045-.266-.074-.538-.108-.793-.1-.691-.169-1.388-.232-2.074h0c-.176-1.887-.272-3.711-.272-5.382H106.5c-.012-1.326.022-2.641.107-3.967.023-.487.045-.906.1-1.473s.1-1.134.164-1.7c.012-.147.028-.272.045-.408a3.563,3.563,0,0,0,.051-.436c.046-.357.085-.731.125-1.133v-.125c.045-.34.074-.686.119-1.037-.3-.209-.578-.419-.867-.617-1.326-.935-2.624-1.875-3.865-2.833a3.411,3.411,0,0,1-.323-.243c-1.025-.788-2.022-1.587-2.98-2.408a4.91,4.91,0,0,1-1.92-2.98v-.476l-.051-.034a33.042,33.042,0,0,0-2.147,12.125,18.478,18.478,0,0,0,1.032,5.632c.1.266.193.515.295.771v.051a22.323,22.323,0,0,1,1.338,7.422c.147,3.371-.1,6.857-.1,9.752a78.342,78.342,0,0,1-.992,11.774,10.586,10.586,0,0,0,2.437-.567A45.546,45.546,0,0,0,106.487,349.259Z" transform="translate(-65.097 -259.503)" fill="#140f4b"/>
      <path id="Path_1086" data-name="Path 1086" d="M93.905,268.758a6.423,6.423,0,0,1,1.134,1.3,5.868,5.868,0,0,0,.567-1.094,4.333,4.333,0,0,0-.612-1.014l-.074-.085h0a4.393,4.393,0,0,0-.567-.567,1.309,1.309,0,0,0-.187-.176,5.312,5.312,0,0,0-.8-.567l-.39-.226a11.011,11.011,0,0,0-1.615-.749c-.2-.074-.42-.147-.617-.2.136.527.271,1.065.4,1.558a12.382,12.382,0,0,1,1.184.686,6.652,6.652,0,0,1,.567.368A11.859,11.859,0,0,1,93.905,268.758Z" transform="translate(-64.097 -250.133)" fill="#e8f6ff"/>
      <path id="Path_1087" data-name="Path 1087" d="M92.629,261.413c-.4-1.757-.793-3.53-1.179-5.23-.39,1-.323,2.1-.731,3.156a8.37,8.37,0,0,0-.261,2.453,2,2,0,0,0-.039.487h0c.079.311.176.652.261.986h0c.2.057.419.13.617.2a10.971,10.971,0,0,1,1.614.749l.391.226a5.338,5.338,0,0,1,.8.567,1.352,1.352,0,0,1,.187.176c1.223-1.535.515-3.915.759-5.706.13-.6.295-1.235-.629-1.433-.72-.2-1.15.833-1.321,1.433C92.816,260.523,92.719,260.942,92.629,261.413Z" transform="translate(-64.022 -247.99)" fill="#fff"/>
      <path id="Path_1088" data-name="Path 1088" d="M88.661,261.646h0c-.142-.5-.255-.957-.341-1.348a10.776,10.776,0,0,0-.7-2.584c-.04-.062-.074-.124-.113-.2-.878-1.4-1.134-1.326-1.134-2.726,0,0-.311-.577-.833-1.348-.039.147-.113.283-.164.442H85.3a19.722,19.722,0,0,1,.482,2.884c.108.629.035,1.5.108,2.487a7.978,7.978,0,0,0,.833,3.178.735.735,0,0,1-.1.17c-.147.221-.295.459-.453.679a1.353,1.353,0,0,1-.1.142,31.1,31.1,0,0,0-1.535-3.026c-.708-.317-2.243.589-1.275,1.779.515.634,1.15,1.96,1.841,2.7.453.493.946.714,1.456.3a1.011,1.011,0,0,0,.113-.1c.057.164.108.323.159.5.17.216.357.42.476.567a2.161,2.161,0,0,0,2.357.244,2.077,2.077,0,0,0,0-.488,13.026,13.026,0,0,0-.34-1.739c-.125-.493-.261-1.031-.4-1.558h0C88.842,262.264,88.746,261.924,88.661,261.646Z" transform="translate(-62.281 -247.351)" fill="#fff"/>
      <path id="Path_1089" data-name="Path 1089" d="M93.12,274.728c.436-.776.8-1.467,1.105-2.017s.538-.957.719-1.223a2.835,2.835,0,0,0-.357-.884,6.426,6.426,0,0,0-1.134-1.3,11.612,11.612,0,0,0-.992-.8c-.186-.125-.368-.249-.566-.368a12.308,12.308,0,0,0-1.184-.686,13.147,13.147,0,0,1,.34,1.739,2.153,2.153,0,0,1,0,.487,2.741,2.741,0,0,1-1.252,1.7c-.193.148-.413.306-.64.465a1.167,1.167,0,0,0-.232.244v.028c-.022,1.014-.074,2.153-.074,3.2-.045,1.156-.045,2.175-.045,2.8v.108l.192.124c.306.181.578.357.873.538h0c.209.136.42.272.64.4a1.274,1.274,0,0,0,.074-.125c.708-1.156,1.348-2.305,1.915-3.359h0C92.712,275.414,92.916,275.045,93.12,274.728Z" transform="translate(-63.646 -250.614)" fill="#150d43"/>
      <path id="Path_1090" data-name="Path 1090" d="M143.639,288.91a13.645,13.645,0,0,1,1.009,1.915c.221-.2.442-.373.663-.566a3.342,3.342,0,0,0-.136-.861,4.46,4.46,0,0,0-.284-.7,8.07,8.07,0,0,0-2.611-2.753l-.346-.226c-.413-.278-.821-.51-1.184-.709a.2.2,0,0,0-.074-.04l-.051-.045c-.266.318-.538.726-.833,1.043a2.753,2.753,0,0,1,.941.464l.629.42c.051.045.107.074.17.119A9.253,9.253,0,0,1,143.639,288.91Z" transform="translate(-75.528 -254.687)" fill="#e8f6ff"/>
      <path id="Path_1091" data-name="Path 1091" d="M57.334,408.851a3.4,3.4,0,0,0,.368,2.062,2.936,2.936,0,0,0,.918.992l10.266-55.527c-.917-.617-1.852-1.275-2.736-1.938-.527,3.564-.992,7.344-1.411,11.112-.566,4.731-1.133,14.692-1.133,14.692s-2.686,8.72-3.36,12.828C59.108,399.995,58.076,406.375,57.334,408.851Z" transform="translate(-56.304 -270.889)" fill="#150d43"/>
      <path id="Path_1092" data-name="Path 1092" d="M57.816,426.054c0,.821.012,1.7.051,2.646a5.153,5.153,0,0,0,.5.345c4.267,2.578,12.907-3.11,17.825-6.317,1.468-.969,1.785-2.216.425-2.918-.663-.221-1.53-.646-2.233-.294a3.678,3.678,0,0,1-2.929.09c-.578,2.08-1.071,3.711-1.4,4.7-3.5,3.473-8.879,4.437-11.332,2.737A2.957,2.957,0,0,1,57.816,426.054Z" transform="translate(-56.423 -286.024)" fill="#1b181a"/>
      <path id="Path_1093" data-name="Path 1093" d="M74.16,275.627a4.661,4.661,0,0,0-.719.136.849.849,0,0,0-.255.074,4.108,4.108,0,0,0-.935.465H72.2a.6.6,0,0,1-.051.056.263.263,0,0,0-.068.051c-1.134,1.275.328,2.646,2.266,3.78a4.608,4.608,0,0,0,.482.278q.879.469,1.8.85A16.751,16.751,0,0,0,79.6,282.33l1.179.176h0c.4.051.782.119,1.161.159a22.524,22.524,0,0,0,3.49.221h.754a20.867,20.867,0,0,0,2.532-.334c-.459-.306-.923-.589-1.388-.872h0a1.475,1.475,0,0,0-.17-.12l-.062-.039a5.959,5.959,0,0,0-.567-.351c-.221-.125-.43-.261-.64-.4h0c-.306-.181-.59-.357-.873-.538l-.192-.125V280l-1.558-1.134a15.3,15.3,0,0,0-2.527-1.348,23.389,23.389,0,0,0-2.221-.838c-.159-.068-.323-.108-.476-.159s-.311-.108-.459-.147l-.567-.17A8.939,8.939,0,0,0,74.16,275.627Z" transform="translate(-59.655 -252.521)" fill="#140f4b"/>
      <path id="Path_1094" data-name="Path 1094" d="M70.291,406.417c.329-.992.833-2.624,1.4-4.7,2.351-8.431,6.3-24.115,8.528-33.475-.861-3.434-1.479-6.4-1.853-8.856-.923-.476-1.808-.992-2.674-1.507,1.552-4.415.306-10.76-.663-15.1v-.193a27.957,27.957,0,0,1-.675,6.827c-.5,1.864-.9,4.494-1.887,6.318-1.054-.686-2.124-1.383-3.2-2.108L59,409.148C61.452,410.87,66.835,409.884,70.291,406.417Z" transform="translate(-56.699 -268.126)" fill="#0a012e"/>
      <path id="Path_1095" data-name="Path 1095" d="M58.382,429.2a5.153,5.153,0,0,1-.5-.346c.034.692.085,1.411.159,2.137a.592.592,0,0,0,0,.147h0c.074.271.4.878,1.853,1.133,1.909.34,4.742-.992,4.742-.992a10.178,10.178,0,0,0,1.547-.566c.4-.782,2.726-3.089,2.884-1.349a51.355,51.355,0,0,0,8.459-5.139,7.692,7.692,0,0,0,.148-3.236h0a1.287,1.287,0,0,0-1.055-1.048c1.36.7,1.043,1.95-.425,2.918C71.278,426.065,62.637,431.754,58.382,429.2Z" transform="translate(-56.439 -286.154)"/>
      <path id="Path_1096" data-name="Path 1096" d="M80.088,251.982c.051-.159.124-.3.164-.443a5.016,5.016,0,0,0,.266-.833,6.277,6.277,0,0,0-.045-5.043,2.153,2.153,0,0,1-.873,2.1,3.555,3.555,0,0,0-.969-2.266c.271.918-.284,1.286-1.032,1.445a9.5,9.5,0,0,0-3.581-1.088c-4.34-.459-9.406,1.519-11.774,5.151h0c-1.972,3.059-2.793,7.337-.612,9.694a75.41,75.41,0,0,0,7.5,7.026,4.988,4.988,0,0,1,1.644,1.031,4.6,4.6,0,0,1,.719-.136,8.94,8.94,0,0,1,2.884.566c.419-.039.85-.084,1.275-.084-.1.136-.193.266-.278.4.159.051.318.091.476.159,1.632-.034,3.519-.918,3.717-2.477l.034-.039c.08-1.247.04-2.884.153-4.017v-.068l.079-.062h0c-.708-.737-1.326-2.062-1.841-2.7-.992-1.213.561-2.1,1.275-1.779a30.922,30.922,0,0,1,1.535,3.026,1.457,1.457,0,0,0,.1-.142c.159-.221.306-.459.453-.68a.727.727,0,0,0,.1-.169,8,8,0,0,1-.833-3.179c-.074-.992-.011-1.858-.108-2.487a19.732,19.732,0,0,0-.482-2.884Z" transform="translate(-57.011 -245.5)"/>
      <path id="Path_1097" data-name="Path 1097" d="M87.112,272.111c-.278-1-.578-2.1-.844-3.071-.051-.182-.1-.341-.159-.5a.951.951,0,0,1-.113.1c-.51.419-1,.2-1.456-.294h0c-.023.034-.08.074-.08.113-.113,1.127-.074,2.77-.153,4.017a.04.04,0,0,0-.035.039c-.2,1.558-2.085,2.443-3.717,2.477q1.131.364,2.221.838a15.308,15.308,0,0,1,2.527,1.349l1.558,1.133c-.012-.624.012-1.666.045-2.8.017-1.043.074-2.182.074-3.2v-.028a1.171,1.171,0,0,1,.232-.244.207.207,0,0,0-.074.045Z" transform="translate(-61.723 -250.824)" fill="#fff"/>
      <path id="Path_1098" data-name="Path 1098" d="M65.32,325.322c.136,3.473-.42,7.241-1.938,9.848.759.674,1.542,1.292,2.425,1.955s1.819,1.32,2.737,1.937c1.076.725,2.147,1.423,3.2,2.108.992-1.825,1.388-4.454,1.887-6.318a27.918,27.918,0,0,0,.674-6.827v.193c.969,4.335,2.216,10.686.663,15.1.867.515,1.751,1.031,2.675,1.507a22.692,22.692,0,0,0,5.932,2.17,12.981,12.981,0,0,0,3.9.2,78.434,78.434,0,0,0,.992-11.774c0-2.9.243-6.38.1-9.751a22.312,22.312,0,0,0-1.337-7.446v-.051c-.114-.278-.232-.538-.357-.8l.062.028a18.481,18.481,0,0,1-1.031-5.632,33.04,33.04,0,0,1,2.147-12.125c.114-.324.244-.669.368-1a2.832,2.832,0,0,1,0-.442,7.709,7.709,0,0,1,.85-3.139c-.391-.147-.81-.306-1.229-.476-.674-.272-1.405-.545-2.142-.839-.345-.136-.713-.278-1.071-.425-1.53-.606-3.128-1.252-4.686-1.892-2.634-1.043-5.15-2.063-6.986-2.833-.821-.323-1.5-.612-2.011-.821a132.646,132.646,0,0,1-14.131-7.542c-.074.1-.137.193-.2.289-1.581,6.771-.946,15.86,2.641,22.228C61.626,310.171,63.524,317.792,65.32,325.322Z" transform="translate(-56 -253.596)" fill="url(#linear-gradient-3)"/>
      <path id="Path_1099" data-name="Path 1099" d="M84.287,364.5c.374,2.453.992,5.423,1.853,8.857.651,2.566,1.433,5.411,2.351,8.5,1.127,3.746,4.181,13.814,4.357,14.415-.1-.125-.209,6.4,2.057,18.386.759,4,1.422,7.6,1.937,10.669s.861,5.462,1,7.032a6.094,6.094,0,0,0,.374,3.4,2.835,2.835,0,0,0,1.751,1.473l-9.751-70.576A22.678,22.678,0,0,1,84.287,364.5Z" transform="translate(-62.592 -273.234)" fill="#10063a"/>
      <path id="Path_1100" data-name="Path 1100" d="M102.439,455.512c0,1.008.011,2.1.067,3.275a4.217,4.217,0,0,0,1.955.918c4.4.9,11.321-3.763,16.007-6.3a3.853,3.853,0,0,0,2.034-2.567h0v-.255a.993.993,0,0,0-.567-.749,4.416,4.416,0,0,0-2.068-.617c-1.032-.045-.726.629-1.513.686-1.224.125-1.338.442-2.624.272-1.473,3.779-8.045,7.881-11.53,6.8A2.832,2.832,0,0,1,102.439,455.512Z" transform="translate(-66.823 -292.977)" fill="#1b181a"/>
      <path id="Path_1101" data-name="Path 1101" d="M113.269,429.689a.241.241,0,0,0,.045-.085,26.255,26.255,0,0,1-.878-4.89.072.072,0,0,1,0-.051c-.062-.6-.124-1.275-.176-2.012-1.841-19.859-3.275-39.583-5.043-59.414-.057-.624-.107-1.252-.159-1.875a13.87,13.87,0,0,1-1.331.917,43.846,43.846,0,0,1-7.366,3.276,10.547,10.547,0,0,1-2.437.566,12.951,12.951,0,0,1-3.9-.2l9.751,70.576C105.258,437.582,111.831,433.486,113.269,429.689Z" transform="translate(-64.395 -272.502)" fill="#150d43"/>
      <path id="Path_1102" data-name="Path 1102" d="M104.556,460.2a4.222,4.222,0,0,1-1.955-.917c.028.7.074,1.41.147,2.136q0,.079,0,.159c.063.278.391.889,1.848,1.133,1.943.334,4.737-.98,4.737-.98a9.691,9.691,0,0,0,1.134-.391c.5-.821,2.8-3.139,3.008-1.337,1.655-.776,3.536-1.746,5.2-2.714a18.691,18.691,0,0,0,3.876-2.753c0-.884.034-2.369,0-3.219a3.865,3.865,0,0,1-2.035,2.567C115.832,456.422,108.913,461.078,104.556,460.2Z" transform="translate(-66.861 -293.466)"/>
      <path id="Path_1103" data-name="Path 1103" d="M88.092,269.481l.4,3.241c2.431-1.621,2.431-2.431,2.431-2.431Z" transform="translate(-63.479 -251.089)" fill="#fff"/>
    </g>
  </g>
</svg>
