<svg xmlns="http://www.w3.org/2000/svg" xmlns:xlink="http://www.w3.org/1999/xlink" width="47.533" height="47.865" viewBox="0 0 47.533 47.865"><defs><linearGradient id="a" y1="0.5" x2="1" y2="0.5" gradientUnits="objectBoundingBox"><stop offset="0" stop-color="#3bd0ac"/><stop offset="1" stop-color="#238e98"/></linearGradient></defs><g transform="translate(-22.308 -21.939)"><g transform="translate(22.308 21.939)"><path d="M61.128,52.392a8.682,8.682,0,0,0-6.82,3.342l-14.83-7.582a8.654,8.654,0,0,0,.334-2.255,8.457,8.457,0,0,0-.4-2.445L54.159,35.9a9.19,9.19,0,1,0-1.443-2.972L37.895,40.516a8.724,8.724,0,1,0,.126,10.6l14.754,7.546a8.7,8.7,0,1,0,8.353-6.274Z" transform="translate(-22.308 -21.939)" fill="url(#a)"/></g></g></svg>