<svg xmlns="http://www.w3.org/2000/svg" viewBox="0 0 213.82 80"><defs><style>.cls-1{fill:#57c701;}.cls-2{fill:#fff;}</style></defs><title>KoiPayments SSL Secure</title><g id="Layer_2" data-name="Layer 2"><g id="Layer_1-2" data-name="Layer 1"><path class="cls-1" d="M211.77,19.5H74.35a40,40,0,1,0-1.28,43h138.7a2.05,2.05,0,0,0,2-2V21.55A2.05,2.05,0,0,0,211.77,19.5Z"/><path class="cls-2" d="M52.71,36.29H52V32.78A12,12,0,0,0,40.35,20.72h-.7A12,12,0,0,0,28,32.78v3.51h-.75A2.45,2.45,0,0,0,25.18,39V56.6a2.46,2.46,0,0,0,2.11,2.68H52.71a2.46,2.46,0,0,0,2.11-2.68V39A2.45,2.45,0,0,0,52.71,36.29ZM42.38,47.76v5.33a1.14,1.14,0,0,1-1.12,1.13H38.74a1.14,1.14,0,0,1-1.12-1.13V47.76a3.22,3.22,0,0,1,2-5.49h.7a3.22,3.22,0,0,1,2,5.49ZM47,36.29H33V32.78a7,7,0,1,1,14,0v3.51Z"/><path class="cls-2" d="M81.74,45.24a6.64,6.64,0,0,0,3.51,1c2,0,3.19-1.07,3.19-2.66s-.83-2.3-2.88-3.09c-2.48-.91-4-2.25-4-4.43,0-2.44,2-4.24,4.93-4.24a6.78,6.78,0,0,1,3.35.75l-.55,1.66a5.57,5.57,0,0,0-2.87-.75c-2.09,0-2.88,1.28-2.88,2.34,0,1.45.93,2.17,3,3,2.58,1,3.88,2.32,3.88,4.61S88.71,48,85.11,48a7.64,7.64,0,0,1-3.89-1Z"/><path class="cls-2" d="M92.86,45.24a6.67,6.67,0,0,0,3.51,1c2,0,3.19-1.07,3.19-2.66s-.83-2.3-2.88-3.09c-2.48-.91-4-2.25-4-4.43,0-2.44,2-4.24,4.93-4.24a6.85,6.85,0,0,1,3.36.75l-.55,1.66a5.64,5.64,0,0,0-2.87-.75c-2.09,0-2.88,1.28-2.88,2.34,0,1.45.92,2.17,3,3,2.58,1,3.88,2.32,3.88,4.61S99.83,48,96.23,48a7.67,7.67,0,0,1-3.89-1Z"/><path class="cls-2" d="M104.23,32.07h2V46h6.5v1.7h-8.48Z"/><path class="cls-2" d="M119.42,45.24a6.69,6.69,0,0,0,3.51,1c2,0,3.2-1.07,3.2-2.66s-.83-2.3-2.88-3.09c-2.48-.91-4-2.25-4-4.43,0-2.44,2-4.24,4.93-4.24a6.78,6.78,0,0,1,3.35.75L127,34.24a5.57,5.57,0,0,0-2.87-.75c-2.09,0-2.88,1.28-2.88,2.34,0,1.45.93,2.17,3,3,2.58,1,3.88,2.32,3.88,4.61S126.4,48,122.8,48a7.64,7.64,0,0,1-3.89-1Z"/><path class="cls-2" d="M132,42.46c0,2.76,1.74,3.9,3.74,3.9a7.21,7.21,0,0,0,3-.58l.35,1.45a8.57,8.57,0,0,1-3.65.72c-3.35,0-5.37-2.3-5.37-5.67s1.95-6.05,5.14-6.05c3.56,0,4.49,3.21,4.49,5.28a4.59,4.59,0,0,1-.07,1ZM137.8,41c0-1.28-.51-3.3-2.74-3.3-2,0-2.89,1.88-3.05,3.3Z"/><path class="cls-2" d="M150,47.3a7.38,7.38,0,0,1-3.13.65c-3.29,0-5.45-2.31-5.45-5.74a5.65,5.65,0,0,1,5.87-6,6.32,6.32,0,0,1,2.76.6l-.45,1.57a4.63,4.63,0,0,0-2.32-.54c-2.49,0-3.85,1.92-3.85,4.25,0,2.6,1.63,4.19,3.81,4.19a5.67,5.67,0,0,0,2.43-.54Z"/><path class="cls-2" d="M161.44,44.63c0,1.18,0,2.18.09,3.07h-1.75l-.11-1.83h-.06A4.05,4.05,0,0,1,156,48c-1.71,0-3.76-1-3.76-4.92V36.49h2v6.19c0,2.14.65,3.59,2.44,3.59a2.87,2.87,0,0,0,2.62-1.87,3,3,0,0,0,.18-1V36.49h2Z"/><path class="cls-2" d="M164.74,40c0-1.33,0-2.45-.09-3.49h1.74l.07,2.2h.07a3.33,3.33,0,0,1,3-2.46,1.89,1.89,0,0,1,.55.06v1.92a2.69,2.69,0,0,0-.67-.06,2.81,2.81,0,0,0-2.66,2.61,5.61,5.61,0,0,0-.08,1v6h-2Z"/><path class="cls-2" d="M173,42.46c0,2.76,1.74,3.9,3.73,3.9a7.26,7.26,0,0,0,3-.58l.34,1.45a8.48,8.48,0,0,1-3.64.72c-3.35,0-5.37-2.3-5.37-5.67s2-6.05,5.14-6.05c3.56,0,4.49,3.21,4.49,5.28a4.59,4.59,0,0,1-.07,1ZM178.82,41c0-1.28-.51-3.3-2.74-3.3-2,0-2.89,1.88-3.05,3.3Z"/><path class="cls-2" d="M192.63,31.23V44.81c0,1,0,2.12.09,2.89H191l-.1-1.94h0a4,4,0,0,1-3.7,2.2c-2.65,0-4.69-2.3-4.69-5.7,0-3.75,2.25-6,4.91-6a3.63,3.63,0,0,1,3.29,1.7h0v-6.7Zm-2,9.82a4.21,4.21,0,0,0-.08-.87,3,3,0,0,0-2.87-2.35c-2.06,0-3.29,1.85-3.29,4.32,0,2.28,1.11,4.17,3.25,4.17a3,3,0,0,0,2.9-2.45,3.5,3.5,0,0,0,.09-.88Z"/></g></g></svg>