<svg xmlns="http://www.w3.org/2000/svg" xmlns:xlink="http://www.w3.org/1999/xlink" width="691.014" height="413" viewBox="0 0 691.014 413">
  <defs>
    <linearGradient id="linear-gradient" y1="0.5" x2="1" y2="0.5" gradientUnits="objectBoundingBox">
      <stop offset="0" stop-color="#54ffdd"/>
      <stop offset="1" stop-color="#464780"/>
    </linearGradient>
    <filter id="Rectangle_386" x="5.014" y="27" width="674" height="386" filterUnits="userSpaceOnUse">
      <feOffset dy="10" input="SourceAlpha"/>
      <feGaussianBlur stdDeviation="15" result="blur"/>
      <feFlood flood-color="#222223" flood-opacity="0.161"/>
      <feComposite operator="in" in2="blur"/>
      <feComposite in="SourceGraphic"/>
    </filter>
    <linearGradient id="linear-gradient-2" y1="0.5" x2="1" y2="0.5" gradientUnits="objectBoundingBox">
      <stop offset="0" stop-color="#5458ff"/>
      <stop offset="1" stop-color="#c26aae"/>
    </linearGradient>
    <linearGradient id="linear-gradient-3" x1="0.261" y1="0.901" x2="1.216" y2="0.366" gradientUnits="objectBoundingBox">
      <stop offset="0" stop-color="#daff54"/>
      <stop offset="1" stop-color="#c7ba6d"/>
    </linearGradient>
  </defs>
  <g id="txt-3" transform="translate(-962.986 -1895)">
    <g id="Group_638" data-name="Group 638" transform="translate(438.986 1578.709)">
      <circle id="Ellipse_22" data-name="Ellipse 22" cx="8.494" cy="8.494" r="8.494" transform="translate(524 328.291)" fill="#f2f2f2"/>
      <circle id="Ellipse_23" data-name="Ellipse 23" cx="8.494" cy="8.494" r="8.494" transform="translate(553.506 328.291)" fill="#f2f2f2"/>
      <circle id="Ellipse_24" data-name="Ellipse 24" cx="8.494" cy="8.494" r="8.494" transform="translate(583.013 328.291)" fill="#f2f2f2"/>
      <circle id="Ellipse_25" data-name="Ellipse 25" cx="8.494" cy="8.494" r="8.494" transform="translate(612.519 328.291)" fill="#f2f2f2"/>
      <circle id="Ellipse_26" data-name="Ellipse 26" cx="8.494" cy="8.494" r="8.494" transform="translate(642.025 328.291)" fill="#f2f2f2"/>
      <circle id="Ellipse_27" data-name="Ellipse 27" cx="8.494" cy="8.494" r="8.494" transform="translate(524 358.692)" fill="#f2f2f2"/>
      <circle id="Ellipse_28" data-name="Ellipse 28" cx="8.494" cy="8.494" r="8.494" transform="translate(553.506 358.692)" fill="#f2f2f2"/>
      <circle id="Ellipse_29" data-name="Ellipse 29" cx="8.494" cy="8.494" r="8.494" transform="translate(583.013 358.692)" fill="#f2f2f2"/>
      <circle id="Ellipse_30" data-name="Ellipse 30" cx="8.494" cy="8.494" r="8.494" transform="translate(612.519 358.692)" fill="#f2f2f2"/>
      <circle id="Ellipse_31" data-name="Ellipse 31" cx="8.494" cy="8.494" r="8.494" transform="translate(642.025 358.692)" fill="#f2f2f2"/>
      <circle id="Ellipse_32" data-name="Ellipse 32" cx="8.494" cy="8.494" r="8.494" transform="translate(524 389.092)" fill="#f2f2f2"/>
      <circle id="Ellipse_33" data-name="Ellipse 33" cx="8.494" cy="8.494" r="8.494" transform="translate(553.506 389.092)" fill="#f2f2f2"/>
      <circle id="Ellipse_34" data-name="Ellipse 34" cx="8.494" cy="8.494" r="8.494" transform="translate(583.013 389.092)" fill="#f2f2f2"/>
      <circle id="Ellipse_35" data-name="Ellipse 35" cx="8.494" cy="8.494" r="8.494" transform="translate(612.519 389.092)" fill="#f2f2f2"/>
      <circle id="Ellipse_36" data-name="Ellipse 36" cx="8.494" cy="8.494" r="8.494" transform="translate(642.025 389.092)" fill="#f2f2f2"/>
    </g>
    <circle id="Ellipse_20" data-name="Ellipse 20" cx="78.5" cy="78.5" r="78.5" transform="translate(1497 1895)" fill="url(#linear-gradient)"/>
    <rect id="Rectangle_384" data-name="Rectangle 384" width="189" height="189" rx="69" transform="translate(963 2117)" fill="#f6f8ff" opacity="0.51"/>
    <g transform="matrix(1, 0, 0, 1, 962.99, 1895)" filter="url(#Rectangle_386)">
      <rect id="Rectangle_386-2" data-name="Rectangle 386" width="584" height="296" rx="30" transform="translate(50.01 62)" fill="#fff"/>
    </g>
    <text id="Unique_identification_for_settlement_transaction_for_e.g._sel_366135" data-name="Unique identification for 
settlement transaction, 
for e.g. sel_366135" transform="translate(1063 2068)" fill="#2b3656" font-size="36" font-family="Muli-Bold, Muli" font-weight="700"><tspan x="0" y="0">Unique identification for </tspan><tspan x="0" y="45">settlement transaction, </tspan><tspan x="0" y="90">for e.g. sel_366135</tspan></text>
    <circle id="Ellipse_21" data-name="Ellipse 21" cx="33.5" cy="33.5" r="33.5" transform="translate(1463.5 2219.5)" fill="url(#linear-gradient-2)"/>
    <g id="Group_637" data-name="Group 637" transform="translate(-148.641 1456.88) rotate(-8)">
      <path id="Path_716" data-name="Path 716" d="M1338.87,738.657l-92-48.333,87.857-55.508Zm-72.015-49.13,61.333,32.222-2.761-69.228Z" fill="url(#linear-gradient-3)"/>
    </g>
  </g>
</svg>
