<svg id="Layer_1" data-name="Layer 1" xmlns="http://www.w3.org/2000/svg" width="60" height="60" viewBox="0 0 60 60"><defs><style>.cls-1{fill:#ff9812;}</style></defs><title>webhooks</title><g id="webhooks"><g id="Group_303" data-name="Group 303"><g id="Group_302" data-name="Group 302"><path id="Path_193" data-name="Path 193" class="cls-1" d="M54.87,2.07A42,42,0,0,0,41.06,0a42,42,0,0,0-13.8,2.06c-3.21,1.16-5.12,2.67-5.12,4.05S24.05,9,27.26,10.17h0a42.23,42.23,0,0,0,13.8,2.06,42,42,0,0,0,13.81-2.06C58.08,9,60,7.49,60,6.12S58.07,3.23,54.87,2.07Z"/></g></g><g id="Group_305" data-name="Group 305"><g id="Group_304" data-name="Group 304"><path id="Path_194" data-name="Path 194" class="cls-1" d="M41.06,42.08c-7.41,0-15.18-1.53-18.93-4.43v9.88c0,1.37,1.92,2.89,5.12,4a42.35,42.35,0,0,0,13.82,2.06,50.47,50.47,0,0,0,9.18-.82C56,51.71,60,49.54,60,47.52V37.65C56.24,40.55,48.48,42.08,41.06,42.08Zm3.33,6.71H37.74a1.16,1.16,0,0,1-.07-2.31h6.72a1.16,1.16,0,1,1,.06,2.31Z"/></g></g><g id="Group_307" data-name="Group 307"><g id="Group_306" data-name="Group 306"><path id="Path_195" data-name="Path 195" class="cls-1" d="M41.06,28.31c-7.41,0-15.18-1.53-18.93-4.43v9.78c0,1.38,1.92,2.89,5.12,4.05a42.35,42.35,0,0,0,13.82,2.06,42.33,42.33,0,0,0,13.81-2.06C58.08,36.55,60,35,60,33.66V23.88C56.24,26.78,48.48,28.31,41.06,28.31Zm3.33,6.46H37.74a1.16,1.16,0,0,1,0-2.31h6.65a1.16,1.16,0,0,1,0,2.31Z"/></g></g><g id="Group_309" data-name="Group 309"><g id="Group_308" data-name="Group 308"><path id="Path_196" data-name="Path 196" class="cls-1" d="M41.06,14.54c-7.41,0-15.18-1.53-18.93-4.43v9.78c0,1.38,1.92,2.89,5.12,4.05A42.09,42.09,0,0,0,41.07,26a42.07,42.07,0,0,0,13.81-2.06c3.2-1.16,5.12-2.67,5.12-4.05V10.11C56.24,13,48.48,14.54,41.06,14.54Zm3.33,6.64H37.74a1.16,1.16,0,0,1-.07-2.31h6.72a1.16,1.16,0,1,1,.06,2.31A.06.06,0,0,1,44.39,21.18Z"/></g></g></g></svg>