<svg xmlns="http://www.w3.org/2000/svg" width="200" height="120" viewBox="0 0 200 120">
  <g id="whmcs" transform="translate(-1452 -1666)">
    <rect id="Rectangle_289" data-name="Rectangle 289" width="200" height="120" transform="translate(1452 1666)" fill="none"/>
    <g id="Group_87" data-name="Group 87" transform="translate(627.01 1111)">
      <path id="Path_842" data-name="Path 842" d="M1006.921,624.637a8.139,8.139,0,1,1,7.519-11.265h5.425c-.11-.441-.22-.853-.357-1.267l3.139-2.837-1.543-2.727-4.186,1.157a12,12,0,0,0-1.184-1.184l1.267-3.966-2.7-1.625-3.194,2.891a12.3,12.3,0,0,0-1.653-.441l-.991-4.048-3.139-.055-1.075,4.131a13.553,13.553,0,0,0-1.735.468l-2.947-3.057-2.754,1.514,1.156,4.242a14.729,14.729,0,0,0-1.129,1.129l-4.186-1.157L991,609.214l3.167,3.085a10.461,10.461,0,0,0-.414,1.6l-4.1,1.156-.083,3.14,4.214,1.129a11.7,11.7,0,0,0,.468,1.68l-3.223,2.781,1.487,2.754,4.352-1.184a9.888,9.888,0,0,0,1.074,1.074l-1.019,4.352,2.671,1.514,3.167-3.084a12.72,12.72,0,0,0,1.46.385l1.019,4.269h3.14l1.046-4.269a16.664,16.664,0,0,0,1.681-.441l2.891,3.112,2.782-1.543-1.157-4.131a12.962,12.962,0,0,0,1.239-1.212l4.048,1.212,1.6-2.7-2.534-2.479H1013.5a8.165,8.165,0,0,1-6.582,3.223Z" transform="translate(-37.002 -0.82)" fill="#7abf42"/>
      <path id="Path_843" data-name="Path 843" d="M841.99,601.55h5.949l7.464,23.41,7.574-23.52h4.847l7.6,23.52,7.464-23.41h5.756l-10.163,31.81h-5.729l-7.436-22.694-7.051,22.694h-5.894Z" transform="translate(0 -1.364)" fill="#043855"/>
      <path id="Path_844" data-name="Path 844" d="M907.859,601.587h5.4v13.137h13.771V601.587h5.4v31.59h-5.4v-13.33H913.257v13.33h-5.4Z" transform="translate(-16.515 -1.401)" fill="#043855"/>
      <path id="Path_845" data-name="Path 845" d="M945.572,601.587H951.8l9.2,13.165,9.226-13.165h6.472v31.59h-5.866v-23.41l-9.75,14.129-10-14.046v23.327h-5.508Z" transform="translate(-25.971 -1.401)" fill="#043855"/>
      <path id="Path_846" data-name="Path 846" d="M1033.753,624.951v5.922a23.283,23.283,0,0,0,10.135,2.616c5.371,0,11.457-2.644,11.457-8.9s-3.828-8.841-9.529-10.356-6.693-2.561-6.693-4.3c0-1.515,1.185-3.856,6.5-3.856a11.926,11.926,0,0,1,7.656,2.7v-5.7a23.2,23.2,0,0,0-8.455-2.121c-4.021,0-11.071.937-11.071,9.475,0,11.209,15.726,6.747,15.726,13.908,0,2.892-2.754,3.856-6.693,3.8C1038.434,628.09,1033.753,624.951,1033.753,624.951Z" transform="translate(-48.08 -1.244)" fill="#043855"/>
      <path id="Path_847" data-name="Path 847" d="M1021.465,601.756a5.288,5.288,0,1,0,5.315,5.288,5.313,5.313,0,0,0-5.315-5.288Zm8.51,7.051a6.822,6.822,0,0,1-.3,1.075l1.956,1.928-1.047,1.762-2.616-.8a11.017,11.017,0,0,1-.8.8l.716,2.672-1.763,1.019-1.872-2.011c-.358.11-.716.22-1.1.3l-.689,2.781h-2.038l-.633-2.781a6.269,6.269,0,0,1-.964-.248l-2.038,2.01-1.734-.964.661-2.81a8.737,8.737,0,0,1-.716-.716l-2.809.771-.909-1.735,2.093-1.818a7.25,7.25,0,0,1-.3-1.1l-2.727-.716.055-2.038,2.643-.716a7.4,7.4,0,0,1,.276-1.047l-2.066-1.983,1.074-1.735,2.7.716a8.855,8.855,0,0,1,.716-.716l-.716-2.754,1.79-.964,1.928,1.983a7.627,7.627,0,0,1,1.129-.3l.716-2.671,2.038.055.633,2.643c.358.082.716.166,1.074.276l2.066-1.9,1.762,1.046-.827,2.589a10.142,10.142,0,0,1,.772.772l2.7-.772.991,1.791-2.038,1.845a10.237,10.237,0,0,1,.33,1.24l2.782.716v2.038l-2.782.606Z" transform="translate(-42.21)" fill="#d8dadb"/>
    </g>
  </g>
</svg>
