<svg xmlns="http://www.w3.org/2000/svg" xmlns:xlink="http://www.w3.org/1999/xlink" width="47.533" height="60.498" viewBox="0 0 47.533 60.498"><defs><linearGradient id="a" y1="0.5" x2="1" y2="0.5" gradientUnits="objectBoundingBox"><stop offset="0" stop-color="#ed0789"/><stop offset="1" stop-color="#fc6668"/></linearGradient></defs><g transform="translate(-32.93 -21.455)"><g transform="translate(32.93 21.455)"><path d="M67.5,30.1V25.777a4.333,4.333,0,0,0-4.322-4.322H37.252a4.333,4.333,0,0,0-4.322,4.322V77.631a4.338,4.338,0,0,0,4.322,4.322H63.176A4.338,4.338,0,0,0,67.5,77.631V60.344H63.176v8.643H37.252V25.777H63.176V30.1ZM48.053,73.309h4.322v4.322H48.053Z" transform="translate(-32.93 -21.455)" fill="url(#a)"/><path d="M87.788,44.455H64.022a4.316,4.316,0,0,0-4.322,4.31V61.708a4.316,4.316,0,0,0,4.31,4.322H87.788a4.316,4.316,0,0,0,4.322-4.31V48.748A4.316,4.316,0,0,0,87.788,44.455ZM68.343,61.708H64.022V59.55h4.322Zm0-8.638H64.022V48.748h4.322Zm6.48,8.638H70.5V59.55h4.322Zm6.485,0H76.987V59.55H81.3Zm6.48,0H83.466V59.55h4.322Z" transform="translate(-44.577 -31.462)" fill="url(#a)"/></g></g></svg>