<svg xmlns="http://www.w3.org/2000/svg" width="200" height="120" viewBox="0 0 200 120">
  <g id="woo" transform="translate(-1095 -1630)">
    <rect id="Rectangle_288" data-name="Rectangle 288" width="200" height="120" transform="translate(1095 1630)" fill="none"/>
    <g id="Group_98" data-name="Group 98" transform="translate(-556.448 1086.674)">
      <path id="Path_922" data-name="Path 922" d="M1815.341,556.78H1687.555a14.658,14.658,0,0,0-14.659,14.659v48.115a14.659,14.659,0,0,0,14.659,14.658h60.814l26.953,15.66-5.383-15.66h45.4A14.658,14.658,0,0,0,1830,619.554V571.439A14.658,14.658,0,0,0,1815.341,556.78Z" fill="#9c5a90"/>
      <g id="Group_97" data-name="Group 97">
        <path id="Path_923" data-name="Path 923" d="M1695.743,626.9h-.064a5.392,5.392,0,0,1-4.394-2.359c-1.565-2.3-3.859-7.608-7.74-28.386-2.08-11.137-3.644-21.625-3.659-21.729a5.391,5.391,0,0,1,10.665-1.585c.015.1,1.543,10.35,3.577,21.252,1.175,6.3,2.18,10.995,3.015,14.49,5.084-9.368,11.289-21.967,14.02-27.656a5.392,5.392,0,0,1,10.138,1.233,136.811,136.811,0,0,0,6.492,21.234c1.212-11.475,3.557-26.038,8.029-35.205a5.391,5.391,0,0,1,9.691,4.728c-7.11,14.575-8.175,47.777-8.185,48.111a5.392,5.392,0,0,1-9.2,3.652c-4.83-4.83-9.233-13.154-13.088-24.741q-.249-.751-.486-1.487c-4.726,9.406-10.938,21.323-14.426,26.2A5.393,5.393,0,0,1,1695.743,626.9Z" fill="#fff"/>
        <path id="Path_924" data-name="Path 924" d="M1779.435,581.4a17.181,17.181,0,0,0-11.139-9.115c-5.747-1.595-11.972.527-16.655,5.683-5.559,6.106-9.614,17.552-4.329,31.344,3.62,9.453,9.313,11.187,12.992,11.187.4,0,.768-.021,1.112-.053,9.791-.929,18.014-13.884,19.6-22.767C1782.153,591.316,1781.621,585.838,1779.435,581.4Zm-9.034,14.383a24.355,24.355,0,0,1-4.43,9.356c-2.256,2.991-4.469,4.469-5.57,4.57-.671.065-1.917-1.375-3.018-4.254-2.213-5.768-2.954-14.533,2.234-20.237a7.121,7.121,0,0,1,4.893-2.664,3.275,3.275,0,0,1,.9.118C1771.18,584.28,1771.309,590.688,1770.4,595.785Z" fill="#fff"/>
        <path id="Path_925" data-name="Path 925" d="M1819.486,581.4a17.253,17.253,0,0,0-4.522-5.742,18.118,18.118,0,0,0-6.623-3.373c-5.741-1.595-11.966.527-16.655,5.683-5.553,6.106-9.608,17.552-4.329,31.344,3.62,9.453,9.313,11.187,12.992,11.187.4,0,.774-.021,1.117-.053,9.786-.929,18.009-13.884,19.593-22.767C1822.2,591.316,1821.666,585.838,1819.486,581.4Zm-9.04,14.383a24.324,24.324,0,0,1-4.425,9.356c-2.261,2.991-4.474,4.469-5.575,4.57-.666.065-1.917-1.375-3.018-4.254-2.208-5.768-2.949-14.533,2.234-20.237a7.141,7.141,0,0,1,4.893-2.664,3.338,3.338,0,0,1,.9.118C1811.231,584.28,1811.354,590.688,1810.446,595.785Z" fill="#fff"/>
      </g>
    </g>
  </g>
</svg>
