<svg xmlns="http://www.w3.org/2000/svg" width="200" height="120" viewBox="0 0 200 120">
  <g id="wordpress" transform="translate(-691 -1750)">
    <rect id="Rectangle_282" data-name="Rectangle 282" width="200" height="120" transform="translate(691 1750)" fill="none"/>
    <g id="Group_99" data-name="Group 99" transform="translate(-609.324 1193.76)">
      <path id="Path_926" data-name="Path 926" d="M1379.631,596.442h-5.712l15.574,44.026,8.719-24.917-6.76-19.109h-6.027v-4.2h26.692v4.2h-6.251l15.575,44.026,5.6-16c7.344-20.5-6.019-26.882-6.019-31.457a8.283,8.283,0,0,1,8.282-8.283c.248,0,.488.014.724.036a43.278,43.278,0,0,0-65.724,7.482h15.329v4.2Z" fill="#00769d"/>
      <path id="Path_927" data-name="Path 927" d="M1357.045,616.24a43.268,43.268,0,0,0,22.989,38.234L1360.5,599.265A43.129,43.129,0,0,0,1357.045,616.24Z" fill="#00769d"/>
      <path id="Path_928" data-name="Path 928" d="M1437.99,594.914a30.588,30.588,0,0,1-.519,11.854h.172l-.654,1.87h0a40.307,40.307,0,0,1-1.431,4.089l-14.891,41.719a43.3,43.3,0,0,0,17.323-59.532Z" fill="#00769d"/>
      <path id="Path_929" data-name="Path 929" d="M1386.977,657.418a43.473,43.473,0,0,0,26.112.186l-12.66-35.786Z" fill="#00769d"/>
      <path id="Path_930" data-name="Path 930" d="M1436.9,579.665a51.725,51.725,0,1,0,15.15,36.575A51.389,51.389,0,0,0,1436.9,579.665Zm-36.575,84.651A48.076,48.076,0,1,1,1448.4,616.24,48.13,48.13,0,0,1,1400.324,664.316Z" fill="#00769d"/>
    </g>
  </g>
</svg>
